M48
INCH,TZ
T1C0.015
T2C0.016
T3C0.030
T4C0.040
%
G90
G05
T1
X50700Y-31200
X50700Y-34200
X50700Y-35200
X50800Y-42400
X50800Y-43200
X52100Y-31200
X52100Y-34200
X52100Y-35200
X52100Y-35900
X52100Y-42400
X52100Y-43500
X52100Y-44700
X52100Y-45700
X52100Y-46700
X52100Y-47600
X52100Y-49600
X52200Y-37000
X52200Y-38000
X52200Y-39000
X52200Y-40000
X52200Y-41000
X53000Y-45700
X53000Y-46700
X53000Y-47600
X53000Y-49600
X53300Y-36500
X54400Y-37700
X54400Y-41800
X54400Y-42600
X54400Y-44000
X54500Y-48100
X60300Y-31200
X60800Y-48200
X61900Y-48200
X62600Y-31200
X64200Y-48200
X64300Y-32900
X64300Y-33500
X64300Y-34200
X64300Y-34800
X64300Y-35300
X64300Y-36000
X64300Y-36800
X64300Y-38600
X64300Y-39000
X64300Y-39500
X64300Y-40500
X64300Y-41100
X64300Y-43300
X64300Y-44100
X64300Y-44900
X64300Y-45700
X64300Y-46400
X64800Y-31200
X65800Y-32900
X65800Y-33500
X65800Y-34200
X65800Y-34800
X65800Y-35400
X65800Y-36000
X65800Y-36800
X65800Y-37500
X65800Y-38600
X65800Y-39000
X65800Y-39500
X65800Y-40000
X65800Y-40500
X65800Y-41100
X65800Y-42500
X65800Y-43300
X65800Y-44100
X65800Y-44900
X65800Y-45700
X65800Y-46400
X66600Y-48700
X66700Y-31200
T2
X53850Y-46650
X54274Y-45995
X54300Y-36100
X54313Y-37051
X54417Y-41112
X55279Y-42716
X55700Y-43291
X61072Y-37324
X61072Y-42500
X61700Y-33000
X61700Y-33500
X61700Y-34000
X61700Y-35000
X61700Y-35500
X61700Y-38800
X61700Y-39300
X61700Y-39800
X61700Y-40800
X61700Y-41300
X61700Y-44000
X61700Y-44500
X61700Y-45000
X61700Y-46000
X61700Y-46500
X62050Y-34500
X62050Y-40300
X62050Y-45500
X65695Y-47102
T3
X51304Y-33150
X53804Y-33150
X64350Y-37504
X64350Y-40004
X64350Y-42504
T4
X50800Y-36500
X50800Y-37500
X50800Y-38500
X50800Y-39500
X50800Y-40500
X50800Y-41500
X50800Y-44200
X50800Y-45200
X50800Y-46200
X50800Y-47200
X50800Y-48200
X50800Y-49200
T0
M30
