G04 #@! TF.FileFunction,Soldermask,Bot*
%FSLAX46Y46*%
G04 Gerber Fmt 4.6, Leading zero omitted, Abs format (unit mm)*
G04 Created by KiCad (PCBNEW (2015-05-26 BZR 5684)-product) date Thu 13 Aug 2015 05:18:35 PM PDT*
%MOMM*%
G01*
G04 APERTURE LIST*
%ADD10C,0.100000*%
%ADD11C,0.508000*%
%ADD12R,2.032000X1.727200*%
%ADD13O,2.032000X1.727200*%
%ADD14C,1.600000*%
%ADD15R,7.620000X10.160000*%
%ADD16R,2.540000X0.700000*%
%ADD17R,6.197600X2.692400*%
%ADD18R,0.900000X0.500000*%
%ADD19C,0.254000*%
G04 APERTURE END LIST*
D10*
D11*
X167132000Y-85090000D03*
X167132000Y-83566000D03*
X163322000Y-83566000D03*
X163322000Y-85090000D03*
X163322000Y-86868000D03*
X163322000Y-88392000D03*
X163322000Y-89662000D03*
X163322000Y-91440000D03*
X163322000Y-93472000D03*
X167132000Y-86868000D03*
X167132000Y-88392000D03*
X167132000Y-89916000D03*
X167132000Y-91440000D03*
X167132000Y-93472000D03*
X167132000Y-95250000D03*
X163322000Y-100330000D03*
X163322000Y-99060000D03*
X163322000Y-98044000D03*
X167132000Y-98044000D03*
X167132000Y-99060000D03*
X167132000Y-100330000D03*
X167132000Y-101600000D03*
X167132000Y-102870000D03*
X163322000Y-102870000D03*
X163322000Y-104394000D03*
X167132000Y-104394000D03*
X167132000Y-114046000D03*
X167132000Y-116078000D03*
X167132000Y-117856000D03*
X163322000Y-117856000D03*
X163322000Y-116078000D03*
X163322000Y-114046000D03*
X167132000Y-112014000D03*
X163322000Y-112014000D03*
X163322000Y-109982000D03*
X167132000Y-109982000D03*
X167132000Y-107950000D03*
X138176000Y-111760000D03*
X138176000Y-95758000D03*
X132588000Y-93980000D03*
X132588000Y-96520000D03*
X132588000Y-99060000D03*
X132588000Y-101600000D03*
X132588000Y-104140000D03*
X135382000Y-92710000D03*
X132334000Y-79248000D03*
X128778000Y-79248000D03*
X159004000Y-79248000D03*
X164592000Y-79248000D03*
X169418000Y-79248000D03*
X153162000Y-79248000D03*
X138176000Y-106172000D03*
X138176000Y-108204000D03*
X129032000Y-109728000D03*
X129032000Y-107696000D03*
X132334000Y-107696000D03*
X132334000Y-110490000D03*
X132334000Y-120904000D03*
X134620000Y-120904000D03*
X134620000Y-116078000D03*
X132334000Y-116078000D03*
X154432000Y-122428000D03*
X157226000Y-122428000D03*
X163068000Y-122428000D03*
X169164000Y-123698000D03*
X132334000Y-125984000D03*
X138430000Y-122174000D03*
X134620000Y-125984000D03*
X132334000Y-113538000D03*
X134620000Y-118618000D03*
X132334000Y-118618000D03*
X132334000Y-91186000D03*
X128778000Y-89408000D03*
X132334000Y-89408000D03*
X132334000Y-86868000D03*
X128778000Y-86868000D03*
D12*
X129032000Y-92710000D03*
D13*
X129032000Y-95250000D03*
X129032000Y-97790000D03*
X129032000Y-100330000D03*
X129032000Y-102870000D03*
X129032000Y-105410000D03*
D12*
X129032000Y-112268000D03*
D13*
X129032000Y-114808000D03*
X129032000Y-117348000D03*
X129032000Y-119888000D03*
X129032000Y-122428000D03*
X129032000Y-124968000D03*
D14*
X163450000Y-107960000D03*
X163450000Y-101610000D03*
X163450000Y-95260000D03*
X136662000Y-84200000D03*
X130312000Y-84200000D03*
D15*
X157607000Y-87630000D03*
D16*
X148082000Y-91440000D03*
X148082000Y-90170000D03*
X148082000Y-88900000D03*
X148082000Y-86360000D03*
X148082000Y-85090000D03*
X148082000Y-83820000D03*
D15*
X157607000Y-102362000D03*
D16*
X148082000Y-106172000D03*
X148082000Y-104902000D03*
X148082000Y-103632000D03*
X148082000Y-101092000D03*
X148082000Y-99822000D03*
X148082000Y-98552000D03*
D15*
X157607000Y-115570000D03*
D16*
X148082000Y-119380000D03*
X148082000Y-118110000D03*
X148082000Y-116840000D03*
X148082000Y-114300000D03*
X148082000Y-113030000D03*
X148082000Y-111760000D03*
D17*
X142430500Y-84048600D03*
X142430500Y-93091000D03*
X142430500Y-97510600D03*
X142430500Y-106553000D03*
D18*
X170434000Y-117082000D03*
X170434000Y-115582000D03*
D17*
X142430500Y-112750600D03*
X142430500Y-121793000D03*
D19*
G36*
X168783000Y-96139000D02*
X159131000Y-96139000D01*
X159131000Y-92583000D01*
X153797000Y-92583000D01*
X153797000Y-82677000D01*
X168783000Y-82677000D01*
X168783000Y-96139000D01*
X168783000Y-96139000D01*
G37*
X168783000Y-96139000D02*
X159131000Y-96139000D01*
X159131000Y-92583000D01*
X153797000Y-92583000D01*
X153797000Y-82677000D01*
X168783000Y-82677000D01*
X168783000Y-96139000D01*
G36*
X168783000Y-105283000D02*
X154051000Y-105283000D01*
X154051000Y-97409000D01*
X168783000Y-97409000D01*
X168783000Y-105283000D01*
X168783000Y-105283000D01*
G37*
X168783000Y-105283000D02*
X154051000Y-105283000D01*
X154051000Y-97409000D01*
X168783000Y-97409000D01*
X168783000Y-105283000D01*
G36*
X168783000Y-118491000D02*
X153797000Y-118491000D01*
X153797000Y-108585000D01*
X162433000Y-108585000D01*
X162433000Y-106807000D01*
X168783000Y-106807000D01*
X168783000Y-118491000D01*
X168783000Y-118491000D01*
G37*
X168783000Y-118491000D02*
X153797000Y-118491000D01*
X153797000Y-108585000D01*
X162433000Y-108585000D01*
X162433000Y-106807000D01*
X168783000Y-106807000D01*
X168783000Y-118491000D01*
G36*
X150495000Y-118491000D02*
X139319000Y-118491000D01*
X139319000Y-111379000D01*
X150495000Y-111379000D01*
X150495000Y-118491000D01*
X150495000Y-118491000D01*
G37*
X150495000Y-118491000D02*
X139319000Y-118491000D01*
X139319000Y-111379000D01*
X150495000Y-111379000D01*
X150495000Y-118491000D01*
G36*
X150495000Y-105029000D02*
X146939000Y-105029000D01*
X146939000Y-104294841D01*
X145811634Y-104013000D01*
X139319000Y-104013000D01*
X139319000Y-96139000D01*
X150495000Y-96139000D01*
X150495000Y-105029000D01*
X150495000Y-105029000D01*
G37*
X150495000Y-105029000D02*
X146939000Y-105029000D01*
X146939000Y-104294841D01*
X145811634Y-104013000D01*
X139319000Y-104013000D01*
X139319000Y-96139000D01*
X150495000Y-96139000D01*
X150495000Y-105029000D01*
G36*
X150495000Y-90551000D02*
X139319000Y-90551000D01*
X139319000Y-82677000D01*
X150495000Y-82677000D01*
X150495000Y-90551000D01*
X150495000Y-90551000D01*
G37*
X150495000Y-90551000D02*
X139319000Y-90551000D01*
X139319000Y-82677000D01*
X150495000Y-82677000D01*
X150495000Y-90551000D01*
M02*
