G04 #@! TF.FileFunction,Copper,L2,Bot,Signal*
%FSLAX46Y46*%
G04 Gerber Fmt 4.6, Leading zero omitted, Abs format (unit mm)*
G04 Created by KiCad (PCBNEW (2015-05-26 BZR 5684)-product) date Thu 13 Aug 2015 05:18:35 PM PDT*
%MOMM*%
G01*
G04 APERTURE LIST*
%ADD10C,0.100000*%
%ADD11C,0.508000*%
%ADD12R,2.032000X1.727200*%
%ADD13O,2.032000X1.727200*%
%ADD14C,1.600000*%
%ADD15R,7.620000X10.160000*%
%ADD16R,2.540000X0.700000*%
%ADD17R,6.197600X2.692400*%
%ADD18R,0.900000X0.500000*%
%ADD19C,0.600000*%
%ADD20C,0.250000*%
%ADD21C,0.254000*%
G04 APERTURE END LIST*
D10*
D11*
X167132000Y-85090000D03*
X167132000Y-83566000D03*
X163322000Y-83566000D03*
X163322000Y-85090000D03*
X163322000Y-86868000D03*
X163322000Y-88392000D03*
X163322000Y-89662000D03*
X163322000Y-91440000D03*
X163322000Y-93472000D03*
X167132000Y-86868000D03*
X167132000Y-88392000D03*
X167132000Y-89916000D03*
X167132000Y-91440000D03*
X167132000Y-93472000D03*
X167132000Y-95250000D03*
X163322000Y-100330000D03*
X163322000Y-99060000D03*
X163322000Y-98044000D03*
X167132000Y-98044000D03*
X167132000Y-99060000D03*
X167132000Y-100330000D03*
X167132000Y-101600000D03*
X167132000Y-102870000D03*
X163322000Y-102870000D03*
X163322000Y-104394000D03*
X167132000Y-104394000D03*
X167132000Y-114046000D03*
X167132000Y-116078000D03*
X167132000Y-117856000D03*
X163322000Y-117856000D03*
X163322000Y-116078000D03*
X163322000Y-114046000D03*
X167132000Y-112014000D03*
X163322000Y-112014000D03*
X163322000Y-109982000D03*
X167132000Y-109982000D03*
X167132000Y-107950000D03*
X138176000Y-111760000D03*
X138176000Y-95758000D03*
X132588000Y-93980000D03*
X132588000Y-96520000D03*
X132588000Y-99060000D03*
X132588000Y-101600000D03*
X132588000Y-104140000D03*
X135382000Y-92710000D03*
X132334000Y-79248000D03*
X128778000Y-79248000D03*
X159004000Y-79248000D03*
X164592000Y-79248000D03*
X169418000Y-79248000D03*
X153162000Y-79248000D03*
X138176000Y-106172000D03*
X138176000Y-108204000D03*
X129032000Y-109728000D03*
X129032000Y-107696000D03*
X132334000Y-107696000D03*
X132334000Y-110490000D03*
X132334000Y-120904000D03*
X134620000Y-120904000D03*
X134620000Y-116078000D03*
X132334000Y-116078000D03*
X154432000Y-122428000D03*
X157226000Y-122428000D03*
X163068000Y-122428000D03*
X169164000Y-123698000D03*
X132334000Y-125984000D03*
X138430000Y-122174000D03*
X134620000Y-125984000D03*
X132334000Y-113538000D03*
X134620000Y-118618000D03*
X132334000Y-118618000D03*
X132334000Y-91186000D03*
X128778000Y-89408000D03*
X132334000Y-89408000D03*
X132334000Y-86868000D03*
X128778000Y-86868000D03*
D12*
X129032000Y-92710000D03*
D13*
X129032000Y-95250000D03*
X129032000Y-97790000D03*
X129032000Y-100330000D03*
X129032000Y-102870000D03*
X129032000Y-105410000D03*
D12*
X129032000Y-112268000D03*
D13*
X129032000Y-114808000D03*
X129032000Y-117348000D03*
X129032000Y-119888000D03*
X129032000Y-122428000D03*
X129032000Y-124968000D03*
D14*
X163450000Y-107960000D03*
X163450000Y-101610000D03*
X163450000Y-95260000D03*
X136662000Y-84200000D03*
X130312000Y-84200000D03*
D15*
X157607000Y-87630000D03*
D16*
X148082000Y-91440000D03*
X148082000Y-90170000D03*
X148082000Y-88900000D03*
X148082000Y-86360000D03*
X148082000Y-85090000D03*
X148082000Y-83820000D03*
D15*
X157607000Y-102362000D03*
D16*
X148082000Y-106172000D03*
X148082000Y-104902000D03*
X148082000Y-103632000D03*
X148082000Y-101092000D03*
X148082000Y-99822000D03*
X148082000Y-98552000D03*
D15*
X157607000Y-115570000D03*
D16*
X148082000Y-119380000D03*
X148082000Y-118110000D03*
X148082000Y-116840000D03*
X148082000Y-114300000D03*
X148082000Y-113030000D03*
X148082000Y-111760000D03*
D17*
X142430500Y-84048600D03*
X142430500Y-93091000D03*
X142430500Y-97510600D03*
X142430500Y-106553000D03*
D18*
X170434000Y-117082000D03*
X170434000Y-115582000D03*
D17*
X142430500Y-112750600D03*
X142430500Y-121793000D03*
D19*
X141478000Y-109958000D03*
X137855000Y-116827000D03*
X166865500Y-119639100D03*
X156718000Y-111760000D03*
X156718000Y-113030000D03*
X156718000Y-114300000D03*
X156718000Y-116840000D03*
X156718000Y-118110000D03*
X157607000Y-115570000D03*
X156718000Y-98552000D03*
X156718000Y-99822000D03*
X156718000Y-101092000D03*
X156718000Y-103632000D03*
X156718000Y-104902000D03*
X157607000Y-102362000D03*
X156718000Y-83820000D03*
X156718000Y-85090000D03*
X156718000Y-86360000D03*
X156718000Y-88900000D03*
X156718000Y-90170000D03*
X157607000Y-87630000D03*
X155122700Y-94803600D03*
X137954400Y-94108500D03*
X137922000Y-91694000D03*
X155122700Y-107950000D03*
X140409300Y-108499600D03*
X138219800Y-104423300D03*
X136778100Y-118490000D03*
D20*
X141478000Y-109958000D02*
X141478000Y-109982000D01*
X136119400Y-119888000D02*
X129032000Y-119888000D01*
X166865500Y-119639100D02*
X165529200Y-120975400D01*
X165529200Y-120975400D02*
X147340600Y-120975400D01*
X147340600Y-120975400D02*
X146253200Y-119888000D01*
X146253200Y-119888000D02*
X136119400Y-119888000D01*
X136119400Y-119888000D02*
X136119400Y-118261600D01*
X136119400Y-118261600D02*
X137554000Y-116827000D01*
X137554000Y-116827000D02*
X137855000Y-116827000D01*
X129032000Y-122428000D02*
X129032000Y-123616900D01*
X170434000Y-117082000D02*
X170434000Y-117657300D01*
X170434000Y-117657300D02*
X164474400Y-123616900D01*
X164474400Y-123616900D02*
X129032000Y-123616900D01*
X137160000Y-88900000D02*
X134620000Y-91440000D01*
X134620000Y-91440000D02*
X134620000Y-111252000D01*
X134620000Y-111252000D02*
X133604000Y-112268000D01*
X133604000Y-112268000D02*
X129032000Y-112268000D01*
X139700000Y-88900000D02*
X137160000Y-88900000D01*
X138176000Y-101346000D02*
X136144000Y-103378000D01*
X136144000Y-103378000D02*
X136144000Y-113284000D01*
X136144000Y-113284000D02*
X134620000Y-114808000D01*
X134620000Y-114808000D02*
X129032000Y-114808000D01*
X139700000Y-101346000D02*
X138176000Y-101346000D01*
X137668000Y-114808000D02*
X135128000Y-117348000D01*
X135128000Y-117348000D02*
X129032000Y-117348000D01*
X139446000Y-114808000D02*
X137668000Y-114808000D01*
X156718000Y-111760000D02*
X157607000Y-112649000D01*
X157607000Y-112649000D02*
X157607000Y-115570000D01*
X157607000Y-113919000D02*
X157607000Y-115570000D01*
X156718000Y-113030000D02*
X157607000Y-113919000D01*
X157607000Y-115189000D02*
X157607000Y-115570000D01*
X156718000Y-114300000D02*
X157607000Y-115189000D01*
X157607000Y-115951000D02*
X157607000Y-115570000D01*
X156718000Y-116840000D02*
X157607000Y-115951000D01*
X157607000Y-117221000D02*
X157607000Y-115570000D01*
X156718000Y-118110000D02*
X157607000Y-117221000D01*
X170434000Y-103378000D02*
X169672000Y-102616000D01*
X169672000Y-102616000D02*
X168402000Y-102616000D01*
X170434000Y-115582000D02*
X170434000Y-104394000D01*
X170434000Y-104394000D02*
X170434000Y-103378000D01*
X157607000Y-99441000D02*
X157607000Y-102362000D01*
X156718000Y-98552000D02*
X157607000Y-99441000D01*
X157607000Y-100711000D02*
X157607000Y-102362000D01*
X156718000Y-99822000D02*
X157607000Y-100711000D01*
X157607000Y-101981000D02*
X157607000Y-102362000D01*
X156718000Y-101092000D02*
X157607000Y-101981000D01*
X157607000Y-102743000D02*
X157607000Y-102362000D01*
X156718000Y-103632000D02*
X157607000Y-102743000D01*
X157607000Y-104013000D02*
X157607000Y-102362000D01*
X156718000Y-104902000D02*
X157607000Y-104013000D01*
X157607000Y-84709000D02*
X157607000Y-87630000D01*
X156718000Y-83820000D02*
X157607000Y-84709000D01*
X157607000Y-85979000D02*
X157607000Y-87630000D01*
X156718000Y-85090000D02*
X157607000Y-85979000D01*
X157607000Y-87249000D02*
X157607000Y-87630000D01*
X156718000Y-86360000D02*
X157607000Y-87249000D01*
X157607000Y-88011000D02*
X157607000Y-87630000D01*
X156718000Y-88900000D02*
X157607000Y-88011000D01*
X157607000Y-89281000D02*
X157607000Y-87630000D01*
X156718000Y-90170000D02*
X157607000Y-89281000D01*
X137954400Y-94108500D02*
X138649500Y-94803600D01*
X138649500Y-94803600D02*
X155122700Y-94803600D01*
X139192000Y-91419400D02*
X138196600Y-91419400D01*
X138196600Y-91419400D02*
X137922000Y-91694000D01*
X148082000Y-91440000D02*
X146486700Y-91440000D01*
X138956000Y-91419400D02*
X139192000Y-91419400D01*
X139192000Y-91419400D02*
X146466100Y-91419400D01*
X146466100Y-91419400D02*
X146486700Y-91440000D01*
X140409300Y-108499600D02*
X149217100Y-108499600D01*
X149217100Y-108499600D02*
X149766700Y-107950000D01*
X149766700Y-107950000D02*
X155122700Y-107950000D01*
X148082000Y-106172000D02*
X146486700Y-106172000D01*
X138219800Y-104423300D02*
X138515900Y-104719400D01*
X138515900Y-104719400D02*
X145538300Y-104719400D01*
X145538300Y-104719400D02*
X146486700Y-105667800D01*
X146486700Y-105667800D02*
X146486700Y-106172000D01*
X136778100Y-118490000D02*
X137668100Y-119380000D01*
X137668100Y-119380000D02*
X148082000Y-119380000D01*
D21*
G36*
X168783000Y-118233498D02*
X168525497Y-118491000D01*
X153797000Y-118491000D01*
X153797000Y-110236000D01*
X153797000Y-108710000D01*
X154560237Y-108710000D01*
X154592373Y-108742192D01*
X154935901Y-108884838D01*
X155307867Y-108885162D01*
X155651643Y-108743117D01*
X155810036Y-108585000D01*
X159004000Y-108585000D01*
X162433000Y-108585000D01*
X162433000Y-106807000D01*
X168783000Y-106807000D01*
X168783000Y-118233498D01*
X168783000Y-118233498D01*
G37*
X168783000Y-118233498D02*
X168525497Y-118491000D01*
X153797000Y-118491000D01*
X153797000Y-110236000D01*
X153797000Y-108710000D01*
X154560237Y-108710000D01*
X154592373Y-108742192D01*
X154935901Y-108884838D01*
X155307867Y-108885162D01*
X155651643Y-108743117D01*
X155810036Y-108585000D01*
X159004000Y-108585000D01*
X162433000Y-108585000D01*
X162433000Y-106807000D01*
X168783000Y-106807000D01*
X168783000Y-118233498D01*
G36*
X168783000Y-105283000D02*
X154051000Y-105283000D01*
X154051000Y-97409000D01*
X168783000Y-97409000D01*
X168783000Y-105283000D01*
X168783000Y-105283000D01*
G37*
X168783000Y-105283000D02*
X154051000Y-105283000D01*
X154051000Y-97409000D01*
X168783000Y-97409000D01*
X168783000Y-105283000D01*
G36*
X168783000Y-96139000D02*
X159131000Y-96139000D01*
X159131000Y-92583000D01*
X153797000Y-92583000D01*
X153797000Y-82677000D01*
X168783000Y-82677000D01*
X168783000Y-96139000D01*
X168783000Y-96139000D01*
G37*
X168783000Y-96139000D02*
X159131000Y-96139000D01*
X159131000Y-92583000D01*
X153797000Y-92583000D01*
X153797000Y-82677000D01*
X168783000Y-82677000D01*
X168783000Y-96139000D01*
G36*
X150495000Y-90551000D02*
X149688122Y-90551000D01*
X149601640Y-90492623D01*
X149352000Y-90442560D01*
X146812000Y-90442560D01*
X146569877Y-90489537D01*
X146476311Y-90551000D01*
X139319000Y-90551000D01*
X139319000Y-82677000D01*
X150495000Y-82677000D01*
X150495000Y-90551000D01*
X150495000Y-90551000D01*
G37*
X150495000Y-90551000D02*
X149688122Y-90551000D01*
X149601640Y-90492623D01*
X149352000Y-90442560D01*
X146812000Y-90442560D01*
X146569877Y-90489537D01*
X146476311Y-90551000D01*
X139319000Y-90551000D01*
X139319000Y-82677000D01*
X150495000Y-82677000D01*
X150495000Y-90551000D01*
G36*
X150495000Y-105029000D02*
X146939000Y-105029000D01*
X146939000Y-104267000D01*
X146160702Y-104267000D01*
X146075701Y-104181999D01*
X145829139Y-104017252D01*
X145538300Y-103959400D01*
X139319000Y-103959400D01*
X139319000Y-96139000D01*
X150495000Y-96139000D01*
X150495000Y-105029000D01*
X150495000Y-105029000D01*
G37*
X150495000Y-105029000D02*
X146939000Y-105029000D01*
X146939000Y-104267000D01*
X146160702Y-104267000D01*
X146075701Y-104181999D01*
X145829139Y-104017252D01*
X145538300Y-103959400D01*
X139319000Y-103959400D01*
X139319000Y-96139000D01*
X150495000Y-96139000D01*
X150495000Y-105029000D01*
G36*
X150495000Y-118491000D02*
X149688122Y-118491000D01*
X149601640Y-118432623D01*
X149352000Y-118382560D01*
X146812000Y-118382560D01*
X146569877Y-118429537D01*
X146476311Y-118491000D01*
X139319000Y-118491000D01*
X139319000Y-111379000D01*
X150495000Y-111379000D01*
X150495000Y-118491000D01*
X150495000Y-118491000D01*
G37*
X150495000Y-118491000D02*
X149688122Y-118491000D01*
X149601640Y-118432623D01*
X149352000Y-118382560D01*
X146812000Y-118382560D01*
X146569877Y-118429537D01*
X146476311Y-118491000D01*
X139319000Y-118491000D01*
X139319000Y-111379000D01*
X150495000Y-111379000D01*
X150495000Y-118491000D01*
G36*
X135400744Y-118053747D02*
X135359400Y-118261600D01*
X135359400Y-119128000D01*
X130476648Y-119128000D01*
X130429000Y-119056689D01*
X130429000Y-118179310D01*
X130476648Y-118108000D01*
X135128000Y-118108000D01*
X135400744Y-118053747D01*
X135400744Y-118053747D01*
G37*
X135400744Y-118053747D02*
X135359400Y-118261600D01*
X135359400Y-119128000D01*
X130476648Y-119128000D01*
X130429000Y-119056689D01*
X130429000Y-118179310D01*
X130476648Y-118108000D01*
X135128000Y-118108000D01*
X135400744Y-118053747D01*
G36*
X152527000Y-110363000D02*
X138303000Y-110363000D01*
X138303000Y-114048000D01*
X137668000Y-114048000D01*
X137425413Y-114096253D01*
X137377160Y-114105852D01*
X137130599Y-114270599D01*
X134813198Y-116588000D01*
X130476648Y-116588000D01*
X130429000Y-116516689D01*
X130429000Y-115639310D01*
X130476648Y-115568000D01*
X134620000Y-115568000D01*
X134910839Y-115510148D01*
X135157401Y-115345401D01*
X136681401Y-113821401D01*
X136846148Y-113574840D01*
X136846148Y-113574839D01*
X136855746Y-113526586D01*
X136903999Y-113284000D01*
X136904000Y-113284000D01*
X136904000Y-103692802D01*
X138303000Y-102293802D01*
X138303000Y-103488371D01*
X138034633Y-103488138D01*
X137690857Y-103630183D01*
X137427608Y-103892973D01*
X137284962Y-104236501D01*
X137284638Y-104608467D01*
X137426683Y-104952243D01*
X137689473Y-105215492D01*
X138033001Y-105358138D01*
X138130287Y-105358222D01*
X138225061Y-105421548D01*
X138515900Y-105479400D01*
X145223498Y-105479400D01*
X145669000Y-105924902D01*
X145669000Y-107315000D01*
X149375366Y-107315000D01*
X149229299Y-107412599D01*
X148902298Y-107739600D01*
X140971762Y-107739600D01*
X140939627Y-107707408D01*
X140596099Y-107564762D01*
X140224133Y-107564438D01*
X139880357Y-107706483D01*
X139617108Y-107969273D01*
X139474462Y-108312801D01*
X139474138Y-108684767D01*
X139616183Y-109028543D01*
X139878973Y-109291792D01*
X140222501Y-109434438D01*
X140594467Y-109434762D01*
X140938243Y-109292717D01*
X140971417Y-109259600D01*
X149217100Y-109259600D01*
X149507939Y-109201748D01*
X149754501Y-109037001D01*
X150081502Y-108710000D01*
X152527000Y-108710000D01*
X152527000Y-110363000D01*
X152527000Y-110363000D01*
G37*
X152527000Y-110363000D02*
X138303000Y-110363000D01*
X138303000Y-114048000D01*
X137668000Y-114048000D01*
X137425413Y-114096253D01*
X137377160Y-114105852D01*
X137130599Y-114270599D01*
X134813198Y-116588000D01*
X130476648Y-116588000D01*
X130429000Y-116516689D01*
X130429000Y-115639310D01*
X130476648Y-115568000D01*
X134620000Y-115568000D01*
X134910839Y-115510148D01*
X135157401Y-115345401D01*
X136681401Y-113821401D01*
X136846148Y-113574840D01*
X136846148Y-113574839D01*
X136855746Y-113526586D01*
X136903999Y-113284000D01*
X136904000Y-113284000D01*
X136904000Y-103692802D01*
X138303000Y-102293802D01*
X138303000Y-103488371D01*
X138034633Y-103488138D01*
X137690857Y-103630183D01*
X137427608Y-103892973D01*
X137284962Y-104236501D01*
X137284638Y-104608467D01*
X137426683Y-104952243D01*
X137689473Y-105215492D01*
X138033001Y-105358138D01*
X138130287Y-105358222D01*
X138225061Y-105421548D01*
X138515900Y-105479400D01*
X145223498Y-105479400D01*
X145669000Y-105924902D01*
X145669000Y-107315000D01*
X149375366Y-107315000D01*
X149229299Y-107412599D01*
X148902298Y-107739600D01*
X140971762Y-107739600D01*
X140939627Y-107707408D01*
X140596099Y-107564762D01*
X140224133Y-107564438D01*
X139880357Y-107706483D01*
X139617108Y-107969273D01*
X139474462Y-108312801D01*
X139474138Y-108684767D01*
X139616183Y-109028543D01*
X139878973Y-109291792D01*
X140222501Y-109434438D01*
X140594467Y-109434762D01*
X140938243Y-109292717D01*
X140971417Y-109259600D01*
X149217100Y-109259600D01*
X149507939Y-109201748D01*
X149754501Y-109037001D01*
X150081502Y-108710000D01*
X152527000Y-108710000D01*
X152527000Y-110363000D01*
G36*
X165281097Y-121735400D02*
X164159598Y-122856900D01*
X130630031Y-122856900D01*
X130715345Y-122428000D01*
X130601271Y-121854511D01*
X130429000Y-121596689D01*
X130429000Y-120719310D01*
X130476648Y-120648000D01*
X136119400Y-120648000D01*
X145938398Y-120648000D01*
X146803199Y-121512801D01*
X147049761Y-121677548D01*
X147340600Y-121735400D01*
X165281097Y-121735400D01*
X165281097Y-121735400D01*
G37*
X165281097Y-121735400D02*
X164159598Y-122856900D01*
X130630031Y-122856900D01*
X130715345Y-122428000D01*
X130601271Y-121854511D01*
X130429000Y-121596689D01*
X130429000Y-120719310D01*
X130476648Y-120648000D01*
X136119400Y-120648000D01*
X145938398Y-120648000D01*
X146803199Y-121512801D01*
X147049761Y-121677548D01*
X147340600Y-121735400D01*
X165281097Y-121735400D01*
G36*
X170765000Y-81661000D02*
X152781000Y-81661000D01*
X152781000Y-94043600D01*
X138964301Y-94043600D01*
X138889522Y-93968820D01*
X138889562Y-93923333D01*
X138747517Y-93579557D01*
X138484727Y-93316308D01*
X138141199Y-93173662D01*
X137769233Y-93173338D01*
X137425457Y-93315383D01*
X137162208Y-93578173D01*
X137019562Y-93921701D01*
X137019238Y-94293667D01*
X137161283Y-94637443D01*
X137424073Y-94900692D01*
X137767601Y-95043338D01*
X137814476Y-95043378D01*
X138112099Y-95341001D01*
X138303000Y-95468556D01*
X138303000Y-100586000D01*
X138176000Y-100586000D01*
X137885161Y-100643852D01*
X137638599Y-100808599D01*
X135606599Y-102840599D01*
X135441852Y-103087161D01*
X135384000Y-103378000D01*
X135384000Y-112969198D01*
X134305198Y-114048000D01*
X130476648Y-114048000D01*
X130429000Y-113976689D01*
X130429000Y-113640835D01*
X130502927Y-113592273D01*
X130645377Y-113381240D01*
X130695440Y-113131600D01*
X130695440Y-113028000D01*
X133604000Y-113028000D01*
X133894839Y-112970148D01*
X134141401Y-112805401D01*
X135157401Y-111789401D01*
X135322148Y-111542839D01*
X135380000Y-111252000D01*
X135380000Y-91754802D01*
X137474802Y-89660000D01*
X138303000Y-89660000D01*
X138303000Y-90659400D01*
X138196600Y-90659400D01*
X137905761Y-90717252D01*
X137843384Y-90758930D01*
X137736833Y-90758838D01*
X137393057Y-90900883D01*
X137129808Y-91163673D01*
X136987162Y-91507201D01*
X136986838Y-91879167D01*
X137128883Y-92222943D01*
X137391673Y-92486192D01*
X137735201Y-92628838D01*
X138107167Y-92629162D01*
X138450943Y-92487117D01*
X138714192Y-92224327D01*
X138732847Y-92179400D01*
X138956000Y-92179400D01*
X139192000Y-92179400D01*
X145923000Y-92179400D01*
X145923000Y-92837000D01*
X151511000Y-92837000D01*
X151511000Y-81661000D01*
X138303000Y-81661000D01*
X138303000Y-82423000D01*
X134747000Y-82423000D01*
X134747000Y-86741000D01*
X138303000Y-86741000D01*
X138303000Y-88140000D01*
X137160000Y-88140000D01*
X136917413Y-88188253D01*
X136869160Y-88197852D01*
X136622599Y-88362599D01*
X134082599Y-90902599D01*
X133917852Y-91149161D01*
X133860000Y-91440000D01*
X133860000Y-110937198D01*
X133289198Y-111508000D01*
X130695440Y-111508000D01*
X130695440Y-111404400D01*
X130648463Y-111162277D01*
X130508673Y-110949473D01*
X130429000Y-110895692D01*
X130429000Y-110871000D01*
X130392418Y-110871000D01*
X130297640Y-110807023D01*
X130048000Y-110756960D01*
X128016000Y-110756960D01*
X127773877Y-110803937D01*
X127685000Y-110862319D01*
X127685000Y-106807000D01*
X128336477Y-106807000D01*
X128847255Y-106908600D01*
X129216745Y-106908600D01*
X129727522Y-106807000D01*
X130429000Y-106807000D01*
X130429000Y-106241310D01*
X130601271Y-105983489D01*
X130715345Y-105410000D01*
X130601271Y-104836511D01*
X130429000Y-104578689D01*
X130429000Y-103701310D01*
X130601271Y-103443489D01*
X130715345Y-102870000D01*
X130601271Y-102296511D01*
X130429000Y-102038689D01*
X130429000Y-101161310D01*
X130601271Y-100903489D01*
X130715345Y-100330000D01*
X130601271Y-99756511D01*
X130429000Y-99498689D01*
X130429000Y-98621310D01*
X130601271Y-98363489D01*
X130715345Y-97790000D01*
X130601271Y-97216511D01*
X130429000Y-96958689D01*
X130429000Y-96081310D01*
X130601271Y-95823489D01*
X130715345Y-95250000D01*
X130601271Y-94676511D01*
X130429000Y-94418689D01*
X130429000Y-94082835D01*
X130502927Y-94034273D01*
X130645377Y-93823240D01*
X130695440Y-93573600D01*
X130695440Y-91846400D01*
X130648463Y-91604277D01*
X130508673Y-91391473D01*
X130429000Y-91337692D01*
X130429000Y-91313000D01*
X130392418Y-91313000D01*
X130297640Y-91249023D01*
X130048000Y-91198960D01*
X128016000Y-91198960D01*
X127773877Y-91245937D01*
X127685000Y-91304319D01*
X127685000Y-76885000D01*
X170765000Y-76885000D01*
X170765000Y-81661000D01*
X170765000Y-81661000D01*
G37*
X170765000Y-81661000D02*
X152781000Y-81661000D01*
X152781000Y-94043600D01*
X138964301Y-94043600D01*
X138889522Y-93968820D01*
X138889562Y-93923333D01*
X138747517Y-93579557D01*
X138484727Y-93316308D01*
X138141199Y-93173662D01*
X137769233Y-93173338D01*
X137425457Y-93315383D01*
X137162208Y-93578173D01*
X137019562Y-93921701D01*
X137019238Y-94293667D01*
X137161283Y-94637443D01*
X137424073Y-94900692D01*
X137767601Y-95043338D01*
X137814476Y-95043378D01*
X138112099Y-95341001D01*
X138303000Y-95468556D01*
X138303000Y-100586000D01*
X138176000Y-100586000D01*
X137885161Y-100643852D01*
X137638599Y-100808599D01*
X135606599Y-102840599D01*
X135441852Y-103087161D01*
X135384000Y-103378000D01*
X135384000Y-112969198D01*
X134305198Y-114048000D01*
X130476648Y-114048000D01*
X130429000Y-113976689D01*
X130429000Y-113640835D01*
X130502927Y-113592273D01*
X130645377Y-113381240D01*
X130695440Y-113131600D01*
X130695440Y-113028000D01*
X133604000Y-113028000D01*
X133894839Y-112970148D01*
X134141401Y-112805401D01*
X135157401Y-111789401D01*
X135322148Y-111542839D01*
X135380000Y-111252000D01*
X135380000Y-91754802D01*
X137474802Y-89660000D01*
X138303000Y-89660000D01*
X138303000Y-90659400D01*
X138196600Y-90659400D01*
X137905761Y-90717252D01*
X137843384Y-90758930D01*
X137736833Y-90758838D01*
X137393057Y-90900883D01*
X137129808Y-91163673D01*
X136987162Y-91507201D01*
X136986838Y-91879167D01*
X137128883Y-92222943D01*
X137391673Y-92486192D01*
X137735201Y-92628838D01*
X138107167Y-92629162D01*
X138450943Y-92487117D01*
X138714192Y-92224327D01*
X138732847Y-92179400D01*
X138956000Y-92179400D01*
X139192000Y-92179400D01*
X145923000Y-92179400D01*
X145923000Y-92837000D01*
X151511000Y-92837000D01*
X151511000Y-81661000D01*
X138303000Y-81661000D01*
X138303000Y-82423000D01*
X134747000Y-82423000D01*
X134747000Y-86741000D01*
X138303000Y-86741000D01*
X138303000Y-88140000D01*
X137160000Y-88140000D01*
X136917413Y-88188253D01*
X136869160Y-88197852D01*
X136622599Y-88362599D01*
X134082599Y-90902599D01*
X133917852Y-91149161D01*
X133860000Y-91440000D01*
X133860000Y-110937198D01*
X133289198Y-111508000D01*
X130695440Y-111508000D01*
X130695440Y-111404400D01*
X130648463Y-111162277D01*
X130508673Y-110949473D01*
X130429000Y-110895692D01*
X130429000Y-110871000D01*
X130392418Y-110871000D01*
X130297640Y-110807023D01*
X130048000Y-110756960D01*
X128016000Y-110756960D01*
X127773877Y-110803937D01*
X127685000Y-110862319D01*
X127685000Y-106807000D01*
X128336477Y-106807000D01*
X128847255Y-106908600D01*
X129216745Y-106908600D01*
X129727522Y-106807000D01*
X130429000Y-106807000D01*
X130429000Y-106241310D01*
X130601271Y-105983489D01*
X130715345Y-105410000D01*
X130601271Y-104836511D01*
X130429000Y-104578689D01*
X130429000Y-103701310D01*
X130601271Y-103443489D01*
X130715345Y-102870000D01*
X130601271Y-102296511D01*
X130429000Y-102038689D01*
X130429000Y-101161310D01*
X130601271Y-100903489D01*
X130715345Y-100330000D01*
X130601271Y-99756511D01*
X130429000Y-99498689D01*
X130429000Y-98621310D01*
X130601271Y-98363489D01*
X130715345Y-97790000D01*
X130601271Y-97216511D01*
X130429000Y-96958689D01*
X130429000Y-96081310D01*
X130601271Y-95823489D01*
X130715345Y-95250000D01*
X130601271Y-94676511D01*
X130429000Y-94418689D01*
X130429000Y-94082835D01*
X130502927Y-94034273D01*
X130645377Y-93823240D01*
X130695440Y-93573600D01*
X130695440Y-91846400D01*
X130648463Y-91604277D01*
X130508673Y-91391473D01*
X130429000Y-91337692D01*
X130429000Y-91313000D01*
X130392418Y-91313000D01*
X130297640Y-91249023D01*
X130048000Y-91198960D01*
X128016000Y-91198960D01*
X127773877Y-91245937D01*
X127685000Y-91304319D01*
X127685000Y-76885000D01*
X170765000Y-76885000D01*
X170765000Y-81661000D01*
G36*
X170765000Y-126315000D02*
X130429000Y-126315000D01*
X130429000Y-125799310D01*
X130601271Y-125541489D01*
X130715345Y-124968000D01*
X130601271Y-124394511D01*
X130589503Y-124376900D01*
X164474400Y-124376900D01*
X164765239Y-124319048D01*
X165011801Y-124154301D01*
X169659102Y-119507000D01*
X170765000Y-119507000D01*
X170765000Y-126315000D01*
X170765000Y-126315000D01*
G37*
X170765000Y-126315000D02*
X130429000Y-126315000D01*
X130429000Y-125799310D01*
X130601271Y-125541489D01*
X130715345Y-124968000D01*
X130601271Y-124394511D01*
X130589503Y-124376900D01*
X164474400Y-124376900D01*
X164765239Y-124319048D01*
X165011801Y-124154301D01*
X169659102Y-119507000D01*
X170765000Y-119507000D01*
X170765000Y-126315000D01*
M02*
