G04 #@! TF.FileFunction,Copper,L2,Bot,Signal*
%FSLAX46Y46*%
G04 Gerber Fmt 4.6, Leading zero omitted, Abs format (unit mm)*
G04 Created by KiCad (PCBNEW (2015-07-25 BZR 5993)-product) date Sun 30 Aug 2015 02:46:25 PM PDT*
%MOMM*%
G01*
G04 APERTURE LIST*
%ADD10C,0.100000*%
%ADD11C,0.508000*%
%ADD12R,2.032000X1.727200*%
%ADD13O,2.032000X1.727200*%
%ADD14R,2.540000X2.540000*%
%ADD15C,2.540000*%
%ADD16C,0.457200*%
%ADD17C,0.228600*%
%ADD18C,0.250000*%
%ADD19C,0.025400*%
G04 APERTURE END LIST*
D10*
D11*
X139954000Y-55880000D03*
X145542000Y-68961000D03*
X145542000Y-70104000D03*
X145542000Y-71247000D03*
X145542000Y-67945000D03*
X143256000Y-67945000D03*
X143256000Y-71247000D03*
X143256000Y-70104000D03*
X143256000Y-68961000D03*
X144399000Y-68961000D03*
X144399000Y-70104000D03*
X144399000Y-71247000D03*
X144399000Y-67945000D03*
X144190720Y-79872840D03*
X147955000Y-62738000D03*
X140208000Y-76581000D03*
D12*
X128270000Y-65405000D03*
D13*
X128270000Y-62865000D03*
X128270000Y-60325000D03*
X128270000Y-57785000D03*
X128270000Y-55245000D03*
X128270000Y-52705000D03*
X128270000Y-50165000D03*
X128270000Y-47625000D03*
D12*
X128270000Y-83185000D03*
D13*
X128270000Y-80645000D03*
X128270000Y-78105000D03*
X128270000Y-75565000D03*
X128270000Y-73025000D03*
X128270000Y-70485000D03*
D12*
X134493000Y-90043000D03*
D13*
X134493000Y-87503000D03*
X134493000Y-84963000D03*
X134493000Y-82423000D03*
D12*
X145161000Y-48387000D03*
D13*
X145161000Y-50927000D03*
X145161000Y-53467000D03*
X145161000Y-56007000D03*
D12*
X150876000Y-48514000D03*
D13*
X150876000Y-51054000D03*
X150876000Y-53594000D03*
X150876000Y-56134000D03*
D12*
X156845000Y-48387000D03*
D13*
X156845000Y-50927000D03*
X156845000Y-53467000D03*
X156845000Y-56007000D03*
D12*
X157480000Y-90170000D03*
D13*
X157480000Y-87630000D03*
X157480000Y-85090000D03*
X157480000Y-82550000D03*
D14*
X141732000Y-88138000D03*
D15*
X146812000Y-88138000D03*
D16*
X145542000Y-74422000D03*
X142194500Y-68896500D03*
X139217200Y-67290600D03*
X142522600Y-66346800D03*
X142728800Y-64392200D03*
X142160800Y-72879400D03*
X142194500Y-71113500D03*
X139232100Y-72017500D03*
X138446000Y-71357700D03*
X152290000Y-66200000D03*
X146783400Y-66531200D03*
X149767100Y-67374100D03*
X152475200Y-68963600D03*
X150345100Y-70163200D03*
X149688800Y-70290000D03*
X152336400Y-71554400D03*
X149450600Y-72608200D03*
X146714200Y-73108700D03*
D17*
X157480000Y-90170000D02*
X156718000Y-90170000D01*
X156718000Y-90170000D02*
X154432000Y-87884000D01*
X154432000Y-87884000D02*
X154432000Y-82804000D01*
X154432000Y-82804000D02*
X147701000Y-76073000D01*
X147701000Y-76073000D02*
X147193000Y-76073000D01*
X147193000Y-76073000D02*
X145542000Y-74422000D01*
X130605500Y-68896500D02*
X142194500Y-68896500D01*
X128270000Y-66561000D02*
X130605500Y-68896500D01*
X128270000Y-65405000D02*
X128270000Y-66561000D01*
X134791600Y-62865000D02*
X139217200Y-67290600D01*
X128270000Y-62865000D02*
X134791600Y-62865000D01*
X133960800Y-57785000D02*
X142522600Y-66346800D01*
X128270000Y-57785000D02*
X133960800Y-57785000D01*
X131041600Y-52705000D02*
X142728800Y-64392200D01*
X128270000Y-52705000D02*
X131041600Y-52705000D01*
D18*
X128905000Y-50165000D02*
X128270000Y-50165000D01*
D17*
X131855200Y-83185000D02*
X142160800Y-72879400D01*
X128270000Y-83185000D02*
X131855200Y-83185000D01*
X132663000Y-80645000D02*
X142194500Y-71113500D01*
X128270000Y-80645000D02*
X132663000Y-80645000D01*
X133144600Y-78105000D02*
X139232100Y-72017500D01*
X128270000Y-78105000D02*
X133144600Y-78105000D01*
X134238700Y-75565000D02*
X138446000Y-71357700D01*
X128270000Y-75565000D02*
X134238700Y-75565000D01*
X152290000Y-55731800D02*
X152290000Y-66200000D01*
X151422200Y-54864000D02*
X152290000Y-55731800D01*
X150343700Y-54864000D02*
X151422200Y-54864000D01*
X149431200Y-53951500D02*
X150343700Y-54864000D01*
X149431200Y-53379700D02*
X149431200Y-53951500D01*
X145594500Y-49543000D02*
X149431200Y-53379700D01*
X145161000Y-49543000D02*
X145594500Y-49543000D01*
X145161000Y-48387000D02*
X145161000Y-49543000D01*
X143847100Y-63594900D02*
X146783400Y-66531200D01*
X143847100Y-55503400D02*
X143847100Y-63594900D01*
X144727500Y-54623000D02*
X143847100Y-55503400D01*
X145161000Y-54623000D02*
X144727500Y-54623000D01*
X145161000Y-53467000D02*
X145161000Y-54623000D01*
X149767100Y-61769100D02*
X145161000Y-57163000D01*
X149767100Y-67374100D02*
X149767100Y-61769100D01*
X145161000Y-56007000D02*
X145161000Y-57163000D01*
X153270800Y-68168000D02*
X152475200Y-68963600D01*
X153270800Y-51631300D02*
X153270800Y-68168000D01*
X151309500Y-49670000D02*
X153270800Y-51631300D01*
X150876000Y-49670000D02*
X151309500Y-49670000D01*
X150876000Y-48514000D02*
X150876000Y-49670000D01*
X152844700Y-67663600D02*
X150345100Y-70163200D01*
X152844700Y-55562700D02*
X152844700Y-67663600D01*
X150876000Y-53594000D02*
X152844700Y-55562700D01*
X149688800Y-70082800D02*
X149688800Y-70290000D01*
X150876000Y-68895600D02*
X149688800Y-70082800D01*
X150876000Y-56134000D02*
X150876000Y-68895600D01*
X158160700Y-65730100D02*
X152336400Y-71554400D01*
X158160700Y-50425200D02*
X158160700Y-65730100D01*
X157278500Y-49543000D02*
X158160700Y-50425200D01*
X156845000Y-49543000D02*
X157278500Y-49543000D01*
X156845000Y-48387000D02*
X156845000Y-49543000D01*
X149641600Y-72608200D02*
X149450600Y-72608200D01*
X154342800Y-67907000D02*
X149641600Y-72608200D01*
X154342800Y-56691700D02*
X154342800Y-67907000D01*
X156411500Y-54623000D02*
X154342800Y-56691700D01*
X156845000Y-54623000D02*
X156411500Y-54623000D01*
X156845000Y-53467000D02*
X156845000Y-54623000D01*
X146776600Y-73171100D02*
X146714200Y-73108700D01*
X149654000Y-73171100D02*
X146776600Y-73171100D01*
X156845000Y-65980100D02*
X149654000Y-73171100D01*
X156845000Y-56007000D02*
X156845000Y-65980100D01*
D19*
G36*
X159322300Y-77933834D02*
X159245369Y-91935300D01*
X126504630Y-91935300D01*
X126489489Y-89179400D01*
X133282768Y-89179400D01*
X133282768Y-90906600D01*
X133296861Y-90979237D01*
X133338798Y-91043078D01*
X133402108Y-91085813D01*
X133477000Y-91100832D01*
X135509000Y-91100832D01*
X135581637Y-91086739D01*
X135645478Y-91044802D01*
X135688213Y-90981492D01*
X135703232Y-90906600D01*
X135703232Y-89179400D01*
X135689139Y-89106763D01*
X135647202Y-89042922D01*
X135583892Y-89000187D01*
X135509000Y-88985168D01*
X133477000Y-88985168D01*
X133404363Y-88999261D01*
X133340522Y-89041198D01*
X133297787Y-89104508D01*
X133282768Y-89179400D01*
X126489489Y-89179400D01*
X126485357Y-88427237D01*
X145351247Y-88427237D01*
X145573126Y-88964226D01*
X145983613Y-89375430D01*
X146520214Y-89598246D01*
X147101237Y-89598753D01*
X147638226Y-89376874D01*
X148049430Y-88966387D01*
X148272246Y-88429786D01*
X148272753Y-87848763D01*
X148050874Y-87311774D01*
X147640387Y-86900570D01*
X147103786Y-86677754D01*
X146522763Y-86677247D01*
X145985774Y-86899126D01*
X145574570Y-87309613D01*
X145351754Y-87846214D01*
X145351247Y-88427237D01*
X126485357Y-88427237D01*
X126466322Y-84963000D01*
X133262863Y-84963000D01*
X133343102Y-85366387D01*
X133571602Y-85708361D01*
X133913576Y-85936861D01*
X134316963Y-86017100D01*
X134669037Y-86017100D01*
X135072424Y-85936861D01*
X135414398Y-85708361D01*
X135642898Y-85366387D01*
X135723137Y-84963000D01*
X135642898Y-84559613D01*
X135414398Y-84217639D01*
X135072424Y-83989139D01*
X134669037Y-83908900D01*
X134316963Y-83908900D01*
X133913576Y-83989139D01*
X133571602Y-84217639D01*
X133343102Y-84559613D01*
X133262863Y-84963000D01*
X126466322Y-84963000D01*
X126451807Y-82321400D01*
X127059768Y-82321400D01*
X127059768Y-84048600D01*
X127073861Y-84121237D01*
X127115798Y-84185078D01*
X127179108Y-84227813D01*
X127254000Y-84242832D01*
X129286000Y-84242832D01*
X129358637Y-84228739D01*
X129422478Y-84186802D01*
X129465213Y-84123492D01*
X129480232Y-84048600D01*
X129480232Y-83489800D01*
X131855200Y-83489800D01*
X131971842Y-83466598D01*
X132070726Y-83400526D01*
X133316152Y-82155100D01*
X133262863Y-82423000D01*
X133343102Y-82826387D01*
X133571602Y-83168361D01*
X133913576Y-83396861D01*
X134316963Y-83477100D01*
X134669037Y-83477100D01*
X135072424Y-83396861D01*
X135414398Y-83168361D01*
X135642898Y-82826387D01*
X135723137Y-82423000D01*
X135642898Y-82019613D01*
X135414398Y-81677639D01*
X135072424Y-81449139D01*
X134669037Y-81368900D01*
X134316963Y-81368900D01*
X134049063Y-81422189D01*
X140966254Y-74504998D01*
X145122827Y-74504998D01*
X145186497Y-74659091D01*
X145304289Y-74777089D01*
X145458270Y-74841027D01*
X145530038Y-74841090D01*
X146977474Y-76288526D01*
X147076358Y-76354598D01*
X147193000Y-76377800D01*
X147574748Y-76377800D01*
X154127200Y-82930252D01*
X154127200Y-87884000D01*
X154150402Y-88000642D01*
X154216474Y-88099526D01*
X156269768Y-90152820D01*
X156269768Y-91033600D01*
X156283861Y-91106237D01*
X156325798Y-91170078D01*
X156389108Y-91212813D01*
X156464000Y-91227832D01*
X158496000Y-91227832D01*
X158568637Y-91213739D01*
X158632478Y-91171802D01*
X158675213Y-91108492D01*
X158690232Y-91033600D01*
X158690232Y-89306400D01*
X158676139Y-89233763D01*
X158634202Y-89169922D01*
X158570892Y-89127187D01*
X158496000Y-89112168D01*
X156464000Y-89112168D01*
X156391363Y-89126261D01*
X156327522Y-89168198D01*
X156284787Y-89231508D01*
X156272388Y-89293336D01*
X154736800Y-87757748D01*
X154736800Y-87630000D01*
X156249863Y-87630000D01*
X156330102Y-88033387D01*
X156558602Y-88375361D01*
X156900576Y-88603861D01*
X157303963Y-88684100D01*
X157656037Y-88684100D01*
X158059424Y-88603861D01*
X158401398Y-88375361D01*
X158629898Y-88033387D01*
X158710137Y-87630000D01*
X158629898Y-87226613D01*
X158401398Y-86884639D01*
X158059424Y-86656139D01*
X157656037Y-86575900D01*
X157303963Y-86575900D01*
X156900576Y-86656139D01*
X156558602Y-86884639D01*
X156330102Y-87226613D01*
X156249863Y-87630000D01*
X154736800Y-87630000D01*
X154736800Y-85090000D01*
X156249863Y-85090000D01*
X156330102Y-85493387D01*
X156558602Y-85835361D01*
X156900576Y-86063861D01*
X157303963Y-86144100D01*
X157656037Y-86144100D01*
X158059424Y-86063861D01*
X158401398Y-85835361D01*
X158629898Y-85493387D01*
X158710137Y-85090000D01*
X158629898Y-84686613D01*
X158401398Y-84344639D01*
X158059424Y-84116139D01*
X157656037Y-84035900D01*
X157303963Y-84035900D01*
X156900576Y-84116139D01*
X156558602Y-84344639D01*
X156330102Y-84686613D01*
X156249863Y-85090000D01*
X154736800Y-85090000D01*
X154736800Y-82804000D01*
X154713598Y-82687358D01*
X154647526Y-82588474D01*
X154609052Y-82550000D01*
X156249863Y-82550000D01*
X156330102Y-82953387D01*
X156558602Y-83295361D01*
X156900576Y-83523861D01*
X157303963Y-83604100D01*
X157656037Y-83604100D01*
X158059424Y-83523861D01*
X158401398Y-83295361D01*
X158629898Y-82953387D01*
X158710137Y-82550000D01*
X158629898Y-82146613D01*
X158401398Y-81804639D01*
X158059424Y-81576139D01*
X157656037Y-81495900D01*
X157303963Y-81495900D01*
X156900576Y-81576139D01*
X156558602Y-81804639D01*
X156330102Y-82146613D01*
X156249863Y-82550000D01*
X154609052Y-82550000D01*
X147916526Y-75857474D01*
X147817642Y-75791402D01*
X147701000Y-75768200D01*
X147319252Y-75768200D01*
X145961111Y-74410059D01*
X145961173Y-74339002D01*
X145897503Y-74184909D01*
X145779711Y-74066911D01*
X145625730Y-74002973D01*
X145459002Y-74002827D01*
X145304909Y-74066497D01*
X145186911Y-74184289D01*
X145122973Y-74338270D01*
X145122827Y-74504998D01*
X140966254Y-74504998D01*
X142172741Y-73298511D01*
X142243798Y-73298573D01*
X142397891Y-73234903D01*
X142515889Y-73117111D01*
X142579827Y-72963130D01*
X142579973Y-72796402D01*
X142516303Y-72642309D01*
X142398511Y-72524311D01*
X142244530Y-72460373D01*
X142077802Y-72460227D01*
X141923709Y-72523897D01*
X141805711Y-72641689D01*
X141741773Y-72795670D01*
X141741710Y-72867438D01*
X131728948Y-82880200D01*
X129480232Y-82880200D01*
X129480232Y-82321400D01*
X129466139Y-82248763D01*
X129424202Y-82184922D01*
X129360892Y-82142187D01*
X129286000Y-82127168D01*
X127254000Y-82127168D01*
X127181363Y-82141261D01*
X127117522Y-82183198D01*
X127074787Y-82246508D01*
X127059768Y-82321400D01*
X126451807Y-82321400D01*
X126442596Y-80645000D01*
X127039863Y-80645000D01*
X127120102Y-81048387D01*
X127348602Y-81390361D01*
X127690576Y-81618861D01*
X128093963Y-81699100D01*
X128446037Y-81699100D01*
X128849424Y-81618861D01*
X129191398Y-81390361D01*
X129419898Y-81048387D01*
X129439508Y-80949800D01*
X132663000Y-80949800D01*
X132779642Y-80926598D01*
X132878526Y-80860526D01*
X142206441Y-71532611D01*
X142277498Y-71532673D01*
X142431591Y-71469003D01*
X142549589Y-71351211D01*
X142613527Y-71197230D01*
X142613673Y-71030502D01*
X142550003Y-70876409D01*
X142432211Y-70758411D01*
X142278230Y-70694473D01*
X142111502Y-70694327D01*
X141957409Y-70757997D01*
X141839411Y-70875789D01*
X141775473Y-71029770D01*
X141775410Y-71101538D01*
X132536748Y-80340200D01*
X129439508Y-80340200D01*
X129419898Y-80241613D01*
X129191398Y-79899639D01*
X128849424Y-79671139D01*
X128446037Y-79590900D01*
X128093963Y-79590900D01*
X127690576Y-79671139D01*
X127348602Y-79899639D01*
X127120102Y-80241613D01*
X127039863Y-80645000D01*
X126442596Y-80645000D01*
X126428640Y-78105000D01*
X127039863Y-78105000D01*
X127120102Y-78508387D01*
X127348602Y-78850361D01*
X127690576Y-79078861D01*
X128093963Y-79159100D01*
X128446037Y-79159100D01*
X128849424Y-79078861D01*
X129191398Y-78850361D01*
X129419898Y-78508387D01*
X129439508Y-78409800D01*
X133144600Y-78409800D01*
X133261242Y-78386598D01*
X133360126Y-78320526D01*
X139244041Y-72436611D01*
X139315098Y-72436673D01*
X139469191Y-72373003D01*
X139587189Y-72255211D01*
X139651127Y-72101230D01*
X139651273Y-71934502D01*
X139587603Y-71780409D01*
X139469811Y-71662411D01*
X139315830Y-71598473D01*
X139149102Y-71598327D01*
X138995009Y-71661997D01*
X138877011Y-71779789D01*
X138813073Y-71933770D01*
X138813010Y-72005538D01*
X133018348Y-77800200D01*
X129439508Y-77800200D01*
X129419898Y-77701613D01*
X129191398Y-77359639D01*
X128849424Y-77131139D01*
X128446037Y-77050900D01*
X128093963Y-77050900D01*
X127690576Y-77131139D01*
X127348602Y-77359639D01*
X127120102Y-77701613D01*
X127039863Y-78105000D01*
X126428640Y-78105000D01*
X126427700Y-77934016D01*
X126427700Y-75565000D01*
X127039863Y-75565000D01*
X127120102Y-75968387D01*
X127348602Y-76310361D01*
X127690576Y-76538861D01*
X128093963Y-76619100D01*
X128446037Y-76619100D01*
X128849424Y-76538861D01*
X129191398Y-76310361D01*
X129419898Y-75968387D01*
X129439508Y-75869800D01*
X134238700Y-75869800D01*
X134355342Y-75846598D01*
X134454226Y-75780526D01*
X138457941Y-71776811D01*
X138528998Y-71776873D01*
X138683091Y-71713203D01*
X138801089Y-71595411D01*
X138865027Y-71441430D01*
X138865173Y-71274702D01*
X138801503Y-71120609D01*
X138683711Y-71002611D01*
X138529730Y-70938673D01*
X138363002Y-70938527D01*
X138208909Y-71002197D01*
X138090911Y-71119989D01*
X138026973Y-71273970D01*
X138026910Y-71345738D01*
X134112448Y-75260200D01*
X129439508Y-75260200D01*
X129419898Y-75161613D01*
X129191398Y-74819639D01*
X128849424Y-74591139D01*
X128446037Y-74510900D01*
X128093963Y-74510900D01*
X127690576Y-74591139D01*
X127348602Y-74819639D01*
X127120102Y-75161613D01*
X127039863Y-75565000D01*
X126427700Y-75565000D01*
X126427700Y-73025000D01*
X127039863Y-73025000D01*
X127120102Y-73428387D01*
X127348602Y-73770361D01*
X127690576Y-73998861D01*
X128093963Y-74079100D01*
X128446037Y-74079100D01*
X128849424Y-73998861D01*
X129191398Y-73770361D01*
X129419898Y-73428387D01*
X129500137Y-73025000D01*
X129419898Y-72621613D01*
X129191398Y-72279639D01*
X128849424Y-72051139D01*
X128446037Y-71970900D01*
X128093963Y-71970900D01*
X127690576Y-72051139D01*
X127348602Y-72279639D01*
X127120102Y-72621613D01*
X127039863Y-73025000D01*
X126427700Y-73025000D01*
X126427700Y-70485000D01*
X127039863Y-70485000D01*
X127120102Y-70888387D01*
X127348602Y-71230361D01*
X127690576Y-71458861D01*
X128093963Y-71539100D01*
X128446037Y-71539100D01*
X128849424Y-71458861D01*
X129191398Y-71230361D01*
X129419898Y-70888387D01*
X129500137Y-70485000D01*
X129419898Y-70081613D01*
X129191398Y-69739639D01*
X128849424Y-69511139D01*
X128446037Y-69430900D01*
X128093963Y-69430900D01*
X127690576Y-69511139D01*
X127348602Y-69739639D01*
X127120102Y-70081613D01*
X127039863Y-70485000D01*
X126427700Y-70485000D01*
X126427700Y-64541400D01*
X127059768Y-64541400D01*
X127059768Y-66268600D01*
X127073861Y-66341237D01*
X127115798Y-66405078D01*
X127179108Y-66447813D01*
X127254000Y-66462832D01*
X127965200Y-66462832D01*
X127965200Y-66561000D01*
X127988402Y-66677642D01*
X128054474Y-66776526D01*
X130389974Y-69112026D01*
X130488858Y-69178098D01*
X130605500Y-69201300D01*
X141906588Y-69201300D01*
X141956789Y-69251589D01*
X142110770Y-69315527D01*
X142277498Y-69315673D01*
X142431591Y-69252003D01*
X142549589Y-69134211D01*
X142613527Y-68980230D01*
X142613673Y-68813502D01*
X142550003Y-68659409D01*
X142432211Y-68541411D01*
X142278230Y-68477473D01*
X142111502Y-68477327D01*
X141957409Y-68540997D01*
X141906617Y-68591700D01*
X130731752Y-68591700D01*
X128602884Y-66462832D01*
X129286000Y-66462832D01*
X129358637Y-66448739D01*
X129422478Y-66406802D01*
X129465213Y-66343492D01*
X129480232Y-66268600D01*
X129480232Y-64541400D01*
X129466139Y-64468763D01*
X129424202Y-64404922D01*
X129360892Y-64362187D01*
X129286000Y-64347168D01*
X127254000Y-64347168D01*
X127181363Y-64361261D01*
X127117522Y-64403198D01*
X127074787Y-64466508D01*
X127059768Y-64541400D01*
X126427700Y-64541400D01*
X126427700Y-62865000D01*
X127039863Y-62865000D01*
X127120102Y-63268387D01*
X127348602Y-63610361D01*
X127690576Y-63838861D01*
X128093963Y-63919100D01*
X128446037Y-63919100D01*
X128849424Y-63838861D01*
X129191398Y-63610361D01*
X129419898Y-63268387D01*
X129439508Y-63169800D01*
X134665348Y-63169800D01*
X138798089Y-67302541D01*
X138798027Y-67373598D01*
X138861697Y-67527691D01*
X138979489Y-67645689D01*
X139133470Y-67709627D01*
X139300198Y-67709773D01*
X139454291Y-67646103D01*
X139572289Y-67528311D01*
X139636227Y-67374330D01*
X139636373Y-67207602D01*
X139572703Y-67053509D01*
X139454911Y-66935511D01*
X139300930Y-66871573D01*
X139229162Y-66871510D01*
X135007126Y-62649474D01*
X134908242Y-62583402D01*
X134791600Y-62560200D01*
X129439508Y-62560200D01*
X129419898Y-62461613D01*
X129191398Y-62119639D01*
X128849424Y-61891139D01*
X128446037Y-61810900D01*
X128093963Y-61810900D01*
X127690576Y-61891139D01*
X127348602Y-62119639D01*
X127120102Y-62461613D01*
X127039863Y-62865000D01*
X126427700Y-62865000D01*
X126427700Y-60325000D01*
X127039863Y-60325000D01*
X127120102Y-60728387D01*
X127348602Y-61070361D01*
X127690576Y-61298861D01*
X128093963Y-61379100D01*
X128446037Y-61379100D01*
X128849424Y-61298861D01*
X129191398Y-61070361D01*
X129419898Y-60728387D01*
X129500137Y-60325000D01*
X129419898Y-59921613D01*
X129191398Y-59579639D01*
X128849424Y-59351139D01*
X128446037Y-59270900D01*
X128093963Y-59270900D01*
X127690576Y-59351139D01*
X127348602Y-59579639D01*
X127120102Y-59921613D01*
X127039863Y-60325000D01*
X126427700Y-60325000D01*
X126427700Y-57785000D01*
X127039863Y-57785000D01*
X127120102Y-58188387D01*
X127348602Y-58530361D01*
X127690576Y-58758861D01*
X128093963Y-58839100D01*
X128446037Y-58839100D01*
X128849424Y-58758861D01*
X129191398Y-58530361D01*
X129419898Y-58188387D01*
X129439508Y-58089800D01*
X133834548Y-58089800D01*
X142103489Y-66358741D01*
X142103427Y-66429798D01*
X142167097Y-66583891D01*
X142284889Y-66701889D01*
X142438870Y-66765827D01*
X142605598Y-66765973D01*
X142759691Y-66702303D01*
X142877689Y-66584511D01*
X142941627Y-66430530D01*
X142941773Y-66263802D01*
X142878103Y-66109709D01*
X142760311Y-65991711D01*
X142606330Y-65927773D01*
X142534562Y-65927710D01*
X134176326Y-57569474D01*
X134077442Y-57503402D01*
X133960800Y-57480200D01*
X129439508Y-57480200D01*
X129419898Y-57381613D01*
X129191398Y-57039639D01*
X128849424Y-56811139D01*
X128446037Y-56730900D01*
X128093963Y-56730900D01*
X127690576Y-56811139D01*
X127348602Y-57039639D01*
X127120102Y-57381613D01*
X127039863Y-57785000D01*
X126427700Y-57785000D01*
X126427700Y-55245000D01*
X127039863Y-55245000D01*
X127120102Y-55648387D01*
X127348602Y-55990361D01*
X127690576Y-56218861D01*
X128093963Y-56299100D01*
X128446037Y-56299100D01*
X128849424Y-56218861D01*
X129191398Y-55990361D01*
X129419898Y-55648387D01*
X129500137Y-55245000D01*
X129419898Y-54841613D01*
X129191398Y-54499639D01*
X128849424Y-54271139D01*
X128446037Y-54190900D01*
X128093963Y-54190900D01*
X127690576Y-54271139D01*
X127348602Y-54499639D01*
X127120102Y-54841613D01*
X127039863Y-55245000D01*
X126427700Y-55245000D01*
X126427700Y-52705000D01*
X127039863Y-52705000D01*
X127120102Y-53108387D01*
X127348602Y-53450361D01*
X127690576Y-53678861D01*
X128093963Y-53759100D01*
X128446037Y-53759100D01*
X128849424Y-53678861D01*
X129191398Y-53450361D01*
X129419898Y-53108387D01*
X129439508Y-53009800D01*
X130915348Y-53009800D01*
X142309689Y-64404141D01*
X142309627Y-64475198D01*
X142373297Y-64629291D01*
X142491089Y-64747289D01*
X142645070Y-64811227D01*
X142811798Y-64811373D01*
X142965891Y-64747703D01*
X143083889Y-64629911D01*
X143147827Y-64475930D01*
X143147973Y-64309202D01*
X143084303Y-64155109D01*
X142966511Y-64037111D01*
X142812530Y-63973173D01*
X142740762Y-63973110D01*
X134271052Y-55503400D01*
X143542300Y-55503400D01*
X143542300Y-63594900D01*
X143565502Y-63711542D01*
X143631574Y-63810426D01*
X146364289Y-66543141D01*
X146364227Y-66614198D01*
X146427897Y-66768291D01*
X146545689Y-66886289D01*
X146699670Y-66950227D01*
X146866398Y-66950373D01*
X147020491Y-66886703D01*
X147138489Y-66768911D01*
X147202427Y-66614930D01*
X147202573Y-66448202D01*
X147138903Y-66294109D01*
X147021111Y-66176111D01*
X146867130Y-66112173D01*
X146795362Y-66112110D01*
X144151900Y-63468648D01*
X144151900Y-56621106D01*
X144239602Y-56752361D01*
X144581576Y-56980861D01*
X144856200Y-57035487D01*
X144856200Y-57163000D01*
X144879402Y-57279642D01*
X144945474Y-57378526D01*
X149462300Y-61895352D01*
X149462300Y-67086188D01*
X149412011Y-67136389D01*
X149348073Y-67290370D01*
X149347927Y-67457098D01*
X149411597Y-67611191D01*
X149529389Y-67729189D01*
X149683370Y-67793127D01*
X149850098Y-67793273D01*
X150004191Y-67729603D01*
X150122189Y-67611811D01*
X150186127Y-67457830D01*
X150186273Y-67291102D01*
X150122603Y-67137009D01*
X150071900Y-67086217D01*
X150071900Y-61769100D01*
X150048698Y-61652458D01*
X149982626Y-61553574D01*
X145465800Y-57036748D01*
X145465800Y-57035487D01*
X145740424Y-56980861D01*
X146082398Y-56752361D01*
X146310898Y-56410387D01*
X146391137Y-56007000D01*
X146310898Y-55603613D01*
X146082398Y-55261639D01*
X145740424Y-55033139D01*
X145337037Y-54952900D01*
X144984963Y-54952900D01*
X144789839Y-54991713D01*
X144853752Y-54927800D01*
X145161000Y-54927800D01*
X145277642Y-54904598D01*
X145376526Y-54838526D01*
X145442598Y-54739642D01*
X145465800Y-54623000D01*
X145465800Y-54495487D01*
X145740424Y-54440861D01*
X146082398Y-54212361D01*
X146310898Y-53870387D01*
X146391137Y-53467000D01*
X146310898Y-53063613D01*
X146082398Y-52721639D01*
X145740424Y-52493139D01*
X145337037Y-52412900D01*
X144984963Y-52412900D01*
X144581576Y-52493139D01*
X144239602Y-52721639D01*
X144011102Y-53063613D01*
X143930863Y-53467000D01*
X144011102Y-53870387D01*
X144239602Y-54212361D01*
X144521791Y-54400914D01*
X144511974Y-54407474D01*
X143631574Y-55287874D01*
X143565502Y-55386758D01*
X143542300Y-55503400D01*
X134271052Y-55503400D01*
X131257126Y-52489474D01*
X131158242Y-52423402D01*
X131041600Y-52400200D01*
X129439508Y-52400200D01*
X129419898Y-52301613D01*
X129191398Y-51959639D01*
X128849424Y-51731139D01*
X128446037Y-51650900D01*
X128093963Y-51650900D01*
X127690576Y-51731139D01*
X127348602Y-51959639D01*
X127120102Y-52301613D01*
X127039863Y-52705000D01*
X126427700Y-52705000D01*
X126427700Y-50165000D01*
X127039863Y-50165000D01*
X127120102Y-50568387D01*
X127348602Y-50910361D01*
X127690576Y-51138861D01*
X128093963Y-51219100D01*
X128446037Y-51219100D01*
X128849424Y-51138861D01*
X129166496Y-50927000D01*
X143930863Y-50927000D01*
X144011102Y-51330387D01*
X144239602Y-51672361D01*
X144581576Y-51900861D01*
X144984963Y-51981100D01*
X145337037Y-51981100D01*
X145740424Y-51900861D01*
X146082398Y-51672361D01*
X146310898Y-51330387D01*
X146391137Y-50927000D01*
X146352324Y-50731876D01*
X149126400Y-53505952D01*
X149126400Y-53951500D01*
X149149602Y-54068142D01*
X149215674Y-54167026D01*
X150128174Y-55079526D01*
X150227058Y-55145598D01*
X150298368Y-55159783D01*
X150296576Y-55160139D01*
X149954602Y-55388639D01*
X149726102Y-55730613D01*
X149645863Y-56134000D01*
X149726102Y-56537387D01*
X149954602Y-56879361D01*
X150296576Y-57107861D01*
X150571200Y-57162487D01*
X150571200Y-68769348D01*
X149473274Y-69867274D01*
X149407202Y-69966158D01*
X149404033Y-69982090D01*
X149333711Y-70052289D01*
X149269773Y-70206270D01*
X149269627Y-70372998D01*
X149333297Y-70527091D01*
X149451089Y-70645089D01*
X149605070Y-70709027D01*
X149771798Y-70709173D01*
X149925891Y-70645503D01*
X150043889Y-70527711D01*
X150065306Y-70476133D01*
X150107389Y-70518289D01*
X150261370Y-70582227D01*
X150428098Y-70582373D01*
X150582191Y-70518703D01*
X150700189Y-70400911D01*
X150764127Y-70246930D01*
X150764190Y-70175162D01*
X152056170Y-68883182D01*
X152056027Y-69046598D01*
X152119697Y-69200691D01*
X152237489Y-69318689D01*
X152391470Y-69382627D01*
X152436082Y-69382666D01*
X149601630Y-72217118D01*
X149534330Y-72189173D01*
X149367602Y-72189027D01*
X149213509Y-72252697D01*
X149095511Y-72370489D01*
X149031573Y-72524470D01*
X149031427Y-72691198D01*
X149095097Y-72845291D01*
X149116069Y-72866300D01*
X147064403Y-72866300D01*
X146951911Y-72753611D01*
X146797930Y-72689673D01*
X146631202Y-72689527D01*
X146477109Y-72753197D01*
X146359111Y-72870989D01*
X146295173Y-73024970D01*
X146295027Y-73191698D01*
X146358697Y-73345791D01*
X146476489Y-73463789D01*
X146630470Y-73527727D01*
X146797198Y-73527873D01*
X146922982Y-73475900D01*
X149654000Y-73475900D01*
X149770642Y-73452698D01*
X149869526Y-73386626D01*
X157060526Y-66195626D01*
X157073842Y-66175697D01*
X157126598Y-66096742D01*
X157149800Y-65980100D01*
X157149800Y-57035487D01*
X157424424Y-56980861D01*
X157766398Y-56752361D01*
X157855900Y-56618412D01*
X157855900Y-65603848D01*
X152324459Y-71135289D01*
X152253402Y-71135227D01*
X152099309Y-71198897D01*
X151981311Y-71316689D01*
X151917373Y-71470670D01*
X151917227Y-71637398D01*
X151980897Y-71791491D01*
X152098689Y-71909489D01*
X152252670Y-71973427D01*
X152419398Y-71973573D01*
X152573491Y-71909903D01*
X152691489Y-71792111D01*
X152755427Y-71638130D01*
X152755490Y-71566362D01*
X158376226Y-65945626D01*
X158442298Y-65846742D01*
X158465500Y-65730100D01*
X158465500Y-50425200D01*
X158442298Y-50308558D01*
X158376226Y-50209674D01*
X157611384Y-49444832D01*
X157861000Y-49444832D01*
X157933637Y-49430739D01*
X157997478Y-49388802D01*
X158040213Y-49325492D01*
X158055232Y-49250600D01*
X158055232Y-47523400D01*
X158041139Y-47450763D01*
X157999202Y-47386922D01*
X157935892Y-47344187D01*
X157861000Y-47329168D01*
X155829000Y-47329168D01*
X155756363Y-47343261D01*
X155692522Y-47385198D01*
X155649787Y-47448508D01*
X155634768Y-47523400D01*
X155634768Y-49250600D01*
X155648861Y-49323237D01*
X155690798Y-49387078D01*
X155754108Y-49429813D01*
X155829000Y-49444832D01*
X156540200Y-49444832D01*
X156540200Y-49543000D01*
X156563402Y-49659642D01*
X156629474Y-49758526D01*
X156728358Y-49824598D01*
X156845000Y-49847800D01*
X157152248Y-49847800D01*
X157216161Y-49911713D01*
X157021037Y-49872900D01*
X156668963Y-49872900D01*
X156265576Y-49953139D01*
X155923602Y-50181639D01*
X155695102Y-50523613D01*
X155614863Y-50927000D01*
X155695102Y-51330387D01*
X155923602Y-51672361D01*
X156265576Y-51900861D01*
X156668963Y-51981100D01*
X157021037Y-51981100D01*
X157424424Y-51900861D01*
X157766398Y-51672361D01*
X157855900Y-51538412D01*
X157855900Y-52855588D01*
X157766398Y-52721639D01*
X157424424Y-52493139D01*
X157021037Y-52412900D01*
X156668963Y-52412900D01*
X156265576Y-52493139D01*
X155923602Y-52721639D01*
X155695102Y-53063613D01*
X155614863Y-53467000D01*
X155695102Y-53870387D01*
X155923602Y-54212361D01*
X156205791Y-54400914D01*
X156195974Y-54407474D01*
X154127274Y-56476174D01*
X154061202Y-56575058D01*
X154038000Y-56691700D01*
X154038000Y-67780748D01*
X153556940Y-68261808D01*
X153575600Y-68168000D01*
X153575600Y-51631300D01*
X153552398Y-51514658D01*
X153486326Y-51415774D01*
X151642384Y-49571832D01*
X151892000Y-49571832D01*
X151964637Y-49557739D01*
X152028478Y-49515802D01*
X152071213Y-49452492D01*
X152086232Y-49377600D01*
X152086232Y-47650400D01*
X152072139Y-47577763D01*
X152030202Y-47513922D01*
X151966892Y-47471187D01*
X151892000Y-47456168D01*
X149860000Y-47456168D01*
X149787363Y-47470261D01*
X149723522Y-47512198D01*
X149680787Y-47575508D01*
X149665768Y-47650400D01*
X149665768Y-49377600D01*
X149679861Y-49450237D01*
X149721798Y-49514078D01*
X149785108Y-49556813D01*
X149860000Y-49571832D01*
X150571200Y-49571832D01*
X150571200Y-49670000D01*
X150594402Y-49786642D01*
X150660474Y-49885526D01*
X150759358Y-49951598D01*
X150876000Y-49974800D01*
X151183248Y-49974800D01*
X151247161Y-50038713D01*
X151052037Y-49999900D01*
X150699963Y-49999900D01*
X150296576Y-50080139D01*
X149954602Y-50308639D01*
X149726102Y-50650613D01*
X149645863Y-51054000D01*
X149726102Y-51457387D01*
X149954602Y-51799361D01*
X150296576Y-52027861D01*
X150699963Y-52108100D01*
X151052037Y-52108100D01*
X151455424Y-52027861D01*
X151797398Y-51799361D01*
X152025898Y-51457387D01*
X152106137Y-51054000D01*
X152067324Y-50858876D01*
X152966000Y-51757552D01*
X152966000Y-55252948D01*
X151899543Y-54186491D01*
X152025898Y-53997387D01*
X152106137Y-53594000D01*
X152025898Y-53190613D01*
X151797398Y-52848639D01*
X151455424Y-52620139D01*
X151052037Y-52539900D01*
X150699963Y-52539900D01*
X150296576Y-52620139D01*
X149954602Y-52848639D01*
X149726102Y-53190613D01*
X149711946Y-53261782D01*
X149646726Y-53164174D01*
X145927384Y-49444832D01*
X146177000Y-49444832D01*
X146249637Y-49430739D01*
X146313478Y-49388802D01*
X146356213Y-49325492D01*
X146371232Y-49250600D01*
X146371232Y-47523400D01*
X146357139Y-47450763D01*
X146315202Y-47386922D01*
X146251892Y-47344187D01*
X146177000Y-47329168D01*
X144145000Y-47329168D01*
X144072363Y-47343261D01*
X144008522Y-47385198D01*
X143965787Y-47448508D01*
X143950768Y-47523400D01*
X143950768Y-49250600D01*
X143964861Y-49323237D01*
X144006798Y-49387078D01*
X144070108Y-49429813D01*
X144145000Y-49444832D01*
X144856200Y-49444832D01*
X144856200Y-49543000D01*
X144879402Y-49659642D01*
X144945474Y-49758526D01*
X145044358Y-49824598D01*
X145161000Y-49847800D01*
X145468248Y-49847800D01*
X145532161Y-49911713D01*
X145337037Y-49872900D01*
X144984963Y-49872900D01*
X144581576Y-49953139D01*
X144239602Y-50181639D01*
X144011102Y-50523613D01*
X143930863Y-50927000D01*
X129166496Y-50927000D01*
X129191398Y-50910361D01*
X129419898Y-50568387D01*
X129500137Y-50165000D01*
X129419898Y-49761613D01*
X129191398Y-49419639D01*
X128849424Y-49191139D01*
X128446037Y-49110900D01*
X128093963Y-49110900D01*
X127690576Y-49191139D01*
X127348602Y-49419639D01*
X127120102Y-49761613D01*
X127039863Y-50165000D01*
X126427700Y-50165000D01*
X126427700Y-47625000D01*
X127039863Y-47625000D01*
X127120102Y-48028387D01*
X127348602Y-48370361D01*
X127690576Y-48598861D01*
X128093963Y-48679100D01*
X128446037Y-48679100D01*
X128849424Y-48598861D01*
X129191398Y-48370361D01*
X129419898Y-48028387D01*
X129500137Y-47625000D01*
X129419898Y-47221613D01*
X129191398Y-46879639D01*
X128849424Y-46651139D01*
X128446037Y-46570900D01*
X128093963Y-46570900D01*
X127690576Y-46651139D01*
X127348602Y-46879639D01*
X127120102Y-47221613D01*
X127039863Y-47625000D01*
X126427700Y-47625000D01*
X126427700Y-45782700D01*
X159322300Y-45782700D01*
X159322300Y-77933834D01*
X159322300Y-77933834D01*
G37*
X159322300Y-77933834D02*
X159245369Y-91935300D01*
X126504630Y-91935300D01*
X126489489Y-89179400D01*
X133282768Y-89179400D01*
X133282768Y-90906600D01*
X133296861Y-90979237D01*
X133338798Y-91043078D01*
X133402108Y-91085813D01*
X133477000Y-91100832D01*
X135509000Y-91100832D01*
X135581637Y-91086739D01*
X135645478Y-91044802D01*
X135688213Y-90981492D01*
X135703232Y-90906600D01*
X135703232Y-89179400D01*
X135689139Y-89106763D01*
X135647202Y-89042922D01*
X135583892Y-89000187D01*
X135509000Y-88985168D01*
X133477000Y-88985168D01*
X133404363Y-88999261D01*
X133340522Y-89041198D01*
X133297787Y-89104508D01*
X133282768Y-89179400D01*
X126489489Y-89179400D01*
X126485357Y-88427237D01*
X145351247Y-88427237D01*
X145573126Y-88964226D01*
X145983613Y-89375430D01*
X146520214Y-89598246D01*
X147101237Y-89598753D01*
X147638226Y-89376874D01*
X148049430Y-88966387D01*
X148272246Y-88429786D01*
X148272753Y-87848763D01*
X148050874Y-87311774D01*
X147640387Y-86900570D01*
X147103786Y-86677754D01*
X146522763Y-86677247D01*
X145985774Y-86899126D01*
X145574570Y-87309613D01*
X145351754Y-87846214D01*
X145351247Y-88427237D01*
X126485357Y-88427237D01*
X126466322Y-84963000D01*
X133262863Y-84963000D01*
X133343102Y-85366387D01*
X133571602Y-85708361D01*
X133913576Y-85936861D01*
X134316963Y-86017100D01*
X134669037Y-86017100D01*
X135072424Y-85936861D01*
X135414398Y-85708361D01*
X135642898Y-85366387D01*
X135723137Y-84963000D01*
X135642898Y-84559613D01*
X135414398Y-84217639D01*
X135072424Y-83989139D01*
X134669037Y-83908900D01*
X134316963Y-83908900D01*
X133913576Y-83989139D01*
X133571602Y-84217639D01*
X133343102Y-84559613D01*
X133262863Y-84963000D01*
X126466322Y-84963000D01*
X126451807Y-82321400D01*
X127059768Y-82321400D01*
X127059768Y-84048600D01*
X127073861Y-84121237D01*
X127115798Y-84185078D01*
X127179108Y-84227813D01*
X127254000Y-84242832D01*
X129286000Y-84242832D01*
X129358637Y-84228739D01*
X129422478Y-84186802D01*
X129465213Y-84123492D01*
X129480232Y-84048600D01*
X129480232Y-83489800D01*
X131855200Y-83489800D01*
X131971842Y-83466598D01*
X132070726Y-83400526D01*
X133316152Y-82155100D01*
X133262863Y-82423000D01*
X133343102Y-82826387D01*
X133571602Y-83168361D01*
X133913576Y-83396861D01*
X134316963Y-83477100D01*
X134669037Y-83477100D01*
X135072424Y-83396861D01*
X135414398Y-83168361D01*
X135642898Y-82826387D01*
X135723137Y-82423000D01*
X135642898Y-82019613D01*
X135414398Y-81677639D01*
X135072424Y-81449139D01*
X134669037Y-81368900D01*
X134316963Y-81368900D01*
X134049063Y-81422189D01*
X140966254Y-74504998D01*
X145122827Y-74504998D01*
X145186497Y-74659091D01*
X145304289Y-74777089D01*
X145458270Y-74841027D01*
X145530038Y-74841090D01*
X146977474Y-76288526D01*
X147076358Y-76354598D01*
X147193000Y-76377800D01*
X147574748Y-76377800D01*
X154127200Y-82930252D01*
X154127200Y-87884000D01*
X154150402Y-88000642D01*
X154216474Y-88099526D01*
X156269768Y-90152820D01*
X156269768Y-91033600D01*
X156283861Y-91106237D01*
X156325798Y-91170078D01*
X156389108Y-91212813D01*
X156464000Y-91227832D01*
X158496000Y-91227832D01*
X158568637Y-91213739D01*
X158632478Y-91171802D01*
X158675213Y-91108492D01*
X158690232Y-91033600D01*
X158690232Y-89306400D01*
X158676139Y-89233763D01*
X158634202Y-89169922D01*
X158570892Y-89127187D01*
X158496000Y-89112168D01*
X156464000Y-89112168D01*
X156391363Y-89126261D01*
X156327522Y-89168198D01*
X156284787Y-89231508D01*
X156272388Y-89293336D01*
X154736800Y-87757748D01*
X154736800Y-87630000D01*
X156249863Y-87630000D01*
X156330102Y-88033387D01*
X156558602Y-88375361D01*
X156900576Y-88603861D01*
X157303963Y-88684100D01*
X157656037Y-88684100D01*
X158059424Y-88603861D01*
X158401398Y-88375361D01*
X158629898Y-88033387D01*
X158710137Y-87630000D01*
X158629898Y-87226613D01*
X158401398Y-86884639D01*
X158059424Y-86656139D01*
X157656037Y-86575900D01*
X157303963Y-86575900D01*
X156900576Y-86656139D01*
X156558602Y-86884639D01*
X156330102Y-87226613D01*
X156249863Y-87630000D01*
X154736800Y-87630000D01*
X154736800Y-85090000D01*
X156249863Y-85090000D01*
X156330102Y-85493387D01*
X156558602Y-85835361D01*
X156900576Y-86063861D01*
X157303963Y-86144100D01*
X157656037Y-86144100D01*
X158059424Y-86063861D01*
X158401398Y-85835361D01*
X158629898Y-85493387D01*
X158710137Y-85090000D01*
X158629898Y-84686613D01*
X158401398Y-84344639D01*
X158059424Y-84116139D01*
X157656037Y-84035900D01*
X157303963Y-84035900D01*
X156900576Y-84116139D01*
X156558602Y-84344639D01*
X156330102Y-84686613D01*
X156249863Y-85090000D01*
X154736800Y-85090000D01*
X154736800Y-82804000D01*
X154713598Y-82687358D01*
X154647526Y-82588474D01*
X154609052Y-82550000D01*
X156249863Y-82550000D01*
X156330102Y-82953387D01*
X156558602Y-83295361D01*
X156900576Y-83523861D01*
X157303963Y-83604100D01*
X157656037Y-83604100D01*
X158059424Y-83523861D01*
X158401398Y-83295361D01*
X158629898Y-82953387D01*
X158710137Y-82550000D01*
X158629898Y-82146613D01*
X158401398Y-81804639D01*
X158059424Y-81576139D01*
X157656037Y-81495900D01*
X157303963Y-81495900D01*
X156900576Y-81576139D01*
X156558602Y-81804639D01*
X156330102Y-82146613D01*
X156249863Y-82550000D01*
X154609052Y-82550000D01*
X147916526Y-75857474D01*
X147817642Y-75791402D01*
X147701000Y-75768200D01*
X147319252Y-75768200D01*
X145961111Y-74410059D01*
X145961173Y-74339002D01*
X145897503Y-74184909D01*
X145779711Y-74066911D01*
X145625730Y-74002973D01*
X145459002Y-74002827D01*
X145304909Y-74066497D01*
X145186911Y-74184289D01*
X145122973Y-74338270D01*
X145122827Y-74504998D01*
X140966254Y-74504998D01*
X142172741Y-73298511D01*
X142243798Y-73298573D01*
X142397891Y-73234903D01*
X142515889Y-73117111D01*
X142579827Y-72963130D01*
X142579973Y-72796402D01*
X142516303Y-72642309D01*
X142398511Y-72524311D01*
X142244530Y-72460373D01*
X142077802Y-72460227D01*
X141923709Y-72523897D01*
X141805711Y-72641689D01*
X141741773Y-72795670D01*
X141741710Y-72867438D01*
X131728948Y-82880200D01*
X129480232Y-82880200D01*
X129480232Y-82321400D01*
X129466139Y-82248763D01*
X129424202Y-82184922D01*
X129360892Y-82142187D01*
X129286000Y-82127168D01*
X127254000Y-82127168D01*
X127181363Y-82141261D01*
X127117522Y-82183198D01*
X127074787Y-82246508D01*
X127059768Y-82321400D01*
X126451807Y-82321400D01*
X126442596Y-80645000D01*
X127039863Y-80645000D01*
X127120102Y-81048387D01*
X127348602Y-81390361D01*
X127690576Y-81618861D01*
X128093963Y-81699100D01*
X128446037Y-81699100D01*
X128849424Y-81618861D01*
X129191398Y-81390361D01*
X129419898Y-81048387D01*
X129439508Y-80949800D01*
X132663000Y-80949800D01*
X132779642Y-80926598D01*
X132878526Y-80860526D01*
X142206441Y-71532611D01*
X142277498Y-71532673D01*
X142431591Y-71469003D01*
X142549589Y-71351211D01*
X142613527Y-71197230D01*
X142613673Y-71030502D01*
X142550003Y-70876409D01*
X142432211Y-70758411D01*
X142278230Y-70694473D01*
X142111502Y-70694327D01*
X141957409Y-70757997D01*
X141839411Y-70875789D01*
X141775473Y-71029770D01*
X141775410Y-71101538D01*
X132536748Y-80340200D01*
X129439508Y-80340200D01*
X129419898Y-80241613D01*
X129191398Y-79899639D01*
X128849424Y-79671139D01*
X128446037Y-79590900D01*
X128093963Y-79590900D01*
X127690576Y-79671139D01*
X127348602Y-79899639D01*
X127120102Y-80241613D01*
X127039863Y-80645000D01*
X126442596Y-80645000D01*
X126428640Y-78105000D01*
X127039863Y-78105000D01*
X127120102Y-78508387D01*
X127348602Y-78850361D01*
X127690576Y-79078861D01*
X128093963Y-79159100D01*
X128446037Y-79159100D01*
X128849424Y-79078861D01*
X129191398Y-78850361D01*
X129419898Y-78508387D01*
X129439508Y-78409800D01*
X133144600Y-78409800D01*
X133261242Y-78386598D01*
X133360126Y-78320526D01*
X139244041Y-72436611D01*
X139315098Y-72436673D01*
X139469191Y-72373003D01*
X139587189Y-72255211D01*
X139651127Y-72101230D01*
X139651273Y-71934502D01*
X139587603Y-71780409D01*
X139469811Y-71662411D01*
X139315830Y-71598473D01*
X139149102Y-71598327D01*
X138995009Y-71661997D01*
X138877011Y-71779789D01*
X138813073Y-71933770D01*
X138813010Y-72005538D01*
X133018348Y-77800200D01*
X129439508Y-77800200D01*
X129419898Y-77701613D01*
X129191398Y-77359639D01*
X128849424Y-77131139D01*
X128446037Y-77050900D01*
X128093963Y-77050900D01*
X127690576Y-77131139D01*
X127348602Y-77359639D01*
X127120102Y-77701613D01*
X127039863Y-78105000D01*
X126428640Y-78105000D01*
X126427700Y-77934016D01*
X126427700Y-75565000D01*
X127039863Y-75565000D01*
X127120102Y-75968387D01*
X127348602Y-76310361D01*
X127690576Y-76538861D01*
X128093963Y-76619100D01*
X128446037Y-76619100D01*
X128849424Y-76538861D01*
X129191398Y-76310361D01*
X129419898Y-75968387D01*
X129439508Y-75869800D01*
X134238700Y-75869800D01*
X134355342Y-75846598D01*
X134454226Y-75780526D01*
X138457941Y-71776811D01*
X138528998Y-71776873D01*
X138683091Y-71713203D01*
X138801089Y-71595411D01*
X138865027Y-71441430D01*
X138865173Y-71274702D01*
X138801503Y-71120609D01*
X138683711Y-71002611D01*
X138529730Y-70938673D01*
X138363002Y-70938527D01*
X138208909Y-71002197D01*
X138090911Y-71119989D01*
X138026973Y-71273970D01*
X138026910Y-71345738D01*
X134112448Y-75260200D01*
X129439508Y-75260200D01*
X129419898Y-75161613D01*
X129191398Y-74819639D01*
X128849424Y-74591139D01*
X128446037Y-74510900D01*
X128093963Y-74510900D01*
X127690576Y-74591139D01*
X127348602Y-74819639D01*
X127120102Y-75161613D01*
X127039863Y-75565000D01*
X126427700Y-75565000D01*
X126427700Y-73025000D01*
X127039863Y-73025000D01*
X127120102Y-73428387D01*
X127348602Y-73770361D01*
X127690576Y-73998861D01*
X128093963Y-74079100D01*
X128446037Y-74079100D01*
X128849424Y-73998861D01*
X129191398Y-73770361D01*
X129419898Y-73428387D01*
X129500137Y-73025000D01*
X129419898Y-72621613D01*
X129191398Y-72279639D01*
X128849424Y-72051139D01*
X128446037Y-71970900D01*
X128093963Y-71970900D01*
X127690576Y-72051139D01*
X127348602Y-72279639D01*
X127120102Y-72621613D01*
X127039863Y-73025000D01*
X126427700Y-73025000D01*
X126427700Y-70485000D01*
X127039863Y-70485000D01*
X127120102Y-70888387D01*
X127348602Y-71230361D01*
X127690576Y-71458861D01*
X128093963Y-71539100D01*
X128446037Y-71539100D01*
X128849424Y-71458861D01*
X129191398Y-71230361D01*
X129419898Y-70888387D01*
X129500137Y-70485000D01*
X129419898Y-70081613D01*
X129191398Y-69739639D01*
X128849424Y-69511139D01*
X128446037Y-69430900D01*
X128093963Y-69430900D01*
X127690576Y-69511139D01*
X127348602Y-69739639D01*
X127120102Y-70081613D01*
X127039863Y-70485000D01*
X126427700Y-70485000D01*
X126427700Y-64541400D01*
X127059768Y-64541400D01*
X127059768Y-66268600D01*
X127073861Y-66341237D01*
X127115798Y-66405078D01*
X127179108Y-66447813D01*
X127254000Y-66462832D01*
X127965200Y-66462832D01*
X127965200Y-66561000D01*
X127988402Y-66677642D01*
X128054474Y-66776526D01*
X130389974Y-69112026D01*
X130488858Y-69178098D01*
X130605500Y-69201300D01*
X141906588Y-69201300D01*
X141956789Y-69251589D01*
X142110770Y-69315527D01*
X142277498Y-69315673D01*
X142431591Y-69252003D01*
X142549589Y-69134211D01*
X142613527Y-68980230D01*
X142613673Y-68813502D01*
X142550003Y-68659409D01*
X142432211Y-68541411D01*
X142278230Y-68477473D01*
X142111502Y-68477327D01*
X141957409Y-68540997D01*
X141906617Y-68591700D01*
X130731752Y-68591700D01*
X128602884Y-66462832D01*
X129286000Y-66462832D01*
X129358637Y-66448739D01*
X129422478Y-66406802D01*
X129465213Y-66343492D01*
X129480232Y-66268600D01*
X129480232Y-64541400D01*
X129466139Y-64468763D01*
X129424202Y-64404922D01*
X129360892Y-64362187D01*
X129286000Y-64347168D01*
X127254000Y-64347168D01*
X127181363Y-64361261D01*
X127117522Y-64403198D01*
X127074787Y-64466508D01*
X127059768Y-64541400D01*
X126427700Y-64541400D01*
X126427700Y-62865000D01*
X127039863Y-62865000D01*
X127120102Y-63268387D01*
X127348602Y-63610361D01*
X127690576Y-63838861D01*
X128093963Y-63919100D01*
X128446037Y-63919100D01*
X128849424Y-63838861D01*
X129191398Y-63610361D01*
X129419898Y-63268387D01*
X129439508Y-63169800D01*
X134665348Y-63169800D01*
X138798089Y-67302541D01*
X138798027Y-67373598D01*
X138861697Y-67527691D01*
X138979489Y-67645689D01*
X139133470Y-67709627D01*
X139300198Y-67709773D01*
X139454291Y-67646103D01*
X139572289Y-67528311D01*
X139636227Y-67374330D01*
X139636373Y-67207602D01*
X139572703Y-67053509D01*
X139454911Y-66935511D01*
X139300930Y-66871573D01*
X139229162Y-66871510D01*
X135007126Y-62649474D01*
X134908242Y-62583402D01*
X134791600Y-62560200D01*
X129439508Y-62560200D01*
X129419898Y-62461613D01*
X129191398Y-62119639D01*
X128849424Y-61891139D01*
X128446037Y-61810900D01*
X128093963Y-61810900D01*
X127690576Y-61891139D01*
X127348602Y-62119639D01*
X127120102Y-62461613D01*
X127039863Y-62865000D01*
X126427700Y-62865000D01*
X126427700Y-60325000D01*
X127039863Y-60325000D01*
X127120102Y-60728387D01*
X127348602Y-61070361D01*
X127690576Y-61298861D01*
X128093963Y-61379100D01*
X128446037Y-61379100D01*
X128849424Y-61298861D01*
X129191398Y-61070361D01*
X129419898Y-60728387D01*
X129500137Y-60325000D01*
X129419898Y-59921613D01*
X129191398Y-59579639D01*
X128849424Y-59351139D01*
X128446037Y-59270900D01*
X128093963Y-59270900D01*
X127690576Y-59351139D01*
X127348602Y-59579639D01*
X127120102Y-59921613D01*
X127039863Y-60325000D01*
X126427700Y-60325000D01*
X126427700Y-57785000D01*
X127039863Y-57785000D01*
X127120102Y-58188387D01*
X127348602Y-58530361D01*
X127690576Y-58758861D01*
X128093963Y-58839100D01*
X128446037Y-58839100D01*
X128849424Y-58758861D01*
X129191398Y-58530361D01*
X129419898Y-58188387D01*
X129439508Y-58089800D01*
X133834548Y-58089800D01*
X142103489Y-66358741D01*
X142103427Y-66429798D01*
X142167097Y-66583891D01*
X142284889Y-66701889D01*
X142438870Y-66765827D01*
X142605598Y-66765973D01*
X142759691Y-66702303D01*
X142877689Y-66584511D01*
X142941627Y-66430530D01*
X142941773Y-66263802D01*
X142878103Y-66109709D01*
X142760311Y-65991711D01*
X142606330Y-65927773D01*
X142534562Y-65927710D01*
X134176326Y-57569474D01*
X134077442Y-57503402D01*
X133960800Y-57480200D01*
X129439508Y-57480200D01*
X129419898Y-57381613D01*
X129191398Y-57039639D01*
X128849424Y-56811139D01*
X128446037Y-56730900D01*
X128093963Y-56730900D01*
X127690576Y-56811139D01*
X127348602Y-57039639D01*
X127120102Y-57381613D01*
X127039863Y-57785000D01*
X126427700Y-57785000D01*
X126427700Y-55245000D01*
X127039863Y-55245000D01*
X127120102Y-55648387D01*
X127348602Y-55990361D01*
X127690576Y-56218861D01*
X128093963Y-56299100D01*
X128446037Y-56299100D01*
X128849424Y-56218861D01*
X129191398Y-55990361D01*
X129419898Y-55648387D01*
X129500137Y-55245000D01*
X129419898Y-54841613D01*
X129191398Y-54499639D01*
X128849424Y-54271139D01*
X128446037Y-54190900D01*
X128093963Y-54190900D01*
X127690576Y-54271139D01*
X127348602Y-54499639D01*
X127120102Y-54841613D01*
X127039863Y-55245000D01*
X126427700Y-55245000D01*
X126427700Y-52705000D01*
X127039863Y-52705000D01*
X127120102Y-53108387D01*
X127348602Y-53450361D01*
X127690576Y-53678861D01*
X128093963Y-53759100D01*
X128446037Y-53759100D01*
X128849424Y-53678861D01*
X129191398Y-53450361D01*
X129419898Y-53108387D01*
X129439508Y-53009800D01*
X130915348Y-53009800D01*
X142309689Y-64404141D01*
X142309627Y-64475198D01*
X142373297Y-64629291D01*
X142491089Y-64747289D01*
X142645070Y-64811227D01*
X142811798Y-64811373D01*
X142965891Y-64747703D01*
X143083889Y-64629911D01*
X143147827Y-64475930D01*
X143147973Y-64309202D01*
X143084303Y-64155109D01*
X142966511Y-64037111D01*
X142812530Y-63973173D01*
X142740762Y-63973110D01*
X134271052Y-55503400D01*
X143542300Y-55503400D01*
X143542300Y-63594900D01*
X143565502Y-63711542D01*
X143631574Y-63810426D01*
X146364289Y-66543141D01*
X146364227Y-66614198D01*
X146427897Y-66768291D01*
X146545689Y-66886289D01*
X146699670Y-66950227D01*
X146866398Y-66950373D01*
X147020491Y-66886703D01*
X147138489Y-66768911D01*
X147202427Y-66614930D01*
X147202573Y-66448202D01*
X147138903Y-66294109D01*
X147021111Y-66176111D01*
X146867130Y-66112173D01*
X146795362Y-66112110D01*
X144151900Y-63468648D01*
X144151900Y-56621106D01*
X144239602Y-56752361D01*
X144581576Y-56980861D01*
X144856200Y-57035487D01*
X144856200Y-57163000D01*
X144879402Y-57279642D01*
X144945474Y-57378526D01*
X149462300Y-61895352D01*
X149462300Y-67086188D01*
X149412011Y-67136389D01*
X149348073Y-67290370D01*
X149347927Y-67457098D01*
X149411597Y-67611191D01*
X149529389Y-67729189D01*
X149683370Y-67793127D01*
X149850098Y-67793273D01*
X150004191Y-67729603D01*
X150122189Y-67611811D01*
X150186127Y-67457830D01*
X150186273Y-67291102D01*
X150122603Y-67137009D01*
X150071900Y-67086217D01*
X150071900Y-61769100D01*
X150048698Y-61652458D01*
X149982626Y-61553574D01*
X145465800Y-57036748D01*
X145465800Y-57035487D01*
X145740424Y-56980861D01*
X146082398Y-56752361D01*
X146310898Y-56410387D01*
X146391137Y-56007000D01*
X146310898Y-55603613D01*
X146082398Y-55261639D01*
X145740424Y-55033139D01*
X145337037Y-54952900D01*
X144984963Y-54952900D01*
X144789839Y-54991713D01*
X144853752Y-54927800D01*
X145161000Y-54927800D01*
X145277642Y-54904598D01*
X145376526Y-54838526D01*
X145442598Y-54739642D01*
X145465800Y-54623000D01*
X145465800Y-54495487D01*
X145740424Y-54440861D01*
X146082398Y-54212361D01*
X146310898Y-53870387D01*
X146391137Y-53467000D01*
X146310898Y-53063613D01*
X146082398Y-52721639D01*
X145740424Y-52493139D01*
X145337037Y-52412900D01*
X144984963Y-52412900D01*
X144581576Y-52493139D01*
X144239602Y-52721639D01*
X144011102Y-53063613D01*
X143930863Y-53467000D01*
X144011102Y-53870387D01*
X144239602Y-54212361D01*
X144521791Y-54400914D01*
X144511974Y-54407474D01*
X143631574Y-55287874D01*
X143565502Y-55386758D01*
X143542300Y-55503400D01*
X134271052Y-55503400D01*
X131257126Y-52489474D01*
X131158242Y-52423402D01*
X131041600Y-52400200D01*
X129439508Y-52400200D01*
X129419898Y-52301613D01*
X129191398Y-51959639D01*
X128849424Y-51731139D01*
X128446037Y-51650900D01*
X128093963Y-51650900D01*
X127690576Y-51731139D01*
X127348602Y-51959639D01*
X127120102Y-52301613D01*
X127039863Y-52705000D01*
X126427700Y-52705000D01*
X126427700Y-50165000D01*
X127039863Y-50165000D01*
X127120102Y-50568387D01*
X127348602Y-50910361D01*
X127690576Y-51138861D01*
X128093963Y-51219100D01*
X128446037Y-51219100D01*
X128849424Y-51138861D01*
X129166496Y-50927000D01*
X143930863Y-50927000D01*
X144011102Y-51330387D01*
X144239602Y-51672361D01*
X144581576Y-51900861D01*
X144984963Y-51981100D01*
X145337037Y-51981100D01*
X145740424Y-51900861D01*
X146082398Y-51672361D01*
X146310898Y-51330387D01*
X146391137Y-50927000D01*
X146352324Y-50731876D01*
X149126400Y-53505952D01*
X149126400Y-53951500D01*
X149149602Y-54068142D01*
X149215674Y-54167026D01*
X150128174Y-55079526D01*
X150227058Y-55145598D01*
X150298368Y-55159783D01*
X150296576Y-55160139D01*
X149954602Y-55388639D01*
X149726102Y-55730613D01*
X149645863Y-56134000D01*
X149726102Y-56537387D01*
X149954602Y-56879361D01*
X150296576Y-57107861D01*
X150571200Y-57162487D01*
X150571200Y-68769348D01*
X149473274Y-69867274D01*
X149407202Y-69966158D01*
X149404033Y-69982090D01*
X149333711Y-70052289D01*
X149269773Y-70206270D01*
X149269627Y-70372998D01*
X149333297Y-70527091D01*
X149451089Y-70645089D01*
X149605070Y-70709027D01*
X149771798Y-70709173D01*
X149925891Y-70645503D01*
X150043889Y-70527711D01*
X150065306Y-70476133D01*
X150107389Y-70518289D01*
X150261370Y-70582227D01*
X150428098Y-70582373D01*
X150582191Y-70518703D01*
X150700189Y-70400911D01*
X150764127Y-70246930D01*
X150764190Y-70175162D01*
X152056170Y-68883182D01*
X152056027Y-69046598D01*
X152119697Y-69200691D01*
X152237489Y-69318689D01*
X152391470Y-69382627D01*
X152436082Y-69382666D01*
X149601630Y-72217118D01*
X149534330Y-72189173D01*
X149367602Y-72189027D01*
X149213509Y-72252697D01*
X149095511Y-72370489D01*
X149031573Y-72524470D01*
X149031427Y-72691198D01*
X149095097Y-72845291D01*
X149116069Y-72866300D01*
X147064403Y-72866300D01*
X146951911Y-72753611D01*
X146797930Y-72689673D01*
X146631202Y-72689527D01*
X146477109Y-72753197D01*
X146359111Y-72870989D01*
X146295173Y-73024970D01*
X146295027Y-73191698D01*
X146358697Y-73345791D01*
X146476489Y-73463789D01*
X146630470Y-73527727D01*
X146797198Y-73527873D01*
X146922982Y-73475900D01*
X149654000Y-73475900D01*
X149770642Y-73452698D01*
X149869526Y-73386626D01*
X157060526Y-66195626D01*
X157073842Y-66175697D01*
X157126598Y-66096742D01*
X157149800Y-65980100D01*
X157149800Y-57035487D01*
X157424424Y-56980861D01*
X157766398Y-56752361D01*
X157855900Y-56618412D01*
X157855900Y-65603848D01*
X152324459Y-71135289D01*
X152253402Y-71135227D01*
X152099309Y-71198897D01*
X151981311Y-71316689D01*
X151917373Y-71470670D01*
X151917227Y-71637398D01*
X151980897Y-71791491D01*
X152098689Y-71909489D01*
X152252670Y-71973427D01*
X152419398Y-71973573D01*
X152573491Y-71909903D01*
X152691489Y-71792111D01*
X152755427Y-71638130D01*
X152755490Y-71566362D01*
X158376226Y-65945626D01*
X158442298Y-65846742D01*
X158465500Y-65730100D01*
X158465500Y-50425200D01*
X158442298Y-50308558D01*
X158376226Y-50209674D01*
X157611384Y-49444832D01*
X157861000Y-49444832D01*
X157933637Y-49430739D01*
X157997478Y-49388802D01*
X158040213Y-49325492D01*
X158055232Y-49250600D01*
X158055232Y-47523400D01*
X158041139Y-47450763D01*
X157999202Y-47386922D01*
X157935892Y-47344187D01*
X157861000Y-47329168D01*
X155829000Y-47329168D01*
X155756363Y-47343261D01*
X155692522Y-47385198D01*
X155649787Y-47448508D01*
X155634768Y-47523400D01*
X155634768Y-49250600D01*
X155648861Y-49323237D01*
X155690798Y-49387078D01*
X155754108Y-49429813D01*
X155829000Y-49444832D01*
X156540200Y-49444832D01*
X156540200Y-49543000D01*
X156563402Y-49659642D01*
X156629474Y-49758526D01*
X156728358Y-49824598D01*
X156845000Y-49847800D01*
X157152248Y-49847800D01*
X157216161Y-49911713D01*
X157021037Y-49872900D01*
X156668963Y-49872900D01*
X156265576Y-49953139D01*
X155923602Y-50181639D01*
X155695102Y-50523613D01*
X155614863Y-50927000D01*
X155695102Y-51330387D01*
X155923602Y-51672361D01*
X156265576Y-51900861D01*
X156668963Y-51981100D01*
X157021037Y-51981100D01*
X157424424Y-51900861D01*
X157766398Y-51672361D01*
X157855900Y-51538412D01*
X157855900Y-52855588D01*
X157766398Y-52721639D01*
X157424424Y-52493139D01*
X157021037Y-52412900D01*
X156668963Y-52412900D01*
X156265576Y-52493139D01*
X155923602Y-52721639D01*
X155695102Y-53063613D01*
X155614863Y-53467000D01*
X155695102Y-53870387D01*
X155923602Y-54212361D01*
X156205791Y-54400914D01*
X156195974Y-54407474D01*
X154127274Y-56476174D01*
X154061202Y-56575058D01*
X154038000Y-56691700D01*
X154038000Y-67780748D01*
X153556940Y-68261808D01*
X153575600Y-68168000D01*
X153575600Y-51631300D01*
X153552398Y-51514658D01*
X153486326Y-51415774D01*
X151642384Y-49571832D01*
X151892000Y-49571832D01*
X151964637Y-49557739D01*
X152028478Y-49515802D01*
X152071213Y-49452492D01*
X152086232Y-49377600D01*
X152086232Y-47650400D01*
X152072139Y-47577763D01*
X152030202Y-47513922D01*
X151966892Y-47471187D01*
X151892000Y-47456168D01*
X149860000Y-47456168D01*
X149787363Y-47470261D01*
X149723522Y-47512198D01*
X149680787Y-47575508D01*
X149665768Y-47650400D01*
X149665768Y-49377600D01*
X149679861Y-49450237D01*
X149721798Y-49514078D01*
X149785108Y-49556813D01*
X149860000Y-49571832D01*
X150571200Y-49571832D01*
X150571200Y-49670000D01*
X150594402Y-49786642D01*
X150660474Y-49885526D01*
X150759358Y-49951598D01*
X150876000Y-49974800D01*
X151183248Y-49974800D01*
X151247161Y-50038713D01*
X151052037Y-49999900D01*
X150699963Y-49999900D01*
X150296576Y-50080139D01*
X149954602Y-50308639D01*
X149726102Y-50650613D01*
X149645863Y-51054000D01*
X149726102Y-51457387D01*
X149954602Y-51799361D01*
X150296576Y-52027861D01*
X150699963Y-52108100D01*
X151052037Y-52108100D01*
X151455424Y-52027861D01*
X151797398Y-51799361D01*
X152025898Y-51457387D01*
X152106137Y-51054000D01*
X152067324Y-50858876D01*
X152966000Y-51757552D01*
X152966000Y-55252948D01*
X151899543Y-54186491D01*
X152025898Y-53997387D01*
X152106137Y-53594000D01*
X152025898Y-53190613D01*
X151797398Y-52848639D01*
X151455424Y-52620139D01*
X151052037Y-52539900D01*
X150699963Y-52539900D01*
X150296576Y-52620139D01*
X149954602Y-52848639D01*
X149726102Y-53190613D01*
X149711946Y-53261782D01*
X149646726Y-53164174D01*
X145927384Y-49444832D01*
X146177000Y-49444832D01*
X146249637Y-49430739D01*
X146313478Y-49388802D01*
X146356213Y-49325492D01*
X146371232Y-49250600D01*
X146371232Y-47523400D01*
X146357139Y-47450763D01*
X146315202Y-47386922D01*
X146251892Y-47344187D01*
X146177000Y-47329168D01*
X144145000Y-47329168D01*
X144072363Y-47343261D01*
X144008522Y-47385198D01*
X143965787Y-47448508D01*
X143950768Y-47523400D01*
X143950768Y-49250600D01*
X143964861Y-49323237D01*
X144006798Y-49387078D01*
X144070108Y-49429813D01*
X144145000Y-49444832D01*
X144856200Y-49444832D01*
X144856200Y-49543000D01*
X144879402Y-49659642D01*
X144945474Y-49758526D01*
X145044358Y-49824598D01*
X145161000Y-49847800D01*
X145468248Y-49847800D01*
X145532161Y-49911713D01*
X145337037Y-49872900D01*
X144984963Y-49872900D01*
X144581576Y-49953139D01*
X144239602Y-50181639D01*
X144011102Y-50523613D01*
X143930863Y-50927000D01*
X129166496Y-50927000D01*
X129191398Y-50910361D01*
X129419898Y-50568387D01*
X129500137Y-50165000D01*
X129419898Y-49761613D01*
X129191398Y-49419639D01*
X128849424Y-49191139D01*
X128446037Y-49110900D01*
X128093963Y-49110900D01*
X127690576Y-49191139D01*
X127348602Y-49419639D01*
X127120102Y-49761613D01*
X127039863Y-50165000D01*
X126427700Y-50165000D01*
X126427700Y-47625000D01*
X127039863Y-47625000D01*
X127120102Y-48028387D01*
X127348602Y-48370361D01*
X127690576Y-48598861D01*
X128093963Y-48679100D01*
X128446037Y-48679100D01*
X128849424Y-48598861D01*
X129191398Y-48370361D01*
X129419898Y-48028387D01*
X129500137Y-47625000D01*
X129419898Y-47221613D01*
X129191398Y-46879639D01*
X128849424Y-46651139D01*
X128446037Y-46570900D01*
X128093963Y-46570900D01*
X127690576Y-46651139D01*
X127348602Y-46879639D01*
X127120102Y-47221613D01*
X127039863Y-47625000D01*
X126427700Y-47625000D01*
X126427700Y-45782700D01*
X159322300Y-45782700D01*
X159322300Y-77933834D01*
M02*
