M48
;DRILL file {KiCad (2015-07-25 BZR 5993)-product} date Sun 30 Aug 2015 02:46:42 PM PDT
;FORMAT={-:-/ absolute / inch / decimal}
FMAT,2
INCH,TZ
T1C0.013
T2C0.014
T3C0.040
T4C0.060
%
G90
G05
M72
T1
X5.4506Y-2.8094
X5.481Y-2.6492
X5.4816Y-2.8353
X5.5969Y-2.8693
X5.5982Y-2.7125
X5.5982Y-2.7997
X5.6111Y-2.6121
X5.6192Y-2.5351
X5.73Y-2.93
X5.7761Y-2.8783
X5.7789Y-2.6193
X5.8839Y-2.8586
X5.8933Y-2.7673
X5.8963Y-2.6525
X5.9191Y-2.7623
X5.9957Y-2.6063
X5.9975Y-2.8171
X6.003Y-2.7151
T2
X5.51Y-2.2
X5.52Y-3.015
X5.64Y-2.675
X5.64Y-2.715
X5.64Y-2.76
X5.64Y-2.805
X5.6768Y-3.1446
X5.685Y-2.675
X5.685Y-2.715
X5.685Y-2.76
X5.685Y-2.805
X5.73Y-2.675
X5.73Y-2.715
X5.73Y-2.76
X5.73Y-2.805
X5.825Y-2.47
T3
X5.05Y-1.875
X5.05Y-1.975
X5.05Y-2.075
X5.05Y-2.175
X5.05Y-2.275
X5.05Y-2.375
X5.05Y-2.475
X5.05Y-2.575
X5.05Y-2.775
X5.05Y-2.875
X5.05Y-2.975
X5.05Y-3.075
X5.05Y-3.175
X5.05Y-3.275
X5.295Y-3.245
X5.295Y-3.345
X5.295Y-3.445
X5.295Y-3.545
X5.715Y-1.905
X5.715Y-2.005
X5.715Y-2.105
X5.715Y-2.205
X5.94Y-1.91
X5.94Y-2.01
X5.94Y-2.11
X5.94Y-2.21
X6.175Y-1.905
X6.175Y-2.005
X6.175Y-2.105
X6.175Y-2.205
X6.2Y-3.25
X6.2Y-3.35
X6.2Y-3.45
X6.2Y-3.55
T4
X5.58Y-3.47
X5.78Y-3.47
T0
M30
