G04 #@! TF.FileFunction,Legend,Bot*
%FSLAX46Y46*%
G04 Gerber Fmt 4.6, Leading zero omitted, Abs format (unit mm)*
G04 Created by KiCad (PCBNEW (2015-07-25 BZR 5993)-product) date Sun 30 Aug 2015 02:46:25 PM PDT*
%MOMM*%
G01*
G04 APERTURE LIST*
%ADD10C,0.100000*%
%ADD11C,0.071400*%
G04 APERTURE END LIST*
D10*
D11*
X132648571Y-89691986D02*
X132543142Y-89727129D01*
X132507999Y-89762271D01*
X132472856Y-89832557D01*
X132472856Y-89937986D01*
X132507999Y-90008271D01*
X132543142Y-90043414D01*
X132613428Y-90078557D01*
X132894571Y-90078557D01*
X132894571Y-89340557D01*
X132648571Y-89340557D01*
X132578285Y-89375700D01*
X132543142Y-89410843D01*
X132507999Y-89481129D01*
X132507999Y-89551414D01*
X132543142Y-89621700D01*
X132578285Y-89656843D01*
X132648571Y-89691986D01*
X132894571Y-89691986D01*
X132156571Y-90078557D02*
X132156571Y-89586557D01*
X132156571Y-89727129D02*
X132121428Y-89656843D01*
X132086285Y-89621700D01*
X132015999Y-89586557D01*
X131945714Y-89586557D01*
X131699714Y-90078557D02*
X131699714Y-89586557D01*
X131699714Y-89340557D02*
X131734857Y-89375700D01*
X131699714Y-89410843D01*
X131664571Y-89375700D01*
X131699714Y-89340557D01*
X131699714Y-89410843D01*
X131031999Y-90078557D02*
X131031999Y-89691986D01*
X131067142Y-89621700D01*
X131137428Y-89586557D01*
X131277999Y-89586557D01*
X131348285Y-89621700D01*
X131031999Y-90043414D02*
X131102285Y-90078557D01*
X131277999Y-90078557D01*
X131348285Y-90043414D01*
X131383428Y-89973129D01*
X131383428Y-89902843D01*
X131348285Y-89832557D01*
X131277999Y-89797414D01*
X131102285Y-89797414D01*
X131031999Y-89762271D01*
X130680571Y-89586557D02*
X130680571Y-90078557D01*
X130680571Y-89656843D02*
X130645428Y-89621700D01*
X130575142Y-89586557D01*
X130469714Y-89586557D01*
X130399428Y-89621700D01*
X130364285Y-89691986D01*
X130364285Y-90078557D01*
X129204571Y-89691986D02*
X129099142Y-89727129D01*
X129063999Y-89762271D01*
X129028856Y-89832557D01*
X129028856Y-89937986D01*
X129063999Y-90008271D01*
X129099142Y-90043414D01*
X129169428Y-90078557D01*
X129450571Y-90078557D01*
X129450571Y-89340557D01*
X129204571Y-89340557D01*
X129134285Y-89375700D01*
X129099142Y-89410843D01*
X129063999Y-89481129D01*
X129063999Y-89551414D01*
X129099142Y-89621700D01*
X129134285Y-89656843D01*
X129204571Y-89691986D01*
X129450571Y-89691986D01*
X128607142Y-90078557D02*
X128677428Y-90043414D01*
X128712571Y-90008271D01*
X128747714Y-89937986D01*
X128747714Y-89727129D01*
X128712571Y-89656843D01*
X128677428Y-89621700D01*
X128607142Y-89586557D01*
X128501714Y-89586557D01*
X128431428Y-89621700D01*
X128396285Y-89656843D01*
X128361142Y-89727129D01*
X128361142Y-89937986D01*
X128396285Y-90008271D01*
X128431428Y-90043414D01*
X128501714Y-90078557D01*
X128607142Y-90078557D01*
X128115142Y-89586557D02*
X127939428Y-90078557D01*
X127763714Y-89586557D01*
X127201428Y-90043414D02*
X127271714Y-90078557D01*
X127412285Y-90078557D01*
X127482571Y-90043414D01*
X127517714Y-89973129D01*
X127517714Y-89691986D01*
X127482571Y-89621700D01*
X127412285Y-89586557D01*
X127271714Y-89586557D01*
X127201428Y-89621700D01*
X127166285Y-89691986D01*
X127166285Y-89762271D01*
X127517714Y-89832557D01*
X130469714Y-90515443D02*
X130434571Y-90480300D01*
X130364285Y-90445157D01*
X130188571Y-90445157D01*
X130118285Y-90480300D01*
X130083142Y-90515443D01*
X130047999Y-90585729D01*
X130047999Y-90656014D01*
X130083142Y-90761443D01*
X130504856Y-91183157D01*
X130047999Y-91183157D01*
X129591142Y-90445157D02*
X129520857Y-90445157D01*
X129450571Y-90480300D01*
X129415428Y-90515443D01*
X129380285Y-90585729D01*
X129345142Y-90726300D01*
X129345142Y-90902014D01*
X129380285Y-91042586D01*
X129415428Y-91112871D01*
X129450571Y-91148014D01*
X129520857Y-91183157D01*
X129591142Y-91183157D01*
X129661428Y-91148014D01*
X129696571Y-91112871D01*
X129731714Y-91042586D01*
X129766857Y-90902014D01*
X129766857Y-90726300D01*
X129731714Y-90585729D01*
X129696571Y-90515443D01*
X129661428Y-90480300D01*
X129591142Y-90445157D01*
X128642285Y-91183157D02*
X129064000Y-91183157D01*
X128853142Y-91183157D02*
X128853142Y-90445157D01*
X128923428Y-90550586D01*
X128993714Y-90620871D01*
X129064000Y-90656014D01*
X127974571Y-90445157D02*
X128326000Y-90445157D01*
X128361143Y-90796586D01*
X128326000Y-90761443D01*
X128255714Y-90726300D01*
X128080000Y-90726300D01*
X128009714Y-90761443D01*
X127974571Y-90796586D01*
X127939428Y-90866871D01*
X127939428Y-91042586D01*
X127974571Y-91112871D01*
X128009714Y-91148014D01*
X128080000Y-91183157D01*
X128255714Y-91183157D01*
X128326000Y-91148014D01*
X128361143Y-91112871D01*
M02*
