G04 #@! TF.FileFunction,Soldermask,Top*
%FSLAX46Y46*%
G04 Gerber Fmt 4.6, Leading zero omitted, Abs format (unit mm)*
G04 Created by KiCad (PCBNEW (2015-07-25 BZR 5993)-product) date Sun 30 Aug 2015 02:46:25 PM PDT*
%MOMM*%
G01*
G04 APERTURE LIST*
%ADD10C,0.100000*%
%ADD11C,0.508000*%
%ADD12R,1.676400X0.279400*%
%ADD13R,3.479800X4.419600*%
%ADD14R,1.524000X2.032000*%
%ADD15R,2.032000X1.727200*%
%ADD16O,2.032000X1.727200*%
%ADD17R,2.540000X2.540000*%
%ADD18C,2.540000*%
%ADD19R,0.797560X0.899160*%
%ADD20R,1.000000X1.250000*%
%ADD21R,1.250000X1.000000*%
%ADD22R,0.700000X1.300000*%
%ADD23R,1.300000X0.700000*%
G04 APERTURE END LIST*
D10*
D11*
X139954000Y-55880000D03*
X145542000Y-68961000D03*
X145542000Y-70104000D03*
X145542000Y-71247000D03*
X145542000Y-67945000D03*
X143256000Y-67945000D03*
X143256000Y-71247000D03*
X143256000Y-70104000D03*
X143256000Y-68961000D03*
X144399000Y-68961000D03*
X144399000Y-70104000D03*
X144399000Y-71247000D03*
X144399000Y-67945000D03*
X144190720Y-79872840D03*
X147955000Y-62738000D03*
X140208000Y-76581000D03*
D12*
X140728700Y-63846000D03*
X140728700Y-64345997D03*
X140728700Y-64845997D03*
X140728700Y-65345997D03*
X140728700Y-65845994D03*
X140728700Y-66345994D03*
X140728700Y-66845994D03*
X140728700Y-67345991D03*
X140728700Y-67845991D03*
X140728700Y-68345991D03*
X140728700Y-68845987D03*
X140728700Y-69346012D03*
X140728700Y-69845988D03*
X140728700Y-70346013D03*
X140728700Y-70846009D03*
X140728700Y-71346009D03*
X140728700Y-71846009D03*
X140728700Y-72346006D03*
X140728700Y-72846006D03*
X140728700Y-73346006D03*
X140728700Y-73846003D03*
X140728700Y-74346003D03*
X140728700Y-74846003D03*
X140728700Y-75346000D03*
X148069300Y-75346000D03*
X148069300Y-74846003D03*
X148069300Y-74346003D03*
X148069300Y-73846003D03*
X148069300Y-73346006D03*
X148069300Y-72846006D03*
X148069300Y-72346006D03*
X148069300Y-71846009D03*
X148069300Y-71346009D03*
X148069300Y-70846009D03*
X148069300Y-70346013D03*
X148069300Y-69845988D03*
X148069300Y-69346012D03*
X148069300Y-68845987D03*
X148069300Y-68345991D03*
X148069300Y-67845991D03*
X148069300Y-67345991D03*
X148069300Y-66845994D03*
X148069300Y-66345994D03*
X148069300Y-65845994D03*
X148069300Y-65345997D03*
X148069300Y-64845997D03*
X148069300Y-64345997D03*
X148069300Y-63846000D03*
D13*
X144399000Y-69596000D03*
D14*
X135001000Y-48006000D03*
X131699000Y-48006000D03*
X135001000Y-51054000D03*
X131699000Y-51054000D03*
D15*
X128270000Y-65405000D03*
D16*
X128270000Y-62865000D03*
X128270000Y-60325000D03*
X128270000Y-57785000D03*
X128270000Y-55245000D03*
X128270000Y-52705000D03*
X128270000Y-50165000D03*
X128270000Y-47625000D03*
D15*
X128270000Y-83185000D03*
D16*
X128270000Y-80645000D03*
X128270000Y-78105000D03*
X128270000Y-75565000D03*
X128270000Y-73025000D03*
X128270000Y-70485000D03*
D15*
X134493000Y-90043000D03*
D16*
X134493000Y-87503000D03*
X134493000Y-84963000D03*
X134493000Y-82423000D03*
D15*
X145161000Y-48387000D03*
D16*
X145161000Y-50927000D03*
X145161000Y-53467000D03*
X145161000Y-56007000D03*
D15*
X150876000Y-48514000D03*
D16*
X150876000Y-51054000D03*
X150876000Y-53594000D03*
X150876000Y-56134000D03*
D15*
X156845000Y-48387000D03*
D16*
X156845000Y-50927000D03*
X156845000Y-53467000D03*
X156845000Y-56007000D03*
D15*
X157480000Y-90170000D03*
D16*
X157480000Y-87630000D03*
X157480000Y-85090000D03*
X157480000Y-82550000D03*
D17*
X141732000Y-88138000D03*
D18*
X146812000Y-88138000D03*
D19*
X130749040Y-55227220D03*
X132648960Y-55227220D03*
X131699000Y-53129180D03*
X134305040Y-55354220D03*
X136204960Y-55354220D03*
X135255000Y-53256180D03*
D20*
X134604000Y-75311000D03*
X132604000Y-75311000D03*
X134604000Y-72771000D03*
X132604000Y-72771000D03*
X134604000Y-67691000D03*
X132604000Y-67691000D03*
X146669000Y-77851000D03*
X144669000Y-77851000D03*
X132604000Y-70231000D03*
X134604000Y-70231000D03*
D21*
X155702000Y-78470000D03*
X155702000Y-76470000D03*
X152654000Y-76438000D03*
X152654000Y-74438000D03*
X155092000Y-74456800D03*
X155092000Y-72456800D03*
X155067000Y-70723000D03*
X155067000Y-68723000D03*
X155067000Y-67040000D03*
X155067000Y-65040000D03*
D22*
X138496000Y-48006000D03*
X140396000Y-48006000D03*
X137988000Y-51054000D03*
X139888000Y-51054000D03*
D23*
X140589000Y-59121000D03*
X140589000Y-61021000D03*
X138049000Y-59121000D03*
X138049000Y-61021000D03*
D22*
X134554000Y-65151000D03*
X132654000Y-65151000D03*
M02*
