G04 #@! TF.FileFunction,Copper,L1,Top,Signal*
%FSLAX46Y46*%
G04 Gerber Fmt 4.6, Leading zero omitted, Abs format (unit mm)*
G04 Created by KiCad (PCBNEW (2015-07-25 BZR 5993)-product) date Sun 30 Aug 2015 02:46:25 PM PDT*
%MOMM*%
G01*
G04 APERTURE LIST*
%ADD10C,0.100000*%
%ADD11C,0.508000*%
%ADD12R,1.676400X0.279400*%
%ADD13R,3.479800X4.419600*%
%ADD14R,1.524000X2.032000*%
%ADD15R,2.032000X1.727200*%
%ADD16O,2.032000X1.727200*%
%ADD17R,2.540000X2.540000*%
%ADD18C,2.540000*%
%ADD19R,0.797560X0.899160*%
%ADD20R,1.000000X1.250000*%
%ADD21R,1.250000X1.000000*%
%ADD22R,0.700000X1.300000*%
%ADD23R,1.300000X0.700000*%
%ADD24C,0.457200*%
%ADD25C,0.250000*%
%ADD26C,0.228600*%
%ADD27C,0.025400*%
G04 APERTURE END LIST*
D10*
D11*
X139954000Y-55880000D03*
X145542000Y-68961000D03*
X145542000Y-70104000D03*
X145542000Y-71247000D03*
X145542000Y-67945000D03*
X143256000Y-67945000D03*
X143256000Y-71247000D03*
X143256000Y-70104000D03*
X143256000Y-68961000D03*
X144399000Y-68961000D03*
X144399000Y-70104000D03*
X144399000Y-71247000D03*
X144399000Y-67945000D03*
X144190720Y-79872840D03*
X147955000Y-62738000D03*
X140208000Y-76581000D03*
D12*
X140728700Y-63846000D03*
X140728700Y-64345997D03*
X140728700Y-64845997D03*
X140728700Y-65345997D03*
X140728700Y-65845994D03*
X140728700Y-66345994D03*
X140728700Y-66845994D03*
X140728700Y-67345991D03*
X140728700Y-67845991D03*
X140728700Y-68345991D03*
X140728700Y-68845987D03*
X140728700Y-69346012D03*
X140728700Y-69845988D03*
X140728700Y-70346013D03*
X140728700Y-70846009D03*
X140728700Y-71346009D03*
X140728700Y-71846009D03*
X140728700Y-72346006D03*
X140728700Y-72846006D03*
X140728700Y-73346006D03*
X140728700Y-73846003D03*
X140728700Y-74346003D03*
X140728700Y-74846003D03*
X140728700Y-75346000D03*
X148069300Y-75346000D03*
X148069300Y-74846003D03*
X148069300Y-74346003D03*
X148069300Y-73846003D03*
X148069300Y-73346006D03*
X148069300Y-72846006D03*
X148069300Y-72346006D03*
X148069300Y-71846009D03*
X148069300Y-71346009D03*
X148069300Y-70846009D03*
X148069300Y-70346013D03*
X148069300Y-69845988D03*
X148069300Y-69346012D03*
X148069300Y-68845987D03*
X148069300Y-68345991D03*
X148069300Y-67845991D03*
X148069300Y-67345991D03*
X148069300Y-66845994D03*
X148069300Y-66345994D03*
X148069300Y-65845994D03*
X148069300Y-65345997D03*
X148069300Y-64845997D03*
X148069300Y-64345997D03*
X148069300Y-63846000D03*
D13*
X144399000Y-69596000D03*
D14*
X135001000Y-48006000D03*
X131699000Y-48006000D03*
X135001000Y-51054000D03*
X131699000Y-51054000D03*
D15*
X128270000Y-65405000D03*
D16*
X128270000Y-62865000D03*
X128270000Y-60325000D03*
X128270000Y-57785000D03*
X128270000Y-55245000D03*
X128270000Y-52705000D03*
X128270000Y-50165000D03*
X128270000Y-47625000D03*
D15*
X128270000Y-83185000D03*
D16*
X128270000Y-80645000D03*
X128270000Y-78105000D03*
X128270000Y-75565000D03*
X128270000Y-73025000D03*
X128270000Y-70485000D03*
D15*
X134493000Y-90043000D03*
D16*
X134493000Y-87503000D03*
X134493000Y-84963000D03*
X134493000Y-82423000D03*
D15*
X145161000Y-48387000D03*
D16*
X145161000Y-50927000D03*
X145161000Y-53467000D03*
X145161000Y-56007000D03*
D15*
X150876000Y-48514000D03*
D16*
X150876000Y-51054000D03*
X150876000Y-53594000D03*
X150876000Y-56134000D03*
D15*
X156845000Y-48387000D03*
D16*
X156845000Y-50927000D03*
X156845000Y-53467000D03*
X156845000Y-56007000D03*
D15*
X157480000Y-90170000D03*
D16*
X157480000Y-87630000D03*
X157480000Y-85090000D03*
X157480000Y-82550000D03*
D17*
X141732000Y-88138000D03*
D18*
X146812000Y-88138000D03*
D19*
X130749040Y-55227220D03*
X132648960Y-55227220D03*
X131699000Y-53129180D03*
X134305040Y-55354220D03*
X136204960Y-55354220D03*
X135255000Y-53256180D03*
D20*
X134604000Y-75311000D03*
X132604000Y-75311000D03*
X134604000Y-72771000D03*
X132604000Y-72771000D03*
X134604000Y-67691000D03*
X132604000Y-67691000D03*
X146669000Y-77851000D03*
X144669000Y-77851000D03*
X132604000Y-70231000D03*
X134604000Y-70231000D03*
D21*
X155702000Y-78470000D03*
X155702000Y-76470000D03*
X152654000Y-76438000D03*
X152654000Y-74438000D03*
X155092000Y-74456800D03*
X155092000Y-72456800D03*
X155067000Y-70723000D03*
X155067000Y-68723000D03*
X155067000Y-67040000D03*
X155067000Y-65040000D03*
D22*
X138496000Y-48006000D03*
X140396000Y-48006000D03*
X137988000Y-51054000D03*
X139888000Y-51054000D03*
D23*
X140589000Y-59121000D03*
X140589000Y-61021000D03*
X138049000Y-59121000D03*
X138049000Y-61021000D03*
D22*
X134554000Y-65151000D03*
X132654000Y-65151000D03*
D24*
X145542000Y-74422000D03*
X142194500Y-68896500D03*
X139217200Y-67290600D03*
X142522600Y-66346800D03*
X142728800Y-64392200D03*
X142160800Y-72879400D03*
X142194500Y-71113500D03*
X139232100Y-72017500D03*
X138446000Y-71357700D03*
X152290000Y-66200000D03*
X146783400Y-66531200D03*
X149767100Y-67374100D03*
X152475200Y-68963600D03*
X150345100Y-70163200D03*
X149688800Y-70290000D03*
X152336400Y-71554400D03*
X149450600Y-72608200D03*
X146714200Y-73108700D03*
D25*
X140728700Y-74846000D02*
X140729000Y-74846000D01*
X138514000Y-74846000D02*
X140728700Y-74846000D01*
X138049000Y-75311000D02*
X138514000Y-74846000D01*
X135104000Y-75311000D02*
X138049000Y-75311000D01*
D26*
X135104000Y-75311000D02*
X134604000Y-75311000D01*
D25*
X140728700Y-72846000D02*
X140729000Y-72846000D01*
X137870000Y-72846000D02*
X140728700Y-72846000D01*
X137795000Y-72771000D02*
X137870000Y-72846000D01*
X135104000Y-72771000D02*
X137795000Y-72771000D01*
D26*
X135104000Y-72771000D02*
X134604000Y-72771000D01*
D25*
X140728700Y-67846000D02*
X140729000Y-67846000D01*
X138966000Y-67846000D02*
X140728700Y-67846000D01*
X138811000Y-67691000D02*
X138966000Y-67846000D01*
X135104000Y-67691000D02*
X138811000Y-67691000D01*
D26*
X135104000Y-67691000D02*
X134604000Y-67691000D01*
X137538500Y-68346000D02*
X140728700Y-68346000D01*
X137252500Y-68632000D02*
X137538500Y-68346000D01*
X134599200Y-68632000D02*
X137252500Y-68632000D01*
X133396400Y-69834800D02*
X134599200Y-68632000D01*
X133396400Y-70231000D02*
X133396400Y-69834800D01*
X132604000Y-70231000D02*
X133396400Y-70231000D01*
D25*
X140728700Y-68846000D02*
X140729000Y-68846000D01*
X138418000Y-68846000D02*
X140728700Y-68846000D01*
X137033000Y-70231000D02*
X138418000Y-68846000D01*
X135104000Y-70231000D02*
X137033000Y-70231000D01*
D26*
X135104000Y-70231000D02*
X134604000Y-70231000D01*
X148069000Y-74846000D02*
X148069300Y-74846000D01*
X151876000Y-78470000D02*
X151888200Y-78470000D01*
X150114000Y-76708000D02*
X151876000Y-78470000D01*
X150114000Y-75184000D02*
X150114000Y-76708000D01*
X149776000Y-74846000D02*
X150114000Y-75184000D01*
X148069300Y-74846000D02*
X149776000Y-74846000D01*
X151888200Y-78470000D02*
X155702000Y-78470000D01*
X157068900Y-83934000D02*
X157480000Y-83934000D01*
X151888200Y-78753300D02*
X157068900Y-83934000D01*
X151888200Y-78470000D02*
X151888200Y-78753300D01*
X157480000Y-85090000D02*
X157480000Y-83934000D01*
X148069000Y-74346000D02*
X148069300Y-74346000D01*
X154416000Y-76470000D02*
X155178000Y-76470000D01*
X153416000Y-77470000D02*
X154416000Y-76470000D01*
X151892000Y-77470000D02*
X153416000Y-77470000D01*
X151511000Y-77089000D02*
X151892000Y-77470000D01*
X151511000Y-76200000D02*
X151511000Y-77089000D01*
X150876000Y-75565000D02*
X151511000Y-76200000D01*
X150876000Y-74930000D02*
X150876000Y-75565000D01*
X150292000Y-74346000D02*
X150876000Y-74930000D01*
X148069300Y-74346000D02*
X150292000Y-74346000D01*
X155178000Y-76470000D02*
X155440000Y-76470000D01*
X155440000Y-76470000D02*
X155178000Y-76470000D01*
X155702000Y-76470000D02*
X155571000Y-76470000D01*
X155571000Y-76470000D02*
X155440000Y-76470000D01*
X155440000Y-76470000D02*
X155571000Y-76470000D01*
X155571000Y-76470000D02*
X155702000Y-76470000D01*
X157480000Y-78644200D02*
X157480000Y-82550000D01*
X156098200Y-77262400D02*
X157480000Y-78644200D01*
X155702000Y-77262400D02*
X156098200Y-77262400D01*
X155702000Y-76470000D02*
X155702000Y-77262400D01*
X145542000Y-74422000D02*
X145542000Y-73914000D01*
X145542000Y-73914000D02*
X145609997Y-73846003D01*
X145609997Y-73846003D02*
X148069300Y-73846003D01*
X151511000Y-75295000D02*
X152654000Y-76438000D01*
X151511000Y-74041000D02*
X151511000Y-75295000D01*
X151316000Y-73846000D02*
X151511000Y-74041000D01*
X148069300Y-73846000D02*
X151316000Y-73846000D01*
X148069000Y-73846000D02*
X148069300Y-73846000D01*
X148069300Y-73346000D02*
X148069000Y-73346000D01*
X152654000Y-74438000D02*
X152654000Y-74303000D01*
X151832000Y-73346000D02*
X148069300Y-73346000D01*
X152654000Y-74168000D02*
X151832000Y-73346000D01*
X152654000Y-74303000D02*
X152654000Y-74168000D01*
X157913500Y-86474000D02*
X157480000Y-86474000D01*
X158806900Y-85580600D02*
X157913500Y-86474000D01*
X158806900Y-78023000D02*
X158806900Y-85580600D01*
X156033200Y-75249300D02*
X158806900Y-78023000D01*
X153600300Y-75249300D02*
X156033200Y-75249300D01*
X152654000Y-74303000D02*
X153600300Y-75249300D01*
X157480000Y-87630000D02*
X157480000Y-86474000D01*
X148069300Y-71846000D02*
X148069000Y-71846000D01*
X151856000Y-71846000D02*
X148069300Y-71846000D01*
X154467000Y-74456800D02*
X151856000Y-71846000D01*
X155092000Y-74456800D02*
X154467000Y-74456800D01*
X157278500Y-52083000D02*
X156845000Y-52083000D01*
X158171900Y-52976400D02*
X157278500Y-52083000D01*
X158171900Y-70980700D02*
X158171900Y-52976400D01*
X155488200Y-73664400D02*
X158171900Y-70980700D01*
X155092000Y-73664400D02*
X155488200Y-73664400D01*
X155092000Y-74456800D02*
X155092000Y-73664400D01*
X156845000Y-50927000D02*
X156845000Y-52083000D01*
X153142000Y-70846000D02*
X148069300Y-70846000D01*
X154753000Y-72456800D02*
X153142000Y-70846000D01*
X155092000Y-72456800D02*
X154753000Y-72456800D01*
X148069300Y-70846000D02*
X148069000Y-70846000D01*
X152023000Y-69346000D02*
X148069300Y-69346000D01*
X152654000Y-69977000D02*
X152023000Y-69346000D01*
X153289000Y-69977000D02*
X152654000Y-69977000D01*
X154035000Y-70723000D02*
X153289000Y-69977000D01*
X154543000Y-70723000D02*
X154035000Y-70723000D01*
X148069300Y-69346000D02*
X148069000Y-69346000D01*
X154805000Y-70723000D02*
X154543000Y-70723000D01*
X154805000Y-70723000D02*
X154543000Y-70723000D01*
X154936000Y-70723000D02*
X154805000Y-70723000D01*
X154936000Y-70723000D02*
X154805000Y-70723000D01*
X155001500Y-70723000D02*
X154936000Y-70723000D01*
X155001500Y-70723000D02*
X154936000Y-70723000D01*
X155034300Y-70723000D02*
X155001500Y-70723000D01*
X155034300Y-70723000D02*
X155001500Y-70723000D01*
X155050700Y-70723000D02*
X155034300Y-70723000D01*
X155050700Y-70723000D02*
X155034300Y-70723000D01*
X155058900Y-70723000D02*
X155050700Y-70723000D01*
X155058900Y-70723000D02*
X155050700Y-70723000D01*
X155063000Y-70723000D02*
X155058900Y-70723000D01*
X155063000Y-70723000D02*
X155058900Y-70723000D01*
X155065000Y-70723000D02*
X155063000Y-70723000D01*
X155065000Y-70723000D02*
X155063000Y-70723000D01*
X155066000Y-70723000D02*
X155065000Y-70723000D01*
X155066000Y-70723000D02*
X155065000Y-70723000D01*
X155066500Y-70723000D02*
X155066000Y-70723000D01*
X155066500Y-70723000D02*
X155066000Y-70723000D01*
X155066800Y-70723000D02*
X155066500Y-70723000D01*
X155066800Y-70723000D02*
X155066500Y-70723000D01*
X155067000Y-70723000D02*
X155066900Y-70723000D01*
X155066900Y-70723000D02*
X155066800Y-70723000D01*
X155067000Y-70723000D02*
X155066900Y-70723000D01*
X155066900Y-70723000D02*
X155066800Y-70723000D01*
X151349500Y-52210000D02*
X150876000Y-52210000D01*
X152259900Y-53120400D02*
X151349500Y-52210000D01*
X152259900Y-58604400D02*
X152259900Y-53120400D01*
X156391300Y-62735800D02*
X152259900Y-58604400D01*
X156391300Y-69002500D02*
X156391300Y-62735800D01*
X155463200Y-69930600D02*
X156391300Y-69002500D01*
X155067000Y-69930600D02*
X155463200Y-69930600D01*
X155067000Y-70723000D02*
X155067000Y-69930600D01*
X150876000Y-51054000D02*
X150876000Y-52210000D01*
D25*
X155424000Y-68961000D02*
X155321000Y-68961000D01*
D26*
X148069300Y-68346000D02*
X148069000Y-68346000D01*
X153817000Y-68346000D02*
X148069300Y-68346000D01*
X154194000Y-68723000D02*
X153817000Y-68346000D01*
X155067000Y-68723000D02*
X154194000Y-68723000D01*
X155083000Y-68723000D02*
X155321000Y-68961000D01*
X155067000Y-68723000D02*
X155083000Y-68723000D01*
X153333000Y-66846000D02*
X148069300Y-66846000D01*
X153527000Y-67040000D02*
X153333000Y-66846000D01*
X155067000Y-67040000D02*
X153527000Y-67040000D01*
X148069300Y-66846000D02*
X148069000Y-66846000D01*
D25*
X155424000Y-66534200D02*
X155424000Y-66572000D01*
D26*
X155067000Y-66891200D02*
X155067000Y-67040000D01*
X155424000Y-66534200D02*
X155067000Y-66891200D01*
D25*
X155424000Y-66421000D02*
X155424000Y-66534200D01*
D26*
X145634500Y-52083000D02*
X145161000Y-52083000D01*
X146544900Y-52993400D02*
X145634500Y-52083000D01*
X146544900Y-54935500D02*
X146544900Y-52993400D01*
X155984500Y-64375100D02*
X146544900Y-54935500D01*
X155984500Y-65860500D02*
X155984500Y-64375100D01*
X155424000Y-66421000D02*
X155984500Y-65860500D01*
X145161000Y-50927000D02*
X145161000Y-52083000D01*
X151705000Y-65846000D02*
X148069300Y-65846000D01*
X152511000Y-65040000D02*
X151705000Y-65846000D01*
X155067000Y-65040000D02*
X152511000Y-65040000D01*
X148069300Y-65846000D02*
X148069000Y-65846000D01*
D25*
X135001000Y-48006000D02*
X137996000Y-48006000D01*
D26*
X137996000Y-48006000D02*
X138496000Y-48006000D01*
X130175000Y-49530000D02*
X131699000Y-48006000D01*
X130175000Y-52832000D02*
X130175000Y-49530000D01*
X130472000Y-53129200D02*
X130175000Y-52832000D01*
X131699000Y-53129200D02*
X130472000Y-53129200D01*
D25*
X135001000Y-51054000D02*
X137488000Y-51054000D01*
D26*
X137488000Y-51054000D02*
X137988000Y-51054000D01*
X133901000Y-53256200D02*
X131699000Y-51054000D01*
X135255000Y-53256200D02*
X133901000Y-53256200D01*
D25*
X131699000Y-51054000D02*
X131318000Y-51054000D01*
D26*
X141859300Y-69231700D02*
X141859300Y-69346000D01*
X142194500Y-68896500D02*
X141859300Y-69231700D01*
X140728700Y-69346000D02*
X141859300Y-69346000D01*
X139542700Y-67290600D02*
X139598100Y-67346000D01*
X139217200Y-67290600D02*
X139542700Y-67290600D01*
X140728700Y-67346000D02*
X139598100Y-67346000D01*
X139497200Y-66745100D02*
X139598100Y-66846000D01*
X132811000Y-66745100D02*
X139497200Y-66745100D01*
X130795000Y-64729100D02*
X132811000Y-66745100D01*
X130795000Y-63572500D02*
X130795000Y-64729100D01*
X128703500Y-61481000D02*
X130795000Y-63572500D01*
X128270000Y-61481000D02*
X128703500Y-61481000D01*
X128270000Y-60325000D02*
X128270000Y-61481000D01*
X140728700Y-66846000D02*
X139598100Y-66846000D01*
X141860100Y-66346800D02*
X141859300Y-66346000D01*
X142522600Y-66346800D02*
X141860100Y-66346800D01*
X140728700Y-66346000D02*
X141859300Y-66346000D01*
X128270000Y-55245000D02*
X128270000Y-56401000D01*
X140728700Y-65846000D02*
X139598100Y-65846000D01*
X139335400Y-66108700D02*
X139598100Y-65846000D01*
X134072500Y-66108700D02*
X139335400Y-66108700D01*
X133296500Y-65332700D02*
X134072500Y-66108700D01*
X133296500Y-60994000D02*
X133296500Y-65332700D01*
X128703500Y-56401000D02*
X133296500Y-60994000D01*
X128270000Y-56401000D02*
X128703500Y-56401000D01*
X141859300Y-65261700D02*
X141859300Y-65346000D01*
X142728800Y-64392200D02*
X141859300Y-65261700D01*
X140728700Y-65346000D02*
X141859300Y-65346000D01*
D25*
X139022000Y-64346000D02*
X140728700Y-64346000D01*
X138049000Y-63373000D02*
X139022000Y-64346000D01*
X138049000Y-61521000D02*
X138049000Y-63373000D01*
X140728700Y-64346000D02*
X140729000Y-64346000D01*
D26*
X137821500Y-61521000D02*
X137594000Y-61521000D01*
X137821500Y-61521000D02*
X137594000Y-61521000D01*
X137935300Y-61521000D02*
X137821500Y-61521000D01*
X137935300Y-61521000D02*
X137821500Y-61521000D01*
X137992200Y-61521000D02*
X137935300Y-61521000D01*
X137992200Y-61521000D02*
X137935300Y-61521000D01*
X138020600Y-61521000D02*
X137992200Y-61521000D01*
X138020600Y-61521000D02*
X137992200Y-61521000D01*
X138034800Y-61521000D02*
X138020600Y-61521000D01*
X138034800Y-61521000D02*
X138020600Y-61521000D01*
X138041900Y-61521000D02*
X138034800Y-61521000D01*
X138041900Y-61521000D02*
X138034800Y-61521000D01*
X138045500Y-61521000D02*
X138041900Y-61521000D01*
X138045500Y-61521000D02*
X138041900Y-61521000D01*
X138047300Y-61521000D02*
X138045500Y-61521000D01*
X138047300Y-61521000D02*
X138045500Y-61521000D01*
X138048200Y-61521000D02*
X138047300Y-61521000D01*
X138048200Y-61521000D02*
X138047300Y-61521000D01*
X138048600Y-61521000D02*
X138048200Y-61521000D01*
X138048600Y-61521000D02*
X138048200Y-61521000D01*
X138048800Y-61521000D02*
X138048600Y-61521000D01*
X138048800Y-61521000D02*
X138048600Y-61521000D01*
X138049000Y-61521000D02*
X138048900Y-61521000D01*
X138048900Y-61521000D02*
X138048800Y-61521000D01*
X138049000Y-61521000D02*
X138048900Y-61521000D01*
X138048900Y-61521000D02*
X138048800Y-61521000D01*
X138049000Y-61521000D02*
X138049000Y-61021000D01*
X130749000Y-56962000D02*
X130749000Y-55238600D01*
X135308000Y-61521000D02*
X130749000Y-56962000D01*
X137594000Y-61521000D02*
X135308000Y-61521000D01*
X130749000Y-55238600D02*
X130749000Y-55227200D01*
X127796400Y-51321000D02*
X128270000Y-51321000D01*
X126936400Y-52181000D02*
X127796400Y-51321000D01*
X126936400Y-53220600D02*
X126936400Y-52181000D01*
X127690800Y-53975000D02*
X126936400Y-53220600D01*
X129485400Y-53975000D02*
X127690800Y-53975000D01*
X130749000Y-55238600D02*
X129485400Y-53975000D01*
X128270000Y-50165000D02*
X128270000Y-51321000D01*
X140589000Y-61521000D02*
X140589000Y-61021000D01*
X140728700Y-63846000D02*
X140728800Y-63845900D01*
D25*
X140589000Y-63706300D02*
X140728800Y-63845900D01*
X140589000Y-61521000D02*
X140589000Y-63706300D01*
X140728800Y-63845900D02*
X140729000Y-63846000D01*
D26*
X134366000Y-55415200D02*
X134335500Y-55384700D01*
X134366000Y-57531000D02*
X134366000Y-55415200D01*
X136779000Y-59944000D02*
X134366000Y-57531000D01*
X140335000Y-59944000D02*
X136779000Y-59944000D01*
X140589000Y-60198000D02*
X140335000Y-59944000D01*
X140589000Y-61021000D02*
X140589000Y-60198000D01*
X134335500Y-55384700D02*
X134305000Y-55354200D01*
X128743500Y-48781000D02*
X128270000Y-48781000D01*
X129580500Y-49618000D02*
X128743500Y-48781000D01*
X129580500Y-52851000D02*
X129580500Y-49618000D01*
X130884000Y-54154500D02*
X129580500Y-52851000D01*
X131002600Y-54154500D02*
X130884000Y-54154500D01*
X131842900Y-54994800D02*
X131002600Y-54154500D01*
X131842900Y-55714600D02*
X131842900Y-54994800D01*
X132097600Y-55969300D02*
X131842900Y-55714600D01*
X133750900Y-55969300D02*
X132097600Y-55969300D01*
X134335500Y-55384700D02*
X133750900Y-55969300D01*
X128270000Y-47625000D02*
X128270000Y-48781000D01*
X141859300Y-72577900D02*
X141859300Y-72346000D01*
X142160800Y-72879400D02*
X141859300Y-72577900D01*
X140728700Y-72346000D02*
X141859300Y-72346000D01*
X142194500Y-71510800D02*
X141859300Y-71846000D01*
X142194500Y-71113500D02*
X142194500Y-71510800D01*
X140728700Y-71846000D02*
X141859300Y-71846000D01*
X139598100Y-71651500D02*
X139598100Y-71346000D01*
X139232100Y-72017500D02*
X139598100Y-71651500D01*
X140728700Y-71346000D02*
X139598100Y-71346000D01*
X138957700Y-70846000D02*
X140728700Y-70846000D01*
X138446000Y-71357700D02*
X138957700Y-70846000D01*
X128270000Y-73025000D02*
X128270000Y-71869000D01*
X128285400Y-71853600D02*
X128270000Y-71869000D01*
X137213400Y-71853600D02*
X128285400Y-71853600D01*
X138721000Y-70346000D02*
X137213400Y-71853600D01*
X140728700Y-70346000D02*
X138721000Y-70346000D01*
X128270000Y-70485000D02*
X129578400Y-70485000D01*
X130246000Y-71152600D02*
X129578400Y-70485000D01*
X137339300Y-71152600D02*
X130246000Y-71152600D01*
X138645900Y-69846000D02*
X137339300Y-71152600D01*
X140728700Y-69846000D02*
X138645900Y-69846000D01*
X135207000Y-54356000D02*
X136205000Y-55354200D01*
X133223000Y-54356000D02*
X135207000Y-54356000D01*
X132649000Y-54930000D02*
X133223000Y-54356000D01*
X132649000Y-55227200D02*
X132649000Y-54930000D01*
X136205000Y-56777000D02*
X138049000Y-58621000D01*
X136205000Y-55354200D02*
X136205000Y-56777000D01*
X138049000Y-58621000D02*
X138049000Y-59121000D01*
X140728700Y-73346000D02*
X141859300Y-73346000D01*
X134493000Y-90043000D02*
X134493000Y-88887000D01*
X138049000Y-58621000D02*
X140090300Y-58621000D01*
X140090300Y-58621000D02*
X140589000Y-58621000D01*
X140589000Y-59119700D02*
X140589000Y-59121000D01*
X140090300Y-58621000D02*
X140589000Y-59119700D01*
X142266000Y-81547500D02*
X142266000Y-73752700D01*
X134926500Y-88887000D02*
X142266000Y-81547500D01*
X134493000Y-88887000D02*
X134926500Y-88887000D01*
X142266000Y-73752700D02*
X141859300Y-73346000D01*
X140589000Y-59121000D02*
X146814000Y-65346000D01*
X146814000Y-65346000D02*
X148069300Y-65346000D01*
X144728300Y-73752700D02*
X142266000Y-73752700D01*
X146498300Y-71982700D02*
X144728300Y-73752700D01*
X146498300Y-67193100D02*
X146498300Y-71982700D01*
X146257100Y-66951900D02*
X146498300Y-67193100D01*
X146257100Y-65902900D02*
X146257100Y-66951900D01*
X146814000Y-65346000D02*
X146257100Y-65902900D01*
X141859300Y-76874200D02*
X141859300Y-74346000D01*
X134926500Y-83807000D02*
X141859300Y-76874200D01*
X134493000Y-83807000D02*
X134926500Y-83807000D01*
X134493000Y-84963000D02*
X134493000Y-83807000D01*
X140728700Y-74346000D02*
X141859300Y-74346000D01*
X134507900Y-73846000D02*
X140728700Y-73846000D01*
X133811500Y-74542400D02*
X134507900Y-73846000D01*
X133811500Y-80585500D02*
X133811500Y-74542400D01*
X134493000Y-81267000D02*
X133811500Y-80585500D01*
X134493000Y-82423000D02*
X134493000Y-81267000D01*
X152144000Y-66346000D02*
X152290000Y-66200000D01*
X148069300Y-66346000D02*
X152144000Y-66346000D01*
X146938700Y-66686500D02*
X146938700Y-67346000D01*
X146783400Y-66531200D02*
X146938700Y-66686500D01*
X148069300Y-67346000D02*
X146938700Y-67346000D01*
X149295200Y-67846000D02*
X149767100Y-67374100D01*
X148069300Y-67846000D02*
X149295200Y-67846000D01*
X152357600Y-68846000D02*
X148069300Y-68846000D01*
X152475200Y-68963600D02*
X152357600Y-68846000D01*
X149942700Y-69760800D02*
X150345100Y-70163200D01*
X149285100Y-69760800D02*
X149942700Y-69760800D01*
X149199900Y-69846000D02*
X149285100Y-69760800D01*
X148069300Y-69846000D02*
X149199900Y-69846000D01*
X149255900Y-70290000D02*
X149199900Y-70346000D01*
X149688800Y-70290000D02*
X149255900Y-70290000D01*
X148069300Y-70346000D02*
X149199900Y-70346000D01*
X152128000Y-71346000D02*
X148069300Y-71346000D01*
X152336400Y-71554400D02*
X152128000Y-71346000D01*
X149199900Y-72357500D02*
X149199900Y-72346000D01*
X149450600Y-72608200D02*
X149199900Y-72357500D01*
X148069300Y-72346000D02*
X149199900Y-72346000D01*
X146938700Y-72884200D02*
X146938700Y-72846000D01*
X146714200Y-73108700D02*
X146938700Y-72884200D01*
X148069300Y-72846000D02*
X146938700Y-72846000D01*
D25*
X140728700Y-64846000D02*
X140729000Y-64846000D01*
X138354000Y-64846000D02*
X140728700Y-64846000D01*
X138049000Y-65151000D02*
X138354000Y-64846000D01*
X135054000Y-65151000D02*
X138049000Y-65151000D01*
D26*
X135054000Y-65151000D02*
X134554000Y-65151000D01*
D27*
G36*
X149085300Y-75688482D02*
X148325110Y-76955466D01*
X148324791Y-76956354D01*
X148324267Y-76957140D01*
X148323962Y-76958668D01*
X148323439Y-76960131D01*
X148323484Y-76961071D01*
X148323300Y-76962000D01*
X148323300Y-86614000D01*
X148324267Y-86618860D01*
X148327020Y-86622980D01*
X148331140Y-86625733D01*
X148336000Y-86626700D01*
X148577300Y-86626700D01*
X148577300Y-89903300D01*
X145300700Y-89903300D01*
X145300700Y-86626700D01*
X146050000Y-86626700D01*
X146054860Y-86625733D01*
X146058980Y-86622980D01*
X146061733Y-86618860D01*
X146062700Y-86614000D01*
X146062700Y-76965373D01*
X147073369Y-75196700D01*
X149085300Y-75196700D01*
X149085300Y-75688482D01*
X149085300Y-75688482D01*
G37*
X149085300Y-75688482D02*
X148325110Y-76955466D01*
X148324791Y-76956354D01*
X148324267Y-76957140D01*
X148323962Y-76958668D01*
X148323439Y-76960131D01*
X148323484Y-76961071D01*
X148323300Y-76962000D01*
X148323300Y-86614000D01*
X148324267Y-86618860D01*
X148327020Y-86622980D01*
X148331140Y-86625733D01*
X148336000Y-86626700D01*
X148577300Y-86626700D01*
X148577300Y-89903300D01*
X145300700Y-89903300D01*
X145300700Y-86626700D01*
X146050000Y-86626700D01*
X146054860Y-86625733D01*
X146058980Y-86622980D01*
X146061733Y-86618860D01*
X146062700Y-86614000D01*
X146062700Y-76965373D01*
X147073369Y-75196700D01*
X149085300Y-75196700D01*
X149085300Y-75688482D01*
G36*
X126504700Y-75184000D02*
X126503733Y-75179140D01*
X126500980Y-75175020D01*
X126496860Y-75172267D01*
X126492000Y-75171300D01*
X126427700Y-75171300D01*
X126427700Y-64541400D01*
X127059768Y-64541400D01*
X127059768Y-66268600D01*
X127073861Y-66341237D01*
X127115798Y-66405078D01*
X127179108Y-66447813D01*
X127254000Y-66462832D01*
X129286000Y-66462832D01*
X129358637Y-66448739D01*
X129422478Y-66406802D01*
X129465213Y-66343492D01*
X129480232Y-66268600D01*
X129480232Y-64541400D01*
X129466139Y-64468763D01*
X129424202Y-64404922D01*
X129360892Y-64362187D01*
X129286000Y-64347168D01*
X127254000Y-64347168D01*
X127181363Y-64361261D01*
X127117522Y-64403198D01*
X127074787Y-64466508D01*
X127059768Y-64541400D01*
X126427700Y-64541400D01*
X126427700Y-54652057D01*
X126449002Y-52181000D01*
X126631600Y-52181000D01*
X126631600Y-53220600D01*
X126654802Y-53337242D01*
X126720874Y-53436126D01*
X127475274Y-54190526D01*
X127574158Y-54256598D01*
X127680639Y-54277779D01*
X127348602Y-54499639D01*
X127120102Y-54841613D01*
X127039863Y-55245000D01*
X127120102Y-55648387D01*
X127348602Y-55990361D01*
X127690576Y-56218861D01*
X127965200Y-56273487D01*
X127965200Y-56401000D01*
X127988402Y-56517642D01*
X128054474Y-56616526D01*
X128153358Y-56682598D01*
X128270000Y-56705800D01*
X128577248Y-56705800D01*
X128641161Y-56769713D01*
X128446037Y-56730900D01*
X128093963Y-56730900D01*
X127690576Y-56811139D01*
X127348602Y-57039639D01*
X127120102Y-57381613D01*
X127039863Y-57785000D01*
X127120102Y-58188387D01*
X127348602Y-58530361D01*
X127690576Y-58758861D01*
X128093963Y-58839100D01*
X128446037Y-58839100D01*
X128849424Y-58758861D01*
X129191398Y-58530361D01*
X129419898Y-58188387D01*
X129500137Y-57785000D01*
X129461324Y-57589876D01*
X132991700Y-61120252D01*
X132991700Y-65332700D01*
X133014902Y-65449342D01*
X133080974Y-65548226D01*
X133856974Y-66324226D01*
X133955858Y-66390298D01*
X134072500Y-66413500D01*
X139335400Y-66413500D01*
X139452042Y-66390298D01*
X139550926Y-66324226D01*
X139703144Y-66172008D01*
X139696268Y-66206294D01*
X139696268Y-66485694D01*
X139703598Y-66523475D01*
X139613842Y-66463502D01*
X139497200Y-66440300D01*
X132937252Y-66440300D01*
X131099800Y-64602848D01*
X131099800Y-63572500D01*
X131076598Y-63455858D01*
X131010526Y-63356974D01*
X128919026Y-61265474D01*
X128909209Y-61258914D01*
X129191398Y-61070361D01*
X129419898Y-60728387D01*
X129500137Y-60325000D01*
X129419898Y-59921613D01*
X129191398Y-59579639D01*
X128849424Y-59351139D01*
X128446037Y-59270900D01*
X128093963Y-59270900D01*
X127690576Y-59351139D01*
X127348602Y-59579639D01*
X127120102Y-59921613D01*
X127039863Y-60325000D01*
X127120102Y-60728387D01*
X127348602Y-61070361D01*
X127690576Y-61298861D01*
X127965200Y-61353487D01*
X127965200Y-61481000D01*
X127988402Y-61597642D01*
X128054474Y-61696526D01*
X128153358Y-61762598D01*
X128270000Y-61785800D01*
X128577248Y-61785800D01*
X128641161Y-61849713D01*
X128446037Y-61810900D01*
X128093963Y-61810900D01*
X127690576Y-61891139D01*
X127348602Y-62119639D01*
X127120102Y-62461613D01*
X127039863Y-62865000D01*
X127120102Y-63268387D01*
X127348602Y-63610361D01*
X127690576Y-63838861D01*
X128093963Y-63919100D01*
X128446037Y-63919100D01*
X128849424Y-63838861D01*
X129191398Y-63610361D01*
X129419898Y-63268387D01*
X129500137Y-62865000D01*
X129461324Y-62669876D01*
X130490200Y-63698752D01*
X130490200Y-64729100D01*
X130513402Y-64845742D01*
X130579474Y-64944626D01*
X132595474Y-66960626D01*
X132694359Y-67026699D01*
X132811000Y-67049900D01*
X133912997Y-67049900D01*
X133909768Y-67066000D01*
X133909768Y-68316000D01*
X133923861Y-68388637D01*
X133965798Y-68452478D01*
X134029108Y-68495213D01*
X134104000Y-68510232D01*
X134289916Y-68510232D01*
X133277259Y-69522889D01*
X133242202Y-69469522D01*
X133178892Y-69426787D01*
X133104000Y-69411768D01*
X132104000Y-69411768D01*
X132031363Y-69425861D01*
X131967522Y-69467798D01*
X131924787Y-69531108D01*
X131909768Y-69606000D01*
X131909768Y-70847800D01*
X130372252Y-70847800D01*
X129793926Y-70269474D01*
X129695042Y-70203402D01*
X129578400Y-70180200D01*
X129439508Y-70180200D01*
X129419898Y-70081613D01*
X129191398Y-69739639D01*
X128849424Y-69511139D01*
X128446037Y-69430900D01*
X128093963Y-69430900D01*
X127690576Y-69511139D01*
X127348602Y-69739639D01*
X127120102Y-70081613D01*
X127039863Y-70485000D01*
X127120102Y-70888387D01*
X127348602Y-71230361D01*
X127690576Y-71458861D01*
X128093963Y-71539100D01*
X128446037Y-71539100D01*
X128849424Y-71458861D01*
X129191398Y-71230361D01*
X129419898Y-70888387D01*
X129439508Y-70789800D01*
X129452148Y-70789800D01*
X130030474Y-71368126D01*
X130129358Y-71434198D01*
X130246000Y-71457400D01*
X137178548Y-71457400D01*
X137087148Y-71548800D01*
X128285400Y-71548800D01*
X128168758Y-71572002D01*
X128081260Y-71630466D01*
X128069874Y-71638074D01*
X128054474Y-71653474D01*
X127988402Y-71752358D01*
X127965200Y-71869000D01*
X127965200Y-71996513D01*
X127690576Y-72051139D01*
X127348602Y-72279639D01*
X127120102Y-72621613D01*
X127039863Y-73025000D01*
X127120102Y-73428387D01*
X127348602Y-73770361D01*
X127690576Y-73998861D01*
X128093963Y-74079100D01*
X128446037Y-74079100D01*
X128849424Y-73998861D01*
X129191398Y-73770361D01*
X129419898Y-73428387D01*
X129500137Y-73025000D01*
X129419898Y-72621613D01*
X129191398Y-72279639D01*
X129009951Y-72158400D01*
X133909768Y-72158400D01*
X133909768Y-73396000D01*
X133923861Y-73468637D01*
X133965798Y-73532478D01*
X134029108Y-73575213D01*
X134104000Y-73590232D01*
X134352601Y-73590232D01*
X134292374Y-73630474D01*
X133595974Y-74326874D01*
X133529902Y-74425758D01*
X133506700Y-74542400D01*
X133506700Y-80585500D01*
X133529902Y-80702142D01*
X133595974Y-80801026D01*
X134188200Y-81393252D01*
X134188200Y-81394513D01*
X133913576Y-81449139D01*
X133571602Y-81677639D01*
X133343102Y-82019613D01*
X133262863Y-82423000D01*
X133343102Y-82826387D01*
X133571602Y-83168361D01*
X133913576Y-83396861D01*
X134316963Y-83477100D01*
X134669037Y-83477100D01*
X134864161Y-83438287D01*
X134800248Y-83502200D01*
X134493000Y-83502200D01*
X134376358Y-83525402D01*
X134277474Y-83591474D01*
X134211402Y-83690358D01*
X134188200Y-83807000D01*
X134188200Y-83934513D01*
X133913576Y-83989139D01*
X133571602Y-84217639D01*
X133343102Y-84559613D01*
X133262863Y-84963000D01*
X133343102Y-85366387D01*
X133571602Y-85708361D01*
X133913576Y-85936861D01*
X134316963Y-86017100D01*
X134669037Y-86017100D01*
X135072424Y-85936861D01*
X135414398Y-85708361D01*
X135642898Y-85366387D01*
X135723137Y-84963000D01*
X135642898Y-84559613D01*
X135414398Y-84217639D01*
X135132209Y-84029086D01*
X135142026Y-84022526D01*
X141961200Y-77203352D01*
X141961200Y-81421248D01*
X134800248Y-88582200D01*
X134493000Y-88582200D01*
X134376358Y-88605402D01*
X134277474Y-88671474D01*
X134211402Y-88770358D01*
X134188200Y-88887000D01*
X134188200Y-88985168D01*
X133477000Y-88985168D01*
X133404363Y-88999261D01*
X133340522Y-89041198D01*
X133297787Y-89104508D01*
X133282768Y-89179400D01*
X133282768Y-90906600D01*
X133296861Y-90979237D01*
X133338798Y-91043078D01*
X133402108Y-91085813D01*
X133477000Y-91100832D01*
X135509000Y-91100832D01*
X135581637Y-91086739D01*
X135645478Y-91044802D01*
X135688213Y-90981492D01*
X135703232Y-90906600D01*
X135703232Y-89179400D01*
X135689139Y-89106763D01*
X135647202Y-89042922D01*
X135583892Y-89000187D01*
X135509000Y-88985168D01*
X135259384Y-88985168D01*
X142481526Y-81763026D01*
X142547598Y-81664142D01*
X142556605Y-81618861D01*
X142570800Y-81547500D01*
X142570800Y-74057500D01*
X144728300Y-74057500D01*
X144844942Y-74034298D01*
X144943826Y-73968226D01*
X146713826Y-72198226D01*
X146779898Y-72099342D01*
X146803100Y-71982700D01*
X146803100Y-67614931D01*
X146822058Y-67627598D01*
X146938700Y-67650800D01*
X147047996Y-67650800D01*
X147036868Y-67706291D01*
X147036868Y-67985691D01*
X147050961Y-68058328D01*
X147075744Y-68096056D01*
X147051887Y-68131399D01*
X147036868Y-68206291D01*
X147036868Y-68485691D01*
X147050961Y-68558328D01*
X147075743Y-68596054D01*
X147051887Y-68631395D01*
X147036868Y-68706287D01*
X147036868Y-68985687D01*
X147050961Y-69058324D01*
X147075753Y-69096064D01*
X147051887Y-69131420D01*
X147036868Y-69206312D01*
X147036868Y-69485712D01*
X147050961Y-69558349D01*
X147075736Y-69596064D01*
X147051887Y-69631396D01*
X147036868Y-69706288D01*
X147036868Y-69985688D01*
X147050961Y-70058325D01*
X147075753Y-70096065D01*
X147051887Y-70131421D01*
X147036868Y-70206313D01*
X147036868Y-70485713D01*
X147050961Y-70558350D01*
X147075743Y-70596076D01*
X147051887Y-70631417D01*
X147036868Y-70706309D01*
X147036868Y-70985709D01*
X147050961Y-71058346D01*
X147075744Y-71096074D01*
X147051887Y-71131417D01*
X147036868Y-71206309D01*
X147036868Y-71485709D01*
X147050961Y-71558346D01*
X147075744Y-71596074D01*
X147051887Y-71631417D01*
X147036868Y-71706309D01*
X147036868Y-71985709D01*
X147050961Y-72058346D01*
X147075743Y-72096072D01*
X147051887Y-72131414D01*
X147036868Y-72206306D01*
X147036868Y-72485706D01*
X147047635Y-72541200D01*
X146938700Y-72541200D01*
X146822058Y-72564402D01*
X146723174Y-72630474D01*
X146683685Y-72689573D01*
X146631202Y-72689527D01*
X146477109Y-72753197D01*
X146359111Y-72870989D01*
X146295173Y-73024970D01*
X146295027Y-73191698D01*
X146358697Y-73345791D01*
X146476489Y-73463789D01*
X146630470Y-73527727D01*
X146797198Y-73527873D01*
X146951291Y-73464203D01*
X147036868Y-73378775D01*
X147036868Y-73485706D01*
X147047636Y-73541203D01*
X145609997Y-73541203D01*
X145493355Y-73564405D01*
X145394471Y-73630477D01*
X145326474Y-73698474D01*
X145260402Y-73797358D01*
X145237200Y-73914000D01*
X145237200Y-74134088D01*
X145186911Y-74184289D01*
X145122973Y-74338270D01*
X145122827Y-74504998D01*
X145186497Y-74659091D01*
X145304289Y-74777089D01*
X145458270Y-74841027D01*
X145624998Y-74841173D01*
X145656300Y-74828239D01*
X145656300Y-85585300D01*
X144653000Y-85585300D01*
X144648140Y-85586267D01*
X144644020Y-85589020D01*
X144641267Y-85593140D01*
X144640300Y-85598000D01*
X144640300Y-90297000D01*
X144641267Y-90301860D01*
X144644020Y-90305980D01*
X144648140Y-90308733D01*
X144653000Y-90309700D01*
X148971000Y-90309700D01*
X148975860Y-90308733D01*
X148979980Y-90305980D01*
X148982733Y-90301860D01*
X148983700Y-90297000D01*
X148983700Y-89306400D01*
X156269768Y-89306400D01*
X156269768Y-91033600D01*
X156283861Y-91106237D01*
X156325798Y-91170078D01*
X156389108Y-91212813D01*
X156464000Y-91227832D01*
X158496000Y-91227832D01*
X158568637Y-91213739D01*
X158632478Y-91171802D01*
X158675213Y-91108492D01*
X158690232Y-91033600D01*
X158690232Y-89306400D01*
X158676139Y-89233763D01*
X158634202Y-89169922D01*
X158570892Y-89127187D01*
X158496000Y-89112168D01*
X156464000Y-89112168D01*
X156391363Y-89126261D01*
X156327522Y-89168198D01*
X156284787Y-89231508D01*
X156269768Y-89306400D01*
X148983700Y-89306400D01*
X148983700Y-77101700D01*
X149987000Y-77101700D01*
X149991860Y-77100733D01*
X149995980Y-77097980D01*
X149998733Y-77093860D01*
X149999700Y-77089000D01*
X149999700Y-77024752D01*
X151583400Y-78608452D01*
X151583400Y-78753300D01*
X151606602Y-78869942D01*
X151672674Y-78968826D01*
X156852266Y-84148418D01*
X156558602Y-84344639D01*
X156330102Y-84686613D01*
X156249863Y-85090000D01*
X156330102Y-85493387D01*
X156558602Y-85835361D01*
X156900576Y-86063861D01*
X157303963Y-86144100D01*
X157656037Y-86144100D01*
X157851161Y-86105287D01*
X157787248Y-86169200D01*
X157480000Y-86169200D01*
X157363358Y-86192402D01*
X157264474Y-86258474D01*
X157198402Y-86357358D01*
X157175200Y-86474000D01*
X157175200Y-86601513D01*
X156900576Y-86656139D01*
X156558602Y-86884639D01*
X156330102Y-87226613D01*
X156249863Y-87630000D01*
X156330102Y-88033387D01*
X156558602Y-88375361D01*
X156900576Y-88603861D01*
X157303963Y-88684100D01*
X157656037Y-88684100D01*
X158059424Y-88603861D01*
X158401398Y-88375361D01*
X158629898Y-88033387D01*
X158710137Y-87630000D01*
X158629898Y-87226613D01*
X158401398Y-86884639D01*
X158119209Y-86696086D01*
X158129026Y-86689526D01*
X159022426Y-85796126D01*
X159088498Y-85697242D01*
X159111700Y-85580600D01*
X159111700Y-78023000D01*
X159088498Y-77906358D01*
X159022426Y-77807474D01*
X156248726Y-75033774D01*
X156149842Y-74967702D01*
X156033200Y-74944500D01*
X155911232Y-74944500D01*
X155911232Y-73956800D01*
X155897139Y-73884163D01*
X155855202Y-73820322D01*
X155800353Y-73783299D01*
X158387426Y-71196226D01*
X158407724Y-71165848D01*
X158453498Y-71097342D01*
X158476700Y-70980700D01*
X158476700Y-52976400D01*
X158453498Y-52859758D01*
X158387426Y-52760874D01*
X157494026Y-51867474D01*
X157484209Y-51860914D01*
X157766398Y-51672361D01*
X157994898Y-51330387D01*
X158075137Y-50927000D01*
X157994898Y-50523613D01*
X157766398Y-50181639D01*
X157424424Y-49953139D01*
X157021037Y-49872900D01*
X156668963Y-49872900D01*
X156265576Y-49953139D01*
X155923602Y-50181639D01*
X155695102Y-50523613D01*
X155614863Y-50927000D01*
X155695102Y-51330387D01*
X155923602Y-51672361D01*
X156265576Y-51900861D01*
X156540200Y-51955487D01*
X156540200Y-52083000D01*
X156563402Y-52199642D01*
X156629474Y-52298526D01*
X156728358Y-52364598D01*
X156845000Y-52387800D01*
X157152248Y-52387800D01*
X157216161Y-52451713D01*
X157021037Y-52412900D01*
X156668963Y-52412900D01*
X156265576Y-52493139D01*
X155923602Y-52721639D01*
X155695102Y-53063613D01*
X155614863Y-53467000D01*
X155695102Y-53870387D01*
X155923602Y-54212361D01*
X156265576Y-54440861D01*
X156668963Y-54521100D01*
X157021037Y-54521100D01*
X157424424Y-54440861D01*
X157766398Y-54212361D01*
X157867100Y-54061650D01*
X157867100Y-55412350D01*
X157766398Y-55261639D01*
X157424424Y-55033139D01*
X157021037Y-54952900D01*
X156668963Y-54952900D01*
X156265576Y-55033139D01*
X155923602Y-55261639D01*
X155695102Y-55603613D01*
X155614863Y-56007000D01*
X155695102Y-56410387D01*
X155923602Y-56752361D01*
X156265576Y-56980861D01*
X156668963Y-57061100D01*
X157021037Y-57061100D01*
X157424424Y-56980861D01*
X157766398Y-56752361D01*
X157867100Y-56601650D01*
X157867100Y-70854448D01*
X155911232Y-72810316D01*
X155911232Y-71956800D01*
X155897139Y-71884163D01*
X155855202Y-71820322D01*
X155791892Y-71777587D01*
X155717000Y-71762568D01*
X154489761Y-71762568D01*
X153357513Y-70630460D01*
X153304136Y-70594800D01*
X153258642Y-70564402D01*
X153258631Y-70564400D01*
X153258624Y-70564395D01*
X153203218Y-70553377D01*
X153142000Y-70541200D01*
X150527744Y-70541200D01*
X150582191Y-70518703D01*
X150700189Y-70400911D01*
X150764127Y-70246930D01*
X150764273Y-70080202D01*
X150700603Y-69926109D01*
X150582811Y-69808111D01*
X150428830Y-69744173D01*
X150357062Y-69744110D01*
X150263752Y-69650800D01*
X151896748Y-69650800D01*
X152438474Y-70192526D01*
X152537358Y-70258598D01*
X152654000Y-70281800D01*
X153162748Y-70281800D01*
X153819474Y-70938526D01*
X153918358Y-71004598D01*
X154035000Y-71027800D01*
X154247768Y-71027800D01*
X154247768Y-71223000D01*
X154261861Y-71295637D01*
X154303798Y-71359478D01*
X154367108Y-71402213D01*
X154442000Y-71417232D01*
X155692000Y-71417232D01*
X155764637Y-71403139D01*
X155828478Y-71361202D01*
X155871213Y-71297892D01*
X155886232Y-71223000D01*
X155886232Y-70223000D01*
X155872139Y-70150363D01*
X155830202Y-70086522D01*
X155775353Y-70049499D01*
X156606826Y-69218026D01*
X156614653Y-69206312D01*
X156672898Y-69119142D01*
X156696100Y-69002500D01*
X156696100Y-62735800D01*
X156672898Y-62619158D01*
X156606826Y-62520274D01*
X152564700Y-58478148D01*
X152564700Y-53120400D01*
X152541498Y-53003758D01*
X152475426Y-52904874D01*
X151565026Y-51994474D01*
X151535208Y-51974551D01*
X151797398Y-51799361D01*
X152025898Y-51457387D01*
X152106137Y-51054000D01*
X152025898Y-50650613D01*
X151797398Y-50308639D01*
X151455424Y-50080139D01*
X151052037Y-49999900D01*
X150699963Y-49999900D01*
X150296576Y-50080139D01*
X149954602Y-50308639D01*
X149726102Y-50650613D01*
X149645863Y-51054000D01*
X149726102Y-51457387D01*
X149954602Y-51799361D01*
X150296576Y-52027861D01*
X150571200Y-52082487D01*
X150571200Y-52210000D01*
X150594402Y-52326642D01*
X150660474Y-52425526D01*
X150759358Y-52491598D01*
X150876000Y-52514800D01*
X151223248Y-52514800D01*
X151297093Y-52588645D01*
X151052037Y-52539900D01*
X150699963Y-52539900D01*
X150296576Y-52620139D01*
X149954602Y-52848639D01*
X149726102Y-53190613D01*
X149645863Y-53594000D01*
X149726102Y-53997387D01*
X149954602Y-54339361D01*
X150296576Y-54567861D01*
X150699963Y-54648100D01*
X151052037Y-54648100D01*
X151455424Y-54567861D01*
X151797398Y-54339361D01*
X151955100Y-54103344D01*
X151955100Y-55624656D01*
X151797398Y-55388639D01*
X151455424Y-55160139D01*
X151052037Y-55079900D01*
X150699963Y-55079900D01*
X150296576Y-55160139D01*
X149954602Y-55388639D01*
X149726102Y-55730613D01*
X149645863Y-56134000D01*
X149726102Y-56537387D01*
X149954602Y-56879361D01*
X150296576Y-57107861D01*
X150699963Y-57188100D01*
X151052037Y-57188100D01*
X151455424Y-57107861D01*
X151797398Y-56879361D01*
X151955100Y-56643344D01*
X151955100Y-58604400D01*
X151978302Y-58721042D01*
X152044374Y-58819926D01*
X156086500Y-62862052D01*
X156086500Y-64046048D01*
X146849700Y-54809248D01*
X146849700Y-52993400D01*
X146826498Y-52876758D01*
X146760426Y-52777874D01*
X145850026Y-51867474D01*
X145820208Y-51847551D01*
X146082398Y-51672361D01*
X146310898Y-51330387D01*
X146391137Y-50927000D01*
X146310898Y-50523613D01*
X146082398Y-50181639D01*
X145740424Y-49953139D01*
X145337037Y-49872900D01*
X144984963Y-49872900D01*
X144581576Y-49953139D01*
X144239602Y-50181639D01*
X144011102Y-50523613D01*
X143930863Y-50927000D01*
X144011102Y-51330387D01*
X144239602Y-51672361D01*
X144581576Y-51900861D01*
X144856200Y-51955487D01*
X144856200Y-52083000D01*
X144879402Y-52199642D01*
X144945474Y-52298526D01*
X145044358Y-52364598D01*
X145161000Y-52387800D01*
X145508248Y-52387800D01*
X145582093Y-52461645D01*
X145337037Y-52412900D01*
X144984963Y-52412900D01*
X144581576Y-52493139D01*
X144239602Y-52721639D01*
X144011102Y-53063613D01*
X143930863Y-53467000D01*
X144011102Y-53870387D01*
X144239602Y-54212361D01*
X144581576Y-54440861D01*
X144984963Y-54521100D01*
X145337037Y-54521100D01*
X145740424Y-54440861D01*
X146082398Y-54212361D01*
X146240100Y-53976344D01*
X146240100Y-54935500D01*
X146263302Y-55052142D01*
X146329374Y-55151026D01*
X155524116Y-64345768D01*
X154442000Y-64345768D01*
X154369363Y-64359861D01*
X154305522Y-64401798D01*
X154262787Y-64465108D01*
X154247768Y-64540000D01*
X154247768Y-64735200D01*
X152511000Y-64735200D01*
X152394358Y-64758402D01*
X152295474Y-64824474D01*
X151578748Y-65541200D01*
X149090601Y-65541200D01*
X149101732Y-65485697D01*
X149101732Y-65206297D01*
X149087639Y-65133660D01*
X149045702Y-65069819D01*
X148982392Y-65027084D01*
X148907500Y-65012065D01*
X147231100Y-65012065D01*
X147158463Y-65026158D01*
X147135564Y-65041200D01*
X146940252Y-65041200D01*
X141422678Y-59523626D01*
X141433232Y-59471000D01*
X141433232Y-58771000D01*
X141419139Y-58698363D01*
X141377202Y-58634522D01*
X141313892Y-58591787D01*
X141239000Y-58576768D01*
X140885002Y-58576768D01*
X140870598Y-58504358D01*
X140804526Y-58405474D01*
X140705642Y-58339402D01*
X140589000Y-58316200D01*
X138175252Y-58316200D01*
X136509800Y-56650748D01*
X136509800Y-56007000D01*
X143930863Y-56007000D01*
X144011102Y-56410387D01*
X144239602Y-56752361D01*
X144581576Y-56980861D01*
X144984963Y-57061100D01*
X145337037Y-57061100D01*
X145740424Y-56980861D01*
X146082398Y-56752361D01*
X146310898Y-56410387D01*
X146391137Y-56007000D01*
X146310898Y-55603613D01*
X146082398Y-55261639D01*
X145740424Y-55033139D01*
X145337037Y-54952900D01*
X144984963Y-54952900D01*
X144581576Y-55033139D01*
X144239602Y-55261639D01*
X144011102Y-55603613D01*
X143930863Y-56007000D01*
X136509800Y-56007000D01*
X136509800Y-55998032D01*
X136603740Y-55998032D01*
X136676377Y-55983939D01*
X136740218Y-55942002D01*
X136782953Y-55878692D01*
X136797972Y-55803800D01*
X136797972Y-54904640D01*
X136783879Y-54832003D01*
X136741942Y-54768162D01*
X136678632Y-54725427D01*
X136603740Y-54710408D01*
X135992346Y-54710408D01*
X135422548Y-54140495D01*
X135422534Y-54140485D01*
X135422526Y-54140474D01*
X135378081Y-54110777D01*
X135323670Y-54074413D01*
X135323654Y-54074410D01*
X135323642Y-54074402D01*
X135269052Y-54063543D01*
X135207031Y-54051200D01*
X135207015Y-54051203D01*
X135207000Y-54051200D01*
X133223000Y-54051200D01*
X133106358Y-54074402D01*
X133007507Y-54140452D01*
X133007474Y-54140474D01*
X132564540Y-54583408D01*
X132250180Y-54583408D01*
X132177543Y-54597501D01*
X132113702Y-54639438D01*
X132070967Y-54702748D01*
X132056089Y-54776937D01*
X131218126Y-53938974D01*
X131119242Y-53872902D01*
X131012152Y-53851600D01*
X130594552Y-53434000D01*
X131105988Y-53434000D01*
X131105988Y-53578760D01*
X131120081Y-53651397D01*
X131162018Y-53715238D01*
X131225328Y-53757973D01*
X131300220Y-53772992D01*
X132097780Y-53772992D01*
X132170417Y-53758899D01*
X132234258Y-53716962D01*
X132276993Y-53653652D01*
X132292012Y-53578760D01*
X132292012Y-52679600D01*
X132277919Y-52606963D01*
X132235982Y-52543122D01*
X132172672Y-52500387D01*
X132097780Y-52485368D01*
X131300220Y-52485368D01*
X131227583Y-52499461D01*
X131163742Y-52541398D01*
X131121007Y-52604708D01*
X131105988Y-52679600D01*
X131105988Y-52824400D01*
X130598313Y-52824400D01*
X130479800Y-52705807D01*
X130479800Y-50038000D01*
X130742768Y-50038000D01*
X130742768Y-52070000D01*
X130756861Y-52142637D01*
X130798798Y-52206478D01*
X130862108Y-52249213D01*
X130937000Y-52264232D01*
X132461000Y-52264232D01*
X132475313Y-52261455D01*
X133685464Y-53471717D01*
X133685471Y-53471722D01*
X133685474Y-53471726D01*
X133728421Y-53500422D01*
X133784346Y-53537793D01*
X133784352Y-53537794D01*
X133784358Y-53537798D01*
X133840810Y-53549027D01*
X133900986Y-53561000D01*
X133900993Y-53560999D01*
X133901000Y-53561000D01*
X134661988Y-53561000D01*
X134661988Y-53705760D01*
X134676081Y-53778397D01*
X134718018Y-53842238D01*
X134781328Y-53884973D01*
X134856220Y-53899992D01*
X135653780Y-53899992D01*
X135726417Y-53885899D01*
X135790258Y-53843962D01*
X135832993Y-53780652D01*
X135848012Y-53705760D01*
X135848012Y-52806600D01*
X135833919Y-52733963D01*
X135791982Y-52670122D01*
X135728672Y-52627387D01*
X135653780Y-52612368D01*
X134856220Y-52612368D01*
X134783583Y-52626461D01*
X134719742Y-52668398D01*
X134677007Y-52731708D01*
X134661988Y-52806600D01*
X134661988Y-52951400D01*
X134027260Y-52951400D01*
X132655232Y-51579247D01*
X132655232Y-50038000D01*
X134044768Y-50038000D01*
X134044768Y-52070000D01*
X134058861Y-52142637D01*
X134100798Y-52206478D01*
X134164108Y-52249213D01*
X134239000Y-52264232D01*
X135763000Y-52264232D01*
X135835637Y-52250139D01*
X135899478Y-52208202D01*
X135942213Y-52144892D01*
X135957232Y-52070000D01*
X135957232Y-51369500D01*
X137443768Y-51369500D01*
X137443768Y-51704000D01*
X137457861Y-51776637D01*
X137499798Y-51840478D01*
X137563108Y-51883213D01*
X137638000Y-51898232D01*
X138338000Y-51898232D01*
X138410637Y-51884139D01*
X138474478Y-51842202D01*
X138517213Y-51778892D01*
X138532232Y-51704000D01*
X138532232Y-50404000D01*
X138518139Y-50331363D01*
X138476202Y-50267522D01*
X138412892Y-50224787D01*
X138338000Y-50209768D01*
X137638000Y-50209768D01*
X137565363Y-50223861D01*
X137501522Y-50265798D01*
X137458787Y-50329108D01*
X137443768Y-50404000D01*
X137443768Y-50738500D01*
X135957232Y-50738500D01*
X135957232Y-50038000D01*
X135943139Y-49965363D01*
X135901202Y-49901522D01*
X135837892Y-49858787D01*
X135763000Y-49843768D01*
X134239000Y-49843768D01*
X134166363Y-49857861D01*
X134102522Y-49899798D01*
X134059787Y-49963108D01*
X134044768Y-50038000D01*
X132655232Y-50038000D01*
X132655232Y-50038000D01*
X132641139Y-49965363D01*
X132599202Y-49901522D01*
X132535892Y-49858787D01*
X132461000Y-49843768D01*
X130937000Y-49843768D01*
X130864363Y-49857861D01*
X130800522Y-49899798D01*
X130757787Y-49963108D01*
X130742768Y-50038000D01*
X130479800Y-50038000D01*
X130479800Y-49656252D01*
X130922690Y-49213362D01*
X130937000Y-49216232D01*
X132461000Y-49216232D01*
X132533637Y-49202139D01*
X132597478Y-49160202D01*
X132640213Y-49096892D01*
X132655232Y-49022000D01*
X132655232Y-46990000D01*
X134044768Y-46990000D01*
X134044768Y-49022000D01*
X134058861Y-49094637D01*
X134100798Y-49158478D01*
X134164108Y-49201213D01*
X134239000Y-49216232D01*
X135763000Y-49216232D01*
X135835637Y-49202139D01*
X135899478Y-49160202D01*
X135942213Y-49096892D01*
X135957232Y-49022000D01*
X135957232Y-48321500D01*
X137951768Y-48321500D01*
X137951768Y-48656000D01*
X137965861Y-48728637D01*
X138007798Y-48792478D01*
X138071108Y-48835213D01*
X138146000Y-48850232D01*
X138846000Y-48850232D01*
X138918637Y-48836139D01*
X138982478Y-48794202D01*
X139025213Y-48730892D01*
X139040232Y-48656000D01*
X139040232Y-47523400D01*
X143950768Y-47523400D01*
X143950768Y-49250600D01*
X143964861Y-49323237D01*
X144006798Y-49387078D01*
X144070108Y-49429813D01*
X144145000Y-49444832D01*
X146177000Y-49444832D01*
X146249637Y-49430739D01*
X146313478Y-49388802D01*
X146356213Y-49325492D01*
X146371232Y-49250600D01*
X146371232Y-47650400D01*
X149665768Y-47650400D01*
X149665768Y-49377600D01*
X149679861Y-49450237D01*
X149721798Y-49514078D01*
X149785108Y-49556813D01*
X149860000Y-49571832D01*
X151892000Y-49571832D01*
X151964637Y-49557739D01*
X152028478Y-49515802D01*
X152071213Y-49452492D01*
X152086232Y-49377600D01*
X152086232Y-47650400D01*
X152072139Y-47577763D01*
X152036429Y-47523400D01*
X155634768Y-47523400D01*
X155634768Y-49250600D01*
X155648861Y-49323237D01*
X155690798Y-49387078D01*
X155754108Y-49429813D01*
X155829000Y-49444832D01*
X157861000Y-49444832D01*
X157933637Y-49430739D01*
X157997478Y-49388802D01*
X158040213Y-49325492D01*
X158055232Y-49250600D01*
X158055232Y-47523400D01*
X158041139Y-47450763D01*
X157999202Y-47386922D01*
X157935892Y-47344187D01*
X157861000Y-47329168D01*
X155829000Y-47329168D01*
X155756363Y-47343261D01*
X155692522Y-47385198D01*
X155649787Y-47448508D01*
X155634768Y-47523400D01*
X152036429Y-47523400D01*
X152030202Y-47513922D01*
X151966892Y-47471187D01*
X151892000Y-47456168D01*
X149860000Y-47456168D01*
X149787363Y-47470261D01*
X149723522Y-47512198D01*
X149680787Y-47575508D01*
X149665768Y-47650400D01*
X146371232Y-47650400D01*
X146371232Y-47523400D01*
X146357139Y-47450763D01*
X146315202Y-47386922D01*
X146251892Y-47344187D01*
X146177000Y-47329168D01*
X144145000Y-47329168D01*
X144072363Y-47343261D01*
X144008522Y-47385198D01*
X143965787Y-47448508D01*
X143950768Y-47523400D01*
X139040232Y-47523400D01*
X139040232Y-47356000D01*
X139026139Y-47283363D01*
X138984202Y-47219522D01*
X138920892Y-47176787D01*
X138846000Y-47161768D01*
X138146000Y-47161768D01*
X138073363Y-47175861D01*
X138009522Y-47217798D01*
X137966787Y-47281108D01*
X137951768Y-47356000D01*
X137951768Y-47690500D01*
X135957232Y-47690500D01*
X135957232Y-46990000D01*
X135943139Y-46917363D01*
X135901202Y-46853522D01*
X135837892Y-46810787D01*
X135763000Y-46795768D01*
X134239000Y-46795768D01*
X134166363Y-46809861D01*
X134102522Y-46851798D01*
X134059787Y-46915108D01*
X134044768Y-46990000D01*
X132655232Y-46990000D01*
X132655232Y-46990000D01*
X132641139Y-46917363D01*
X132599202Y-46853522D01*
X132535892Y-46810787D01*
X132461000Y-46795768D01*
X130937000Y-46795768D01*
X130864363Y-46809861D01*
X130800522Y-46851798D01*
X130757787Y-46915108D01*
X130742768Y-46990000D01*
X130742768Y-48531180D01*
X129959474Y-49314474D01*
X129893402Y-49413358D01*
X129870200Y-49530000D01*
X129870200Y-49542089D01*
X129862098Y-49501358D01*
X129796026Y-49402474D01*
X128959026Y-48565474D01*
X128929208Y-48545551D01*
X129191398Y-48370361D01*
X129419898Y-48028387D01*
X129500137Y-47625000D01*
X129419898Y-47221613D01*
X129191398Y-46879639D01*
X128849424Y-46651139D01*
X128446037Y-46570900D01*
X128093963Y-46570900D01*
X127690576Y-46651139D01*
X127348602Y-46879639D01*
X127120102Y-47221613D01*
X127039863Y-47625000D01*
X127120102Y-48028387D01*
X127348602Y-48370361D01*
X127690576Y-48598861D01*
X127965200Y-48653487D01*
X127965200Y-48781000D01*
X127988402Y-48897642D01*
X128054474Y-48996526D01*
X128153358Y-49062598D01*
X128270000Y-49085800D01*
X128617248Y-49085800D01*
X128691093Y-49159645D01*
X128446037Y-49110900D01*
X128093963Y-49110900D01*
X127690576Y-49191139D01*
X127348602Y-49419639D01*
X127120102Y-49761613D01*
X127039863Y-50165000D01*
X127120102Y-50568387D01*
X127348602Y-50910361D01*
X127610742Y-51085517D01*
X127580874Y-51105474D01*
X126720874Y-51965474D01*
X126654802Y-52064358D01*
X126631600Y-52181000D01*
X126449002Y-52181000D01*
X126504160Y-45782700D01*
X159245300Y-45782700D01*
X159245300Y-91935300D01*
X126504700Y-91935300D01*
X126504700Y-82321400D01*
X127059768Y-82321400D01*
X127059768Y-84048600D01*
X127073861Y-84121237D01*
X127115798Y-84185078D01*
X127179108Y-84227813D01*
X127254000Y-84242832D01*
X129286000Y-84242832D01*
X129358637Y-84228739D01*
X129422478Y-84186802D01*
X129465213Y-84123492D01*
X129480232Y-84048600D01*
X129480232Y-82321400D01*
X129466139Y-82248763D01*
X129424202Y-82184922D01*
X129360892Y-82142187D01*
X129286000Y-82127168D01*
X127254000Y-82127168D01*
X127181363Y-82141261D01*
X127117522Y-82183198D01*
X127074787Y-82246508D01*
X127059768Y-82321400D01*
X126504700Y-82321400D01*
X126504700Y-80645000D01*
X127039863Y-80645000D01*
X127120102Y-81048387D01*
X127348602Y-81390361D01*
X127690576Y-81618861D01*
X128093963Y-81699100D01*
X128446037Y-81699100D01*
X128849424Y-81618861D01*
X129191398Y-81390361D01*
X129419898Y-81048387D01*
X129500137Y-80645000D01*
X129419898Y-80241613D01*
X129191398Y-79899639D01*
X128849424Y-79671139D01*
X128446037Y-79590900D01*
X128093963Y-79590900D01*
X127690576Y-79671139D01*
X127348602Y-79899639D01*
X127120102Y-80241613D01*
X127039863Y-80645000D01*
X126504700Y-80645000D01*
X126504700Y-78105000D01*
X127039863Y-78105000D01*
X127120102Y-78508387D01*
X127348602Y-78850361D01*
X127690576Y-79078861D01*
X128093963Y-79159100D01*
X128446037Y-79159100D01*
X128849424Y-79078861D01*
X129191398Y-78850361D01*
X129419898Y-78508387D01*
X129500137Y-78105000D01*
X129419898Y-77701613D01*
X129191398Y-77359639D01*
X128849424Y-77131139D01*
X128446037Y-77050900D01*
X128093963Y-77050900D01*
X127690576Y-77131139D01*
X127348602Y-77359639D01*
X127120102Y-77701613D01*
X127039863Y-78105000D01*
X126504700Y-78105000D01*
X126504700Y-75565000D01*
X127039863Y-75565000D01*
X127120102Y-75968387D01*
X127348602Y-76310361D01*
X127690576Y-76538861D01*
X128093963Y-76619100D01*
X128446037Y-76619100D01*
X128849424Y-76538861D01*
X129191398Y-76310361D01*
X129419898Y-75968387D01*
X129500137Y-75565000D01*
X129419898Y-75161613D01*
X129191398Y-74819639D01*
X128849424Y-74591139D01*
X128446037Y-74510900D01*
X128093963Y-74510900D01*
X127690576Y-74591139D01*
X127348602Y-74819639D01*
X127120102Y-75161613D01*
X127039863Y-75565000D01*
X126504700Y-75565000D01*
X126504700Y-75184000D01*
X126504700Y-75184000D01*
G37*
X126504700Y-75184000D02*
X126503733Y-75179140D01*
X126500980Y-75175020D01*
X126496860Y-75172267D01*
X126492000Y-75171300D01*
X126427700Y-75171300D01*
X126427700Y-64541400D01*
X127059768Y-64541400D01*
X127059768Y-66268600D01*
X127073861Y-66341237D01*
X127115798Y-66405078D01*
X127179108Y-66447813D01*
X127254000Y-66462832D01*
X129286000Y-66462832D01*
X129358637Y-66448739D01*
X129422478Y-66406802D01*
X129465213Y-66343492D01*
X129480232Y-66268600D01*
X129480232Y-64541400D01*
X129466139Y-64468763D01*
X129424202Y-64404922D01*
X129360892Y-64362187D01*
X129286000Y-64347168D01*
X127254000Y-64347168D01*
X127181363Y-64361261D01*
X127117522Y-64403198D01*
X127074787Y-64466508D01*
X127059768Y-64541400D01*
X126427700Y-64541400D01*
X126427700Y-54652057D01*
X126449002Y-52181000D01*
X126631600Y-52181000D01*
X126631600Y-53220600D01*
X126654802Y-53337242D01*
X126720874Y-53436126D01*
X127475274Y-54190526D01*
X127574158Y-54256598D01*
X127680639Y-54277779D01*
X127348602Y-54499639D01*
X127120102Y-54841613D01*
X127039863Y-55245000D01*
X127120102Y-55648387D01*
X127348602Y-55990361D01*
X127690576Y-56218861D01*
X127965200Y-56273487D01*
X127965200Y-56401000D01*
X127988402Y-56517642D01*
X128054474Y-56616526D01*
X128153358Y-56682598D01*
X128270000Y-56705800D01*
X128577248Y-56705800D01*
X128641161Y-56769713D01*
X128446037Y-56730900D01*
X128093963Y-56730900D01*
X127690576Y-56811139D01*
X127348602Y-57039639D01*
X127120102Y-57381613D01*
X127039863Y-57785000D01*
X127120102Y-58188387D01*
X127348602Y-58530361D01*
X127690576Y-58758861D01*
X128093963Y-58839100D01*
X128446037Y-58839100D01*
X128849424Y-58758861D01*
X129191398Y-58530361D01*
X129419898Y-58188387D01*
X129500137Y-57785000D01*
X129461324Y-57589876D01*
X132991700Y-61120252D01*
X132991700Y-65332700D01*
X133014902Y-65449342D01*
X133080974Y-65548226D01*
X133856974Y-66324226D01*
X133955858Y-66390298D01*
X134072500Y-66413500D01*
X139335400Y-66413500D01*
X139452042Y-66390298D01*
X139550926Y-66324226D01*
X139703144Y-66172008D01*
X139696268Y-66206294D01*
X139696268Y-66485694D01*
X139703598Y-66523475D01*
X139613842Y-66463502D01*
X139497200Y-66440300D01*
X132937252Y-66440300D01*
X131099800Y-64602848D01*
X131099800Y-63572500D01*
X131076598Y-63455858D01*
X131010526Y-63356974D01*
X128919026Y-61265474D01*
X128909209Y-61258914D01*
X129191398Y-61070361D01*
X129419898Y-60728387D01*
X129500137Y-60325000D01*
X129419898Y-59921613D01*
X129191398Y-59579639D01*
X128849424Y-59351139D01*
X128446037Y-59270900D01*
X128093963Y-59270900D01*
X127690576Y-59351139D01*
X127348602Y-59579639D01*
X127120102Y-59921613D01*
X127039863Y-60325000D01*
X127120102Y-60728387D01*
X127348602Y-61070361D01*
X127690576Y-61298861D01*
X127965200Y-61353487D01*
X127965200Y-61481000D01*
X127988402Y-61597642D01*
X128054474Y-61696526D01*
X128153358Y-61762598D01*
X128270000Y-61785800D01*
X128577248Y-61785800D01*
X128641161Y-61849713D01*
X128446037Y-61810900D01*
X128093963Y-61810900D01*
X127690576Y-61891139D01*
X127348602Y-62119639D01*
X127120102Y-62461613D01*
X127039863Y-62865000D01*
X127120102Y-63268387D01*
X127348602Y-63610361D01*
X127690576Y-63838861D01*
X128093963Y-63919100D01*
X128446037Y-63919100D01*
X128849424Y-63838861D01*
X129191398Y-63610361D01*
X129419898Y-63268387D01*
X129500137Y-62865000D01*
X129461324Y-62669876D01*
X130490200Y-63698752D01*
X130490200Y-64729100D01*
X130513402Y-64845742D01*
X130579474Y-64944626D01*
X132595474Y-66960626D01*
X132694359Y-67026699D01*
X132811000Y-67049900D01*
X133912997Y-67049900D01*
X133909768Y-67066000D01*
X133909768Y-68316000D01*
X133923861Y-68388637D01*
X133965798Y-68452478D01*
X134029108Y-68495213D01*
X134104000Y-68510232D01*
X134289916Y-68510232D01*
X133277259Y-69522889D01*
X133242202Y-69469522D01*
X133178892Y-69426787D01*
X133104000Y-69411768D01*
X132104000Y-69411768D01*
X132031363Y-69425861D01*
X131967522Y-69467798D01*
X131924787Y-69531108D01*
X131909768Y-69606000D01*
X131909768Y-70847800D01*
X130372252Y-70847800D01*
X129793926Y-70269474D01*
X129695042Y-70203402D01*
X129578400Y-70180200D01*
X129439508Y-70180200D01*
X129419898Y-70081613D01*
X129191398Y-69739639D01*
X128849424Y-69511139D01*
X128446037Y-69430900D01*
X128093963Y-69430900D01*
X127690576Y-69511139D01*
X127348602Y-69739639D01*
X127120102Y-70081613D01*
X127039863Y-70485000D01*
X127120102Y-70888387D01*
X127348602Y-71230361D01*
X127690576Y-71458861D01*
X128093963Y-71539100D01*
X128446037Y-71539100D01*
X128849424Y-71458861D01*
X129191398Y-71230361D01*
X129419898Y-70888387D01*
X129439508Y-70789800D01*
X129452148Y-70789800D01*
X130030474Y-71368126D01*
X130129358Y-71434198D01*
X130246000Y-71457400D01*
X137178548Y-71457400D01*
X137087148Y-71548800D01*
X128285400Y-71548800D01*
X128168758Y-71572002D01*
X128081260Y-71630466D01*
X128069874Y-71638074D01*
X128054474Y-71653474D01*
X127988402Y-71752358D01*
X127965200Y-71869000D01*
X127965200Y-71996513D01*
X127690576Y-72051139D01*
X127348602Y-72279639D01*
X127120102Y-72621613D01*
X127039863Y-73025000D01*
X127120102Y-73428387D01*
X127348602Y-73770361D01*
X127690576Y-73998861D01*
X128093963Y-74079100D01*
X128446037Y-74079100D01*
X128849424Y-73998861D01*
X129191398Y-73770361D01*
X129419898Y-73428387D01*
X129500137Y-73025000D01*
X129419898Y-72621613D01*
X129191398Y-72279639D01*
X129009951Y-72158400D01*
X133909768Y-72158400D01*
X133909768Y-73396000D01*
X133923861Y-73468637D01*
X133965798Y-73532478D01*
X134029108Y-73575213D01*
X134104000Y-73590232D01*
X134352601Y-73590232D01*
X134292374Y-73630474D01*
X133595974Y-74326874D01*
X133529902Y-74425758D01*
X133506700Y-74542400D01*
X133506700Y-80585500D01*
X133529902Y-80702142D01*
X133595974Y-80801026D01*
X134188200Y-81393252D01*
X134188200Y-81394513D01*
X133913576Y-81449139D01*
X133571602Y-81677639D01*
X133343102Y-82019613D01*
X133262863Y-82423000D01*
X133343102Y-82826387D01*
X133571602Y-83168361D01*
X133913576Y-83396861D01*
X134316963Y-83477100D01*
X134669037Y-83477100D01*
X134864161Y-83438287D01*
X134800248Y-83502200D01*
X134493000Y-83502200D01*
X134376358Y-83525402D01*
X134277474Y-83591474D01*
X134211402Y-83690358D01*
X134188200Y-83807000D01*
X134188200Y-83934513D01*
X133913576Y-83989139D01*
X133571602Y-84217639D01*
X133343102Y-84559613D01*
X133262863Y-84963000D01*
X133343102Y-85366387D01*
X133571602Y-85708361D01*
X133913576Y-85936861D01*
X134316963Y-86017100D01*
X134669037Y-86017100D01*
X135072424Y-85936861D01*
X135414398Y-85708361D01*
X135642898Y-85366387D01*
X135723137Y-84963000D01*
X135642898Y-84559613D01*
X135414398Y-84217639D01*
X135132209Y-84029086D01*
X135142026Y-84022526D01*
X141961200Y-77203352D01*
X141961200Y-81421248D01*
X134800248Y-88582200D01*
X134493000Y-88582200D01*
X134376358Y-88605402D01*
X134277474Y-88671474D01*
X134211402Y-88770358D01*
X134188200Y-88887000D01*
X134188200Y-88985168D01*
X133477000Y-88985168D01*
X133404363Y-88999261D01*
X133340522Y-89041198D01*
X133297787Y-89104508D01*
X133282768Y-89179400D01*
X133282768Y-90906600D01*
X133296861Y-90979237D01*
X133338798Y-91043078D01*
X133402108Y-91085813D01*
X133477000Y-91100832D01*
X135509000Y-91100832D01*
X135581637Y-91086739D01*
X135645478Y-91044802D01*
X135688213Y-90981492D01*
X135703232Y-90906600D01*
X135703232Y-89179400D01*
X135689139Y-89106763D01*
X135647202Y-89042922D01*
X135583892Y-89000187D01*
X135509000Y-88985168D01*
X135259384Y-88985168D01*
X142481526Y-81763026D01*
X142547598Y-81664142D01*
X142556605Y-81618861D01*
X142570800Y-81547500D01*
X142570800Y-74057500D01*
X144728300Y-74057500D01*
X144844942Y-74034298D01*
X144943826Y-73968226D01*
X146713826Y-72198226D01*
X146779898Y-72099342D01*
X146803100Y-71982700D01*
X146803100Y-67614931D01*
X146822058Y-67627598D01*
X146938700Y-67650800D01*
X147047996Y-67650800D01*
X147036868Y-67706291D01*
X147036868Y-67985691D01*
X147050961Y-68058328D01*
X147075744Y-68096056D01*
X147051887Y-68131399D01*
X147036868Y-68206291D01*
X147036868Y-68485691D01*
X147050961Y-68558328D01*
X147075743Y-68596054D01*
X147051887Y-68631395D01*
X147036868Y-68706287D01*
X147036868Y-68985687D01*
X147050961Y-69058324D01*
X147075753Y-69096064D01*
X147051887Y-69131420D01*
X147036868Y-69206312D01*
X147036868Y-69485712D01*
X147050961Y-69558349D01*
X147075736Y-69596064D01*
X147051887Y-69631396D01*
X147036868Y-69706288D01*
X147036868Y-69985688D01*
X147050961Y-70058325D01*
X147075753Y-70096065D01*
X147051887Y-70131421D01*
X147036868Y-70206313D01*
X147036868Y-70485713D01*
X147050961Y-70558350D01*
X147075743Y-70596076D01*
X147051887Y-70631417D01*
X147036868Y-70706309D01*
X147036868Y-70985709D01*
X147050961Y-71058346D01*
X147075744Y-71096074D01*
X147051887Y-71131417D01*
X147036868Y-71206309D01*
X147036868Y-71485709D01*
X147050961Y-71558346D01*
X147075744Y-71596074D01*
X147051887Y-71631417D01*
X147036868Y-71706309D01*
X147036868Y-71985709D01*
X147050961Y-72058346D01*
X147075743Y-72096072D01*
X147051887Y-72131414D01*
X147036868Y-72206306D01*
X147036868Y-72485706D01*
X147047635Y-72541200D01*
X146938700Y-72541200D01*
X146822058Y-72564402D01*
X146723174Y-72630474D01*
X146683685Y-72689573D01*
X146631202Y-72689527D01*
X146477109Y-72753197D01*
X146359111Y-72870989D01*
X146295173Y-73024970D01*
X146295027Y-73191698D01*
X146358697Y-73345791D01*
X146476489Y-73463789D01*
X146630470Y-73527727D01*
X146797198Y-73527873D01*
X146951291Y-73464203D01*
X147036868Y-73378775D01*
X147036868Y-73485706D01*
X147047636Y-73541203D01*
X145609997Y-73541203D01*
X145493355Y-73564405D01*
X145394471Y-73630477D01*
X145326474Y-73698474D01*
X145260402Y-73797358D01*
X145237200Y-73914000D01*
X145237200Y-74134088D01*
X145186911Y-74184289D01*
X145122973Y-74338270D01*
X145122827Y-74504998D01*
X145186497Y-74659091D01*
X145304289Y-74777089D01*
X145458270Y-74841027D01*
X145624998Y-74841173D01*
X145656300Y-74828239D01*
X145656300Y-85585300D01*
X144653000Y-85585300D01*
X144648140Y-85586267D01*
X144644020Y-85589020D01*
X144641267Y-85593140D01*
X144640300Y-85598000D01*
X144640300Y-90297000D01*
X144641267Y-90301860D01*
X144644020Y-90305980D01*
X144648140Y-90308733D01*
X144653000Y-90309700D01*
X148971000Y-90309700D01*
X148975860Y-90308733D01*
X148979980Y-90305980D01*
X148982733Y-90301860D01*
X148983700Y-90297000D01*
X148983700Y-89306400D01*
X156269768Y-89306400D01*
X156269768Y-91033600D01*
X156283861Y-91106237D01*
X156325798Y-91170078D01*
X156389108Y-91212813D01*
X156464000Y-91227832D01*
X158496000Y-91227832D01*
X158568637Y-91213739D01*
X158632478Y-91171802D01*
X158675213Y-91108492D01*
X158690232Y-91033600D01*
X158690232Y-89306400D01*
X158676139Y-89233763D01*
X158634202Y-89169922D01*
X158570892Y-89127187D01*
X158496000Y-89112168D01*
X156464000Y-89112168D01*
X156391363Y-89126261D01*
X156327522Y-89168198D01*
X156284787Y-89231508D01*
X156269768Y-89306400D01*
X148983700Y-89306400D01*
X148983700Y-77101700D01*
X149987000Y-77101700D01*
X149991860Y-77100733D01*
X149995980Y-77097980D01*
X149998733Y-77093860D01*
X149999700Y-77089000D01*
X149999700Y-77024752D01*
X151583400Y-78608452D01*
X151583400Y-78753300D01*
X151606602Y-78869942D01*
X151672674Y-78968826D01*
X156852266Y-84148418D01*
X156558602Y-84344639D01*
X156330102Y-84686613D01*
X156249863Y-85090000D01*
X156330102Y-85493387D01*
X156558602Y-85835361D01*
X156900576Y-86063861D01*
X157303963Y-86144100D01*
X157656037Y-86144100D01*
X157851161Y-86105287D01*
X157787248Y-86169200D01*
X157480000Y-86169200D01*
X157363358Y-86192402D01*
X157264474Y-86258474D01*
X157198402Y-86357358D01*
X157175200Y-86474000D01*
X157175200Y-86601513D01*
X156900576Y-86656139D01*
X156558602Y-86884639D01*
X156330102Y-87226613D01*
X156249863Y-87630000D01*
X156330102Y-88033387D01*
X156558602Y-88375361D01*
X156900576Y-88603861D01*
X157303963Y-88684100D01*
X157656037Y-88684100D01*
X158059424Y-88603861D01*
X158401398Y-88375361D01*
X158629898Y-88033387D01*
X158710137Y-87630000D01*
X158629898Y-87226613D01*
X158401398Y-86884639D01*
X158119209Y-86696086D01*
X158129026Y-86689526D01*
X159022426Y-85796126D01*
X159088498Y-85697242D01*
X159111700Y-85580600D01*
X159111700Y-78023000D01*
X159088498Y-77906358D01*
X159022426Y-77807474D01*
X156248726Y-75033774D01*
X156149842Y-74967702D01*
X156033200Y-74944500D01*
X155911232Y-74944500D01*
X155911232Y-73956800D01*
X155897139Y-73884163D01*
X155855202Y-73820322D01*
X155800353Y-73783299D01*
X158387426Y-71196226D01*
X158407724Y-71165848D01*
X158453498Y-71097342D01*
X158476700Y-70980700D01*
X158476700Y-52976400D01*
X158453498Y-52859758D01*
X158387426Y-52760874D01*
X157494026Y-51867474D01*
X157484209Y-51860914D01*
X157766398Y-51672361D01*
X157994898Y-51330387D01*
X158075137Y-50927000D01*
X157994898Y-50523613D01*
X157766398Y-50181639D01*
X157424424Y-49953139D01*
X157021037Y-49872900D01*
X156668963Y-49872900D01*
X156265576Y-49953139D01*
X155923602Y-50181639D01*
X155695102Y-50523613D01*
X155614863Y-50927000D01*
X155695102Y-51330387D01*
X155923602Y-51672361D01*
X156265576Y-51900861D01*
X156540200Y-51955487D01*
X156540200Y-52083000D01*
X156563402Y-52199642D01*
X156629474Y-52298526D01*
X156728358Y-52364598D01*
X156845000Y-52387800D01*
X157152248Y-52387800D01*
X157216161Y-52451713D01*
X157021037Y-52412900D01*
X156668963Y-52412900D01*
X156265576Y-52493139D01*
X155923602Y-52721639D01*
X155695102Y-53063613D01*
X155614863Y-53467000D01*
X155695102Y-53870387D01*
X155923602Y-54212361D01*
X156265576Y-54440861D01*
X156668963Y-54521100D01*
X157021037Y-54521100D01*
X157424424Y-54440861D01*
X157766398Y-54212361D01*
X157867100Y-54061650D01*
X157867100Y-55412350D01*
X157766398Y-55261639D01*
X157424424Y-55033139D01*
X157021037Y-54952900D01*
X156668963Y-54952900D01*
X156265576Y-55033139D01*
X155923602Y-55261639D01*
X155695102Y-55603613D01*
X155614863Y-56007000D01*
X155695102Y-56410387D01*
X155923602Y-56752361D01*
X156265576Y-56980861D01*
X156668963Y-57061100D01*
X157021037Y-57061100D01*
X157424424Y-56980861D01*
X157766398Y-56752361D01*
X157867100Y-56601650D01*
X157867100Y-70854448D01*
X155911232Y-72810316D01*
X155911232Y-71956800D01*
X155897139Y-71884163D01*
X155855202Y-71820322D01*
X155791892Y-71777587D01*
X155717000Y-71762568D01*
X154489761Y-71762568D01*
X153357513Y-70630460D01*
X153304136Y-70594800D01*
X153258642Y-70564402D01*
X153258631Y-70564400D01*
X153258624Y-70564395D01*
X153203218Y-70553377D01*
X153142000Y-70541200D01*
X150527744Y-70541200D01*
X150582191Y-70518703D01*
X150700189Y-70400911D01*
X150764127Y-70246930D01*
X150764273Y-70080202D01*
X150700603Y-69926109D01*
X150582811Y-69808111D01*
X150428830Y-69744173D01*
X150357062Y-69744110D01*
X150263752Y-69650800D01*
X151896748Y-69650800D01*
X152438474Y-70192526D01*
X152537358Y-70258598D01*
X152654000Y-70281800D01*
X153162748Y-70281800D01*
X153819474Y-70938526D01*
X153918358Y-71004598D01*
X154035000Y-71027800D01*
X154247768Y-71027800D01*
X154247768Y-71223000D01*
X154261861Y-71295637D01*
X154303798Y-71359478D01*
X154367108Y-71402213D01*
X154442000Y-71417232D01*
X155692000Y-71417232D01*
X155764637Y-71403139D01*
X155828478Y-71361202D01*
X155871213Y-71297892D01*
X155886232Y-71223000D01*
X155886232Y-70223000D01*
X155872139Y-70150363D01*
X155830202Y-70086522D01*
X155775353Y-70049499D01*
X156606826Y-69218026D01*
X156614653Y-69206312D01*
X156672898Y-69119142D01*
X156696100Y-69002500D01*
X156696100Y-62735800D01*
X156672898Y-62619158D01*
X156606826Y-62520274D01*
X152564700Y-58478148D01*
X152564700Y-53120400D01*
X152541498Y-53003758D01*
X152475426Y-52904874D01*
X151565026Y-51994474D01*
X151535208Y-51974551D01*
X151797398Y-51799361D01*
X152025898Y-51457387D01*
X152106137Y-51054000D01*
X152025898Y-50650613D01*
X151797398Y-50308639D01*
X151455424Y-50080139D01*
X151052037Y-49999900D01*
X150699963Y-49999900D01*
X150296576Y-50080139D01*
X149954602Y-50308639D01*
X149726102Y-50650613D01*
X149645863Y-51054000D01*
X149726102Y-51457387D01*
X149954602Y-51799361D01*
X150296576Y-52027861D01*
X150571200Y-52082487D01*
X150571200Y-52210000D01*
X150594402Y-52326642D01*
X150660474Y-52425526D01*
X150759358Y-52491598D01*
X150876000Y-52514800D01*
X151223248Y-52514800D01*
X151297093Y-52588645D01*
X151052037Y-52539900D01*
X150699963Y-52539900D01*
X150296576Y-52620139D01*
X149954602Y-52848639D01*
X149726102Y-53190613D01*
X149645863Y-53594000D01*
X149726102Y-53997387D01*
X149954602Y-54339361D01*
X150296576Y-54567861D01*
X150699963Y-54648100D01*
X151052037Y-54648100D01*
X151455424Y-54567861D01*
X151797398Y-54339361D01*
X151955100Y-54103344D01*
X151955100Y-55624656D01*
X151797398Y-55388639D01*
X151455424Y-55160139D01*
X151052037Y-55079900D01*
X150699963Y-55079900D01*
X150296576Y-55160139D01*
X149954602Y-55388639D01*
X149726102Y-55730613D01*
X149645863Y-56134000D01*
X149726102Y-56537387D01*
X149954602Y-56879361D01*
X150296576Y-57107861D01*
X150699963Y-57188100D01*
X151052037Y-57188100D01*
X151455424Y-57107861D01*
X151797398Y-56879361D01*
X151955100Y-56643344D01*
X151955100Y-58604400D01*
X151978302Y-58721042D01*
X152044374Y-58819926D01*
X156086500Y-62862052D01*
X156086500Y-64046048D01*
X146849700Y-54809248D01*
X146849700Y-52993400D01*
X146826498Y-52876758D01*
X146760426Y-52777874D01*
X145850026Y-51867474D01*
X145820208Y-51847551D01*
X146082398Y-51672361D01*
X146310898Y-51330387D01*
X146391137Y-50927000D01*
X146310898Y-50523613D01*
X146082398Y-50181639D01*
X145740424Y-49953139D01*
X145337037Y-49872900D01*
X144984963Y-49872900D01*
X144581576Y-49953139D01*
X144239602Y-50181639D01*
X144011102Y-50523613D01*
X143930863Y-50927000D01*
X144011102Y-51330387D01*
X144239602Y-51672361D01*
X144581576Y-51900861D01*
X144856200Y-51955487D01*
X144856200Y-52083000D01*
X144879402Y-52199642D01*
X144945474Y-52298526D01*
X145044358Y-52364598D01*
X145161000Y-52387800D01*
X145508248Y-52387800D01*
X145582093Y-52461645D01*
X145337037Y-52412900D01*
X144984963Y-52412900D01*
X144581576Y-52493139D01*
X144239602Y-52721639D01*
X144011102Y-53063613D01*
X143930863Y-53467000D01*
X144011102Y-53870387D01*
X144239602Y-54212361D01*
X144581576Y-54440861D01*
X144984963Y-54521100D01*
X145337037Y-54521100D01*
X145740424Y-54440861D01*
X146082398Y-54212361D01*
X146240100Y-53976344D01*
X146240100Y-54935500D01*
X146263302Y-55052142D01*
X146329374Y-55151026D01*
X155524116Y-64345768D01*
X154442000Y-64345768D01*
X154369363Y-64359861D01*
X154305522Y-64401798D01*
X154262787Y-64465108D01*
X154247768Y-64540000D01*
X154247768Y-64735200D01*
X152511000Y-64735200D01*
X152394358Y-64758402D01*
X152295474Y-64824474D01*
X151578748Y-65541200D01*
X149090601Y-65541200D01*
X149101732Y-65485697D01*
X149101732Y-65206297D01*
X149087639Y-65133660D01*
X149045702Y-65069819D01*
X148982392Y-65027084D01*
X148907500Y-65012065D01*
X147231100Y-65012065D01*
X147158463Y-65026158D01*
X147135564Y-65041200D01*
X146940252Y-65041200D01*
X141422678Y-59523626D01*
X141433232Y-59471000D01*
X141433232Y-58771000D01*
X141419139Y-58698363D01*
X141377202Y-58634522D01*
X141313892Y-58591787D01*
X141239000Y-58576768D01*
X140885002Y-58576768D01*
X140870598Y-58504358D01*
X140804526Y-58405474D01*
X140705642Y-58339402D01*
X140589000Y-58316200D01*
X138175252Y-58316200D01*
X136509800Y-56650748D01*
X136509800Y-56007000D01*
X143930863Y-56007000D01*
X144011102Y-56410387D01*
X144239602Y-56752361D01*
X144581576Y-56980861D01*
X144984963Y-57061100D01*
X145337037Y-57061100D01*
X145740424Y-56980861D01*
X146082398Y-56752361D01*
X146310898Y-56410387D01*
X146391137Y-56007000D01*
X146310898Y-55603613D01*
X146082398Y-55261639D01*
X145740424Y-55033139D01*
X145337037Y-54952900D01*
X144984963Y-54952900D01*
X144581576Y-55033139D01*
X144239602Y-55261639D01*
X144011102Y-55603613D01*
X143930863Y-56007000D01*
X136509800Y-56007000D01*
X136509800Y-55998032D01*
X136603740Y-55998032D01*
X136676377Y-55983939D01*
X136740218Y-55942002D01*
X136782953Y-55878692D01*
X136797972Y-55803800D01*
X136797972Y-54904640D01*
X136783879Y-54832003D01*
X136741942Y-54768162D01*
X136678632Y-54725427D01*
X136603740Y-54710408D01*
X135992346Y-54710408D01*
X135422548Y-54140495D01*
X135422534Y-54140485D01*
X135422526Y-54140474D01*
X135378081Y-54110777D01*
X135323670Y-54074413D01*
X135323654Y-54074410D01*
X135323642Y-54074402D01*
X135269052Y-54063543D01*
X135207031Y-54051200D01*
X135207015Y-54051203D01*
X135207000Y-54051200D01*
X133223000Y-54051200D01*
X133106358Y-54074402D01*
X133007507Y-54140452D01*
X133007474Y-54140474D01*
X132564540Y-54583408D01*
X132250180Y-54583408D01*
X132177543Y-54597501D01*
X132113702Y-54639438D01*
X132070967Y-54702748D01*
X132056089Y-54776937D01*
X131218126Y-53938974D01*
X131119242Y-53872902D01*
X131012152Y-53851600D01*
X130594552Y-53434000D01*
X131105988Y-53434000D01*
X131105988Y-53578760D01*
X131120081Y-53651397D01*
X131162018Y-53715238D01*
X131225328Y-53757973D01*
X131300220Y-53772992D01*
X132097780Y-53772992D01*
X132170417Y-53758899D01*
X132234258Y-53716962D01*
X132276993Y-53653652D01*
X132292012Y-53578760D01*
X132292012Y-52679600D01*
X132277919Y-52606963D01*
X132235982Y-52543122D01*
X132172672Y-52500387D01*
X132097780Y-52485368D01*
X131300220Y-52485368D01*
X131227583Y-52499461D01*
X131163742Y-52541398D01*
X131121007Y-52604708D01*
X131105988Y-52679600D01*
X131105988Y-52824400D01*
X130598313Y-52824400D01*
X130479800Y-52705807D01*
X130479800Y-50038000D01*
X130742768Y-50038000D01*
X130742768Y-52070000D01*
X130756861Y-52142637D01*
X130798798Y-52206478D01*
X130862108Y-52249213D01*
X130937000Y-52264232D01*
X132461000Y-52264232D01*
X132475313Y-52261455D01*
X133685464Y-53471717D01*
X133685471Y-53471722D01*
X133685474Y-53471726D01*
X133728421Y-53500422D01*
X133784346Y-53537793D01*
X133784352Y-53537794D01*
X133784358Y-53537798D01*
X133840810Y-53549027D01*
X133900986Y-53561000D01*
X133900993Y-53560999D01*
X133901000Y-53561000D01*
X134661988Y-53561000D01*
X134661988Y-53705760D01*
X134676081Y-53778397D01*
X134718018Y-53842238D01*
X134781328Y-53884973D01*
X134856220Y-53899992D01*
X135653780Y-53899992D01*
X135726417Y-53885899D01*
X135790258Y-53843962D01*
X135832993Y-53780652D01*
X135848012Y-53705760D01*
X135848012Y-52806600D01*
X135833919Y-52733963D01*
X135791982Y-52670122D01*
X135728672Y-52627387D01*
X135653780Y-52612368D01*
X134856220Y-52612368D01*
X134783583Y-52626461D01*
X134719742Y-52668398D01*
X134677007Y-52731708D01*
X134661988Y-52806600D01*
X134661988Y-52951400D01*
X134027260Y-52951400D01*
X132655232Y-51579247D01*
X132655232Y-50038000D01*
X134044768Y-50038000D01*
X134044768Y-52070000D01*
X134058861Y-52142637D01*
X134100798Y-52206478D01*
X134164108Y-52249213D01*
X134239000Y-52264232D01*
X135763000Y-52264232D01*
X135835637Y-52250139D01*
X135899478Y-52208202D01*
X135942213Y-52144892D01*
X135957232Y-52070000D01*
X135957232Y-51369500D01*
X137443768Y-51369500D01*
X137443768Y-51704000D01*
X137457861Y-51776637D01*
X137499798Y-51840478D01*
X137563108Y-51883213D01*
X137638000Y-51898232D01*
X138338000Y-51898232D01*
X138410637Y-51884139D01*
X138474478Y-51842202D01*
X138517213Y-51778892D01*
X138532232Y-51704000D01*
X138532232Y-50404000D01*
X138518139Y-50331363D01*
X138476202Y-50267522D01*
X138412892Y-50224787D01*
X138338000Y-50209768D01*
X137638000Y-50209768D01*
X137565363Y-50223861D01*
X137501522Y-50265798D01*
X137458787Y-50329108D01*
X137443768Y-50404000D01*
X137443768Y-50738500D01*
X135957232Y-50738500D01*
X135957232Y-50038000D01*
X135943139Y-49965363D01*
X135901202Y-49901522D01*
X135837892Y-49858787D01*
X135763000Y-49843768D01*
X134239000Y-49843768D01*
X134166363Y-49857861D01*
X134102522Y-49899798D01*
X134059787Y-49963108D01*
X134044768Y-50038000D01*
X132655232Y-50038000D01*
X132655232Y-50038000D01*
X132641139Y-49965363D01*
X132599202Y-49901522D01*
X132535892Y-49858787D01*
X132461000Y-49843768D01*
X130937000Y-49843768D01*
X130864363Y-49857861D01*
X130800522Y-49899798D01*
X130757787Y-49963108D01*
X130742768Y-50038000D01*
X130479800Y-50038000D01*
X130479800Y-49656252D01*
X130922690Y-49213362D01*
X130937000Y-49216232D01*
X132461000Y-49216232D01*
X132533637Y-49202139D01*
X132597478Y-49160202D01*
X132640213Y-49096892D01*
X132655232Y-49022000D01*
X132655232Y-46990000D01*
X134044768Y-46990000D01*
X134044768Y-49022000D01*
X134058861Y-49094637D01*
X134100798Y-49158478D01*
X134164108Y-49201213D01*
X134239000Y-49216232D01*
X135763000Y-49216232D01*
X135835637Y-49202139D01*
X135899478Y-49160202D01*
X135942213Y-49096892D01*
X135957232Y-49022000D01*
X135957232Y-48321500D01*
X137951768Y-48321500D01*
X137951768Y-48656000D01*
X137965861Y-48728637D01*
X138007798Y-48792478D01*
X138071108Y-48835213D01*
X138146000Y-48850232D01*
X138846000Y-48850232D01*
X138918637Y-48836139D01*
X138982478Y-48794202D01*
X139025213Y-48730892D01*
X139040232Y-48656000D01*
X139040232Y-47523400D01*
X143950768Y-47523400D01*
X143950768Y-49250600D01*
X143964861Y-49323237D01*
X144006798Y-49387078D01*
X144070108Y-49429813D01*
X144145000Y-49444832D01*
X146177000Y-49444832D01*
X146249637Y-49430739D01*
X146313478Y-49388802D01*
X146356213Y-49325492D01*
X146371232Y-49250600D01*
X146371232Y-47650400D01*
X149665768Y-47650400D01*
X149665768Y-49377600D01*
X149679861Y-49450237D01*
X149721798Y-49514078D01*
X149785108Y-49556813D01*
X149860000Y-49571832D01*
X151892000Y-49571832D01*
X151964637Y-49557739D01*
X152028478Y-49515802D01*
X152071213Y-49452492D01*
X152086232Y-49377600D01*
X152086232Y-47650400D01*
X152072139Y-47577763D01*
X152036429Y-47523400D01*
X155634768Y-47523400D01*
X155634768Y-49250600D01*
X155648861Y-49323237D01*
X155690798Y-49387078D01*
X155754108Y-49429813D01*
X155829000Y-49444832D01*
X157861000Y-49444832D01*
X157933637Y-49430739D01*
X157997478Y-49388802D01*
X158040213Y-49325492D01*
X158055232Y-49250600D01*
X158055232Y-47523400D01*
X158041139Y-47450763D01*
X157999202Y-47386922D01*
X157935892Y-47344187D01*
X157861000Y-47329168D01*
X155829000Y-47329168D01*
X155756363Y-47343261D01*
X155692522Y-47385198D01*
X155649787Y-47448508D01*
X155634768Y-47523400D01*
X152036429Y-47523400D01*
X152030202Y-47513922D01*
X151966892Y-47471187D01*
X151892000Y-47456168D01*
X149860000Y-47456168D01*
X149787363Y-47470261D01*
X149723522Y-47512198D01*
X149680787Y-47575508D01*
X149665768Y-47650400D01*
X146371232Y-47650400D01*
X146371232Y-47523400D01*
X146357139Y-47450763D01*
X146315202Y-47386922D01*
X146251892Y-47344187D01*
X146177000Y-47329168D01*
X144145000Y-47329168D01*
X144072363Y-47343261D01*
X144008522Y-47385198D01*
X143965787Y-47448508D01*
X143950768Y-47523400D01*
X139040232Y-47523400D01*
X139040232Y-47356000D01*
X139026139Y-47283363D01*
X138984202Y-47219522D01*
X138920892Y-47176787D01*
X138846000Y-47161768D01*
X138146000Y-47161768D01*
X138073363Y-47175861D01*
X138009522Y-47217798D01*
X137966787Y-47281108D01*
X137951768Y-47356000D01*
X137951768Y-47690500D01*
X135957232Y-47690500D01*
X135957232Y-46990000D01*
X135943139Y-46917363D01*
X135901202Y-46853522D01*
X135837892Y-46810787D01*
X135763000Y-46795768D01*
X134239000Y-46795768D01*
X134166363Y-46809861D01*
X134102522Y-46851798D01*
X134059787Y-46915108D01*
X134044768Y-46990000D01*
X132655232Y-46990000D01*
X132655232Y-46990000D01*
X132641139Y-46917363D01*
X132599202Y-46853522D01*
X132535892Y-46810787D01*
X132461000Y-46795768D01*
X130937000Y-46795768D01*
X130864363Y-46809861D01*
X130800522Y-46851798D01*
X130757787Y-46915108D01*
X130742768Y-46990000D01*
X130742768Y-48531180D01*
X129959474Y-49314474D01*
X129893402Y-49413358D01*
X129870200Y-49530000D01*
X129870200Y-49542089D01*
X129862098Y-49501358D01*
X129796026Y-49402474D01*
X128959026Y-48565474D01*
X128929208Y-48545551D01*
X129191398Y-48370361D01*
X129419898Y-48028387D01*
X129500137Y-47625000D01*
X129419898Y-47221613D01*
X129191398Y-46879639D01*
X128849424Y-46651139D01*
X128446037Y-46570900D01*
X128093963Y-46570900D01*
X127690576Y-46651139D01*
X127348602Y-46879639D01*
X127120102Y-47221613D01*
X127039863Y-47625000D01*
X127120102Y-48028387D01*
X127348602Y-48370361D01*
X127690576Y-48598861D01*
X127965200Y-48653487D01*
X127965200Y-48781000D01*
X127988402Y-48897642D01*
X128054474Y-48996526D01*
X128153358Y-49062598D01*
X128270000Y-49085800D01*
X128617248Y-49085800D01*
X128691093Y-49159645D01*
X128446037Y-49110900D01*
X128093963Y-49110900D01*
X127690576Y-49191139D01*
X127348602Y-49419639D01*
X127120102Y-49761613D01*
X127039863Y-50165000D01*
X127120102Y-50568387D01*
X127348602Y-50910361D01*
X127610742Y-51085517D01*
X127580874Y-51105474D01*
X126720874Y-51965474D01*
X126654802Y-52064358D01*
X126631600Y-52181000D01*
X126449002Y-52181000D01*
X126504160Y-45782700D01*
X159245300Y-45782700D01*
X159245300Y-91935300D01*
X126504700Y-91935300D01*
X126504700Y-82321400D01*
X127059768Y-82321400D01*
X127059768Y-84048600D01*
X127073861Y-84121237D01*
X127115798Y-84185078D01*
X127179108Y-84227813D01*
X127254000Y-84242832D01*
X129286000Y-84242832D01*
X129358637Y-84228739D01*
X129422478Y-84186802D01*
X129465213Y-84123492D01*
X129480232Y-84048600D01*
X129480232Y-82321400D01*
X129466139Y-82248763D01*
X129424202Y-82184922D01*
X129360892Y-82142187D01*
X129286000Y-82127168D01*
X127254000Y-82127168D01*
X127181363Y-82141261D01*
X127117522Y-82183198D01*
X127074787Y-82246508D01*
X127059768Y-82321400D01*
X126504700Y-82321400D01*
X126504700Y-80645000D01*
X127039863Y-80645000D01*
X127120102Y-81048387D01*
X127348602Y-81390361D01*
X127690576Y-81618861D01*
X128093963Y-81699100D01*
X128446037Y-81699100D01*
X128849424Y-81618861D01*
X129191398Y-81390361D01*
X129419898Y-81048387D01*
X129500137Y-80645000D01*
X129419898Y-80241613D01*
X129191398Y-79899639D01*
X128849424Y-79671139D01*
X128446037Y-79590900D01*
X128093963Y-79590900D01*
X127690576Y-79671139D01*
X127348602Y-79899639D01*
X127120102Y-80241613D01*
X127039863Y-80645000D01*
X126504700Y-80645000D01*
X126504700Y-78105000D01*
X127039863Y-78105000D01*
X127120102Y-78508387D01*
X127348602Y-78850361D01*
X127690576Y-79078861D01*
X128093963Y-79159100D01*
X128446037Y-79159100D01*
X128849424Y-79078861D01*
X129191398Y-78850361D01*
X129419898Y-78508387D01*
X129500137Y-78105000D01*
X129419898Y-77701613D01*
X129191398Y-77359639D01*
X128849424Y-77131139D01*
X128446037Y-77050900D01*
X128093963Y-77050900D01*
X127690576Y-77131139D01*
X127348602Y-77359639D01*
X127120102Y-77701613D01*
X127039863Y-78105000D01*
X126504700Y-78105000D01*
X126504700Y-75565000D01*
X127039863Y-75565000D01*
X127120102Y-75968387D01*
X127348602Y-76310361D01*
X127690576Y-76538861D01*
X128093963Y-76619100D01*
X128446037Y-76619100D01*
X128849424Y-76538861D01*
X129191398Y-76310361D01*
X129419898Y-75968387D01*
X129500137Y-75565000D01*
X129419898Y-75161613D01*
X129191398Y-74819639D01*
X128849424Y-74591139D01*
X128446037Y-74510900D01*
X128093963Y-74510900D01*
X127690576Y-74591139D01*
X127348602Y-74819639D01*
X127120102Y-75161613D01*
X127039863Y-75565000D01*
X126504700Y-75565000D01*
X126504700Y-75184000D01*
G36*
X138272092Y-75534092D02*
X138644684Y-75161500D01*
X139810547Y-75161500D01*
X139815608Y-75164916D01*
X139890500Y-75179935D01*
X141554500Y-75179935D01*
X141554500Y-76747948D01*
X135684324Y-82618124D01*
X135723137Y-82423000D01*
X135642898Y-82019613D01*
X135414398Y-81677639D01*
X135072424Y-81449139D01*
X134797800Y-81394513D01*
X134797800Y-81267000D01*
X134792967Y-81242701D01*
X134774599Y-81150359D01*
X134708526Y-81051474D01*
X134116300Y-80459248D01*
X134116300Y-76130232D01*
X135104000Y-76130232D01*
X135176637Y-76116139D01*
X135240478Y-76074202D01*
X135283213Y-76010892D01*
X135298232Y-75936000D01*
X135298232Y-75626500D01*
X138049000Y-75626500D01*
X138169737Y-75602484D01*
X138272092Y-75534092D01*
X138272092Y-75534092D01*
G37*
X138272092Y-75534092D02*
X138644684Y-75161500D01*
X139810547Y-75161500D01*
X139815608Y-75164916D01*
X139890500Y-75179935D01*
X141554500Y-75179935D01*
X141554500Y-76747948D01*
X135684324Y-82618124D01*
X135723137Y-82423000D01*
X135642898Y-82019613D01*
X135414398Y-81677639D01*
X135072424Y-81449139D01*
X134797800Y-81394513D01*
X134797800Y-81267000D01*
X134792967Y-81242701D01*
X134774599Y-81150359D01*
X134708526Y-81051474D01*
X134116300Y-80459248D01*
X134116300Y-76130232D01*
X135104000Y-76130232D01*
X135176637Y-76116139D01*
X135240478Y-76074202D01*
X135283213Y-76010892D01*
X135298232Y-75936000D01*
X135298232Y-75626500D01*
X138049000Y-75626500D01*
X138169737Y-75602484D01*
X138272092Y-75534092D01*
G36*
X142074826Y-69561526D02*
X142140898Y-69462642D01*
X142161132Y-69360920D01*
X142206441Y-69315611D01*
X142277498Y-69315673D01*
X142431591Y-69252003D01*
X142549589Y-69134211D01*
X142613527Y-68980230D01*
X142613673Y-68813502D01*
X142550003Y-68659409D01*
X142432211Y-68541411D01*
X142278230Y-68477473D01*
X142111502Y-68477327D01*
X141957409Y-68540997D01*
X141839411Y-68658789D01*
X141775473Y-68812770D01*
X141775410Y-68884538D01*
X141761132Y-68898816D01*
X141761132Y-68706287D01*
X141747039Y-68633650D01*
X141722257Y-68595924D01*
X141746113Y-68560583D01*
X141761132Y-68485691D01*
X141761132Y-68206291D01*
X141747039Y-68133654D01*
X141722256Y-68095926D01*
X141746113Y-68060583D01*
X141761132Y-67985691D01*
X141761132Y-67706291D01*
X141747039Y-67633654D01*
X141722256Y-67595926D01*
X141746113Y-67560583D01*
X141761132Y-67485691D01*
X141761132Y-67206291D01*
X141747039Y-67133654D01*
X141722257Y-67095928D01*
X141746113Y-67060586D01*
X141761132Y-66985694D01*
X141761132Y-66706294D01*
X141750365Y-66650800D01*
X141856078Y-66650800D01*
X141860100Y-66651600D01*
X142234688Y-66651600D01*
X142284889Y-66701889D01*
X142438870Y-66765827D01*
X142605598Y-66765973D01*
X142759691Y-66702303D01*
X142877689Y-66584511D01*
X142941627Y-66430530D01*
X142941773Y-66263802D01*
X142878103Y-66109709D01*
X142760311Y-65991711D01*
X142606330Y-65927773D01*
X142439602Y-65927627D01*
X142285509Y-65991297D01*
X142234717Y-66042000D01*
X141863322Y-66042000D01*
X141859300Y-66041200D01*
X141750001Y-66041200D01*
X141761132Y-65985694D01*
X141761132Y-65706294D01*
X141750365Y-65650800D01*
X141859300Y-65650800D01*
X141975942Y-65627598D01*
X142074826Y-65561526D01*
X142140898Y-65462642D01*
X142153683Y-65398369D01*
X142740741Y-64811311D01*
X142811798Y-64811373D01*
X142965891Y-64747703D01*
X143083889Y-64629911D01*
X143147827Y-64475930D01*
X143147973Y-64309202D01*
X143084303Y-64155109D01*
X142966511Y-64037111D01*
X142812530Y-63973173D01*
X142645802Y-63973027D01*
X142491709Y-64036697D01*
X142373711Y-64154489D01*
X142309773Y-64308470D01*
X142309710Y-64380238D01*
X141761132Y-64928816D01*
X141761132Y-64706297D01*
X141747039Y-64633660D01*
X141722256Y-64595932D01*
X141746113Y-64560589D01*
X141761132Y-64485697D01*
X141761132Y-64206297D01*
X141747039Y-64133660D01*
X141722257Y-64095934D01*
X141746113Y-64060592D01*
X141761132Y-63985700D01*
X141761132Y-63706300D01*
X141747039Y-63633663D01*
X141705102Y-63569822D01*
X141641792Y-63527087D01*
X141566900Y-63512068D01*
X140904500Y-63512068D01*
X140904500Y-61565232D01*
X141239000Y-61565232D01*
X141311637Y-61551139D01*
X141375478Y-61509202D01*
X141418213Y-61445892D01*
X141433232Y-61371000D01*
X141433232Y-60671000D01*
X141419139Y-60598363D01*
X141377202Y-60534522D01*
X141313892Y-60491787D01*
X141239000Y-60476768D01*
X140893800Y-60476768D01*
X140893800Y-60198000D01*
X140870598Y-60081358D01*
X140804526Y-59982474D01*
X140550526Y-59728474D01*
X140455877Y-59665232D01*
X140702180Y-59665232D01*
X146382948Y-65346000D01*
X146041574Y-65687374D01*
X145975502Y-65786258D01*
X145952300Y-65902900D01*
X145952300Y-66951900D01*
X145975502Y-67068542D01*
X146041574Y-67167426D01*
X146193500Y-67319352D01*
X146193500Y-71856448D01*
X144602048Y-73447900D01*
X142392252Y-73447900D01*
X142242924Y-73298572D01*
X142243798Y-73298573D01*
X142397891Y-73234903D01*
X142515889Y-73117111D01*
X142579827Y-72963130D01*
X142579973Y-72796402D01*
X142516303Y-72642309D01*
X142398511Y-72524311D01*
X142244530Y-72460373D01*
X142172762Y-72460310D01*
X142164100Y-72451648D01*
X142164100Y-72346000D01*
X142140898Y-72229358D01*
X142074826Y-72130474D01*
X142023232Y-72096000D01*
X142074826Y-72061526D01*
X142410026Y-71726326D01*
X142476098Y-71627442D01*
X142499300Y-71510800D01*
X142499300Y-71401412D01*
X142549589Y-71351211D01*
X142613527Y-71197230D01*
X142613673Y-71030502D01*
X142550003Y-70876409D01*
X142432211Y-70758411D01*
X142278230Y-70694473D01*
X142111502Y-70694327D01*
X141957409Y-70757997D01*
X141839411Y-70875789D01*
X141775473Y-71029770D01*
X141775327Y-71196498D01*
X141838997Y-71350591D01*
X141881290Y-71392958D01*
X141754257Y-71519991D01*
X141761132Y-71485709D01*
X141761132Y-71206309D01*
X141747039Y-71133672D01*
X141722256Y-71095944D01*
X141746113Y-71060601D01*
X141761132Y-70985709D01*
X141761132Y-70706309D01*
X141747039Y-70633672D01*
X141722257Y-70595946D01*
X141746113Y-70560605D01*
X141761132Y-70485713D01*
X141761132Y-70206313D01*
X141747039Y-70133676D01*
X141722247Y-70095936D01*
X141746113Y-70060580D01*
X141761132Y-69985688D01*
X141761132Y-69706288D01*
X141750366Y-69650800D01*
X141859300Y-69650800D01*
X141975942Y-69627598D01*
X142074826Y-69561526D01*
X142074826Y-69561526D01*
G37*
X142074826Y-69561526D02*
X142140898Y-69462642D01*
X142161132Y-69360920D01*
X142206441Y-69315611D01*
X142277498Y-69315673D01*
X142431591Y-69252003D01*
X142549589Y-69134211D01*
X142613527Y-68980230D01*
X142613673Y-68813502D01*
X142550003Y-68659409D01*
X142432211Y-68541411D01*
X142278230Y-68477473D01*
X142111502Y-68477327D01*
X141957409Y-68540997D01*
X141839411Y-68658789D01*
X141775473Y-68812770D01*
X141775410Y-68884538D01*
X141761132Y-68898816D01*
X141761132Y-68706287D01*
X141747039Y-68633650D01*
X141722257Y-68595924D01*
X141746113Y-68560583D01*
X141761132Y-68485691D01*
X141761132Y-68206291D01*
X141747039Y-68133654D01*
X141722256Y-68095926D01*
X141746113Y-68060583D01*
X141761132Y-67985691D01*
X141761132Y-67706291D01*
X141747039Y-67633654D01*
X141722256Y-67595926D01*
X141746113Y-67560583D01*
X141761132Y-67485691D01*
X141761132Y-67206291D01*
X141747039Y-67133654D01*
X141722257Y-67095928D01*
X141746113Y-67060586D01*
X141761132Y-66985694D01*
X141761132Y-66706294D01*
X141750365Y-66650800D01*
X141856078Y-66650800D01*
X141860100Y-66651600D01*
X142234688Y-66651600D01*
X142284889Y-66701889D01*
X142438870Y-66765827D01*
X142605598Y-66765973D01*
X142759691Y-66702303D01*
X142877689Y-66584511D01*
X142941627Y-66430530D01*
X142941773Y-66263802D01*
X142878103Y-66109709D01*
X142760311Y-65991711D01*
X142606330Y-65927773D01*
X142439602Y-65927627D01*
X142285509Y-65991297D01*
X142234717Y-66042000D01*
X141863322Y-66042000D01*
X141859300Y-66041200D01*
X141750001Y-66041200D01*
X141761132Y-65985694D01*
X141761132Y-65706294D01*
X141750365Y-65650800D01*
X141859300Y-65650800D01*
X141975942Y-65627598D01*
X142074826Y-65561526D01*
X142140898Y-65462642D01*
X142153683Y-65398369D01*
X142740741Y-64811311D01*
X142811798Y-64811373D01*
X142965891Y-64747703D01*
X143083889Y-64629911D01*
X143147827Y-64475930D01*
X143147973Y-64309202D01*
X143084303Y-64155109D01*
X142966511Y-64037111D01*
X142812530Y-63973173D01*
X142645802Y-63973027D01*
X142491709Y-64036697D01*
X142373711Y-64154489D01*
X142309773Y-64308470D01*
X142309710Y-64380238D01*
X141761132Y-64928816D01*
X141761132Y-64706297D01*
X141747039Y-64633660D01*
X141722256Y-64595932D01*
X141746113Y-64560589D01*
X141761132Y-64485697D01*
X141761132Y-64206297D01*
X141747039Y-64133660D01*
X141722257Y-64095934D01*
X141746113Y-64060592D01*
X141761132Y-63985700D01*
X141761132Y-63706300D01*
X141747039Y-63633663D01*
X141705102Y-63569822D01*
X141641792Y-63527087D01*
X141566900Y-63512068D01*
X140904500Y-63512068D01*
X140904500Y-61565232D01*
X141239000Y-61565232D01*
X141311637Y-61551139D01*
X141375478Y-61509202D01*
X141418213Y-61445892D01*
X141433232Y-61371000D01*
X141433232Y-60671000D01*
X141419139Y-60598363D01*
X141377202Y-60534522D01*
X141313892Y-60491787D01*
X141239000Y-60476768D01*
X140893800Y-60476768D01*
X140893800Y-60198000D01*
X140870598Y-60081358D01*
X140804526Y-59982474D01*
X140550526Y-59728474D01*
X140455877Y-59665232D01*
X140702180Y-59665232D01*
X146382948Y-65346000D01*
X146041574Y-65687374D01*
X145975502Y-65786258D01*
X145952300Y-65902900D01*
X145952300Y-66951900D01*
X145975502Y-67068542D01*
X146041574Y-67167426D01*
X146193500Y-67319352D01*
X146193500Y-71856448D01*
X144602048Y-73447900D01*
X142392252Y-73447900D01*
X142242924Y-73298572D01*
X142243798Y-73298573D01*
X142397891Y-73234903D01*
X142515889Y-73117111D01*
X142579827Y-72963130D01*
X142579973Y-72796402D01*
X142516303Y-72642309D01*
X142398511Y-72524311D01*
X142244530Y-72460373D01*
X142172762Y-72460310D01*
X142164100Y-72451648D01*
X142164100Y-72346000D01*
X142140898Y-72229358D01*
X142074826Y-72130474D01*
X142023232Y-72096000D01*
X142074826Y-72061526D01*
X142410026Y-71726326D01*
X142476098Y-71627442D01*
X142499300Y-71510800D01*
X142499300Y-71401412D01*
X142549589Y-71351211D01*
X142613527Y-71197230D01*
X142613673Y-71030502D01*
X142550003Y-70876409D01*
X142432211Y-70758411D01*
X142278230Y-70694473D01*
X142111502Y-70694327D01*
X141957409Y-70757997D01*
X141839411Y-70875789D01*
X141775473Y-71029770D01*
X141775327Y-71196498D01*
X141838997Y-71350591D01*
X141881290Y-71392958D01*
X141754257Y-71519991D01*
X141761132Y-71485709D01*
X141761132Y-71206309D01*
X141747039Y-71133672D01*
X141722256Y-71095944D01*
X141746113Y-71060601D01*
X141761132Y-70985709D01*
X141761132Y-70706309D01*
X141747039Y-70633672D01*
X141722257Y-70595946D01*
X141746113Y-70560605D01*
X141761132Y-70485713D01*
X141761132Y-70206313D01*
X141747039Y-70133676D01*
X141722247Y-70095936D01*
X141746113Y-70060580D01*
X141761132Y-69985688D01*
X141761132Y-69706288D01*
X141750366Y-69650800D01*
X141859300Y-69650800D01*
X141975942Y-69627598D01*
X142074826Y-69561526D01*
M02*
