G04 #@! TF.FileFunction,Legend,Top*
%FSLAX46Y46*%
G04 Gerber Fmt 4.6, Leading zero omitted, Abs format (unit mm)*
G04 Created by KiCad (PCBNEW (2015-07-25 BZR 5993)-product) date Sun 30 Aug 2015 02:46:25 PM PDT*
%MOMM*%
G01*
G04 APERTURE LIST*
%ADD10C,0.100000*%
%ADD11C,0.096800*%
%ADD12C,0.147600*%
%ADD13C,0.300000*%
%ADD14C,0.248000*%
%ADD15C,0.152400*%
%ADD16C,0.150000*%
%ADD17C,0.203200*%
%ADD18C,0.076200*%
%ADD19C,0.088900*%
G04 APERTURE END LIST*
D10*
D11*
X135968429Y-79879000D02*
X136319858Y-79879000D01*
X135898144Y-80089857D02*
X136144144Y-79351857D01*
X136390144Y-80089857D01*
X136601000Y-80054714D02*
X136706429Y-80089857D01*
X136882143Y-80089857D01*
X136952429Y-80054714D01*
X136987572Y-80019571D01*
X137022715Y-79949286D01*
X137022715Y-79879000D01*
X136987572Y-79808714D01*
X136952429Y-79773571D01*
X136882143Y-79738429D01*
X136741572Y-79703286D01*
X136671286Y-79668143D01*
X136636143Y-79633000D01*
X136601000Y-79562714D01*
X136601000Y-79492429D01*
X136636143Y-79422143D01*
X136671286Y-79387000D01*
X136741572Y-79351857D01*
X136917286Y-79351857D01*
X137022715Y-79387000D01*
X137339000Y-80089857D02*
X137339000Y-79351857D01*
X137585000Y-79879000D01*
X137831000Y-79351857D01*
X137831000Y-80089857D01*
X138182429Y-79703286D02*
X138428429Y-79703286D01*
X138533858Y-80089857D02*
X138182429Y-80089857D01*
X138182429Y-79351857D01*
X138533858Y-79351857D01*
X139377286Y-79422143D02*
X139412429Y-79387000D01*
X139482715Y-79351857D01*
X139658429Y-79351857D01*
X139728715Y-79387000D01*
X139763858Y-79422143D01*
X139799001Y-79492429D01*
X139799001Y-79562714D01*
X139763858Y-79668143D01*
X139342144Y-80089857D01*
X139799001Y-80089857D01*
X140255858Y-79351857D02*
X140326143Y-79351857D01*
X140396429Y-79387000D01*
X140431572Y-79422143D01*
X140466715Y-79492429D01*
X140501858Y-79633000D01*
X140501858Y-79808714D01*
X140466715Y-79949286D01*
X140431572Y-80019571D01*
X140396429Y-80054714D01*
X140326143Y-80089857D01*
X140255858Y-80089857D01*
X140185572Y-80054714D01*
X140150429Y-80019571D01*
X140115286Y-79949286D01*
X140080143Y-79808714D01*
X140080143Y-79633000D01*
X140115286Y-79492429D01*
X140150429Y-79422143D01*
X140185572Y-79387000D01*
X140255858Y-79351857D01*
X141204715Y-80089857D02*
X140783000Y-80089857D01*
X140993858Y-80089857D02*
X140993858Y-79351857D01*
X140923572Y-79457286D01*
X140853286Y-79527571D01*
X140783000Y-79562714D01*
X141872429Y-79351857D02*
X141521000Y-79351857D01*
X141485857Y-79703286D01*
X141521000Y-79668143D01*
X141591286Y-79633000D01*
X141767000Y-79633000D01*
X141837286Y-79668143D01*
X141872429Y-79703286D01*
X141907572Y-79773571D01*
X141907572Y-79949286D01*
X141872429Y-80019571D01*
X141837286Y-80054714D01*
X141767000Y-80089857D01*
X141591286Y-80089857D01*
X141521000Y-80054714D01*
X141485857Y-80019571D01*
X130615430Y-78208857D02*
X130756001Y-78208857D01*
X130826287Y-78244000D01*
X130896573Y-78314286D01*
X130931715Y-78454857D01*
X130931715Y-78700857D01*
X130896573Y-78841429D01*
X130826287Y-78911714D01*
X130756001Y-78946857D01*
X130615430Y-78946857D01*
X130545144Y-78911714D01*
X130474858Y-78841429D01*
X130439715Y-78700857D01*
X130439715Y-78454857D01*
X130474858Y-78314286D01*
X130545144Y-78244000D01*
X130615430Y-78208857D01*
X131248001Y-78946857D02*
X131248001Y-78454857D01*
X131248001Y-78595429D02*
X131283144Y-78525143D01*
X131318287Y-78490000D01*
X131388573Y-78454857D01*
X131458858Y-78454857D01*
X131986001Y-78911714D02*
X131915715Y-78946857D01*
X131775144Y-78946857D01*
X131704858Y-78911714D01*
X131669715Y-78841429D01*
X131669715Y-78560286D01*
X131704858Y-78490000D01*
X131775144Y-78454857D01*
X131915715Y-78454857D01*
X131986001Y-78490000D01*
X132021144Y-78560286D01*
X132021144Y-78630571D01*
X131669715Y-78700857D01*
X132653715Y-78454857D02*
X132653715Y-79052286D01*
X132618572Y-79122571D01*
X132583429Y-79157714D01*
X132513144Y-79192857D01*
X132407715Y-79192857D01*
X132337429Y-79157714D01*
X132653715Y-78911714D02*
X132583429Y-78946857D01*
X132442858Y-78946857D01*
X132372572Y-78911714D01*
X132337429Y-78876571D01*
X132302286Y-78806286D01*
X132302286Y-78595429D01*
X132337429Y-78525143D01*
X132372572Y-78490000D01*
X132442858Y-78454857D01*
X132583429Y-78454857D01*
X132653715Y-78490000D01*
X133110572Y-78946857D02*
X133040286Y-78911714D01*
X133005143Y-78876571D01*
X132970000Y-78806286D01*
X132970000Y-78595429D01*
X133005143Y-78525143D01*
X133040286Y-78490000D01*
X133110572Y-78454857D01*
X133216000Y-78454857D01*
X133286286Y-78490000D01*
X133321429Y-78525143D01*
X133356572Y-78595429D01*
X133356572Y-78806286D01*
X133321429Y-78876571D01*
X133286286Y-78911714D01*
X133216000Y-78946857D01*
X133110572Y-78946857D01*
X133672857Y-78454857D02*
X133672857Y-78946857D01*
X133672857Y-78525143D02*
X133708000Y-78490000D01*
X133778286Y-78454857D01*
X133883714Y-78454857D01*
X133954000Y-78490000D01*
X133989143Y-78560286D01*
X133989143Y-78946857D01*
X134867714Y-78911714D02*
X134973143Y-78946857D01*
X135148857Y-78946857D01*
X135219143Y-78911714D01*
X135254286Y-78876571D01*
X135289429Y-78806286D01*
X135289429Y-78736000D01*
X135254286Y-78665714D01*
X135219143Y-78630571D01*
X135148857Y-78595429D01*
X135008286Y-78560286D01*
X134938000Y-78525143D01*
X134902857Y-78490000D01*
X134867714Y-78419714D01*
X134867714Y-78349429D01*
X134902857Y-78279143D01*
X134938000Y-78244000D01*
X135008286Y-78208857D01*
X135184000Y-78208857D01*
X135289429Y-78244000D01*
X135500286Y-78454857D02*
X135781429Y-78454857D01*
X135605714Y-78208857D02*
X135605714Y-78841429D01*
X135640857Y-78911714D01*
X135711143Y-78946857D01*
X135781429Y-78946857D01*
X136343714Y-78946857D02*
X136343714Y-78560286D01*
X136308571Y-78490000D01*
X136238285Y-78454857D01*
X136097714Y-78454857D01*
X136027428Y-78490000D01*
X136343714Y-78911714D02*
X136273428Y-78946857D01*
X136097714Y-78946857D01*
X136027428Y-78911714D01*
X135992285Y-78841429D01*
X135992285Y-78771143D01*
X136027428Y-78700857D01*
X136097714Y-78665714D01*
X136273428Y-78665714D01*
X136343714Y-78630571D01*
X136589714Y-78454857D02*
X136870857Y-78454857D01*
X136695142Y-78208857D02*
X136695142Y-78841429D01*
X136730285Y-78911714D01*
X136800571Y-78946857D01*
X136870857Y-78946857D01*
X137397999Y-78911714D02*
X137327713Y-78946857D01*
X137187142Y-78946857D01*
X137116856Y-78911714D01*
X137081713Y-78841429D01*
X137081713Y-78560286D01*
X137116856Y-78490000D01*
X137187142Y-78454857D01*
X137327713Y-78454857D01*
X137397999Y-78490000D01*
X137433142Y-78560286D01*
X137433142Y-78630571D01*
X137081713Y-78700857D01*
X138311713Y-78208857D02*
X138311713Y-78806286D01*
X138346856Y-78876571D01*
X138381999Y-78911714D01*
X138452285Y-78946857D01*
X138592856Y-78946857D01*
X138663142Y-78911714D01*
X138698285Y-78876571D01*
X138733428Y-78806286D01*
X138733428Y-78208857D01*
X139084856Y-78454857D02*
X139084856Y-78946857D01*
X139084856Y-78525143D02*
X139119999Y-78490000D01*
X139190285Y-78454857D01*
X139295713Y-78454857D01*
X139365999Y-78490000D01*
X139401142Y-78560286D01*
X139401142Y-78946857D01*
X139752570Y-78946857D02*
X139752570Y-78454857D01*
X139752570Y-78208857D02*
X139717427Y-78244000D01*
X139752570Y-78279143D01*
X139787713Y-78244000D01*
X139752570Y-78208857D01*
X139752570Y-78279143D01*
X140033714Y-78454857D02*
X140209428Y-78946857D01*
X140385142Y-78454857D01*
X140947428Y-78911714D02*
X140877142Y-78946857D01*
X140736571Y-78946857D01*
X140666285Y-78911714D01*
X140631142Y-78841429D01*
X140631142Y-78560286D01*
X140666285Y-78490000D01*
X140736571Y-78454857D01*
X140877142Y-78454857D01*
X140947428Y-78490000D01*
X140982571Y-78560286D01*
X140982571Y-78630571D01*
X140631142Y-78700857D01*
X141298856Y-78946857D02*
X141298856Y-78454857D01*
X141298856Y-78595429D02*
X141333999Y-78525143D01*
X141369142Y-78490000D01*
X141439428Y-78454857D01*
X141509713Y-78454857D01*
X141720570Y-78911714D02*
X141790856Y-78946857D01*
X141931428Y-78946857D01*
X142001713Y-78911714D01*
X142036856Y-78841429D01*
X142036856Y-78806286D01*
X142001713Y-78736000D01*
X141931428Y-78700857D01*
X141825999Y-78700857D01*
X141755713Y-78665714D01*
X141720570Y-78595429D01*
X141720570Y-78560286D01*
X141755713Y-78490000D01*
X141825999Y-78454857D01*
X141931428Y-78454857D01*
X142001713Y-78490000D01*
X142353142Y-78946857D02*
X142353142Y-78454857D01*
X142353142Y-78208857D02*
X142317999Y-78244000D01*
X142353142Y-78279143D01*
X142388285Y-78244000D01*
X142353142Y-78208857D01*
X142353142Y-78279143D01*
X142599143Y-78454857D02*
X142880286Y-78454857D01*
X142704571Y-78208857D02*
X142704571Y-78841429D01*
X142739714Y-78911714D01*
X142810000Y-78946857D01*
X142880286Y-78946857D01*
X143056000Y-78454857D02*
X143231714Y-78946857D01*
X143407428Y-78454857D02*
X143231714Y-78946857D01*
X143161428Y-79122571D01*
X143126285Y-79157714D01*
X143056000Y-79192857D01*
D12*
X143533189Y-62170762D02*
X143533189Y-61178762D01*
X143769380Y-61178762D01*
X143911094Y-61226000D01*
X144005570Y-61320476D01*
X144052809Y-61414952D01*
X144100047Y-61603905D01*
X144100047Y-61745619D01*
X144052809Y-61934571D01*
X144005570Y-62029048D01*
X143911094Y-62123524D01*
X143769380Y-62170762D01*
X143533189Y-62170762D01*
X145092047Y-62170762D02*
X144761380Y-61698381D01*
X144525189Y-62170762D02*
X144525189Y-61178762D01*
X144903094Y-61178762D01*
X144997570Y-61226000D01*
X145044809Y-61273238D01*
X145092047Y-61367714D01*
X145092047Y-61509429D01*
X145044809Y-61603905D01*
X144997570Y-61651143D01*
X144903094Y-61698381D01*
X144525189Y-61698381D01*
X145375475Y-61178762D02*
X145706142Y-62170762D01*
X146036809Y-61178762D01*
X146509190Y-61603905D02*
X146414714Y-61556667D01*
X146367475Y-61509429D01*
X146320237Y-61414952D01*
X146320237Y-61367714D01*
X146367475Y-61273238D01*
X146414714Y-61226000D01*
X146509190Y-61178762D01*
X146698142Y-61178762D01*
X146792618Y-61226000D01*
X146839856Y-61273238D01*
X146887095Y-61367714D01*
X146887095Y-61414952D01*
X146839856Y-61509429D01*
X146792618Y-61556667D01*
X146698142Y-61603905D01*
X146509190Y-61603905D01*
X146414714Y-61651143D01*
X146367475Y-61698381D01*
X146320237Y-61792857D01*
X146320237Y-61981810D01*
X146367475Y-62076286D01*
X146414714Y-62123524D01*
X146509190Y-62170762D01*
X146698142Y-62170762D01*
X146792618Y-62123524D01*
X146839856Y-62076286D01*
X146887095Y-61981810D01*
X146887095Y-61792857D01*
X146839856Y-61698381D01*
X146792618Y-61651143D01*
X146698142Y-61603905D01*
X147217761Y-61178762D02*
X147831857Y-61178762D01*
X147501190Y-61556667D01*
X147642904Y-61556667D01*
X147737380Y-61603905D01*
X147784618Y-61651143D01*
X147831857Y-61745619D01*
X147831857Y-61981810D01*
X147784618Y-62076286D01*
X147737380Y-62123524D01*
X147642904Y-62170762D01*
X147359476Y-62170762D01*
X147264999Y-62123524D01*
X147217761Y-62076286D01*
X148445952Y-61178762D02*
X148540428Y-61178762D01*
X148634904Y-61226000D01*
X148682142Y-61273238D01*
X148729380Y-61367714D01*
X148776619Y-61556667D01*
X148776619Y-61792857D01*
X148729380Y-61981810D01*
X148682142Y-62076286D01*
X148634904Y-62123524D01*
X148540428Y-62170762D01*
X148445952Y-62170762D01*
X148351476Y-62123524D01*
X148304238Y-62076286D01*
X148256999Y-61981810D01*
X148209761Y-61792857D01*
X148209761Y-61556667D01*
X148256999Y-61367714D01*
X148304238Y-61273238D01*
X148351476Y-61226000D01*
X148445952Y-61178762D01*
X149107285Y-61178762D02*
X149721381Y-61178762D01*
X149390714Y-61556667D01*
X149532428Y-61556667D01*
X149626904Y-61603905D01*
X149674142Y-61651143D01*
X149721381Y-61745619D01*
X149721381Y-61981810D01*
X149674142Y-62076286D01*
X149626904Y-62123524D01*
X149532428Y-62170762D01*
X149249000Y-62170762D01*
X149154523Y-62123524D01*
X149107285Y-62076286D01*
X151233000Y-61651143D02*
X151374714Y-61698381D01*
X151421953Y-61745619D01*
X151469191Y-61840095D01*
X151469191Y-61981810D01*
X151421953Y-62076286D01*
X151374714Y-62123524D01*
X151280238Y-62170762D01*
X150902333Y-62170762D01*
X150902333Y-61178762D01*
X151233000Y-61178762D01*
X151327476Y-61226000D01*
X151374714Y-61273238D01*
X151421953Y-61367714D01*
X151421953Y-61462190D01*
X151374714Y-61556667D01*
X151327476Y-61603905D01*
X151233000Y-61651143D01*
X150902333Y-61651143D01*
X151894333Y-62170762D02*
X151894333Y-61509429D01*
X151894333Y-61698381D02*
X151941572Y-61603905D01*
X151988810Y-61556667D01*
X152083286Y-61509429D01*
X152177762Y-61509429D01*
X152886333Y-62123524D02*
X152791857Y-62170762D01*
X152602905Y-62170762D01*
X152508428Y-62123524D01*
X152461190Y-62029048D01*
X152461190Y-61651143D01*
X152508428Y-61556667D01*
X152602905Y-61509429D01*
X152791857Y-61509429D01*
X152886333Y-61556667D01*
X152933571Y-61651143D01*
X152933571Y-61745619D01*
X152461190Y-61840095D01*
X153783857Y-62170762D02*
X153783857Y-61651143D01*
X153736619Y-61556667D01*
X153642143Y-61509429D01*
X153453191Y-61509429D01*
X153358714Y-61556667D01*
X153783857Y-62123524D02*
X153689381Y-62170762D01*
X153453191Y-62170762D01*
X153358714Y-62123524D01*
X153311476Y-62029048D01*
X153311476Y-61934571D01*
X153358714Y-61840095D01*
X153453191Y-61792857D01*
X153689381Y-61792857D01*
X153783857Y-61745619D01*
X154256238Y-62170762D02*
X154256238Y-61178762D01*
X154350715Y-61792857D02*
X154634143Y-62170762D01*
X154634143Y-61509429D02*
X154256238Y-61887333D01*
X155201001Y-62170762D02*
X155106525Y-62123524D01*
X155059286Y-62076286D01*
X155012048Y-61981810D01*
X155012048Y-61698381D01*
X155059286Y-61603905D01*
X155106525Y-61556667D01*
X155201001Y-61509429D01*
X155342715Y-61509429D01*
X155437191Y-61556667D01*
X155484429Y-61603905D01*
X155531667Y-61698381D01*
X155531667Y-61981810D01*
X155484429Y-62076286D01*
X155437191Y-62123524D01*
X155342715Y-62170762D01*
X155201001Y-62170762D01*
X156381953Y-61509429D02*
X156381953Y-62170762D01*
X155956810Y-61509429D02*
X155956810Y-62029048D01*
X156004049Y-62123524D01*
X156098525Y-62170762D01*
X156240239Y-62170762D01*
X156334715Y-62123524D01*
X156381953Y-62076286D01*
X156712620Y-61509429D02*
X157090525Y-61509429D01*
X156854334Y-61178762D02*
X156854334Y-62029048D01*
X156901573Y-62123524D01*
X156996049Y-62170762D01*
X157090525Y-62170762D01*
D13*
X140906572Y-83165143D02*
X142049429Y-83165143D01*
X146113572Y-83038143D02*
X147256429Y-83038143D01*
X146685000Y-83609571D02*
X146685000Y-82466714D01*
X138314857Y-84734000D02*
X138172000Y-84662571D01*
X137957714Y-84662571D01*
X137743429Y-84734000D01*
X137600571Y-84876857D01*
X137529143Y-85019714D01*
X137457714Y-85305429D01*
X137457714Y-85519714D01*
X137529143Y-85805429D01*
X137600571Y-85948286D01*
X137743429Y-86091143D01*
X137957714Y-86162571D01*
X138100571Y-86162571D01*
X138314857Y-86091143D01*
X138386286Y-86019714D01*
X138386286Y-85519714D01*
X138100571Y-85519714D01*
X137493429Y-88562571D02*
X137493429Y-87062571D01*
X138350572Y-88562571D01*
X138350572Y-87062571D01*
X137529143Y-90962571D02*
X137529143Y-89462571D01*
X137886286Y-89462571D01*
X138100571Y-89534000D01*
X138243429Y-89676857D01*
X138314857Y-89819714D01*
X138386286Y-90105429D01*
X138386286Y-90319714D01*
X138314857Y-90605429D01*
X138243429Y-90748286D01*
X138100571Y-90891143D01*
X137886286Y-90962571D01*
X137529143Y-90962571D01*
X149848143Y-84581571D02*
X149848143Y-83081571D01*
X150419571Y-83081571D01*
X150562429Y-83153000D01*
X150633857Y-83224429D01*
X150705286Y-83367286D01*
X150705286Y-83581571D01*
X150633857Y-83724429D01*
X150562429Y-83795857D01*
X150419571Y-83867286D01*
X149848143Y-83867286D01*
X149741000Y-85481571D02*
X150241000Y-86981571D01*
X150741000Y-85481571D01*
X149848143Y-89381571D02*
X149848143Y-87881571D01*
X150205286Y-87881571D01*
X150419571Y-87953000D01*
X150562429Y-88095857D01*
X150633857Y-88238714D01*
X150705286Y-88524429D01*
X150705286Y-88738714D01*
X150633857Y-89024429D01*
X150562429Y-89167286D01*
X150419571Y-89310143D01*
X150205286Y-89381571D01*
X149848143Y-89381571D01*
X149848143Y-91781571D02*
X149848143Y-90281571D01*
X150205286Y-90281571D01*
X150419571Y-90353000D01*
X150562429Y-90495857D01*
X150633857Y-90638714D01*
X150705286Y-90924429D01*
X150705286Y-91138714D01*
X150633857Y-91424429D01*
X150562429Y-91567286D01*
X150419571Y-91710143D01*
X150205286Y-91781571D01*
X149848143Y-91781571D01*
D12*
X152848143Y-82848714D02*
X152953572Y-82883857D01*
X153129286Y-82883857D01*
X153199572Y-82848714D01*
X153234715Y-82813571D01*
X153269858Y-82743286D01*
X153269858Y-82673000D01*
X153234715Y-82602714D01*
X153199572Y-82567571D01*
X153129286Y-82532429D01*
X152988715Y-82497286D01*
X152918429Y-82462143D01*
X152883286Y-82427000D01*
X152848143Y-82356714D01*
X152848143Y-82286429D01*
X152883286Y-82216143D01*
X152918429Y-82181000D01*
X152988715Y-82145857D01*
X153164429Y-82145857D01*
X153269858Y-82181000D01*
X153586143Y-82883857D02*
X153586143Y-82145857D01*
X154007858Y-82883857D01*
X154007858Y-82145857D01*
X154324143Y-82216143D02*
X154359286Y-82181000D01*
X154429572Y-82145857D01*
X154605286Y-82145857D01*
X154675572Y-82181000D01*
X154710715Y-82216143D01*
X154745858Y-82286429D01*
X154745858Y-82356714D01*
X154710715Y-82462143D01*
X154289001Y-82883857D01*
X154745858Y-82883857D01*
X152992714Y-85388714D02*
X153098143Y-85423857D01*
X153273857Y-85423857D01*
X153344143Y-85388714D01*
X153379286Y-85353571D01*
X153414429Y-85283286D01*
X153414429Y-85213000D01*
X153379286Y-85142714D01*
X153344143Y-85107571D01*
X153273857Y-85072429D01*
X153133286Y-85037286D01*
X153063000Y-85002143D01*
X153027857Y-84967000D01*
X152992714Y-84896714D01*
X152992714Y-84826429D01*
X153027857Y-84756143D01*
X153063000Y-84721000D01*
X153133286Y-84685857D01*
X153309000Y-84685857D01*
X153414429Y-84721000D01*
X153730714Y-85423857D02*
X153730714Y-84685857D01*
X154011857Y-84685857D01*
X154082143Y-84721000D01*
X154117286Y-84756143D01*
X154152429Y-84826429D01*
X154152429Y-84931857D01*
X154117286Y-85002143D01*
X154082143Y-85037286D01*
X154011857Y-85072429D01*
X153730714Y-85072429D01*
X154433571Y-84756143D02*
X154468714Y-84721000D01*
X154539000Y-84685857D01*
X154714714Y-84685857D01*
X154785000Y-84721000D01*
X154820143Y-84756143D01*
X154855286Y-84826429D01*
X154855286Y-84896714D01*
X154820143Y-85002143D01*
X154398429Y-85423857D01*
X154855286Y-85423857D01*
X152975143Y-87801714D02*
X153080572Y-87836857D01*
X153256286Y-87836857D01*
X153326572Y-87801714D01*
X153361715Y-87766571D01*
X153396858Y-87696286D01*
X153396858Y-87626000D01*
X153361715Y-87555714D01*
X153326572Y-87520571D01*
X153256286Y-87485429D01*
X153115715Y-87450286D01*
X153045429Y-87415143D01*
X153010286Y-87380000D01*
X152975143Y-87309714D01*
X152975143Y-87239429D01*
X153010286Y-87169143D01*
X153045429Y-87134000D01*
X153115715Y-87098857D01*
X153291429Y-87098857D01*
X153396858Y-87134000D01*
X153713143Y-87836857D02*
X153713143Y-87098857D01*
X154134858Y-87836857D01*
X154134858Y-87098857D01*
X154872858Y-87836857D02*
X154451143Y-87836857D01*
X154662001Y-87836857D02*
X154662001Y-87098857D01*
X154591715Y-87204286D01*
X154521429Y-87274571D01*
X154451143Y-87309714D01*
X153119714Y-90595714D02*
X153225143Y-90630857D01*
X153400857Y-90630857D01*
X153471143Y-90595714D01*
X153506286Y-90560571D01*
X153541429Y-90490286D01*
X153541429Y-90420000D01*
X153506286Y-90349714D01*
X153471143Y-90314571D01*
X153400857Y-90279429D01*
X153260286Y-90244286D01*
X153190000Y-90209143D01*
X153154857Y-90174000D01*
X153119714Y-90103714D01*
X153119714Y-90033429D01*
X153154857Y-89963143D01*
X153190000Y-89928000D01*
X153260286Y-89892857D01*
X153436000Y-89892857D01*
X153541429Y-89928000D01*
X153857714Y-90630857D02*
X153857714Y-89892857D01*
X154138857Y-89892857D01*
X154209143Y-89928000D01*
X154244286Y-89963143D01*
X154279429Y-90033429D01*
X154279429Y-90138857D01*
X154244286Y-90209143D01*
X154209143Y-90244286D01*
X154138857Y-90279429D01*
X153857714Y-90279429D01*
X154982286Y-90630857D02*
X154560571Y-90630857D01*
X154771429Y-90630857D02*
X154771429Y-89892857D01*
X154701143Y-89998286D01*
X154630857Y-90068571D01*
X154560571Y-90103714D01*
X130097571Y-58083714D02*
X130203000Y-58118857D01*
X130378714Y-58118857D01*
X130449000Y-58083714D01*
X130484143Y-58048571D01*
X130519286Y-57978286D01*
X130519286Y-57908000D01*
X130484143Y-57837714D01*
X130449000Y-57802571D01*
X130378714Y-57767429D01*
X130238143Y-57732286D01*
X130167857Y-57697143D01*
X130132714Y-57662000D01*
X130097571Y-57591714D01*
X130097571Y-57521429D01*
X130132714Y-57451143D01*
X130167857Y-57416000D01*
X130238143Y-57380857D01*
X130413857Y-57380857D01*
X130519286Y-57416000D01*
X130835571Y-58118857D02*
X130835571Y-57380857D01*
X131011286Y-57380857D01*
X131116714Y-57416000D01*
X131187000Y-57486286D01*
X131222143Y-57556571D01*
X131257286Y-57697143D01*
X131257286Y-57802571D01*
X131222143Y-57943143D01*
X131187000Y-58013429D01*
X131116714Y-58083714D01*
X131011286Y-58118857D01*
X130835571Y-58118857D01*
X131714143Y-57380857D02*
X131854714Y-57380857D01*
X131925000Y-57416000D01*
X131995286Y-57486286D01*
X132030428Y-57626857D01*
X132030428Y-57872857D01*
X131995286Y-58013429D01*
X131925000Y-58083714D01*
X131854714Y-58118857D01*
X131714143Y-58118857D01*
X131643857Y-58083714D01*
X131573571Y-58013429D01*
X131538428Y-57872857D01*
X131538428Y-57626857D01*
X131573571Y-57486286D01*
X131643857Y-57416000D01*
X131714143Y-57380857D01*
X129943428Y-60623714D02*
X130048857Y-60658857D01*
X130224571Y-60658857D01*
X130294857Y-60623714D01*
X130330000Y-60588571D01*
X130365143Y-60518286D01*
X130365143Y-60448000D01*
X130330000Y-60377714D01*
X130294857Y-60342571D01*
X130224571Y-60307429D01*
X130084000Y-60272286D01*
X130013714Y-60237143D01*
X129978571Y-60202000D01*
X129943428Y-60131714D01*
X129943428Y-60061429D01*
X129978571Y-59991143D01*
X130013714Y-59956000D01*
X130084000Y-59920857D01*
X130259714Y-59920857D01*
X130365143Y-59956000D01*
X131103143Y-60588571D02*
X131068000Y-60623714D01*
X130962571Y-60658857D01*
X130892285Y-60658857D01*
X130786857Y-60623714D01*
X130716571Y-60553429D01*
X130681428Y-60483143D01*
X130646285Y-60342571D01*
X130646285Y-60237143D01*
X130681428Y-60096571D01*
X130716571Y-60026286D01*
X130786857Y-59956000D01*
X130892285Y-59920857D01*
X130962571Y-59920857D01*
X131068000Y-59956000D01*
X131103143Y-59991143D01*
X131770857Y-60658857D02*
X131419428Y-60658857D01*
X131419428Y-59920857D01*
X132016857Y-60658857D02*
X132016857Y-59920857D01*
X132438572Y-60658857D02*
X132122286Y-60237143D01*
X132438572Y-59920857D02*
X132016857Y-60342571D01*
X130804429Y-63128571D02*
X130769286Y-63163714D01*
X130663857Y-63198857D01*
X130593571Y-63198857D01*
X130488143Y-63163714D01*
X130417857Y-63093429D01*
X130382714Y-63023143D01*
X130347571Y-62882571D01*
X130347571Y-62777143D01*
X130382714Y-62636571D01*
X130417857Y-62566286D01*
X130488143Y-62496000D01*
X130593571Y-62460857D01*
X130663857Y-62460857D01*
X130769286Y-62496000D01*
X130804429Y-62531143D01*
X131085571Y-62988000D02*
X131437000Y-62988000D01*
X131015286Y-63198857D02*
X131261286Y-62460857D01*
X131507286Y-63198857D01*
X132104714Y-63198857D02*
X131753285Y-63198857D01*
X131753285Y-62460857D01*
X130265286Y-65479286D02*
X130511286Y-65479286D01*
X130616715Y-65865857D02*
X130265286Y-65865857D01*
X130265286Y-65127857D01*
X130616715Y-65127857D01*
X130933000Y-65865857D02*
X130933000Y-65127857D01*
X131354715Y-65865857D01*
X131354715Y-65127857D01*
D14*
X126554714Y-68774762D02*
X126554714Y-67782762D01*
X127027095Y-68774762D02*
X127027095Y-67782762D01*
X127593953Y-68774762D01*
X127593953Y-67782762D01*
X127830143Y-68869238D02*
X128585953Y-68869238D01*
X128774905Y-68491333D02*
X129247286Y-68491333D01*
X128680429Y-68774762D02*
X129011096Y-67782762D01*
X129341763Y-68774762D01*
X129672429Y-68774762D02*
X129672429Y-67782762D01*
X129672429Y-68255143D02*
X130239287Y-68255143D01*
X130239287Y-68774762D02*
X130239287Y-67782762D01*
X126474952Y-86173762D02*
X126474952Y-85181762D01*
X126947333Y-86173762D02*
X126947333Y-85181762D01*
X127514191Y-86173762D01*
X127514191Y-85181762D01*
X127750381Y-86268238D02*
X128506191Y-86268238D01*
X129309239Y-86079286D02*
X129262001Y-86126524D01*
X129120286Y-86173762D01*
X129025810Y-86173762D01*
X128884096Y-86126524D01*
X128789620Y-86032048D01*
X128742381Y-85937571D01*
X128695143Y-85748619D01*
X128695143Y-85606905D01*
X128742381Y-85417952D01*
X128789620Y-85323476D01*
X128884096Y-85229000D01*
X129025810Y-85181762D01*
X129120286Y-85181762D01*
X129262001Y-85229000D01*
X129309239Y-85276238D01*
X130206762Y-86173762D02*
X129734381Y-86173762D01*
X129734381Y-85181762D01*
X129487333Y-89626762D02*
X129818000Y-90618762D01*
X130148667Y-89626762D01*
X131046191Y-90524286D02*
X130998953Y-90571524D01*
X130857238Y-90618762D01*
X130762762Y-90618762D01*
X130621048Y-90571524D01*
X130526572Y-90477048D01*
X130479333Y-90382571D01*
X130432095Y-90193619D01*
X130432095Y-90051905D01*
X130479333Y-89862952D01*
X130526572Y-89768476D01*
X130621048Y-89674000D01*
X130762762Y-89626762D01*
X130857238Y-89626762D01*
X130998953Y-89674000D01*
X131046191Y-89721238D01*
X132038191Y-90524286D02*
X131990953Y-90571524D01*
X131849238Y-90618762D01*
X131754762Y-90618762D01*
X131613048Y-90571524D01*
X131518572Y-90477048D01*
X131471333Y-90382571D01*
X131424095Y-90193619D01*
X131424095Y-90051905D01*
X131471333Y-89862952D01*
X131518572Y-89768476D01*
X131613048Y-89674000D01*
X131754762Y-89626762D01*
X131849238Y-89626762D01*
X131990953Y-89674000D01*
X132038191Y-89721238D01*
X130054191Y-87134000D02*
X129959714Y-87086762D01*
X129818000Y-87086762D01*
X129676286Y-87134000D01*
X129581810Y-87228476D01*
X129534571Y-87322952D01*
X129487333Y-87511905D01*
X129487333Y-87653619D01*
X129534571Y-87842571D01*
X129581810Y-87937048D01*
X129676286Y-88031524D01*
X129818000Y-88078762D01*
X129912476Y-88078762D01*
X130054191Y-88031524D01*
X130101429Y-87984286D01*
X130101429Y-87653619D01*
X129912476Y-87653619D01*
X130526571Y-88078762D02*
X130526571Y-87086762D01*
X131093429Y-88078762D01*
X131093429Y-87086762D01*
X131565809Y-88078762D02*
X131565809Y-87086762D01*
X131802000Y-87086762D01*
X131943714Y-87134000D01*
X132038190Y-87228476D01*
X132085429Y-87322952D01*
X132132667Y-87511905D01*
X132132667Y-87653619D01*
X132085429Y-87842571D01*
X132038190Y-87937048D01*
X131943714Y-88031524D01*
X131802000Y-88078762D01*
X131565809Y-88078762D01*
X141428047Y-56662524D02*
X141569762Y-56709762D01*
X141805952Y-56709762D01*
X141900428Y-56662524D01*
X141947666Y-56615286D01*
X141994905Y-56520810D01*
X141994905Y-56426333D01*
X141947666Y-56331857D01*
X141900428Y-56284619D01*
X141805952Y-56237381D01*
X141617000Y-56190143D01*
X141522524Y-56142905D01*
X141475285Y-56095667D01*
X141428047Y-56001190D01*
X141428047Y-55906714D01*
X141475285Y-55812238D01*
X141522524Y-55765000D01*
X141617000Y-55717762D01*
X141853190Y-55717762D01*
X141994905Y-55765000D01*
X142892428Y-56709762D02*
X142420047Y-56709762D01*
X142420047Y-55717762D01*
X141971286Y-52971000D02*
X141876809Y-52923762D01*
X141735095Y-52923762D01*
X141593381Y-52971000D01*
X141498905Y-53065476D01*
X141451666Y-53159952D01*
X141404428Y-53348905D01*
X141404428Y-53490619D01*
X141451666Y-53679571D01*
X141498905Y-53774048D01*
X141593381Y-53868524D01*
X141735095Y-53915762D01*
X141829571Y-53915762D01*
X141971286Y-53868524D01*
X142018524Y-53821286D01*
X142018524Y-53490619D01*
X141829571Y-53490619D01*
X142916047Y-53915762D02*
X142443666Y-53915762D01*
X142443666Y-52923762D01*
X141309952Y-51328524D02*
X141451667Y-51375762D01*
X141687857Y-51375762D01*
X141782333Y-51328524D01*
X141829571Y-51281286D01*
X141876810Y-51186810D01*
X141876810Y-51092333D01*
X141829571Y-50997857D01*
X141782333Y-50950619D01*
X141687857Y-50903381D01*
X141498905Y-50856143D01*
X141404429Y-50808905D01*
X141357190Y-50761667D01*
X141309952Y-50667190D01*
X141309952Y-50572714D01*
X141357190Y-50478238D01*
X141404429Y-50431000D01*
X141498905Y-50383762D01*
X141735095Y-50383762D01*
X141876810Y-50431000D01*
X142301952Y-51375762D02*
X142301952Y-50383762D01*
X142301952Y-50856143D02*
X142868810Y-50856143D01*
X142868810Y-51375762D02*
X142868810Y-50383762D01*
X141853191Y-47764000D02*
X141758714Y-47716762D01*
X141617000Y-47716762D01*
X141475286Y-47764000D01*
X141380810Y-47858476D01*
X141333571Y-47952952D01*
X141286333Y-48141905D01*
X141286333Y-48283619D01*
X141333571Y-48472571D01*
X141380810Y-48567048D01*
X141475286Y-48661524D01*
X141617000Y-48708762D01*
X141711476Y-48708762D01*
X141853191Y-48661524D01*
X141900429Y-48614286D01*
X141900429Y-48283619D01*
X141711476Y-48283619D01*
X142325571Y-48708762D02*
X142325571Y-47716762D01*
X142325571Y-48189143D02*
X142892429Y-48189143D01*
X142892429Y-48708762D02*
X142892429Y-47716762D01*
D13*
X157182286Y-59590714D02*
X157110857Y-59662143D01*
X156896571Y-59733571D01*
X156753714Y-59733571D01*
X156539429Y-59662143D01*
X156396571Y-59519286D01*
X156325143Y-59376429D01*
X156253714Y-59090714D01*
X156253714Y-58876429D01*
X156325143Y-58590714D01*
X156396571Y-58447857D01*
X156539429Y-58305000D01*
X156753714Y-58233571D01*
X156896571Y-58233571D01*
X157110857Y-58305000D01*
X157182286Y-58376429D01*
X151110143Y-58820857D02*
X151324429Y-58892286D01*
X151395857Y-58963714D01*
X151467286Y-59106571D01*
X151467286Y-59320857D01*
X151395857Y-59463714D01*
X151324429Y-59535143D01*
X151181571Y-59606571D01*
X150610143Y-59606571D01*
X150610143Y-58106571D01*
X151110143Y-58106571D01*
X151253000Y-58178000D01*
X151324429Y-58249429D01*
X151395857Y-58392286D01*
X151395857Y-58535143D01*
X151324429Y-58678000D01*
X151253000Y-58749429D01*
X151110143Y-58820857D01*
X150610143Y-58820857D01*
X144676857Y-59051000D02*
X145391143Y-59051000D01*
X144534000Y-59479571D02*
X145034000Y-57979571D01*
X145534000Y-59479571D01*
D15*
X141300200Y-63982600D02*
X141300200Y-63703200D01*
X141300200Y-63703200D02*
X140233400Y-63703200D01*
X140233400Y-63703200D02*
X140233400Y-63982600D01*
X140233400Y-63982600D02*
X141300200Y-63982600D01*
X141300200Y-64490600D02*
X141300200Y-64211200D01*
X141300200Y-64211200D02*
X140233400Y-64211200D01*
X140233400Y-64211200D02*
X140233400Y-64490600D01*
X140233400Y-64490600D02*
X141300200Y-64490600D01*
X141300200Y-64973200D02*
X141300200Y-64693800D01*
X141300200Y-64693800D02*
X140233400Y-64693800D01*
X140233400Y-64693800D02*
X140233400Y-64973200D01*
X140233400Y-64973200D02*
X141300200Y-64973200D01*
X141300200Y-65481200D02*
X141300200Y-65201800D01*
X141300200Y-65201800D02*
X140233400Y-65201800D01*
X140233400Y-65201800D02*
X140233400Y-65481200D01*
X140233400Y-65481200D02*
X141300200Y-65481200D01*
X141300200Y-65989200D02*
X141300200Y-65709800D01*
X141300200Y-65709800D02*
X140233400Y-65709800D01*
X140233400Y-65709800D02*
X140233400Y-65989200D01*
X140233400Y-65989200D02*
X141300200Y-65989200D01*
X141300200Y-66497200D02*
X141300200Y-66217800D01*
X141300200Y-66217800D02*
X140233400Y-66217800D01*
X140233400Y-66217800D02*
X140233400Y-66497200D01*
X140233400Y-66497200D02*
X141300200Y-66497200D01*
X141300200Y-66979800D02*
X141300200Y-66700400D01*
X141300200Y-66700400D02*
X140233400Y-66700400D01*
X140233400Y-66700400D02*
X140233400Y-66979800D01*
X140233400Y-66979800D02*
X141300200Y-66979800D01*
X141300200Y-67487800D02*
X141300200Y-67208400D01*
X141300200Y-67208400D02*
X140233400Y-67208400D01*
X140233400Y-67208400D02*
X140233400Y-67487800D01*
X140233400Y-67487800D02*
X141300200Y-67487800D01*
X141300200Y-67995800D02*
X141300200Y-67716400D01*
X141300200Y-67716400D02*
X140233400Y-67716400D01*
X140233400Y-67716400D02*
X140233400Y-67995800D01*
X140233400Y-67995800D02*
X141300200Y-67995800D01*
X141300200Y-68478400D02*
X141300200Y-68199000D01*
X141300200Y-68199000D02*
X140233400Y-68199000D01*
X140233400Y-68199000D02*
X140233400Y-68478400D01*
X140233400Y-68478400D02*
X141300200Y-68478400D01*
X141300200Y-68986400D02*
X141300200Y-68707000D01*
X141300200Y-68707000D02*
X140233400Y-68707000D01*
X140233400Y-68707000D02*
X140233400Y-68986400D01*
X140233400Y-68986400D02*
X141300200Y-68986400D01*
X141300200Y-69494400D02*
X141300200Y-69215000D01*
X141300200Y-69215000D02*
X140233400Y-69215000D01*
X140233400Y-69215000D02*
X140233400Y-69494400D01*
X140233400Y-69494400D02*
X141300200Y-69494400D01*
X141300200Y-69977000D02*
X141300200Y-69697600D01*
X141300200Y-69697600D02*
X140233400Y-69697600D01*
X140233400Y-69697600D02*
X140233400Y-69977000D01*
X140233400Y-69977000D02*
X141300200Y-69977000D01*
X141300200Y-70485000D02*
X141300200Y-70205600D01*
X141300200Y-70205600D02*
X140233400Y-70205600D01*
X140233400Y-70205600D02*
X140233400Y-70485000D01*
X140233400Y-70485000D02*
X141300200Y-70485000D01*
X141300200Y-70993000D02*
X141300200Y-70713600D01*
X141300200Y-70713600D02*
X140233400Y-70713600D01*
X140233400Y-70713600D02*
X140233400Y-70993000D01*
X140233400Y-70993000D02*
X141300200Y-70993000D01*
X141300200Y-71475600D02*
X141300200Y-71196200D01*
X141300200Y-71196200D02*
X140233400Y-71196200D01*
X140233400Y-71196200D02*
X140233400Y-71475600D01*
X140233400Y-71475600D02*
X141300200Y-71475600D01*
X141300200Y-71983600D02*
X141300200Y-71704200D01*
X141300200Y-71704200D02*
X140233400Y-71704200D01*
X140233400Y-71704200D02*
X140233400Y-71983600D01*
X140233400Y-71983600D02*
X141300200Y-71983600D01*
X141300200Y-72491600D02*
X141300200Y-72212200D01*
X141300200Y-72212200D02*
X140233400Y-72212200D01*
X140233400Y-72212200D02*
X140233400Y-72491600D01*
X140233400Y-72491600D02*
X141300200Y-72491600D01*
X141300200Y-72974200D02*
X141300200Y-72694800D01*
X141300200Y-72694800D02*
X140233400Y-72694800D01*
X140233400Y-72694800D02*
X140233400Y-72974200D01*
X140233400Y-72974200D02*
X141300200Y-72974200D01*
X141300200Y-73482200D02*
X141300200Y-73202800D01*
X141300200Y-73202800D02*
X140233400Y-73202800D01*
X140233400Y-73202800D02*
X140233400Y-73482200D01*
X140233400Y-73482200D02*
X141300200Y-73482200D01*
X141300200Y-73990200D02*
X141300200Y-73710800D01*
X141300200Y-73710800D02*
X140233400Y-73710800D01*
X140233400Y-73710800D02*
X140233400Y-73990200D01*
X140233400Y-73990200D02*
X141300200Y-73990200D01*
X141300200Y-74498200D02*
X141300200Y-74218800D01*
X141300200Y-74218800D02*
X140233400Y-74218800D01*
X140233400Y-74218800D02*
X140233400Y-74498200D01*
X140233400Y-74498200D02*
X141300200Y-74498200D01*
X141300200Y-74980800D02*
X141300200Y-74701400D01*
X141300200Y-74701400D02*
X140233400Y-74701400D01*
X140233400Y-74701400D02*
X140233400Y-74980800D01*
X140233400Y-74980800D02*
X141300200Y-74980800D01*
X141300200Y-75488800D02*
X141300200Y-75209400D01*
X141300200Y-75209400D02*
X140233400Y-75209400D01*
X140233400Y-75209400D02*
X140233400Y-75488800D01*
X140233400Y-75488800D02*
X141300200Y-75488800D01*
X147497800Y-75209400D02*
X147497800Y-75488800D01*
X147497800Y-75488800D02*
X148564600Y-75488800D01*
X148564600Y-75488800D02*
X148564600Y-75209400D01*
X148564600Y-75209400D02*
X147497800Y-75209400D01*
X147497800Y-74701400D02*
X147497800Y-74980800D01*
X147497800Y-74980800D02*
X148564600Y-74980800D01*
X148564600Y-74980800D02*
X148564600Y-74701400D01*
X148564600Y-74701400D02*
X147497800Y-74701400D01*
X147497800Y-74218800D02*
X147497800Y-74498200D01*
X147497800Y-74498200D02*
X148564600Y-74498200D01*
X148564600Y-74498200D02*
X148564600Y-74218800D01*
X148564600Y-74218800D02*
X147497800Y-74218800D01*
X147497800Y-73710800D02*
X147497800Y-73990200D01*
X147497800Y-73990200D02*
X148564600Y-73990200D01*
X148564600Y-73990200D02*
X148564600Y-73710800D01*
X148564600Y-73710800D02*
X147497800Y-73710800D01*
X147497800Y-73202800D02*
X147497800Y-73482200D01*
X147497800Y-73482200D02*
X148564600Y-73482200D01*
X148564600Y-73482200D02*
X148564600Y-73202800D01*
X148564600Y-73202800D02*
X147497800Y-73202800D01*
X147497800Y-72694800D02*
X147497800Y-72974200D01*
X147497800Y-72974200D02*
X148564600Y-72974200D01*
X148564600Y-72974200D02*
X148564600Y-72694800D01*
X148564600Y-72694800D02*
X147497800Y-72694800D01*
X147497800Y-72212200D02*
X147497800Y-72491600D01*
X147497800Y-72491600D02*
X148564600Y-72491600D01*
X148564600Y-72491600D02*
X148564600Y-72212200D01*
X148564600Y-72212200D02*
X147497800Y-72212200D01*
X147497800Y-71704200D02*
X147497800Y-71983600D01*
X147497800Y-71983600D02*
X148564600Y-71983600D01*
X148564600Y-71983600D02*
X148564600Y-71704200D01*
X148564600Y-71704200D02*
X147497800Y-71704200D01*
X147497800Y-71196200D02*
X147497800Y-71475600D01*
X147497800Y-71475600D02*
X148564600Y-71475600D01*
X148564600Y-71475600D02*
X148564600Y-71196200D01*
X148564600Y-71196200D02*
X147497800Y-71196200D01*
X147497800Y-70713600D02*
X147497800Y-70993000D01*
X147497800Y-70993000D02*
X148564600Y-70993000D01*
X148564600Y-70993000D02*
X148564600Y-70713600D01*
X148564600Y-70713600D02*
X147497800Y-70713600D01*
X147497800Y-70205600D02*
X147497800Y-70485000D01*
X147497800Y-70485000D02*
X148564600Y-70485000D01*
X148564600Y-70485000D02*
X148564600Y-70205600D01*
X148564600Y-70205600D02*
X147497800Y-70205600D01*
X147497800Y-69697600D02*
X147497800Y-69977000D01*
X147497800Y-69977000D02*
X148564600Y-69977000D01*
X148564600Y-69977000D02*
X148564600Y-69697600D01*
X148564600Y-69697600D02*
X147497800Y-69697600D01*
X147497800Y-69215000D02*
X147497800Y-69494400D01*
X147497800Y-69494400D02*
X148564600Y-69494400D01*
X148564600Y-69494400D02*
X148564600Y-69215000D01*
X148564600Y-69215000D02*
X147497800Y-69215000D01*
X147497800Y-68707000D02*
X147497800Y-68986400D01*
X147497800Y-68986400D02*
X148564600Y-68986400D01*
X148564600Y-68986400D02*
X148564600Y-68707000D01*
X148564600Y-68707000D02*
X147497800Y-68707000D01*
X147497800Y-68199000D02*
X147497800Y-68478400D01*
X147497800Y-68478400D02*
X148564600Y-68478400D01*
X148564600Y-68478400D02*
X148564600Y-68199000D01*
X148564600Y-68199000D02*
X147497800Y-68199000D01*
X147497800Y-67716400D02*
X147497800Y-67995800D01*
X147497800Y-67995800D02*
X148564600Y-67995800D01*
X148564600Y-67995800D02*
X148564600Y-67716400D01*
X148564600Y-67716400D02*
X147497800Y-67716400D01*
X147497800Y-67208400D02*
X147497800Y-67487800D01*
X147497800Y-67487800D02*
X148564600Y-67487800D01*
X148564600Y-67487800D02*
X148564600Y-67208400D01*
X148564600Y-67208400D02*
X147497800Y-67208400D01*
X147497800Y-66700400D02*
X147497800Y-66979800D01*
X147497800Y-66979800D02*
X148564600Y-66979800D01*
X148564600Y-66979800D02*
X148564600Y-66700400D01*
X148564600Y-66700400D02*
X147497800Y-66700400D01*
X147497800Y-66217800D02*
X147497800Y-66497200D01*
X147497800Y-66497200D02*
X148564600Y-66497200D01*
X148564600Y-66497200D02*
X148564600Y-66217800D01*
X148564600Y-66217800D02*
X147497800Y-66217800D01*
X147497800Y-65709800D02*
X147497800Y-65989200D01*
X147497800Y-65989200D02*
X148564600Y-65989200D01*
X148564600Y-65989200D02*
X148564600Y-65709800D01*
X148564600Y-65709800D02*
X147497800Y-65709800D01*
X147497800Y-65201800D02*
X147497800Y-65481200D01*
X147497800Y-65481200D02*
X148564600Y-65481200D01*
X148564600Y-65481200D02*
X148564600Y-65201800D01*
X148564600Y-65201800D02*
X147497800Y-65201800D01*
X147497800Y-64693800D02*
X147497800Y-64973200D01*
X147497800Y-64973200D02*
X148564600Y-64973200D01*
X148564600Y-64973200D02*
X148564600Y-64693800D01*
X148564600Y-64693800D02*
X147497800Y-64693800D01*
X147497800Y-64211200D02*
X147497800Y-64490600D01*
X147497800Y-64490600D02*
X148564600Y-64490600D01*
X148564600Y-64490600D02*
X148564600Y-64211200D01*
X148564600Y-64211200D02*
X147497800Y-64211200D01*
X147497800Y-63703200D02*
X147497800Y-63982600D01*
X147497800Y-63982600D02*
X148564600Y-63982600D01*
X148564600Y-63982600D02*
X148564600Y-63703200D01*
X148564600Y-63703200D02*
X147497800Y-63703200D01*
X141300200Y-75895200D02*
X147497800Y-75895200D01*
X147497800Y-75895200D02*
X147497800Y-63296800D01*
X147497800Y-63296800D02*
X144703800Y-63296800D01*
X144703800Y-63296800D02*
X144094200Y-63296800D01*
X144094200Y-63296800D02*
X141300200Y-63296800D01*
X141300200Y-63296800D02*
X141300200Y-75895200D01*
D10*
X144094200Y-63296800D02*
G75*
G03X144703800Y-63296800I304800J0D01*
G01*
D16*
X135890000Y-49149000D02*
X136144000Y-49149000D01*
X136144000Y-49149000D02*
X136144000Y-46863000D01*
X136144000Y-46863000D02*
X135890000Y-46863000D01*
X135890000Y-49149000D02*
X135890000Y-46863000D01*
X135890000Y-46863000D02*
X134239000Y-46863000D01*
X132461000Y-49149000D02*
X130810000Y-49149000D01*
X130810000Y-49149000D02*
X130810000Y-46863000D01*
X130810000Y-46863000D02*
X132461000Y-46863000D01*
X134239000Y-49149000D02*
X135890000Y-49149000D01*
X135890000Y-52197000D02*
X136144000Y-52197000D01*
X136144000Y-52197000D02*
X136144000Y-49911000D01*
X136144000Y-49911000D02*
X135890000Y-49911000D01*
X135890000Y-52197000D02*
X135890000Y-49911000D01*
X135890000Y-49911000D02*
X134239000Y-49911000D01*
X132461000Y-52197000D02*
X130810000Y-52197000D01*
X130810000Y-52197000D02*
X130810000Y-49911000D01*
X130810000Y-49911000D02*
X132461000Y-49911000D01*
X134239000Y-52197000D02*
X135890000Y-52197000D01*
X127000000Y-64135000D02*
X127000000Y-46355000D01*
X127000000Y-46355000D02*
X129540000Y-46355000D01*
X129540000Y-46355000D02*
X129540000Y-64135000D01*
X126720000Y-66955000D02*
X126720000Y-65405000D01*
X127000000Y-64135000D02*
X129540000Y-64135000D01*
X129820000Y-65405000D02*
X129820000Y-66955000D01*
X129820000Y-66955000D02*
X126720000Y-66955000D01*
X127000000Y-81915000D02*
X127000000Y-69215000D01*
X127000000Y-69215000D02*
X129540000Y-69215000D01*
X129540000Y-69215000D02*
X129540000Y-81915000D01*
X126720000Y-84735000D02*
X126720000Y-83185000D01*
X127000000Y-81915000D02*
X129540000Y-81915000D01*
X129820000Y-83185000D02*
X129820000Y-84735000D01*
X129820000Y-84735000D02*
X126720000Y-84735000D01*
X135763000Y-88773000D02*
X135763000Y-81153000D01*
X133223000Y-88773000D02*
X133223000Y-81153000D01*
X132943000Y-91593000D02*
X132943000Y-90043000D01*
X135763000Y-81153000D02*
X133223000Y-81153000D01*
X133223000Y-88773000D02*
X135763000Y-88773000D01*
X136043000Y-90043000D02*
X136043000Y-91593000D01*
X136043000Y-91593000D02*
X132943000Y-91593000D01*
X143891000Y-49657000D02*
X143891000Y-57277000D01*
X146431000Y-49657000D02*
X146431000Y-57277000D01*
X146711000Y-46837000D02*
X146711000Y-48387000D01*
X143891000Y-57277000D02*
X146431000Y-57277000D01*
X146431000Y-49657000D02*
X143891000Y-49657000D01*
X143611000Y-48387000D02*
X143611000Y-46837000D01*
X143611000Y-46837000D02*
X146711000Y-46837000D01*
X149606000Y-49784000D02*
X149606000Y-57404000D01*
X152146000Y-49784000D02*
X152146000Y-57404000D01*
X152426000Y-46964000D02*
X152426000Y-48514000D01*
X149606000Y-57404000D02*
X152146000Y-57404000D01*
X152146000Y-49784000D02*
X149606000Y-49784000D01*
X149326000Y-48514000D02*
X149326000Y-46964000D01*
X149326000Y-46964000D02*
X152426000Y-46964000D01*
X155575000Y-49657000D02*
X155575000Y-57277000D01*
X158115000Y-49657000D02*
X158115000Y-57277000D01*
X158395000Y-46837000D02*
X158395000Y-48387000D01*
X155575000Y-57277000D02*
X158115000Y-57277000D01*
X158115000Y-49657000D02*
X155575000Y-49657000D01*
X155295000Y-48387000D02*
X155295000Y-46837000D01*
X155295000Y-46837000D02*
X158395000Y-46837000D01*
X158750000Y-88900000D02*
X158750000Y-81280000D01*
X156210000Y-88900000D02*
X156210000Y-81280000D01*
X155930000Y-91720000D02*
X155930000Y-90170000D01*
X158750000Y-81280000D02*
X156210000Y-81280000D01*
X156210000Y-88900000D02*
X158750000Y-88900000D01*
X159030000Y-90170000D02*
X159030000Y-91720000D01*
X159030000Y-91720000D02*
X155930000Y-91720000D01*
X149352000Y-90678000D02*
X139192000Y-90678000D01*
X149352000Y-91948000D02*
X149352000Y-84328000D01*
X149352000Y-84328000D02*
X139192000Y-84328000D01*
X139192000Y-84328000D02*
X139192000Y-91948000D01*
X139192000Y-91948000D02*
X149352000Y-91948000D01*
D15*
X133121400Y-53568600D02*
X133121400Y-54889400D01*
X133121400Y-54889400D02*
X130276600Y-54889400D01*
X130276600Y-54889400D02*
X130276600Y-53568600D01*
X130276600Y-53568600D02*
X133121400Y-53568600D01*
D17*
X130901440Y-53530500D02*
X130299460Y-53530500D01*
X130299460Y-53530500D02*
X130299460Y-54328060D01*
X132496560Y-53530500D02*
X133098540Y-53530500D01*
X133098540Y-53530500D02*
X133098540Y-54328060D01*
D15*
X136677400Y-53695600D02*
X136677400Y-55016400D01*
X136677400Y-55016400D02*
X133832600Y-55016400D01*
X133832600Y-55016400D02*
X133832600Y-53695600D01*
X133832600Y-53695600D02*
X136677400Y-53695600D01*
D17*
X134457440Y-53657500D02*
X133855460Y-53657500D01*
X133855460Y-53657500D02*
X133855460Y-54455060D01*
X136052560Y-53657500D02*
X136654540Y-53657500D01*
X136654540Y-53657500D02*
X136654540Y-54455060D01*
D16*
X133104000Y-76161000D02*
X134104000Y-76161000D01*
X134104000Y-74461000D02*
X133104000Y-74461000D01*
X133104000Y-73621000D02*
X134104000Y-73621000D01*
X134104000Y-71921000D02*
X133104000Y-71921000D01*
X133104000Y-68541000D02*
X134104000Y-68541000D01*
X134104000Y-66841000D02*
X133104000Y-66841000D01*
X145169000Y-78701000D02*
X146169000Y-78701000D01*
X146169000Y-77001000D02*
X145169000Y-77001000D01*
X134104000Y-69381000D02*
X133104000Y-69381000D01*
X133104000Y-71081000D02*
X134104000Y-71081000D01*
X154852000Y-76970000D02*
X154852000Y-77970000D01*
X156552000Y-77970000D02*
X156552000Y-76970000D01*
X151804000Y-74938000D02*
X151804000Y-75938000D01*
X153504000Y-75938000D02*
X153504000Y-74938000D01*
X154242000Y-72956800D02*
X154242000Y-73956800D01*
X155942000Y-73956800D02*
X155942000Y-72956800D01*
X154217000Y-69223000D02*
X154217000Y-70223000D01*
X155917000Y-70223000D02*
X155917000Y-69223000D01*
X154217000Y-65540000D02*
X154217000Y-66540000D01*
X155917000Y-66540000D02*
X155917000Y-65540000D01*
X140046000Y-48881000D02*
X138846000Y-48881000D01*
X138846000Y-47131000D02*
X140046000Y-47131000D01*
X139538000Y-51929000D02*
X138338000Y-51929000D01*
X138338000Y-50179000D02*
X139538000Y-50179000D01*
X139714000Y-60671000D02*
X139714000Y-59471000D01*
X141464000Y-59471000D02*
X141464000Y-60671000D01*
X137174000Y-60671000D02*
X137174000Y-59471000D01*
X138924000Y-59471000D02*
X138924000Y-60671000D01*
X133004000Y-64276000D02*
X134204000Y-64276000D01*
X134204000Y-66026000D02*
X133004000Y-66026000D01*
D18*
X141511262Y-76079048D02*
X141511262Y-77055738D01*
X141568714Y-77170643D01*
X141626167Y-77228095D01*
X141741071Y-77285548D01*
X141970881Y-77285548D01*
X142085786Y-77228095D01*
X142143238Y-77170643D01*
X142200690Y-77055738D01*
X142200690Y-76079048D01*
X143407190Y-77285548D02*
X142717762Y-77285548D01*
X143062476Y-77285548D02*
X143062476Y-76079048D01*
X142947571Y-76251405D01*
X142832666Y-76366310D01*
X142717762Y-76423762D01*
X140362819Y-62439248D02*
X140362819Y-62726510D01*
X140075557Y-62611605D02*
X140362819Y-62726510D01*
X140650081Y-62611605D01*
X140190462Y-62956319D02*
X140362819Y-62726510D01*
X140535176Y-62956319D01*
D16*
X132611905Y-48458381D02*
X132611905Y-47458381D01*
X132850000Y-47458381D01*
X132992858Y-47506000D01*
X133088096Y-47601238D01*
X133135715Y-47696476D01*
X133183334Y-47886952D01*
X133183334Y-48029810D01*
X133135715Y-48220286D01*
X133088096Y-48315524D01*
X132992858Y-48410762D01*
X132850000Y-48458381D01*
X132611905Y-48458381D01*
X134135715Y-48458381D02*
X133564286Y-48458381D01*
X133850000Y-48458381D02*
X133850000Y-47458381D01*
X133754762Y-47601238D01*
X133659524Y-47696476D01*
X133564286Y-47744095D01*
X132611905Y-51506381D02*
X132611905Y-50506381D01*
X132850000Y-50506381D01*
X132992858Y-50554000D01*
X133088096Y-50649238D01*
X133135715Y-50744476D01*
X133183334Y-50934952D01*
X133183334Y-51077810D01*
X133135715Y-51268286D01*
X133088096Y-51363524D01*
X132992858Y-51458762D01*
X132850000Y-51506381D01*
X132611905Y-51506381D01*
X133564286Y-50601619D02*
X133611905Y-50554000D01*
X133707143Y-50506381D01*
X133945239Y-50506381D01*
X134040477Y-50554000D01*
X134088096Y-50601619D01*
X134135715Y-50696857D01*
X134135715Y-50792095D01*
X134088096Y-50934952D01*
X133516667Y-51506381D01*
X134135715Y-51506381D01*
X127531905Y-70957381D02*
X127531905Y-69957381D01*
X127912858Y-69957381D01*
X128008096Y-70005000D01*
X128055715Y-70052619D01*
X128103334Y-70147857D01*
X128103334Y-70290714D01*
X128055715Y-70385952D01*
X128008096Y-70433571D01*
X127912858Y-70481190D01*
X127531905Y-70481190D01*
X128484286Y-70052619D02*
X128531905Y-70005000D01*
X128627143Y-69957381D01*
X128865239Y-69957381D01*
X128960477Y-70005000D01*
X129008096Y-70052619D01*
X129055715Y-70147857D01*
X129055715Y-70243095D01*
X129008096Y-70385952D01*
X128436667Y-70957381D01*
X129055715Y-70957381D01*
X143533905Y-83510381D02*
X143533905Y-82510381D01*
X143914858Y-82510381D01*
X144010096Y-82558000D01*
X144057715Y-82605619D01*
X144105334Y-82700857D01*
X144105334Y-82843714D01*
X144057715Y-82938952D01*
X144010096Y-82986571D01*
X143914858Y-83034190D01*
X143533905Y-83034190D01*
X145057715Y-83510381D02*
X144486286Y-83510381D01*
X144772000Y-83510381D02*
X144772000Y-82510381D01*
X144676762Y-82653238D01*
X144581524Y-82748476D01*
X144486286Y-82796095D01*
D19*
X131787295Y-56610552D02*
X131748590Y-56591200D01*
X131709886Y-56552495D01*
X131651829Y-56494438D01*
X131613124Y-56475086D01*
X131574419Y-56475086D01*
X131593771Y-56571848D02*
X131555067Y-56552495D01*
X131516362Y-56513790D01*
X131497010Y-56436381D01*
X131497010Y-56300914D01*
X131516362Y-56223505D01*
X131555067Y-56184800D01*
X131593771Y-56165448D01*
X131671181Y-56165448D01*
X131709886Y-56184800D01*
X131748590Y-56223505D01*
X131767943Y-56300914D01*
X131767943Y-56436381D01*
X131748590Y-56513790D01*
X131709886Y-56552495D01*
X131671181Y-56571848D01*
X131593771Y-56571848D01*
X132154990Y-56571848D02*
X131922762Y-56571848D01*
X132038876Y-56571848D02*
X132038876Y-56165448D01*
X132000171Y-56223505D01*
X131961466Y-56262210D01*
X131922762Y-56281562D01*
X135216295Y-56610552D02*
X135177590Y-56591200D01*
X135138886Y-56552495D01*
X135080829Y-56494438D01*
X135042124Y-56475086D01*
X135003419Y-56475086D01*
X135022771Y-56571848D02*
X134984067Y-56552495D01*
X134945362Y-56513790D01*
X134926010Y-56436381D01*
X134926010Y-56300914D01*
X134945362Y-56223505D01*
X134984067Y-56184800D01*
X135022771Y-56165448D01*
X135100181Y-56165448D01*
X135138886Y-56184800D01*
X135177590Y-56223505D01*
X135196943Y-56300914D01*
X135196943Y-56436381D01*
X135177590Y-56513790D01*
X135138886Y-56552495D01*
X135100181Y-56571848D01*
X135022771Y-56571848D01*
X135351762Y-56204152D02*
X135371114Y-56184800D01*
X135409819Y-56165448D01*
X135506581Y-56165448D01*
X135545285Y-56184800D01*
X135564638Y-56204152D01*
X135583990Y-56242857D01*
X135583990Y-56281562D01*
X135564638Y-56339619D01*
X135332409Y-56571848D01*
X135583990Y-56571848D01*
D16*
X136485334Y-75795143D02*
X136437715Y-75842762D01*
X136294858Y-75890381D01*
X136199620Y-75890381D01*
X136056762Y-75842762D01*
X135961524Y-75747524D01*
X135913905Y-75652286D01*
X135866286Y-75461810D01*
X135866286Y-75318952D01*
X135913905Y-75128476D01*
X135961524Y-75033238D01*
X136056762Y-74938000D01*
X136199620Y-74890381D01*
X136294858Y-74890381D01*
X136437715Y-74938000D01*
X136485334Y-74985619D01*
X136866286Y-74985619D02*
X136913905Y-74938000D01*
X137009143Y-74890381D01*
X137247239Y-74890381D01*
X137342477Y-74938000D01*
X137390096Y-74985619D01*
X137437715Y-75080857D01*
X137437715Y-75176095D01*
X137390096Y-75318952D01*
X136818667Y-75890381D01*
X137437715Y-75890381D01*
X136358334Y-73255143D02*
X136310715Y-73302762D01*
X136167858Y-73350381D01*
X136072620Y-73350381D01*
X135929762Y-73302762D01*
X135834524Y-73207524D01*
X135786905Y-73112286D01*
X135739286Y-72921810D01*
X135739286Y-72778952D01*
X135786905Y-72588476D01*
X135834524Y-72493238D01*
X135929762Y-72398000D01*
X136072620Y-72350381D01*
X136167858Y-72350381D01*
X136310715Y-72398000D01*
X136358334Y-72445619D01*
X136691667Y-72350381D02*
X137310715Y-72350381D01*
X136977381Y-72731333D01*
X137120239Y-72731333D01*
X137215477Y-72778952D01*
X137263096Y-72826571D01*
X137310715Y-72921810D01*
X137310715Y-73159905D01*
X137263096Y-73255143D01*
X137215477Y-73302762D01*
X137120239Y-73350381D01*
X136834524Y-73350381D01*
X136739286Y-73302762D01*
X136691667Y-73255143D01*
X136485334Y-70461143D02*
X136437715Y-70508762D01*
X136294858Y-70556381D01*
X136199620Y-70556381D01*
X136056762Y-70508762D01*
X135961524Y-70413524D01*
X135913905Y-70318286D01*
X135866286Y-70127810D01*
X135866286Y-69984952D01*
X135913905Y-69794476D01*
X135961524Y-69699238D01*
X136056762Y-69604000D01*
X136199620Y-69556381D01*
X136294858Y-69556381D01*
X136437715Y-69604000D01*
X136485334Y-69651619D01*
X137342477Y-69889714D02*
X137342477Y-70556381D01*
X137104381Y-69508762D02*
X136866286Y-70223048D01*
X137485334Y-70223048D01*
X145502334Y-80308143D02*
X145454715Y-80355762D01*
X145311858Y-80403381D01*
X145216620Y-80403381D01*
X145073762Y-80355762D01*
X144978524Y-80260524D01*
X144930905Y-80165286D01*
X144883286Y-79974810D01*
X144883286Y-79831952D01*
X144930905Y-79641476D01*
X144978524Y-79546238D01*
X145073762Y-79451000D01*
X145216620Y-79403381D01*
X145311858Y-79403381D01*
X145454715Y-79451000D01*
X145502334Y-79498619D01*
X146407096Y-79403381D02*
X145930905Y-79403381D01*
X145883286Y-79879571D01*
X145930905Y-79831952D01*
X146026143Y-79784333D01*
X146264239Y-79784333D01*
X146359477Y-79831952D01*
X146407096Y-79879571D01*
X146454715Y-79974810D01*
X146454715Y-80212905D01*
X146407096Y-80308143D01*
X146359477Y-80355762D01*
X146264239Y-80403381D01*
X146026143Y-80403381D01*
X145930905Y-80355762D01*
X145883286Y-80308143D01*
X136485334Y-68048143D02*
X136437715Y-68095762D01*
X136294858Y-68143381D01*
X136199620Y-68143381D01*
X136056762Y-68095762D01*
X135961524Y-68000524D01*
X135913905Y-67905286D01*
X135866286Y-67714810D01*
X135866286Y-67571952D01*
X135913905Y-67381476D01*
X135961524Y-67286238D01*
X136056762Y-67191000D01*
X136199620Y-67143381D01*
X136294858Y-67143381D01*
X136437715Y-67191000D01*
X136485334Y-67238619D01*
X137342477Y-67143381D02*
X137152000Y-67143381D01*
X137056762Y-67191000D01*
X137009143Y-67238619D01*
X136913905Y-67381476D01*
X136866286Y-67571952D01*
X136866286Y-67952905D01*
X136913905Y-68048143D01*
X136961524Y-68095762D01*
X137056762Y-68143381D01*
X137247239Y-68143381D01*
X137342477Y-68095762D01*
X137390096Y-68048143D01*
X137437715Y-67952905D01*
X137437715Y-67714810D01*
X137390096Y-67619571D01*
X137342477Y-67571952D01*
X137247239Y-67524333D01*
X137056762Y-67524333D01*
X136961524Y-67571952D01*
X136913905Y-67619571D01*
X136866286Y-67714810D01*
X158218143Y-77636666D02*
X158265762Y-77684285D01*
X158313381Y-77827142D01*
X158313381Y-77922380D01*
X158265762Y-78065238D01*
X158170524Y-78160476D01*
X158075286Y-78208095D01*
X157884810Y-78255714D01*
X157741952Y-78255714D01*
X157551476Y-78208095D01*
X157456238Y-78160476D01*
X157361000Y-78065238D01*
X157313381Y-77922380D01*
X157313381Y-77827142D01*
X157361000Y-77684285D01*
X157408619Y-77636666D01*
X157313381Y-77303333D02*
X157313381Y-76636666D01*
X158313381Y-77065238D01*
X150911143Y-75604666D02*
X150958762Y-75652285D01*
X151006381Y-75795142D01*
X151006381Y-75890380D01*
X150958762Y-76033238D01*
X150863524Y-76128476D01*
X150768286Y-76176095D01*
X150577810Y-76223714D01*
X150434952Y-76223714D01*
X150244476Y-76176095D01*
X150149238Y-76128476D01*
X150054000Y-76033238D01*
X150006381Y-75890380D01*
X150006381Y-75795142D01*
X150054000Y-75652285D01*
X150101619Y-75604666D01*
X150434952Y-75033238D02*
X150387333Y-75128476D01*
X150339714Y-75176095D01*
X150244476Y-75223714D01*
X150196857Y-75223714D01*
X150101619Y-75176095D01*
X150054000Y-75128476D01*
X150006381Y-75033238D01*
X150006381Y-74842761D01*
X150054000Y-74747523D01*
X150101619Y-74699904D01*
X150196857Y-74652285D01*
X150244476Y-74652285D01*
X150339714Y-74699904D01*
X150387333Y-74747523D01*
X150434952Y-74842761D01*
X150434952Y-75033238D01*
X150482571Y-75128476D01*
X150530190Y-75176095D01*
X150625429Y-75223714D01*
X150815905Y-75223714D01*
X150911143Y-75176095D01*
X150958762Y-75128476D01*
X151006381Y-75033238D01*
X151006381Y-74842761D01*
X150958762Y-74747523D01*
X150911143Y-74699904D01*
X150815905Y-74652285D01*
X150625429Y-74652285D01*
X150530190Y-74699904D01*
X150482571Y-74747523D01*
X150434952Y-74842761D01*
X157710143Y-73572666D02*
X157757762Y-73620285D01*
X157805381Y-73763142D01*
X157805381Y-73858380D01*
X157757762Y-74001238D01*
X157662524Y-74096476D01*
X157567286Y-74144095D01*
X157376810Y-74191714D01*
X157233952Y-74191714D01*
X157043476Y-74144095D01*
X156948238Y-74096476D01*
X156853000Y-74001238D01*
X156805381Y-73858380D01*
X156805381Y-73763142D01*
X156853000Y-73620285D01*
X156900619Y-73572666D01*
X157805381Y-73096476D02*
X157805381Y-72906000D01*
X157757762Y-72810761D01*
X157710143Y-72763142D01*
X157567286Y-72667904D01*
X157376810Y-72620285D01*
X156995857Y-72620285D01*
X156900619Y-72667904D01*
X156853000Y-72715523D01*
X156805381Y-72810761D01*
X156805381Y-73001238D01*
X156853000Y-73096476D01*
X156900619Y-73144095D01*
X156995857Y-73191714D01*
X157233952Y-73191714D01*
X157329190Y-73144095D01*
X157376810Y-73096476D01*
X157424429Y-73001238D01*
X157424429Y-72810761D01*
X157376810Y-72715523D01*
X157329190Y-72667904D01*
X157233952Y-72620285D01*
X153324143Y-70365857D02*
X153371762Y-70413476D01*
X153419381Y-70556333D01*
X153419381Y-70651571D01*
X153371762Y-70794429D01*
X153276524Y-70889667D01*
X153181286Y-70937286D01*
X152990810Y-70984905D01*
X152847952Y-70984905D01*
X152657476Y-70937286D01*
X152562238Y-70889667D01*
X152467000Y-70794429D01*
X152419381Y-70651571D01*
X152419381Y-70556333D01*
X152467000Y-70413476D01*
X152514619Y-70365857D01*
X153419381Y-69413476D02*
X153419381Y-69984905D01*
X153419381Y-69699191D02*
X152419381Y-69699191D01*
X152562238Y-69794429D01*
X152657476Y-69889667D01*
X152705095Y-69984905D01*
X152419381Y-68794429D02*
X152419381Y-68699190D01*
X152467000Y-68603952D01*
X152514619Y-68556333D01*
X152609857Y-68508714D01*
X152800333Y-68461095D01*
X153038429Y-68461095D01*
X153228905Y-68508714D01*
X153324143Y-68556333D01*
X153371762Y-68603952D01*
X153419381Y-68699190D01*
X153419381Y-68794429D01*
X153371762Y-68889667D01*
X153324143Y-68937286D01*
X153228905Y-68984905D01*
X153038429Y-69032524D01*
X152800333Y-69032524D01*
X152609857Y-68984905D01*
X152514619Y-68937286D01*
X152467000Y-68889667D01*
X152419381Y-68794429D01*
X153324143Y-66682857D02*
X153371762Y-66730476D01*
X153419381Y-66873333D01*
X153419381Y-66968571D01*
X153371762Y-67111429D01*
X153276524Y-67206667D01*
X153181286Y-67254286D01*
X152990810Y-67301905D01*
X152847952Y-67301905D01*
X152657476Y-67254286D01*
X152562238Y-67206667D01*
X152467000Y-67111429D01*
X152419381Y-66968571D01*
X152419381Y-66873333D01*
X152467000Y-66730476D01*
X152514619Y-66682857D01*
X153419381Y-65730476D02*
X153419381Y-66301905D01*
X153419381Y-66016191D02*
X152419381Y-66016191D01*
X152562238Y-66111429D01*
X152657476Y-66206667D01*
X152705095Y-66301905D01*
X153419381Y-64778095D02*
X153419381Y-65349524D01*
X153419381Y-65063810D02*
X152419381Y-65063810D01*
X152562238Y-65159048D01*
X152657476Y-65254286D01*
X152705095Y-65349524D01*
X136993334Y-48585381D02*
X136660000Y-48109190D01*
X136421905Y-48585381D02*
X136421905Y-47585381D01*
X136802858Y-47585381D01*
X136898096Y-47633000D01*
X136945715Y-47680619D01*
X136993334Y-47775857D01*
X136993334Y-47918714D01*
X136945715Y-48013952D01*
X136898096Y-48061571D01*
X136802858Y-48109190D01*
X136421905Y-48109190D01*
X137945715Y-48585381D02*
X137374286Y-48585381D01*
X137660000Y-48585381D02*
X137660000Y-47585381D01*
X137564762Y-47728238D01*
X137469524Y-47823476D01*
X137374286Y-47871095D01*
X138898334Y-53284381D02*
X138565000Y-52808190D01*
X138326905Y-53284381D02*
X138326905Y-52284381D01*
X138707858Y-52284381D01*
X138803096Y-52332000D01*
X138850715Y-52379619D01*
X138898334Y-52474857D01*
X138898334Y-52617714D01*
X138850715Y-52712952D01*
X138803096Y-52760571D01*
X138707858Y-52808190D01*
X138326905Y-52808190D01*
X139279286Y-52379619D02*
X139326905Y-52332000D01*
X139422143Y-52284381D01*
X139660239Y-52284381D01*
X139755477Y-52332000D01*
X139803096Y-52379619D01*
X139850715Y-52474857D01*
X139850715Y-52570095D01*
X139803096Y-52712952D01*
X139231667Y-53284381D01*
X139850715Y-53284381D01*
X140422334Y-58110381D02*
X140089000Y-57634190D01*
X139850905Y-58110381D02*
X139850905Y-57110381D01*
X140231858Y-57110381D01*
X140327096Y-57158000D01*
X140374715Y-57205619D01*
X140422334Y-57300857D01*
X140422334Y-57443714D01*
X140374715Y-57538952D01*
X140327096Y-57586571D01*
X140231858Y-57634190D01*
X139850905Y-57634190D01*
X140755667Y-57110381D02*
X141374715Y-57110381D01*
X141041381Y-57491333D01*
X141184239Y-57491333D01*
X141279477Y-57538952D01*
X141327096Y-57586571D01*
X141374715Y-57681810D01*
X141374715Y-57919905D01*
X141327096Y-58015143D01*
X141279477Y-58062762D01*
X141184239Y-58110381D01*
X140898524Y-58110381D01*
X140803286Y-58062762D01*
X140755667Y-58015143D01*
X137882334Y-58110381D02*
X137549000Y-57634190D01*
X137310905Y-58110381D02*
X137310905Y-57110381D01*
X137691858Y-57110381D01*
X137787096Y-57158000D01*
X137834715Y-57205619D01*
X137882334Y-57300857D01*
X137882334Y-57443714D01*
X137834715Y-57538952D01*
X137787096Y-57586571D01*
X137691858Y-57634190D01*
X137310905Y-57634190D01*
X138739477Y-57443714D02*
X138739477Y-58110381D01*
X138501381Y-57062762D02*
X138263286Y-57777048D01*
X138882334Y-57777048D01*
X136485334Y-65603381D02*
X136152000Y-65127190D01*
X135913905Y-65603381D02*
X135913905Y-64603381D01*
X136294858Y-64603381D01*
X136390096Y-64651000D01*
X136437715Y-64698619D01*
X136485334Y-64793857D01*
X136485334Y-64936714D01*
X136437715Y-65031952D01*
X136390096Y-65079571D01*
X136294858Y-65127190D01*
X135913905Y-65127190D01*
X137390096Y-64603381D02*
X136913905Y-64603381D01*
X136866286Y-65079571D01*
X136913905Y-65031952D01*
X137009143Y-64984333D01*
X137247239Y-64984333D01*
X137342477Y-65031952D01*
X137390096Y-65079571D01*
X137437715Y-65174810D01*
X137437715Y-65412905D01*
X137390096Y-65508143D01*
X137342477Y-65555762D01*
X137247239Y-65603381D01*
X137009143Y-65603381D01*
X136913905Y-65555762D01*
X136866286Y-65508143D01*
M02*
