G04 #@! TF.FileFunction,Legend,Bot*
%FSLAX46Y46*%
G04 Gerber Fmt 4.6, Leading zero omitted, Abs format (unit mm)*
G04 Created by KiCad (PCBNEW (2015-05-26 BZR 5684)-product) date Thu 13 Aug 2015 05:18:35 PM PDT*
%MOMM*%
G01*
G04 APERTURE LIST*
%ADD10C,0.100000*%
%ADD11C,0.150000*%
%ADD12C,0.200000*%
G04 APERTURE END LIST*
D10*
D11*
X149479000Y-87884000D02*
X150622000Y-87884000D01*
X149479000Y-87249000D02*
X150622000Y-87249000D01*
X149479000Y-87884000D02*
X149479000Y-87249000D01*
D12*
X150622000Y-84170000D02*
X146812000Y-84170000D01*
X146812000Y-84170000D02*
X146812000Y-83470000D01*
X146812000Y-83470000D02*
X150622000Y-83470000D01*
X150622000Y-85440000D02*
X146812000Y-85440000D01*
X146812000Y-85440000D02*
X146812000Y-84740000D01*
X146812000Y-84740000D02*
X150622000Y-84740000D01*
X150622000Y-86710000D02*
X146812000Y-86710000D01*
X146812000Y-86710000D02*
X146812000Y-86010000D01*
X146812000Y-86010000D02*
X150622000Y-86010000D01*
X150622000Y-89250000D02*
X146812000Y-89250000D01*
X146812000Y-89250000D02*
X146812000Y-88550000D01*
X146812000Y-88550000D02*
X150622000Y-88550000D01*
X150622000Y-90520000D02*
X146812000Y-90520000D01*
X146812000Y-90520000D02*
X146812000Y-89820000D01*
X146812000Y-89820000D02*
X150622000Y-89820000D01*
X150622000Y-91790000D02*
X146812000Y-91790000D01*
X146812000Y-91790000D02*
X146812000Y-91090000D01*
X146812000Y-91090000D02*
X150622000Y-91090000D01*
X152527000Y-91440000D02*
G75*
G03X152527000Y-91440000I-635000J0D01*
G01*
X159893000Y-92710000D02*
X160528000Y-92710000D01*
X160528000Y-92710000D02*
X161163000Y-92075000D01*
X161163000Y-92075000D02*
X161163000Y-83185000D01*
X161163000Y-83185000D02*
X160528000Y-82550000D01*
X160528000Y-82550000D02*
X159893000Y-82550000D01*
X150622000Y-92710000D02*
X150622000Y-82550000D01*
X150622000Y-82550000D02*
X159893000Y-82550000D01*
X159893000Y-82550000D02*
X159893000Y-92710000D01*
X159893000Y-92710000D02*
X150622000Y-92710000D01*
D11*
X149479000Y-102616000D02*
X150622000Y-102616000D01*
X149479000Y-101981000D02*
X150622000Y-101981000D01*
X149479000Y-102616000D02*
X149479000Y-101981000D01*
D12*
X150622000Y-98902000D02*
X146812000Y-98902000D01*
X146812000Y-98902000D02*
X146812000Y-98202000D01*
X146812000Y-98202000D02*
X150622000Y-98202000D01*
X150622000Y-100172000D02*
X146812000Y-100172000D01*
X146812000Y-100172000D02*
X146812000Y-99472000D01*
X146812000Y-99472000D02*
X150622000Y-99472000D01*
X150622000Y-101442000D02*
X146812000Y-101442000D01*
X146812000Y-101442000D02*
X146812000Y-100742000D01*
X146812000Y-100742000D02*
X150622000Y-100742000D01*
X150622000Y-103982000D02*
X146812000Y-103982000D01*
X146812000Y-103982000D02*
X146812000Y-103282000D01*
X146812000Y-103282000D02*
X150622000Y-103282000D01*
X150622000Y-105252000D02*
X146812000Y-105252000D01*
X146812000Y-105252000D02*
X146812000Y-104552000D01*
X146812000Y-104552000D02*
X150622000Y-104552000D01*
X150622000Y-106522000D02*
X146812000Y-106522000D01*
X146812000Y-106522000D02*
X146812000Y-105822000D01*
X146812000Y-105822000D02*
X150622000Y-105822000D01*
X152527000Y-106172000D02*
G75*
G03X152527000Y-106172000I-635000J0D01*
G01*
X159893000Y-107442000D02*
X160528000Y-107442000D01*
X160528000Y-107442000D02*
X161163000Y-106807000D01*
X161163000Y-106807000D02*
X161163000Y-97917000D01*
X161163000Y-97917000D02*
X160528000Y-97282000D01*
X160528000Y-97282000D02*
X159893000Y-97282000D01*
X150622000Y-107442000D02*
X150622000Y-97282000D01*
X150622000Y-97282000D02*
X159893000Y-97282000D01*
X159893000Y-97282000D02*
X159893000Y-107442000D01*
X159893000Y-107442000D02*
X150622000Y-107442000D01*
D11*
X149479000Y-115824000D02*
X150622000Y-115824000D01*
X149479000Y-115189000D02*
X150622000Y-115189000D01*
X149479000Y-115824000D02*
X149479000Y-115189000D01*
D12*
X150622000Y-112110000D02*
X146812000Y-112110000D01*
X146812000Y-112110000D02*
X146812000Y-111410000D01*
X146812000Y-111410000D02*
X150622000Y-111410000D01*
X150622000Y-113380000D02*
X146812000Y-113380000D01*
X146812000Y-113380000D02*
X146812000Y-112680000D01*
X146812000Y-112680000D02*
X150622000Y-112680000D01*
X150622000Y-114650000D02*
X146812000Y-114650000D01*
X146812000Y-114650000D02*
X146812000Y-113950000D01*
X146812000Y-113950000D02*
X150622000Y-113950000D01*
X150622000Y-117190000D02*
X146812000Y-117190000D01*
X146812000Y-117190000D02*
X146812000Y-116490000D01*
X146812000Y-116490000D02*
X150622000Y-116490000D01*
X150622000Y-118460000D02*
X146812000Y-118460000D01*
X146812000Y-118460000D02*
X146812000Y-117760000D01*
X146812000Y-117760000D02*
X150622000Y-117760000D01*
X150622000Y-119730000D02*
X146812000Y-119730000D01*
X146812000Y-119730000D02*
X146812000Y-119030000D01*
X146812000Y-119030000D02*
X150622000Y-119030000D01*
X152527000Y-119380000D02*
G75*
G03X152527000Y-119380000I-635000J0D01*
G01*
X159893000Y-120650000D02*
X160528000Y-120650000D01*
X160528000Y-120650000D02*
X161163000Y-120015000D01*
X161163000Y-120015000D02*
X161163000Y-111125000D01*
X161163000Y-111125000D02*
X160528000Y-110490000D01*
X160528000Y-110490000D02*
X159893000Y-110490000D01*
X150622000Y-120650000D02*
X150622000Y-110490000D01*
X150622000Y-110490000D02*
X159893000Y-110490000D01*
X159893000Y-110490000D02*
X159893000Y-120650000D01*
X159893000Y-120650000D02*
X150622000Y-120650000D01*
D11*
X145034000Y-93573600D02*
X139827000Y-93573600D01*
X139827000Y-93573600D02*
X139827000Y-83566000D01*
X139827000Y-83566000D02*
X145034000Y-83566000D01*
X145034000Y-83566000D02*
X145034000Y-93573600D01*
X145034000Y-107035600D02*
X139827000Y-107035600D01*
X139827000Y-107035600D02*
X139827000Y-97028000D01*
X139827000Y-97028000D02*
X145034000Y-97028000D01*
X145034000Y-97028000D02*
X145034000Y-107035600D01*
X169759000Y-115832000D02*
X169759000Y-116832000D01*
X171109000Y-116832000D02*
X171109000Y-115832000D01*
X145034000Y-122275600D02*
X139827000Y-122275600D01*
X139827000Y-122275600D02*
X139827000Y-112268000D01*
X139827000Y-112268000D02*
X145034000Y-112268000D01*
X145034000Y-112268000D02*
X145034000Y-122275600D01*
D12*
X158937476Y-87509048D02*
X158877000Y-87388095D01*
X158756048Y-87267143D01*
X158574619Y-87085714D01*
X158514143Y-86964762D01*
X158514143Y-86843810D01*
X158816524Y-86904286D02*
X158756048Y-86783333D01*
X158635095Y-86662381D01*
X158393190Y-86601905D01*
X157969857Y-86601905D01*
X157727952Y-86662381D01*
X157607000Y-86783333D01*
X157546524Y-86904286D01*
X157546524Y-87146190D01*
X157607000Y-87267143D01*
X157727952Y-87388095D01*
X157969857Y-87448571D01*
X158393190Y-87448571D01*
X158635095Y-87388095D01*
X158756048Y-87267143D01*
X158816524Y-87146190D01*
X158816524Y-86904286D01*
X157667476Y-87932381D02*
X157607000Y-87992857D01*
X157546524Y-88113809D01*
X157546524Y-88416190D01*
X157607000Y-88537143D01*
X157667476Y-88597619D01*
X157788429Y-88658095D01*
X157909381Y-88658095D01*
X158090810Y-88597619D01*
X158816524Y-87871905D01*
X158816524Y-88658095D01*
X158937476Y-102241048D02*
X158877000Y-102120095D01*
X158756048Y-101999143D01*
X158574619Y-101817714D01*
X158514143Y-101696762D01*
X158514143Y-101575810D01*
X158816524Y-101636286D02*
X158756048Y-101515333D01*
X158635095Y-101394381D01*
X158393190Y-101333905D01*
X157969857Y-101333905D01*
X157727952Y-101394381D01*
X157607000Y-101515333D01*
X157546524Y-101636286D01*
X157546524Y-101878190D01*
X157607000Y-101999143D01*
X157727952Y-102120095D01*
X157969857Y-102180571D01*
X158393190Y-102180571D01*
X158635095Y-102120095D01*
X158756048Y-101999143D01*
X158816524Y-101878190D01*
X158816524Y-101636286D01*
X157969857Y-103269143D02*
X158816524Y-103269143D01*
X157486048Y-102966762D02*
X158393190Y-102664381D01*
X158393190Y-103450571D01*
X158937476Y-115449048D02*
X158877000Y-115328095D01*
X158756048Y-115207143D01*
X158574619Y-115025714D01*
X158514143Y-114904762D01*
X158514143Y-114783810D01*
X158816524Y-114844286D02*
X158756048Y-114723333D01*
X158635095Y-114602381D01*
X158393190Y-114541905D01*
X157969857Y-114541905D01*
X157727952Y-114602381D01*
X157607000Y-114723333D01*
X157546524Y-114844286D01*
X157546524Y-115086190D01*
X157607000Y-115207143D01*
X157727952Y-115328095D01*
X157969857Y-115388571D01*
X158393190Y-115388571D01*
X158635095Y-115328095D01*
X158756048Y-115207143D01*
X158816524Y-115086190D01*
X158816524Y-114844286D01*
X157546524Y-116477143D02*
X157546524Y-116235238D01*
X157607000Y-116114286D01*
X157667476Y-116053809D01*
X157848905Y-115932857D01*
X158090810Y-115872381D01*
X158574619Y-115872381D01*
X158695571Y-115932857D01*
X158756048Y-115993333D01*
X158816524Y-116114286D01*
X158816524Y-116356190D01*
X158756048Y-116477143D01*
X158695571Y-116537619D01*
X158574619Y-116598095D01*
X158272238Y-116598095D01*
X158151286Y-116537619D01*
X158090810Y-116477143D01*
X158030333Y-116356190D01*
X158030333Y-116114286D01*
X158090810Y-115993333D01*
X158151286Y-115932857D01*
X158272238Y-115872381D01*
D11*
X138374381Y-88860334D02*
X137898190Y-88527000D01*
X138374381Y-88288905D02*
X137374381Y-88288905D01*
X137374381Y-88669858D01*
X137422000Y-88765096D01*
X137469619Y-88812715D01*
X137564857Y-88860334D01*
X137707714Y-88860334D01*
X137802952Y-88812715D01*
X137850571Y-88765096D01*
X137898190Y-88669858D01*
X137898190Y-88288905D01*
X137374381Y-89765096D02*
X137374381Y-89288905D01*
X137850571Y-89241286D01*
X137802952Y-89288905D01*
X137755333Y-89384143D01*
X137755333Y-89622239D01*
X137802952Y-89717477D01*
X137850571Y-89765096D01*
X137945810Y-89812715D01*
X138183905Y-89812715D01*
X138279143Y-89765096D01*
X138326762Y-89717477D01*
X138374381Y-89622239D01*
X138374381Y-89384143D01*
X138326762Y-89288905D01*
X138279143Y-89241286D01*
X138374381Y-101846143D02*
X137898190Y-101512809D01*
X138374381Y-101274714D02*
X137374381Y-101274714D01*
X137374381Y-101655667D01*
X137422000Y-101750905D01*
X137469619Y-101798524D01*
X137564857Y-101846143D01*
X137707714Y-101846143D01*
X137802952Y-101798524D01*
X137850571Y-101750905D01*
X137898190Y-101655667D01*
X137898190Y-101274714D01*
X138374381Y-102798524D02*
X138374381Y-102227095D01*
X138374381Y-102512809D02*
X137374381Y-102512809D01*
X137517238Y-102417571D01*
X137612476Y-102322333D01*
X137660095Y-102227095D01*
X137469619Y-103179476D02*
X137422000Y-103227095D01*
X137374381Y-103322333D01*
X137374381Y-103560429D01*
X137422000Y-103655667D01*
X137469619Y-103703286D01*
X137564857Y-103750905D01*
X137660095Y-103750905D01*
X137802952Y-103703286D01*
X138374381Y-103131857D01*
X138374381Y-103750905D01*
X172786381Y-115689143D02*
X172310190Y-115355809D01*
X172786381Y-115117714D02*
X171786381Y-115117714D01*
X171786381Y-115498667D01*
X171834000Y-115593905D01*
X171881619Y-115641524D01*
X171976857Y-115689143D01*
X172119714Y-115689143D01*
X172214952Y-115641524D01*
X172262571Y-115593905D01*
X172310190Y-115498667D01*
X172310190Y-115117714D01*
X172786381Y-116641524D02*
X172786381Y-116070095D01*
X172786381Y-116355809D02*
X171786381Y-116355809D01*
X171929238Y-116260571D01*
X172024476Y-116165333D01*
X172072095Y-116070095D01*
X171786381Y-116974857D02*
X171786381Y-117593905D01*
X172167333Y-117260571D01*
X172167333Y-117403429D01*
X172214952Y-117498667D01*
X172262571Y-117546286D01*
X172357810Y-117593905D01*
X172595905Y-117593905D01*
X172691143Y-117546286D01*
X172738762Y-117498667D01*
X172786381Y-117403429D01*
X172786381Y-117117714D01*
X172738762Y-117022476D01*
X172691143Y-116974857D01*
X138374381Y-117086143D02*
X137898190Y-116752809D01*
X138374381Y-116514714D02*
X137374381Y-116514714D01*
X137374381Y-116895667D01*
X137422000Y-116990905D01*
X137469619Y-117038524D01*
X137564857Y-117086143D01*
X137707714Y-117086143D01*
X137802952Y-117038524D01*
X137850571Y-116990905D01*
X137898190Y-116895667D01*
X137898190Y-116514714D01*
X138374381Y-118038524D02*
X138374381Y-117467095D01*
X138374381Y-117752809D02*
X137374381Y-117752809D01*
X137517238Y-117657571D01*
X137612476Y-117562333D01*
X137660095Y-117467095D01*
X138374381Y-118514714D02*
X138374381Y-118705190D01*
X138326762Y-118800429D01*
X138279143Y-118848048D01*
X138136286Y-118943286D01*
X137945810Y-118990905D01*
X137564857Y-118990905D01*
X137469619Y-118943286D01*
X137422000Y-118895667D01*
X137374381Y-118800429D01*
X137374381Y-118609952D01*
X137422000Y-118514714D01*
X137469619Y-118467095D01*
X137564857Y-118419476D01*
X137802952Y-118419476D01*
X137898190Y-118467095D01*
X137945810Y-118514714D01*
X137993429Y-118609952D01*
X137993429Y-118800429D01*
X137945810Y-118895667D01*
X137898190Y-118943286D01*
X137802952Y-118990905D01*
M02*
