G04 #@! TF.FileFunction,Copper,L1,Top,Signal*
%FSLAX46Y46*%
G04 Gerber Fmt 4.6, Leading zero omitted, Abs format (unit mm)*
G04 Created by KiCad (PCBNEW (2015-07-25 BZR 5993)-product) date Fri 31 Jul 2015 06:39:50 PM PDT*
%MOMM*%
G01*
G04 APERTURE LIST*
%ADD10C,0.100000*%
%ADD11R,1.250000X1.000000*%
%ADD12R,1.000000X1.250000*%
%ADD13R,2.032000X1.727200*%
%ADD14O,2.032000X1.727200*%
%ADD15R,0.700000X1.300000*%
%ADD16R,1.676400X0.279400*%
%ADD17R,3.479800X4.419600*%
%ADD18R,0.800000X0.750000*%
%ADD19R,0.750000X0.800000*%
%ADD20C,0.600000*%
%ADD21C,0.250000*%
%ADD22C,0.254000*%
G04 APERTURE END LIST*
D10*
D11*
X216154000Y-74660000D03*
X216154000Y-72660000D03*
X218694000Y-81010000D03*
X218694000Y-79010000D03*
X217932000Y-90662000D03*
X217932000Y-88662000D03*
X202438000Y-85868000D03*
X202438000Y-87868000D03*
D12*
X210296000Y-86106000D03*
X208296000Y-86106000D03*
D13*
X193294000Y-54356000D03*
D14*
X193294000Y-56896000D03*
X193294000Y-59436000D03*
X193294000Y-61976000D03*
X193294000Y-64516000D03*
X193294000Y-67056000D03*
X193294000Y-69596000D03*
X193294000Y-72136000D03*
X193294000Y-74676000D03*
D13*
X193294000Y-81026000D03*
D14*
X193294000Y-83566000D03*
X193294000Y-86106000D03*
X193294000Y-88646000D03*
X193294000Y-91186000D03*
X193294000Y-93726000D03*
X193294000Y-96266000D03*
X193294000Y-98806000D03*
X193294000Y-101346000D03*
D13*
X221742000Y-54356000D03*
D14*
X221742000Y-56896000D03*
X221742000Y-59436000D03*
X221742000Y-61976000D03*
X221742000Y-64516000D03*
X221742000Y-67056000D03*
X221742000Y-69596000D03*
X221742000Y-72136000D03*
X221742000Y-74676000D03*
D13*
X221742000Y-81026000D03*
D14*
X221742000Y-83566000D03*
X221742000Y-86106000D03*
X221742000Y-88646000D03*
X221742000Y-91186000D03*
X221742000Y-93726000D03*
X221742000Y-96266000D03*
X221742000Y-98806000D03*
X221742000Y-101346000D03*
D15*
X203134000Y-69596000D03*
X201234000Y-69596000D03*
X204150000Y-67310000D03*
X202250000Y-67310000D03*
D16*
X203339700Y-72228000D03*
X203339700Y-72727997D03*
X203339700Y-73227997D03*
X203339700Y-73727997D03*
X203339700Y-74227994D03*
X203339700Y-74727994D03*
X203339700Y-75227994D03*
X203339700Y-75727991D03*
X203339700Y-76227991D03*
X203339700Y-76727991D03*
X203339700Y-77227987D03*
X203339700Y-77728012D03*
X203339700Y-78227988D03*
X203339700Y-78728013D03*
X203339700Y-79228009D03*
X203339700Y-79728009D03*
X203339700Y-80228009D03*
X203339700Y-80728006D03*
X203339700Y-81228006D03*
X203339700Y-81728006D03*
X203339700Y-82228003D03*
X203339700Y-82728003D03*
X203339700Y-83228003D03*
X203339700Y-83728000D03*
X210680300Y-83728000D03*
X210680300Y-83228003D03*
X210680300Y-82728003D03*
X210680300Y-82228003D03*
X210680300Y-81728006D03*
X210680300Y-81228006D03*
X210680300Y-80728006D03*
X210680300Y-80228009D03*
X210680300Y-79728009D03*
X210680300Y-79228009D03*
X210680300Y-78728013D03*
X210680300Y-78227988D03*
X210680300Y-77728012D03*
X210680300Y-77227987D03*
X210680300Y-76727991D03*
X210680300Y-76227991D03*
X210680300Y-75727991D03*
X210680300Y-75227994D03*
X210680300Y-74727994D03*
X210680300Y-74227994D03*
X210680300Y-73727997D03*
X210680300Y-73227997D03*
X210680300Y-72727997D03*
X210680300Y-72228000D03*
D17*
X207010000Y-77978000D03*
D18*
X197346000Y-77216000D03*
X195846000Y-77216000D03*
X197346000Y-75438000D03*
X195846000Y-75438000D03*
D19*
X199136000Y-83324000D03*
X199136000Y-84824000D03*
D20*
X207010000Y-77978000D03*
X206502000Y-88646000D03*
X195834000Y-73914000D03*
X199136000Y-86614000D03*
D21*
X216154000Y-74660000D02*
X217662000Y-74660000D01*
X220218000Y-71120000D02*
X221742000Y-69596000D01*
X220218000Y-72104000D02*
X220218000Y-71120000D01*
X217662000Y-74660000D02*
X220218000Y-72104000D01*
X216154000Y-74660000D02*
X216678000Y-74660000D01*
X210680300Y-75227994D02*
X215586006Y-75227994D01*
X215586006Y-75227994D02*
X216154000Y-74660000D01*
X210680300Y-74227994D02*
X212792006Y-74227994D01*
X214360000Y-72660000D02*
X216154000Y-72660000D01*
X212792006Y-74227994D02*
X214360000Y-72660000D01*
X210680300Y-77728012D02*
X214380012Y-77728012D01*
X217154000Y-81010000D02*
X218694000Y-81010000D01*
X216916000Y-80772000D02*
X217154000Y-81010000D01*
X216916000Y-80264000D02*
X216916000Y-80772000D01*
X214380012Y-77728012D02*
X216916000Y-80264000D01*
X218694000Y-81010000D02*
X221250000Y-83566000D01*
X221250000Y-83566000D02*
X221742000Y-83566000D01*
X210680300Y-76727991D02*
X215118009Y-76727991D01*
X217400018Y-79010000D02*
X218694000Y-79010000D01*
X215118009Y-76727991D02*
X217400018Y-79010000D01*
X210680300Y-80228009D02*
X212816009Y-80228009D01*
X213106000Y-80518000D02*
X212852000Y-80264000D01*
X214376000Y-81788000D02*
X214376000Y-87884000D01*
X217154000Y-90662000D02*
X214376000Y-87884000D01*
X217154000Y-90662000D02*
X217932000Y-90662000D01*
X214376000Y-81788000D02*
X213106000Y-80518000D01*
X212816009Y-80228009D02*
X212852000Y-80264000D01*
X217932000Y-90662000D02*
X217932000Y-91186000D01*
X220472000Y-93726000D02*
X221742000Y-93726000D01*
X217932000Y-91186000D02*
X220472000Y-93726000D01*
X210680300Y-79228009D02*
X213340009Y-79228009D01*
X215392000Y-86122000D02*
X217932000Y-88662000D01*
X215392000Y-81280000D02*
X215392000Y-86122000D01*
X213340009Y-79228009D02*
X215392000Y-81280000D01*
X203339700Y-83228003D02*
X201759997Y-83228003D01*
X201422000Y-84852000D02*
X202438000Y-85868000D01*
X201422000Y-83566000D02*
X201422000Y-84852000D01*
X201759997Y-83228003D02*
X201422000Y-83566000D01*
X203339700Y-83728000D02*
X202276000Y-83728000D01*
X202276000Y-83728000D02*
X201930000Y-84074000D01*
X203339700Y-83728000D02*
X203339700Y-84467700D01*
X203339700Y-84467700D02*
X203708000Y-84836000D01*
X202438000Y-87868000D02*
X205724000Y-87868000D01*
X205724000Y-87868000D02*
X206502000Y-88646000D01*
X195846000Y-75438000D02*
X195846000Y-73926000D01*
X195846000Y-73926000D02*
X195834000Y-73914000D01*
X199136000Y-84824000D02*
X199136000Y-86614000D01*
X199136000Y-83324000D02*
X199136000Y-82550000D01*
X200457994Y-81228006D02*
X203339700Y-81228006D01*
X199136000Y-82550000D02*
X200457994Y-81228006D01*
X203339700Y-76227991D02*
X198655991Y-76227991D01*
X197866000Y-75438000D02*
X197346000Y-75438000D01*
X198655991Y-76227991D02*
X197866000Y-75438000D01*
X221742000Y-101346000D02*
X219202000Y-101346000D01*
X210296000Y-92440000D02*
X210296000Y-86106000D01*
X219202000Y-101346000D02*
X210296000Y-92440000D01*
X210680300Y-83728000D02*
X210680300Y-85721700D01*
X197346000Y-77216000D02*
X203327713Y-77216000D01*
X203327713Y-77216000D02*
X203339700Y-77227987D01*
X203339700Y-76727991D02*
X198139991Y-76727991D01*
X196608000Y-76454000D02*
X195846000Y-77216000D01*
X197866000Y-76454000D02*
X196608000Y-76454000D01*
X198139991Y-76727991D02*
X197866000Y-76454000D01*
X202184000Y-66040000D02*
X202184000Y-67244000D01*
X202184000Y-67244000D02*
X202250000Y-67310000D01*
X203339700Y-72228000D02*
X202530000Y-72228000D01*
X202530000Y-72228000D02*
X202184000Y-71882000D01*
X202184000Y-71882000D02*
X202184000Y-66040000D01*
X202184000Y-66040000D02*
X202184000Y-63246000D01*
X202184000Y-63246000D02*
X193294000Y-54356000D01*
X201168000Y-70866000D02*
X201168000Y-69662000D01*
X201168000Y-69662000D02*
X201234000Y-69596000D01*
X203339700Y-72727997D02*
X201759997Y-72727997D01*
X201168000Y-64770000D02*
X193294000Y-56896000D01*
X201168000Y-72136000D02*
X201168000Y-70866000D01*
X201168000Y-70866000D02*
X201168000Y-64770000D01*
X201759997Y-72727997D02*
X201168000Y-72136000D01*
X203339700Y-73727997D02*
X200981997Y-73727997D01*
X194818000Y-61976000D02*
X193294000Y-61976000D01*
X199644000Y-66802000D02*
X194818000Y-61976000D01*
X199644000Y-72390000D02*
X199644000Y-66802000D01*
X200981997Y-73727997D02*
X199644000Y-72390000D01*
X203339700Y-74227994D02*
X200465994Y-74227994D01*
X196088000Y-64516000D02*
X193294000Y-64516000D01*
X198882000Y-67310000D02*
X196088000Y-64516000D01*
X198882000Y-72644000D02*
X198882000Y-67310000D01*
X200465994Y-74227994D02*
X198882000Y-72644000D01*
X203339700Y-74727994D02*
X200203994Y-74727994D01*
X197104000Y-67056000D02*
X193294000Y-67056000D01*
X198120000Y-68072000D02*
X197104000Y-67056000D01*
X198120000Y-72644000D02*
X198120000Y-68072000D01*
X200203994Y-74727994D02*
X198120000Y-72644000D01*
X203339700Y-75227994D02*
X199687994Y-75227994D01*
X196342000Y-69596000D02*
X193294000Y-69596000D01*
X197358000Y-70612000D02*
X196342000Y-69596000D01*
X197358000Y-72898000D02*
X197358000Y-70612000D01*
X199687994Y-75227994D02*
X197358000Y-72898000D01*
X203339700Y-75727991D02*
X199171991Y-75727991D01*
X195580000Y-72136000D02*
X193294000Y-72136000D01*
X199171991Y-75727991D02*
X195580000Y-72136000D01*
X203339700Y-77728012D02*
X198632012Y-77728012D01*
X193294000Y-77216000D02*
X193294000Y-74676000D01*
X194310000Y-78232000D02*
X193294000Y-77216000D01*
X198128024Y-78232000D02*
X194310000Y-78232000D01*
X198632012Y-77728012D02*
X198128024Y-78232000D01*
X203339700Y-73227997D02*
X201497997Y-73227997D01*
X200406000Y-66548000D02*
X193294000Y-59436000D01*
X200406000Y-72136000D02*
X200406000Y-66548000D01*
X201497997Y-73227997D02*
X200406000Y-72136000D01*
X203339700Y-78227988D02*
X198886012Y-78227988D01*
X196088000Y-81026000D02*
X193294000Y-81026000D01*
X198886012Y-78227988D02*
X196088000Y-81026000D01*
X203339700Y-78728013D02*
X199147987Y-78728013D01*
X199147987Y-78728013D02*
X194310000Y-83566000D01*
X194310000Y-83566000D02*
X193294000Y-83566000D01*
X203339700Y-79228009D02*
X199409991Y-79228009D01*
X194818000Y-86106000D02*
X193294000Y-86106000D01*
X196342000Y-84582000D02*
X194818000Y-86106000D01*
X196342000Y-82296000D02*
X196342000Y-84582000D01*
X199409991Y-79228009D02*
X196342000Y-82296000D01*
X194056000Y-86106000D02*
X193294000Y-86106000D01*
X203339700Y-79728009D02*
X199671991Y-79728009D01*
X196850000Y-85090000D02*
X193294000Y-88646000D01*
X196850000Y-82550000D02*
X196850000Y-85090000D01*
X199671991Y-79728009D02*
X196850000Y-82550000D01*
X203339700Y-80228009D02*
X199933991Y-80228009D01*
X197358000Y-87122000D02*
X193294000Y-91186000D01*
X197358000Y-82804000D02*
X197358000Y-87122000D01*
X199933991Y-80228009D02*
X197358000Y-82804000D01*
X203339700Y-80728006D02*
X200195994Y-80728006D01*
X195072000Y-93726000D02*
X193294000Y-93726000D01*
X197866000Y-90932000D02*
X195072000Y-93726000D01*
X197866000Y-83058000D02*
X197866000Y-90932000D01*
X200195994Y-80728006D02*
X197866000Y-83058000D01*
X203339700Y-82228003D02*
X200981997Y-82228003D01*
X200152000Y-91948000D02*
X193294000Y-98806000D01*
X200152000Y-83058000D02*
X200152000Y-91948000D01*
X200981997Y-82228003D02*
X200152000Y-83058000D01*
X203339700Y-82728003D02*
X201243997Y-82728003D01*
X200914000Y-93726000D02*
X193294000Y-101346000D01*
X200914000Y-83058000D02*
X200914000Y-93726000D01*
X201243997Y-82728003D02*
X200914000Y-83058000D01*
X210680300Y-73727997D02*
X212276003Y-73727997D01*
X213868000Y-72136000D02*
X213868000Y-67310000D01*
X212276003Y-73727997D02*
X213868000Y-72136000D01*
X203339700Y-81728006D02*
X204529994Y-81728006D01*
X204150000Y-70292000D02*
X204150000Y-67310000D01*
X204724000Y-70866000D02*
X204150000Y-70292000D01*
X204724000Y-81534000D02*
X204724000Y-70866000D01*
X204529994Y-81728006D02*
X204724000Y-81534000D01*
X203134000Y-69596000D02*
X203134000Y-68326000D01*
X203134000Y-68326000D02*
X204150000Y-67310000D01*
X204150000Y-67310000D02*
X213868000Y-67310000D01*
X213868000Y-67310000D02*
X221742000Y-59436000D01*
X210680300Y-74727994D02*
X213816006Y-74727994D01*
X219710000Y-69088000D02*
X221742000Y-67056000D01*
X219710000Y-70866000D02*
X219710000Y-69088000D01*
X216916000Y-73660000D02*
X219710000Y-70866000D01*
X214884000Y-73660000D02*
X216916000Y-73660000D01*
X213816006Y-74727994D02*
X214884000Y-73660000D01*
X210680300Y-75727991D02*
X218404009Y-75727991D01*
X218404009Y-75727991D02*
X221742000Y-72390000D01*
X221742000Y-72390000D02*
X221742000Y-72136000D01*
X210680300Y-76227991D02*
X218920009Y-76227991D01*
X220472000Y-74676000D02*
X221742000Y-74676000D01*
X218920009Y-76227991D02*
X220472000Y-74676000D01*
X210680300Y-77227987D02*
X214618013Y-77227987D01*
X219964000Y-80010000D02*
X220980000Y-81026000D01*
X217400026Y-80010000D02*
X219964000Y-80010000D01*
X214618013Y-77227987D02*
X217400026Y-80010000D01*
X220980000Y-81026000D02*
X221742000Y-81026000D01*
X210680300Y-78227988D02*
X214117988Y-78227988D01*
X217678000Y-86106000D02*
X221742000Y-86106000D01*
X216408000Y-84836000D02*
X217678000Y-86106000D01*
X216408000Y-80518000D02*
X216408000Y-84836000D01*
X214117988Y-78227988D02*
X216408000Y-80518000D01*
X210680300Y-78728013D02*
X213602013Y-78728013D01*
X220726000Y-87630000D02*
X221742000Y-88646000D01*
X218440000Y-87630000D02*
X220726000Y-87630000D01*
X215900000Y-85090000D02*
X218440000Y-87630000D01*
X215900000Y-81026000D02*
X215900000Y-85090000D01*
X213602013Y-78728013D02*
X215900000Y-81026000D01*
X210680300Y-79728009D02*
X213078009Y-79728009D01*
X219456000Y-89662000D02*
X220980000Y-91186000D01*
X216916000Y-89662000D02*
X219456000Y-89662000D01*
X214884000Y-87630000D02*
X216916000Y-89662000D01*
X214884000Y-81534000D02*
X214884000Y-87630000D01*
X213078009Y-79728009D02*
X214884000Y-81534000D01*
X220980000Y-91186000D02*
X221742000Y-91186000D01*
X210680300Y-80728006D02*
X212428404Y-80728006D01*
X213614000Y-88138000D02*
X221742000Y-96266000D01*
X213614000Y-81913602D02*
X213614000Y-88138000D01*
X212428404Y-80728006D02*
X213614000Y-81913602D01*
X210680300Y-81228006D02*
X212292006Y-81228006D01*
X213106000Y-90170000D02*
X221742000Y-98806000D01*
X213106000Y-82042000D02*
X213106000Y-90170000D01*
X212292006Y-81228006D02*
X213106000Y-82042000D01*
D22*
G36*
X213362000Y-71926408D02*
X212073113Y-73215295D01*
X212061839Y-73215295D01*
X212109277Y-73100770D01*
X212153500Y-73056547D01*
X212153500Y-72899447D01*
X212109277Y-72855224D01*
X212056827Y-72728598D01*
X212056227Y-72727999D01*
X212056827Y-72727399D01*
X212109280Y-72600767D01*
X212153500Y-72556547D01*
X212153500Y-72399450D01*
X212109280Y-72355230D01*
X212056827Y-72228598D01*
X212019139Y-72190911D01*
X212153500Y-72056550D01*
X212153500Y-71961990D01*
X212056827Y-71728601D01*
X211878198Y-71549973D01*
X211644809Y-71453300D01*
X210851750Y-71453300D01*
X210693000Y-71612050D01*
X210693000Y-72760697D01*
X210667600Y-72760697D01*
X210667600Y-71612050D01*
X210508850Y-71453300D01*
X209715791Y-71453300D01*
X209482402Y-71549973D01*
X209303773Y-71728601D01*
X209207100Y-71961990D01*
X209207100Y-72056550D01*
X209341461Y-72190911D01*
X209303773Y-72228598D01*
X209251320Y-72355230D01*
X209207100Y-72399450D01*
X209207100Y-72556547D01*
X209251320Y-72600767D01*
X209303773Y-72727399D01*
X209304373Y-72727999D01*
X209303773Y-72728598D01*
X209251323Y-72855224D01*
X209207100Y-72899447D01*
X209207100Y-73056547D01*
X209251323Y-73100770D01*
X209303773Y-73227396D01*
X209341462Y-73265085D01*
X209207100Y-73399447D01*
X209207100Y-73494007D01*
X209303773Y-73727396D01*
X209455938Y-73879560D01*
X209475390Y-73979819D01*
X209453636Y-74088294D01*
X209453636Y-74367694D01*
X209475390Y-74479817D01*
X209453636Y-74588294D01*
X209453636Y-74867694D01*
X209475390Y-74979817D01*
X209453636Y-75088294D01*
X209453636Y-75367694D01*
X209475390Y-75479816D01*
X209453636Y-75588291D01*
X209453636Y-75867691D01*
X209475390Y-75979814D01*
X209453636Y-76088291D01*
X209453636Y-76367691D01*
X209475390Y-76479814D01*
X209453636Y-76588291D01*
X209453636Y-76867691D01*
X209475390Y-76979812D01*
X209453636Y-77088287D01*
X209453636Y-77367687D01*
X209475393Y-77479823D01*
X209453636Y-77588312D01*
X209453636Y-77867712D01*
X209475388Y-77979823D01*
X209453636Y-78088288D01*
X209453636Y-78367688D01*
X209475393Y-78479824D01*
X209453636Y-78588313D01*
X209453636Y-78867713D01*
X209475390Y-78979834D01*
X209453636Y-79088309D01*
X209453636Y-79367709D01*
X209475390Y-79479832D01*
X209453636Y-79588309D01*
X209453636Y-79867709D01*
X209475390Y-79979832D01*
X209453636Y-80088309D01*
X209453636Y-80367709D01*
X209475390Y-80479831D01*
X209453636Y-80588306D01*
X209453636Y-80867706D01*
X209475390Y-80979829D01*
X209453636Y-81088306D01*
X209453636Y-81367706D01*
X209475390Y-81479829D01*
X209453636Y-81588306D01*
X209453636Y-81867706D01*
X209475390Y-81979828D01*
X209453636Y-82088303D01*
X209453636Y-82367703D01*
X209475390Y-82479826D01*
X209453636Y-82588303D01*
X209453636Y-82867703D01*
X209475390Y-82979826D01*
X209453636Y-83088303D01*
X209453636Y-83256090D01*
X209364199Y-83388588D01*
X209324148Y-83588300D01*
X209324148Y-83867700D01*
X209361730Y-84061399D01*
X209473561Y-84231642D01*
X209642388Y-84345601D01*
X209842100Y-84385652D01*
X210047300Y-84385652D01*
X210047300Y-84963048D01*
X209796000Y-84963048D01*
X209602301Y-85000630D01*
X209432058Y-85112461D01*
X209369224Y-85205549D01*
X209334327Y-85121301D01*
X209155698Y-84942673D01*
X208922309Y-84846000D01*
X208467450Y-84846000D01*
X208308700Y-85004750D01*
X208308700Y-86093300D01*
X208328700Y-86093300D01*
X208328700Y-86118700D01*
X208308700Y-86118700D01*
X208308700Y-87207250D01*
X208467450Y-87366000D01*
X208922309Y-87366000D01*
X209155698Y-87269327D01*
X209334327Y-87090699D01*
X209369266Y-87006350D01*
X209427461Y-87094942D01*
X209596288Y-87208901D01*
X209663000Y-87222280D01*
X209663000Y-92439995D01*
X209662999Y-92440000D01*
X209711184Y-92682239D01*
X209848401Y-92887599D01*
X218754401Y-101793599D01*
X218959761Y-101930816D01*
X219202000Y-101979001D01*
X219202005Y-101979000D01*
X220364787Y-101979000D01*
X220589875Y-102315868D01*
X221034854Y-102613193D01*
X221436071Y-102693000D01*
X191947000Y-102693000D01*
X191947000Y-101734958D01*
X191964371Y-101822288D01*
X192234166Y-102226065D01*
X192637943Y-102495860D01*
X193114231Y-102590600D01*
X193473769Y-102590600D01*
X193950057Y-102495860D01*
X194353834Y-102226065D01*
X194623629Y-101822288D01*
X194718369Y-101346000D01*
X194623629Y-100869712D01*
X194568455Y-100787137D01*
X201271796Y-94083796D01*
X201381483Y-93919638D01*
X201420000Y-93726000D01*
X201420000Y-88873026D01*
X201453301Y-88906327D01*
X201686690Y-89003000D01*
X202266550Y-89003000D01*
X202425300Y-88844250D01*
X202425300Y-87880700D01*
X202450700Y-87880700D01*
X202450700Y-88844250D01*
X202609450Y-89003000D01*
X203189310Y-89003000D01*
X203422699Y-88906327D01*
X203601327Y-88727698D01*
X203698000Y-88494309D01*
X203698000Y-88039450D01*
X203539250Y-87880700D01*
X202450700Y-87880700D01*
X202425300Y-87880700D01*
X202425300Y-87880700D01*
X202405300Y-87880700D01*
X202405300Y-87855300D01*
X202425300Y-87855300D01*
X202425300Y-87835300D01*
X202450700Y-87835300D01*
X202450700Y-87855300D01*
X203539250Y-87855300D01*
X203698000Y-87696550D01*
X203698000Y-87241691D01*
X203601327Y-87008302D01*
X203422699Y-86829673D01*
X203189310Y-86733000D01*
X203183936Y-86733000D01*
X203208274Y-86728278D01*
X203335956Y-86644404D01*
X203421426Y-86517784D01*
X203451464Y-86368000D01*
X203451464Y-86277450D01*
X207161000Y-86277450D01*
X207161000Y-86857310D01*
X207257673Y-87090699D01*
X207436302Y-87269327D01*
X207669691Y-87366000D01*
X208124550Y-87366000D01*
X208283300Y-87207250D01*
X208283300Y-86118700D01*
X207319750Y-86118700D01*
X207161000Y-86277450D01*
X203451464Y-86277450D01*
X203451464Y-85368000D01*
X203448882Y-85354690D01*
X207161000Y-85354690D01*
X207161000Y-85934550D01*
X207319750Y-86093300D01*
X208283300Y-86093300D01*
X208283300Y-85004750D01*
X208124550Y-84846000D01*
X207669691Y-84846000D01*
X207436302Y-84942673D01*
X207257673Y-85121301D01*
X207161000Y-85354690D01*
X203448882Y-85354690D01*
X203423278Y-85222726D01*
X203339404Y-85095044D01*
X203212784Y-85009574D01*
X203063000Y-84979536D01*
X202265128Y-84979536D01*
X201928000Y-84642408D01*
X201928000Y-84142484D01*
X201963173Y-84227399D01*
X202141802Y-84406027D01*
X202375191Y-84502700D01*
X203168250Y-84502700D01*
X203327000Y-84343950D01*
X203327000Y-83756167D01*
X203352400Y-83756167D01*
X203352400Y-84343950D01*
X203511150Y-84502700D01*
X204304209Y-84502700D01*
X204537598Y-84406027D01*
X204716227Y-84227399D01*
X204812900Y-83994010D01*
X204812900Y-83899450D01*
X204654150Y-83740700D01*
X204257619Y-83740700D01*
X204323174Y-83727981D01*
X204342478Y-83715300D01*
X204654150Y-83715300D01*
X204812900Y-83556550D01*
X204812900Y-83461990D01*
X204716227Y-83228601D01*
X204564062Y-83076437D01*
X204544610Y-82976180D01*
X204566364Y-82867703D01*
X204566364Y-82588303D01*
X204544610Y-82476180D01*
X204566364Y-82367703D01*
X204566364Y-82226772D01*
X204723632Y-82195489D01*
X204887790Y-82085802D01*
X205081796Y-81891796D01*
X205191483Y-81727638D01*
X205230000Y-81534000D01*
X205230000Y-80822800D01*
X206838550Y-80822800D01*
X206997300Y-80664050D01*
X206997300Y-77990700D01*
X207022700Y-77990700D01*
X207022700Y-80664050D01*
X207181450Y-80822800D01*
X208876209Y-80822800D01*
X209109598Y-80726127D01*
X209288227Y-80547499D01*
X209384900Y-80314110D01*
X209384900Y-78149450D01*
X209226150Y-77990700D01*
X207022700Y-77990700D01*
X206997300Y-77990700D01*
X206997300Y-77990700D01*
X206977300Y-77990700D01*
X206977300Y-77965300D01*
X206997300Y-77965300D01*
X206997300Y-75291950D01*
X207022700Y-75291950D01*
X207022700Y-77965300D01*
X209226150Y-77965300D01*
X209384900Y-77806550D01*
X209384900Y-75641890D01*
X209288227Y-75408501D01*
X209109598Y-75229873D01*
X208876209Y-75133200D01*
X207181450Y-75133200D01*
X207022700Y-75291950D01*
X206997300Y-75291950D01*
X206997300Y-75291950D01*
X206838550Y-75133200D01*
X205230000Y-75133200D01*
X205230000Y-70866000D01*
X205191483Y-70672362D01*
X205081796Y-70508204D01*
X204656000Y-70082408D01*
X204656000Y-68313232D01*
X204772956Y-68236404D01*
X204858426Y-68109784D01*
X204888464Y-67960000D01*
X204888464Y-67816000D01*
X213362000Y-67816000D01*
X213362000Y-71926408D01*
X213362000Y-71926408D01*
G37*
X213362000Y-71926408D02*
X212073113Y-73215295D01*
X212061839Y-73215295D01*
X212109277Y-73100770D01*
X212153500Y-73056547D01*
X212153500Y-72899447D01*
X212109277Y-72855224D01*
X212056827Y-72728598D01*
X212056227Y-72727999D01*
X212056827Y-72727399D01*
X212109280Y-72600767D01*
X212153500Y-72556547D01*
X212153500Y-72399450D01*
X212109280Y-72355230D01*
X212056827Y-72228598D01*
X212019139Y-72190911D01*
X212153500Y-72056550D01*
X212153500Y-71961990D01*
X212056827Y-71728601D01*
X211878198Y-71549973D01*
X211644809Y-71453300D01*
X210851750Y-71453300D01*
X210693000Y-71612050D01*
X210693000Y-72760697D01*
X210667600Y-72760697D01*
X210667600Y-71612050D01*
X210508850Y-71453300D01*
X209715791Y-71453300D01*
X209482402Y-71549973D01*
X209303773Y-71728601D01*
X209207100Y-71961990D01*
X209207100Y-72056550D01*
X209341461Y-72190911D01*
X209303773Y-72228598D01*
X209251320Y-72355230D01*
X209207100Y-72399450D01*
X209207100Y-72556547D01*
X209251320Y-72600767D01*
X209303773Y-72727399D01*
X209304373Y-72727999D01*
X209303773Y-72728598D01*
X209251323Y-72855224D01*
X209207100Y-72899447D01*
X209207100Y-73056547D01*
X209251323Y-73100770D01*
X209303773Y-73227396D01*
X209341462Y-73265085D01*
X209207100Y-73399447D01*
X209207100Y-73494007D01*
X209303773Y-73727396D01*
X209455938Y-73879560D01*
X209475390Y-73979819D01*
X209453636Y-74088294D01*
X209453636Y-74367694D01*
X209475390Y-74479817D01*
X209453636Y-74588294D01*
X209453636Y-74867694D01*
X209475390Y-74979817D01*
X209453636Y-75088294D01*
X209453636Y-75367694D01*
X209475390Y-75479816D01*
X209453636Y-75588291D01*
X209453636Y-75867691D01*
X209475390Y-75979814D01*
X209453636Y-76088291D01*
X209453636Y-76367691D01*
X209475390Y-76479814D01*
X209453636Y-76588291D01*
X209453636Y-76867691D01*
X209475390Y-76979812D01*
X209453636Y-77088287D01*
X209453636Y-77367687D01*
X209475393Y-77479823D01*
X209453636Y-77588312D01*
X209453636Y-77867712D01*
X209475388Y-77979823D01*
X209453636Y-78088288D01*
X209453636Y-78367688D01*
X209475393Y-78479824D01*
X209453636Y-78588313D01*
X209453636Y-78867713D01*
X209475390Y-78979834D01*
X209453636Y-79088309D01*
X209453636Y-79367709D01*
X209475390Y-79479832D01*
X209453636Y-79588309D01*
X209453636Y-79867709D01*
X209475390Y-79979832D01*
X209453636Y-80088309D01*
X209453636Y-80367709D01*
X209475390Y-80479831D01*
X209453636Y-80588306D01*
X209453636Y-80867706D01*
X209475390Y-80979829D01*
X209453636Y-81088306D01*
X209453636Y-81367706D01*
X209475390Y-81479829D01*
X209453636Y-81588306D01*
X209453636Y-81867706D01*
X209475390Y-81979828D01*
X209453636Y-82088303D01*
X209453636Y-82367703D01*
X209475390Y-82479826D01*
X209453636Y-82588303D01*
X209453636Y-82867703D01*
X209475390Y-82979826D01*
X209453636Y-83088303D01*
X209453636Y-83256090D01*
X209364199Y-83388588D01*
X209324148Y-83588300D01*
X209324148Y-83867700D01*
X209361730Y-84061399D01*
X209473561Y-84231642D01*
X209642388Y-84345601D01*
X209842100Y-84385652D01*
X210047300Y-84385652D01*
X210047300Y-84963048D01*
X209796000Y-84963048D01*
X209602301Y-85000630D01*
X209432058Y-85112461D01*
X209369224Y-85205549D01*
X209334327Y-85121301D01*
X209155698Y-84942673D01*
X208922309Y-84846000D01*
X208467450Y-84846000D01*
X208308700Y-85004750D01*
X208308700Y-86093300D01*
X208328700Y-86093300D01*
X208328700Y-86118700D01*
X208308700Y-86118700D01*
X208308700Y-87207250D01*
X208467450Y-87366000D01*
X208922309Y-87366000D01*
X209155698Y-87269327D01*
X209334327Y-87090699D01*
X209369266Y-87006350D01*
X209427461Y-87094942D01*
X209596288Y-87208901D01*
X209663000Y-87222280D01*
X209663000Y-92439995D01*
X209662999Y-92440000D01*
X209711184Y-92682239D01*
X209848401Y-92887599D01*
X218754401Y-101793599D01*
X218959761Y-101930816D01*
X219202000Y-101979001D01*
X219202005Y-101979000D01*
X220364787Y-101979000D01*
X220589875Y-102315868D01*
X221034854Y-102613193D01*
X221436071Y-102693000D01*
X191947000Y-102693000D01*
X191947000Y-101734958D01*
X191964371Y-101822288D01*
X192234166Y-102226065D01*
X192637943Y-102495860D01*
X193114231Y-102590600D01*
X193473769Y-102590600D01*
X193950057Y-102495860D01*
X194353834Y-102226065D01*
X194623629Y-101822288D01*
X194718369Y-101346000D01*
X194623629Y-100869712D01*
X194568455Y-100787137D01*
X201271796Y-94083796D01*
X201381483Y-93919638D01*
X201420000Y-93726000D01*
X201420000Y-88873026D01*
X201453301Y-88906327D01*
X201686690Y-89003000D01*
X202266550Y-89003000D01*
X202425300Y-88844250D01*
X202425300Y-87880700D01*
X202450700Y-87880700D01*
X202450700Y-88844250D01*
X202609450Y-89003000D01*
X203189310Y-89003000D01*
X203422699Y-88906327D01*
X203601327Y-88727698D01*
X203698000Y-88494309D01*
X203698000Y-88039450D01*
X203539250Y-87880700D01*
X202450700Y-87880700D01*
X202425300Y-87880700D01*
X202425300Y-87880700D01*
X202405300Y-87880700D01*
X202405300Y-87855300D01*
X202425300Y-87855300D01*
X202425300Y-87835300D01*
X202450700Y-87835300D01*
X202450700Y-87855300D01*
X203539250Y-87855300D01*
X203698000Y-87696550D01*
X203698000Y-87241691D01*
X203601327Y-87008302D01*
X203422699Y-86829673D01*
X203189310Y-86733000D01*
X203183936Y-86733000D01*
X203208274Y-86728278D01*
X203335956Y-86644404D01*
X203421426Y-86517784D01*
X203451464Y-86368000D01*
X203451464Y-86277450D01*
X207161000Y-86277450D01*
X207161000Y-86857310D01*
X207257673Y-87090699D01*
X207436302Y-87269327D01*
X207669691Y-87366000D01*
X208124550Y-87366000D01*
X208283300Y-87207250D01*
X208283300Y-86118700D01*
X207319750Y-86118700D01*
X207161000Y-86277450D01*
X203451464Y-86277450D01*
X203451464Y-85368000D01*
X203448882Y-85354690D01*
X207161000Y-85354690D01*
X207161000Y-85934550D01*
X207319750Y-86093300D01*
X208283300Y-86093300D01*
X208283300Y-85004750D01*
X208124550Y-84846000D01*
X207669691Y-84846000D01*
X207436302Y-84942673D01*
X207257673Y-85121301D01*
X207161000Y-85354690D01*
X203448882Y-85354690D01*
X203423278Y-85222726D01*
X203339404Y-85095044D01*
X203212784Y-85009574D01*
X203063000Y-84979536D01*
X202265128Y-84979536D01*
X201928000Y-84642408D01*
X201928000Y-84142484D01*
X201963173Y-84227399D01*
X202141802Y-84406027D01*
X202375191Y-84502700D01*
X203168250Y-84502700D01*
X203327000Y-84343950D01*
X203327000Y-83756167D01*
X203352400Y-83756167D01*
X203352400Y-84343950D01*
X203511150Y-84502700D01*
X204304209Y-84502700D01*
X204537598Y-84406027D01*
X204716227Y-84227399D01*
X204812900Y-83994010D01*
X204812900Y-83899450D01*
X204654150Y-83740700D01*
X204257619Y-83740700D01*
X204323174Y-83727981D01*
X204342478Y-83715300D01*
X204654150Y-83715300D01*
X204812900Y-83556550D01*
X204812900Y-83461990D01*
X204716227Y-83228601D01*
X204564062Y-83076437D01*
X204544610Y-82976180D01*
X204566364Y-82867703D01*
X204566364Y-82588303D01*
X204544610Y-82476180D01*
X204566364Y-82367703D01*
X204566364Y-82226772D01*
X204723632Y-82195489D01*
X204887790Y-82085802D01*
X205081796Y-81891796D01*
X205191483Y-81727638D01*
X205230000Y-81534000D01*
X205230000Y-80822800D01*
X206838550Y-80822800D01*
X206997300Y-80664050D01*
X206997300Y-77990700D01*
X207022700Y-77990700D01*
X207022700Y-80664050D01*
X207181450Y-80822800D01*
X208876209Y-80822800D01*
X209109598Y-80726127D01*
X209288227Y-80547499D01*
X209384900Y-80314110D01*
X209384900Y-78149450D01*
X209226150Y-77990700D01*
X207022700Y-77990700D01*
X206997300Y-77990700D01*
X206997300Y-77990700D01*
X206977300Y-77990700D01*
X206977300Y-77965300D01*
X206997300Y-77965300D01*
X206997300Y-75291950D01*
X207022700Y-75291950D01*
X207022700Y-77965300D01*
X209226150Y-77965300D01*
X209384900Y-77806550D01*
X209384900Y-75641890D01*
X209288227Y-75408501D01*
X209109598Y-75229873D01*
X208876209Y-75133200D01*
X207181450Y-75133200D01*
X207022700Y-75291950D01*
X206997300Y-75291950D01*
X206997300Y-75291950D01*
X206838550Y-75133200D01*
X205230000Y-75133200D01*
X205230000Y-70866000D01*
X205191483Y-70672362D01*
X205081796Y-70508204D01*
X204656000Y-70082408D01*
X204656000Y-68313232D01*
X204772956Y-68236404D01*
X204858426Y-68109784D01*
X204888464Y-67960000D01*
X204888464Y-67816000D01*
X213362000Y-67816000D01*
X213362000Y-71926408D01*
G36*
X199148700Y-84811300D02*
X199168700Y-84811300D01*
X199168700Y-84836700D01*
X199148700Y-84836700D01*
X199148700Y-85700250D01*
X199307450Y-85859000D01*
X199637310Y-85859000D01*
X199646000Y-85855400D01*
X199646000Y-91738408D01*
X194586394Y-96798014D01*
X194623629Y-96742288D01*
X194718369Y-96266000D01*
X194623629Y-95789712D01*
X194353834Y-95385935D01*
X193950057Y-95116140D01*
X193473769Y-95021400D01*
X193114231Y-95021400D01*
X192637943Y-95116140D01*
X192234166Y-95385935D01*
X191964371Y-95789712D01*
X191947000Y-95877042D01*
X191947000Y-94114958D01*
X191964371Y-94202288D01*
X192234166Y-94606065D01*
X192637943Y-94875860D01*
X193114231Y-94970600D01*
X193473769Y-94970600D01*
X193950057Y-94875860D01*
X194353834Y-94606065D01*
X194603776Y-94232000D01*
X195072000Y-94232000D01*
X195265638Y-94193483D01*
X195429796Y-94083796D01*
X198223796Y-91289796D01*
X198293150Y-91186000D01*
X198333483Y-91125638D01*
X198372000Y-90932000D01*
X198372000Y-85733026D01*
X198401301Y-85762327D01*
X198634690Y-85859000D01*
X198964550Y-85859000D01*
X199123300Y-85700250D01*
X199123300Y-84836700D01*
X199103300Y-84836700D01*
X199103300Y-84811300D01*
X199123300Y-84811300D01*
X199123300Y-84791300D01*
X199148700Y-84791300D01*
X199148700Y-84811300D01*
X199148700Y-84811300D01*
G37*
X199148700Y-84811300D02*
X199168700Y-84811300D01*
X199168700Y-84836700D01*
X199148700Y-84836700D01*
X199148700Y-85700250D01*
X199307450Y-85859000D01*
X199637310Y-85859000D01*
X199646000Y-85855400D01*
X199646000Y-91738408D01*
X194586394Y-96798014D01*
X194623629Y-96742288D01*
X194718369Y-96266000D01*
X194623629Y-95789712D01*
X194353834Y-95385935D01*
X193950057Y-95116140D01*
X193473769Y-95021400D01*
X193114231Y-95021400D01*
X192637943Y-95116140D01*
X192234166Y-95385935D01*
X191964371Y-95789712D01*
X191947000Y-95877042D01*
X191947000Y-94114958D01*
X191964371Y-94202288D01*
X192234166Y-94606065D01*
X192637943Y-94875860D01*
X193114231Y-94970600D01*
X193473769Y-94970600D01*
X193950057Y-94875860D01*
X194353834Y-94606065D01*
X194603776Y-94232000D01*
X195072000Y-94232000D01*
X195265638Y-94193483D01*
X195429796Y-94083796D01*
X198223796Y-91289796D01*
X198293150Y-91186000D01*
X198333483Y-91125638D01*
X198372000Y-90932000D01*
X198372000Y-85733026D01*
X198401301Y-85762327D01*
X198634690Y-85859000D01*
X198964550Y-85859000D01*
X199123300Y-85700250D01*
X199123300Y-84836700D01*
X199103300Y-84836700D01*
X199103300Y-84811300D01*
X199123300Y-84811300D01*
X199123300Y-84791300D01*
X199148700Y-84791300D01*
X199148700Y-84811300D01*
G36*
X191964371Y-72612288D02*
X192234166Y-73016065D01*
X192637943Y-73285860D01*
X193114231Y-73380600D01*
X193473769Y-73380600D01*
X193950057Y-73285860D01*
X194353834Y-73016065D01*
X194603776Y-72642000D01*
X195370408Y-72642000D01*
X197402944Y-74674536D01*
X196946000Y-74674536D01*
X196800726Y-74702722D01*
X196787646Y-74711314D01*
X196784327Y-74703301D01*
X196605698Y-74524673D01*
X196372309Y-74428000D01*
X196017450Y-74428000D01*
X195858700Y-74586750D01*
X195858700Y-75425300D01*
X195878700Y-75425300D01*
X195878700Y-75450700D01*
X195858700Y-75450700D01*
X195858700Y-76289250D01*
X195957929Y-76388479D01*
X195893872Y-76452536D01*
X195446000Y-76452536D01*
X195300726Y-76480722D01*
X195173044Y-76564596D01*
X195087574Y-76691216D01*
X195057536Y-76841000D01*
X195057536Y-77591000D01*
X195083729Y-77726000D01*
X194519592Y-77726000D01*
X193800000Y-77006408D01*
X193800000Y-75855708D01*
X193950057Y-75825860D01*
X194273937Y-75609450D01*
X194811000Y-75609450D01*
X194811000Y-75939310D01*
X194907673Y-76172699D01*
X195086302Y-76351327D01*
X195319691Y-76448000D01*
X195674550Y-76448000D01*
X195833300Y-76289250D01*
X195833300Y-75450700D01*
X194969750Y-75450700D01*
X194811000Y-75609450D01*
X194273937Y-75609450D01*
X194353834Y-75556065D01*
X194623629Y-75152288D01*
X194666514Y-74936690D01*
X194811000Y-74936690D01*
X194811000Y-75266550D01*
X194969750Y-75425300D01*
X195833300Y-75425300D01*
X195833300Y-74586750D01*
X195674550Y-74428000D01*
X195319691Y-74428000D01*
X195086302Y-74524673D01*
X194907673Y-74703301D01*
X194811000Y-74936690D01*
X194666514Y-74936690D01*
X194718369Y-74676000D01*
X194623629Y-74199712D01*
X194353834Y-73795935D01*
X193950057Y-73526140D01*
X193473769Y-73431400D01*
X193114231Y-73431400D01*
X192637943Y-73526140D01*
X192234166Y-73795935D01*
X191964371Y-74199712D01*
X191947000Y-74287042D01*
X191947000Y-72524958D01*
X191964371Y-72612288D01*
X191964371Y-72612288D01*
G37*
X191964371Y-72612288D02*
X192234166Y-73016065D01*
X192637943Y-73285860D01*
X193114231Y-73380600D01*
X193473769Y-73380600D01*
X193950057Y-73285860D01*
X194353834Y-73016065D01*
X194603776Y-72642000D01*
X195370408Y-72642000D01*
X197402944Y-74674536D01*
X196946000Y-74674536D01*
X196800726Y-74702722D01*
X196787646Y-74711314D01*
X196784327Y-74703301D01*
X196605698Y-74524673D01*
X196372309Y-74428000D01*
X196017450Y-74428000D01*
X195858700Y-74586750D01*
X195858700Y-75425300D01*
X195878700Y-75425300D01*
X195878700Y-75450700D01*
X195858700Y-75450700D01*
X195858700Y-76289250D01*
X195957929Y-76388479D01*
X195893872Y-76452536D01*
X195446000Y-76452536D01*
X195300726Y-76480722D01*
X195173044Y-76564596D01*
X195087574Y-76691216D01*
X195057536Y-76841000D01*
X195057536Y-77591000D01*
X195083729Y-77726000D01*
X194519592Y-77726000D01*
X193800000Y-77006408D01*
X193800000Y-75855708D01*
X193950057Y-75825860D01*
X194273937Y-75609450D01*
X194811000Y-75609450D01*
X194811000Y-75939310D01*
X194907673Y-76172699D01*
X195086302Y-76351327D01*
X195319691Y-76448000D01*
X195674550Y-76448000D01*
X195833300Y-76289250D01*
X195833300Y-75450700D01*
X194969750Y-75450700D01*
X194811000Y-75609450D01*
X194273937Y-75609450D01*
X194353834Y-75556065D01*
X194623629Y-75152288D01*
X194666514Y-74936690D01*
X194811000Y-74936690D01*
X194811000Y-75266550D01*
X194969750Y-75425300D01*
X195833300Y-75425300D01*
X195833300Y-74586750D01*
X195674550Y-74428000D01*
X195319691Y-74428000D01*
X195086302Y-74524673D01*
X194907673Y-74703301D01*
X194811000Y-74936690D01*
X194666514Y-74936690D01*
X194718369Y-74676000D01*
X194623629Y-74199712D01*
X194353834Y-73795935D01*
X193950057Y-73526140D01*
X193473769Y-73431400D01*
X193114231Y-73431400D01*
X192637943Y-73526140D01*
X192234166Y-73795935D01*
X191964371Y-74199712D01*
X191947000Y-74287042D01*
X191947000Y-72524958D01*
X191964371Y-72612288D01*
G36*
X220187673Y-53132701D02*
X220091000Y-53366090D01*
X220091000Y-54184550D01*
X220249750Y-54343300D01*
X221729300Y-54343300D01*
X221729300Y-54323300D01*
X221754700Y-54323300D01*
X221754700Y-54343300D01*
X221774700Y-54343300D01*
X221774700Y-54368700D01*
X221754700Y-54368700D01*
X221754700Y-54388700D01*
X221729300Y-54388700D01*
X221729300Y-54368700D01*
X220249750Y-54368700D01*
X220091000Y-54527450D01*
X220091000Y-55345910D01*
X220187673Y-55579299D01*
X220366302Y-55757927D01*
X220599691Y-55854600D01*
X220923621Y-55854600D01*
X220682166Y-56015935D01*
X220412371Y-56419712D01*
X220317631Y-56896000D01*
X220412371Y-57372288D01*
X220682166Y-57776065D01*
X221085943Y-58045860D01*
X221562231Y-58140600D01*
X221921769Y-58140600D01*
X222398057Y-58045860D01*
X222801834Y-57776065D01*
X223071629Y-57372288D01*
X223089000Y-57284958D01*
X223089000Y-59047042D01*
X223071629Y-58959712D01*
X222801834Y-58555935D01*
X222398057Y-58286140D01*
X221921769Y-58191400D01*
X221562231Y-58191400D01*
X221085943Y-58286140D01*
X220682166Y-58555935D01*
X220412371Y-58959712D01*
X220317631Y-59436000D01*
X220412371Y-59912288D01*
X220467545Y-59994863D01*
X213658408Y-66804000D01*
X204888464Y-66804000D01*
X204888464Y-66660000D01*
X204860278Y-66514726D01*
X204776404Y-66387044D01*
X204649784Y-66301574D01*
X204500000Y-66271536D01*
X203800000Y-66271536D01*
X203654726Y-66299722D01*
X203527044Y-66383596D01*
X203441574Y-66510216D01*
X203411536Y-66660000D01*
X203411536Y-67332872D01*
X202988464Y-67755944D01*
X202988464Y-66660000D01*
X202960278Y-66514726D01*
X202876404Y-66387044D01*
X202749784Y-66301574D01*
X202690000Y-66289585D01*
X202690000Y-63246000D01*
X202651483Y-63052362D01*
X202541796Y-62888204D01*
X194698464Y-55044872D01*
X194698464Y-53492400D01*
X194670278Y-53347126D01*
X194586404Y-53219444D01*
X194459784Y-53133974D01*
X194310000Y-53103936D01*
X192278000Y-53103936D01*
X192132726Y-53132122D01*
X192005044Y-53215996D01*
X191947000Y-53301986D01*
X191947000Y-53009000D01*
X220311375Y-53009000D01*
X220187673Y-53132701D01*
X220187673Y-53132701D01*
G37*
X220187673Y-53132701D02*
X220091000Y-53366090D01*
X220091000Y-54184550D01*
X220249750Y-54343300D01*
X221729300Y-54343300D01*
X221729300Y-54323300D01*
X221754700Y-54323300D01*
X221754700Y-54343300D01*
X221774700Y-54343300D01*
X221774700Y-54368700D01*
X221754700Y-54368700D01*
X221754700Y-54388700D01*
X221729300Y-54388700D01*
X221729300Y-54368700D01*
X220249750Y-54368700D01*
X220091000Y-54527450D01*
X220091000Y-55345910D01*
X220187673Y-55579299D01*
X220366302Y-55757927D01*
X220599691Y-55854600D01*
X220923621Y-55854600D01*
X220682166Y-56015935D01*
X220412371Y-56419712D01*
X220317631Y-56896000D01*
X220412371Y-57372288D01*
X220682166Y-57776065D01*
X221085943Y-58045860D01*
X221562231Y-58140600D01*
X221921769Y-58140600D01*
X222398057Y-58045860D01*
X222801834Y-57776065D01*
X223071629Y-57372288D01*
X223089000Y-57284958D01*
X223089000Y-59047042D01*
X223071629Y-58959712D01*
X222801834Y-58555935D01*
X222398057Y-58286140D01*
X221921769Y-58191400D01*
X221562231Y-58191400D01*
X221085943Y-58286140D01*
X220682166Y-58555935D01*
X220412371Y-58959712D01*
X220317631Y-59436000D01*
X220412371Y-59912288D01*
X220467545Y-59994863D01*
X213658408Y-66804000D01*
X204888464Y-66804000D01*
X204888464Y-66660000D01*
X204860278Y-66514726D01*
X204776404Y-66387044D01*
X204649784Y-66301574D01*
X204500000Y-66271536D01*
X203800000Y-66271536D01*
X203654726Y-66299722D01*
X203527044Y-66383596D01*
X203441574Y-66510216D01*
X203411536Y-66660000D01*
X203411536Y-67332872D01*
X202988464Y-67755944D01*
X202988464Y-66660000D01*
X202960278Y-66514726D01*
X202876404Y-66387044D01*
X202749784Y-66301574D01*
X202690000Y-66289585D01*
X202690000Y-63246000D01*
X202651483Y-63052362D01*
X202541796Y-62888204D01*
X194698464Y-55044872D01*
X194698464Y-53492400D01*
X194670278Y-53347126D01*
X194586404Y-53219444D01*
X194459784Y-53133974D01*
X194310000Y-53103936D01*
X192278000Y-53103936D01*
X192132726Y-53132122D01*
X192005044Y-53215996D01*
X191947000Y-53301986D01*
X191947000Y-53009000D01*
X220311375Y-53009000D01*
X220187673Y-53132701D01*
M02*
