G04 #@! TF.FileFunction,Legend,Top*
%FSLAX46Y46*%
G04 Gerber Fmt 4.6, Leading zero omitted, Abs format (unit mm)*
G04 Created by KiCad (PCBNEW (2015-07-25 BZR 5993)-product) date Fri 31 Jul 2015 06:39:50 PM PDT*
%MOMM*%
G01*
G04 APERTURE LIST*
%ADD10C,0.100000*%
%ADD11C,0.150000*%
%ADD12C,0.152400*%
%ADD13C,0.076200*%
G04 APERTURE END LIST*
D10*
D11*
X215304000Y-73160000D02*
X215304000Y-74160000D01*
X217004000Y-74160000D02*
X217004000Y-73160000D01*
X217844000Y-79510000D02*
X217844000Y-80510000D01*
X219544000Y-80510000D02*
X219544000Y-79510000D01*
X217082000Y-89162000D02*
X217082000Y-90162000D01*
X218782000Y-90162000D02*
X218782000Y-89162000D01*
X203288000Y-87368000D02*
X203288000Y-86368000D01*
X201588000Y-86368000D02*
X201588000Y-87368000D01*
X208796000Y-86956000D02*
X209796000Y-86956000D01*
X209796000Y-85256000D02*
X208796000Y-85256000D01*
X194564000Y-55626000D02*
X194564000Y-75946000D01*
X194564000Y-75946000D02*
X192024000Y-75946000D01*
X192024000Y-75946000D02*
X192024000Y-55626000D01*
X194844000Y-52806000D02*
X194844000Y-54356000D01*
X194564000Y-55626000D02*
X192024000Y-55626000D01*
X191744000Y-54356000D02*
X191744000Y-52806000D01*
X191744000Y-52806000D02*
X194844000Y-52806000D01*
X194564000Y-82296000D02*
X194564000Y-102616000D01*
X194564000Y-102616000D02*
X192024000Y-102616000D01*
X192024000Y-102616000D02*
X192024000Y-82296000D01*
X194844000Y-79476000D02*
X194844000Y-81026000D01*
X194564000Y-82296000D02*
X192024000Y-82296000D01*
X191744000Y-81026000D02*
X191744000Y-79476000D01*
X191744000Y-79476000D02*
X194844000Y-79476000D01*
X223012000Y-55626000D02*
X223012000Y-75946000D01*
X223012000Y-75946000D02*
X220472000Y-75946000D01*
X220472000Y-75946000D02*
X220472000Y-55626000D01*
X223292000Y-52806000D02*
X223292000Y-54356000D01*
X223012000Y-55626000D02*
X220472000Y-55626000D01*
X220192000Y-54356000D02*
X220192000Y-52806000D01*
X220192000Y-52806000D02*
X223292000Y-52806000D01*
X223012000Y-82296000D02*
X223012000Y-102616000D01*
X223012000Y-102616000D02*
X220472000Y-102616000D01*
X220472000Y-102616000D02*
X220472000Y-82296000D01*
X223292000Y-79476000D02*
X223292000Y-81026000D01*
X223012000Y-82296000D02*
X220472000Y-82296000D01*
X220192000Y-81026000D02*
X220192000Y-79476000D01*
X220192000Y-79476000D02*
X223292000Y-79476000D01*
X201584000Y-68721000D02*
X202784000Y-68721000D01*
X202784000Y-70471000D02*
X201584000Y-70471000D01*
X202600000Y-66435000D02*
X203800000Y-66435000D01*
X203800000Y-68185000D02*
X202600000Y-68185000D01*
D12*
X203911200Y-72364600D02*
X203911200Y-72085200D01*
X203911200Y-72085200D02*
X202844400Y-72085200D01*
X202844400Y-72085200D02*
X202844400Y-72364600D01*
X202844400Y-72364600D02*
X203911200Y-72364600D01*
X203911200Y-72872600D02*
X203911200Y-72593200D01*
X203911200Y-72593200D02*
X202844400Y-72593200D01*
X202844400Y-72593200D02*
X202844400Y-72872600D01*
X202844400Y-72872600D02*
X203911200Y-72872600D01*
X203911200Y-73355200D02*
X203911200Y-73075800D01*
X203911200Y-73075800D02*
X202844400Y-73075800D01*
X202844400Y-73075800D02*
X202844400Y-73355200D01*
X202844400Y-73355200D02*
X203911200Y-73355200D01*
X203911200Y-73863200D02*
X203911200Y-73583800D01*
X203911200Y-73583800D02*
X202844400Y-73583800D01*
X202844400Y-73583800D02*
X202844400Y-73863200D01*
X202844400Y-73863200D02*
X203911200Y-73863200D01*
X203911200Y-74371200D02*
X203911200Y-74091800D01*
X203911200Y-74091800D02*
X202844400Y-74091800D01*
X202844400Y-74091800D02*
X202844400Y-74371200D01*
X202844400Y-74371200D02*
X203911200Y-74371200D01*
X203911200Y-74879200D02*
X203911200Y-74599800D01*
X203911200Y-74599800D02*
X202844400Y-74599800D01*
X202844400Y-74599800D02*
X202844400Y-74879200D01*
X202844400Y-74879200D02*
X203911200Y-74879200D01*
X203911200Y-75361800D02*
X203911200Y-75082400D01*
X203911200Y-75082400D02*
X202844400Y-75082400D01*
X202844400Y-75082400D02*
X202844400Y-75361800D01*
X202844400Y-75361800D02*
X203911200Y-75361800D01*
X203911200Y-75869800D02*
X203911200Y-75590400D01*
X203911200Y-75590400D02*
X202844400Y-75590400D01*
X202844400Y-75590400D02*
X202844400Y-75869800D01*
X202844400Y-75869800D02*
X203911200Y-75869800D01*
X203911200Y-76377800D02*
X203911200Y-76098400D01*
X203911200Y-76098400D02*
X202844400Y-76098400D01*
X202844400Y-76098400D02*
X202844400Y-76377800D01*
X202844400Y-76377800D02*
X203911200Y-76377800D01*
X203911200Y-76860400D02*
X203911200Y-76581000D01*
X203911200Y-76581000D02*
X202844400Y-76581000D01*
X202844400Y-76581000D02*
X202844400Y-76860400D01*
X202844400Y-76860400D02*
X203911200Y-76860400D01*
X203911200Y-77368400D02*
X203911200Y-77089000D01*
X203911200Y-77089000D02*
X202844400Y-77089000D01*
X202844400Y-77089000D02*
X202844400Y-77368400D01*
X202844400Y-77368400D02*
X203911200Y-77368400D01*
X203911200Y-77876400D02*
X203911200Y-77597000D01*
X203911200Y-77597000D02*
X202844400Y-77597000D01*
X202844400Y-77597000D02*
X202844400Y-77876400D01*
X202844400Y-77876400D02*
X203911200Y-77876400D01*
X203911200Y-78359000D02*
X203911200Y-78079600D01*
X203911200Y-78079600D02*
X202844400Y-78079600D01*
X202844400Y-78079600D02*
X202844400Y-78359000D01*
X202844400Y-78359000D02*
X203911200Y-78359000D01*
X203911200Y-78867000D02*
X203911200Y-78587600D01*
X203911200Y-78587600D02*
X202844400Y-78587600D01*
X202844400Y-78587600D02*
X202844400Y-78867000D01*
X202844400Y-78867000D02*
X203911200Y-78867000D01*
X203911200Y-79375000D02*
X203911200Y-79095600D01*
X203911200Y-79095600D02*
X202844400Y-79095600D01*
X202844400Y-79095600D02*
X202844400Y-79375000D01*
X202844400Y-79375000D02*
X203911200Y-79375000D01*
X203911200Y-79857600D02*
X203911200Y-79578200D01*
X203911200Y-79578200D02*
X202844400Y-79578200D01*
X202844400Y-79578200D02*
X202844400Y-79857600D01*
X202844400Y-79857600D02*
X203911200Y-79857600D01*
X203911200Y-80365600D02*
X203911200Y-80086200D01*
X203911200Y-80086200D02*
X202844400Y-80086200D01*
X202844400Y-80086200D02*
X202844400Y-80365600D01*
X202844400Y-80365600D02*
X203911200Y-80365600D01*
X203911200Y-80873600D02*
X203911200Y-80594200D01*
X203911200Y-80594200D02*
X202844400Y-80594200D01*
X202844400Y-80594200D02*
X202844400Y-80873600D01*
X202844400Y-80873600D02*
X203911200Y-80873600D01*
X203911200Y-81356200D02*
X203911200Y-81076800D01*
X203911200Y-81076800D02*
X202844400Y-81076800D01*
X202844400Y-81076800D02*
X202844400Y-81356200D01*
X202844400Y-81356200D02*
X203911200Y-81356200D01*
X203911200Y-81864200D02*
X203911200Y-81584800D01*
X203911200Y-81584800D02*
X202844400Y-81584800D01*
X202844400Y-81584800D02*
X202844400Y-81864200D01*
X202844400Y-81864200D02*
X203911200Y-81864200D01*
X203911200Y-82372200D02*
X203911200Y-82092800D01*
X203911200Y-82092800D02*
X202844400Y-82092800D01*
X202844400Y-82092800D02*
X202844400Y-82372200D01*
X202844400Y-82372200D02*
X203911200Y-82372200D01*
X203911200Y-82880200D02*
X203911200Y-82600800D01*
X203911200Y-82600800D02*
X202844400Y-82600800D01*
X202844400Y-82600800D02*
X202844400Y-82880200D01*
X202844400Y-82880200D02*
X203911200Y-82880200D01*
X203911200Y-83362800D02*
X203911200Y-83083400D01*
X203911200Y-83083400D02*
X202844400Y-83083400D01*
X202844400Y-83083400D02*
X202844400Y-83362800D01*
X202844400Y-83362800D02*
X203911200Y-83362800D01*
X203911200Y-83870800D02*
X203911200Y-83591400D01*
X203911200Y-83591400D02*
X202844400Y-83591400D01*
X202844400Y-83591400D02*
X202844400Y-83870800D01*
X202844400Y-83870800D02*
X203911200Y-83870800D01*
X210108800Y-83591400D02*
X210108800Y-83870800D01*
X210108800Y-83870800D02*
X211175600Y-83870800D01*
X211175600Y-83870800D02*
X211175600Y-83591400D01*
X211175600Y-83591400D02*
X210108800Y-83591400D01*
X210108800Y-83083400D02*
X210108800Y-83362800D01*
X210108800Y-83362800D02*
X211175600Y-83362800D01*
X211175600Y-83362800D02*
X211175600Y-83083400D01*
X211175600Y-83083400D02*
X210108800Y-83083400D01*
X210108800Y-82600800D02*
X210108800Y-82880200D01*
X210108800Y-82880200D02*
X211175600Y-82880200D01*
X211175600Y-82880200D02*
X211175600Y-82600800D01*
X211175600Y-82600800D02*
X210108800Y-82600800D01*
X210108800Y-82092800D02*
X210108800Y-82372200D01*
X210108800Y-82372200D02*
X211175600Y-82372200D01*
X211175600Y-82372200D02*
X211175600Y-82092800D01*
X211175600Y-82092800D02*
X210108800Y-82092800D01*
X210108800Y-81584800D02*
X210108800Y-81864200D01*
X210108800Y-81864200D02*
X211175600Y-81864200D01*
X211175600Y-81864200D02*
X211175600Y-81584800D01*
X211175600Y-81584800D02*
X210108800Y-81584800D01*
X210108800Y-81076800D02*
X210108800Y-81356200D01*
X210108800Y-81356200D02*
X211175600Y-81356200D01*
X211175600Y-81356200D02*
X211175600Y-81076800D01*
X211175600Y-81076800D02*
X210108800Y-81076800D01*
X210108800Y-80594200D02*
X210108800Y-80873600D01*
X210108800Y-80873600D02*
X211175600Y-80873600D01*
X211175600Y-80873600D02*
X211175600Y-80594200D01*
X211175600Y-80594200D02*
X210108800Y-80594200D01*
X210108800Y-80086200D02*
X210108800Y-80365600D01*
X210108800Y-80365600D02*
X211175600Y-80365600D01*
X211175600Y-80365600D02*
X211175600Y-80086200D01*
X211175600Y-80086200D02*
X210108800Y-80086200D01*
X210108800Y-79578200D02*
X210108800Y-79857600D01*
X210108800Y-79857600D02*
X211175600Y-79857600D01*
X211175600Y-79857600D02*
X211175600Y-79578200D01*
X211175600Y-79578200D02*
X210108800Y-79578200D01*
X210108800Y-79095600D02*
X210108800Y-79375000D01*
X210108800Y-79375000D02*
X211175600Y-79375000D01*
X211175600Y-79375000D02*
X211175600Y-79095600D01*
X211175600Y-79095600D02*
X210108800Y-79095600D01*
X210108800Y-78587600D02*
X210108800Y-78867000D01*
X210108800Y-78867000D02*
X211175600Y-78867000D01*
X211175600Y-78867000D02*
X211175600Y-78587600D01*
X211175600Y-78587600D02*
X210108800Y-78587600D01*
X210108800Y-78079600D02*
X210108800Y-78359000D01*
X210108800Y-78359000D02*
X211175600Y-78359000D01*
X211175600Y-78359000D02*
X211175600Y-78079600D01*
X211175600Y-78079600D02*
X210108800Y-78079600D01*
X210108800Y-77597000D02*
X210108800Y-77876400D01*
X210108800Y-77876400D02*
X211175600Y-77876400D01*
X211175600Y-77876400D02*
X211175600Y-77597000D01*
X211175600Y-77597000D02*
X210108800Y-77597000D01*
X210108800Y-77089000D02*
X210108800Y-77368400D01*
X210108800Y-77368400D02*
X211175600Y-77368400D01*
X211175600Y-77368400D02*
X211175600Y-77089000D01*
X211175600Y-77089000D02*
X210108800Y-77089000D01*
X210108800Y-76581000D02*
X210108800Y-76860400D01*
X210108800Y-76860400D02*
X211175600Y-76860400D01*
X211175600Y-76860400D02*
X211175600Y-76581000D01*
X211175600Y-76581000D02*
X210108800Y-76581000D01*
X210108800Y-76098400D02*
X210108800Y-76377800D01*
X210108800Y-76377800D02*
X211175600Y-76377800D01*
X211175600Y-76377800D02*
X211175600Y-76098400D01*
X211175600Y-76098400D02*
X210108800Y-76098400D01*
X210108800Y-75590400D02*
X210108800Y-75869800D01*
X210108800Y-75869800D02*
X211175600Y-75869800D01*
X211175600Y-75869800D02*
X211175600Y-75590400D01*
X211175600Y-75590400D02*
X210108800Y-75590400D01*
X210108800Y-75082400D02*
X210108800Y-75361800D01*
X210108800Y-75361800D02*
X211175600Y-75361800D01*
X211175600Y-75361800D02*
X211175600Y-75082400D01*
X211175600Y-75082400D02*
X210108800Y-75082400D01*
X210108800Y-74599800D02*
X210108800Y-74879200D01*
X210108800Y-74879200D02*
X211175600Y-74879200D01*
X211175600Y-74879200D02*
X211175600Y-74599800D01*
X211175600Y-74599800D02*
X210108800Y-74599800D01*
X210108800Y-74091800D02*
X210108800Y-74371200D01*
X210108800Y-74371200D02*
X211175600Y-74371200D01*
X211175600Y-74371200D02*
X211175600Y-74091800D01*
X211175600Y-74091800D02*
X210108800Y-74091800D01*
X210108800Y-73583800D02*
X210108800Y-73863200D01*
X210108800Y-73863200D02*
X211175600Y-73863200D01*
X211175600Y-73863200D02*
X211175600Y-73583800D01*
X211175600Y-73583800D02*
X210108800Y-73583800D01*
X210108800Y-73075800D02*
X210108800Y-73355200D01*
X210108800Y-73355200D02*
X211175600Y-73355200D01*
X211175600Y-73355200D02*
X211175600Y-73075800D01*
X211175600Y-73075800D02*
X210108800Y-73075800D01*
X210108800Y-72593200D02*
X210108800Y-72872600D01*
X210108800Y-72872600D02*
X211175600Y-72872600D01*
X211175600Y-72872600D02*
X211175600Y-72593200D01*
X211175600Y-72593200D02*
X210108800Y-72593200D01*
X210108800Y-72085200D02*
X210108800Y-72364600D01*
X210108800Y-72364600D02*
X211175600Y-72364600D01*
X211175600Y-72364600D02*
X211175600Y-72085200D01*
X211175600Y-72085200D02*
X210108800Y-72085200D01*
X203911200Y-84277200D02*
X210108800Y-84277200D01*
X210108800Y-84277200D02*
X210108800Y-71678800D01*
X210108800Y-71678800D02*
X207314800Y-71678800D01*
X207314800Y-71678800D02*
X206705200Y-71678800D01*
X206705200Y-71678800D02*
X203911200Y-71678800D01*
X203911200Y-71678800D02*
X203911200Y-84277200D01*
D10*
X206705200Y-71678800D02*
G75*
G03X207314800Y-71678800I304800J0D01*
G01*
D11*
X196946000Y-77816000D02*
X196246000Y-77816000D01*
X196246000Y-76616000D02*
X196946000Y-76616000D01*
X196946000Y-76038000D02*
X196246000Y-76038000D01*
X196246000Y-74838000D02*
X196946000Y-74838000D01*
X199736000Y-83724000D02*
X199736000Y-84424000D01*
X198536000Y-84424000D02*
X198536000Y-83724000D01*
D13*
X202973819Y-70821248D02*
X202973819Y-71108510D01*
X202686557Y-70993605D02*
X202973819Y-71108510D01*
X203261081Y-70993605D01*
X202801462Y-71338319D02*
X202973819Y-71108510D01*
X203146176Y-71338319D01*
M02*
