G04 #@! TF.FileFunction,Copper,L2,Bot,Mixed*
%FSLAX46Y46*%
G04 Gerber Fmt 4.6, Leading zero omitted, Abs format (unit mm)*
G04 Created by KiCad (PCBNEW (2015-05-26 BZR 5684)-product) date Wed 21 Oct 2015 04:34:03 PM PDT*
%MOMM*%
G01*
G04 APERTURE LIST*
%ADD10C,0.100000*%
%ADD11C,0.381000*%
%ADD12C,0.508000*%
%ADD13C,3.098800*%
%ADD14R,2.032000X1.727200*%
%ADD15O,2.032000X1.727200*%
%ADD16R,1.727200X1.727200*%
%ADD17O,1.727200X1.727200*%
%ADD18R,10.160000X7.620000*%
%ADD19R,0.700000X2.540000*%
%ADD20R,0.900000X0.500000*%
%ADD21R,6.197600X2.692400*%
%ADD22R,0.500000X0.900000*%
%ADD23C,0.381000*%
%ADD24R,0.750000X0.800000*%
%ADD25C,0.600000*%
%ADD26C,0.228600*%
%ADD27C,0.254000*%
%ADD28C,0.025400*%
G04 APERTURE END LIST*
D10*
D11*
X136779000Y-99822000D02*
X136779000Y-99314000D01*
X136652000Y-93599000D02*
X136652000Y-94107000D01*
X154051000Y-99822000D02*
X154051000Y-99314000D01*
X154051000Y-93472000D02*
X154051000Y-93980000D01*
D12*
X181483000Y-89408000D03*
X180213000Y-89408000D03*
X178943000Y-89408000D03*
X177673000Y-89408000D03*
X176403000Y-89408000D03*
X175133000Y-89408000D03*
X181483000Y-87884000D03*
X180213000Y-87884000D03*
X178943000Y-87884000D03*
X177673000Y-87884000D03*
X176403000Y-87884000D03*
X175133000Y-87884000D03*
X181483000Y-86360000D03*
X180213000Y-86360000D03*
X176403000Y-86360000D03*
X175133000Y-86360000D03*
X181483000Y-84836000D03*
X180213000Y-84836000D03*
X176403000Y-84836000D03*
X175133000Y-84836000D03*
X181483000Y-83312000D03*
X180213000Y-83312000D03*
X178943000Y-83312000D03*
X177673000Y-83312000D03*
X176403000Y-83312000D03*
X175133000Y-83312000D03*
X181483000Y-81788000D03*
X180213000Y-81788000D03*
X178943000Y-81788000D03*
X177673000Y-81788000D03*
X176403000Y-81788000D03*
X175133000Y-81788000D03*
X174498000Y-119253000D03*
X172974000Y-119253000D03*
X171450000Y-119253000D03*
X169926000Y-119253000D03*
X168402000Y-119253000D03*
X166878000Y-119253000D03*
X165354000Y-119253000D03*
X174498000Y-117983000D03*
X172974000Y-117983000D03*
X171450000Y-117983000D03*
X169926000Y-117983000D03*
X168402000Y-117983000D03*
X166878000Y-117983000D03*
X165354000Y-117983000D03*
X174498000Y-116713000D03*
X172974000Y-116713000D03*
X169926000Y-116713000D03*
X166878000Y-116713000D03*
X165354000Y-116713000D03*
X174498000Y-115443000D03*
X172974000Y-115443000D03*
X169926000Y-115443000D03*
X166878000Y-115443000D03*
X165354000Y-115443000D03*
X174498000Y-114173000D03*
X172974000Y-114173000D03*
X171450000Y-114173000D03*
X168402000Y-114173000D03*
X166878000Y-114173000D03*
X165354000Y-114173000D03*
X174498000Y-112903000D03*
X172974000Y-112903000D03*
X171450000Y-112903000D03*
X169926000Y-112903000D03*
X168402000Y-112903000D03*
X166878000Y-112903000D03*
X165354000Y-112903000D03*
X157988000Y-119253000D03*
X156464000Y-119253000D03*
X154940000Y-119253000D03*
X153416000Y-119253000D03*
X151892000Y-119253000D03*
X150368000Y-119253000D03*
X148844000Y-119253000D03*
X157988000Y-117983000D03*
X156464000Y-117983000D03*
X154940000Y-117983000D03*
X153416000Y-117983000D03*
X151892000Y-117983000D03*
X150368000Y-117983000D03*
X148844000Y-117983000D03*
X157988000Y-116713000D03*
X156464000Y-116713000D03*
X150368000Y-116713000D03*
X148844000Y-116713000D03*
X157988000Y-115443000D03*
X156464000Y-115443000D03*
X150368000Y-115443000D03*
X148844000Y-115443000D03*
X157988000Y-114173000D03*
X156464000Y-114173000D03*
X154940000Y-114173000D03*
X151892000Y-114173000D03*
X150368000Y-114173000D03*
X148844000Y-114173000D03*
X157988000Y-112903000D03*
X156464000Y-112903000D03*
X154940000Y-112903000D03*
X153416000Y-112903000D03*
X151892000Y-112903000D03*
X150368000Y-112903000D03*
X148844000Y-112903000D03*
X140716000Y-119253000D03*
X139192000Y-119253000D03*
X137668000Y-119253000D03*
X136144000Y-119253000D03*
X134620000Y-119253000D03*
X133096000Y-119253000D03*
X131572000Y-119253000D03*
X140716000Y-117983000D03*
X139192000Y-117983000D03*
X137668000Y-117983000D03*
X136144000Y-117983000D03*
X134620000Y-117983000D03*
X133096000Y-117983000D03*
X131572000Y-117983000D03*
X140716000Y-116713000D03*
X139192000Y-116713000D03*
X133096000Y-116713000D03*
X131572000Y-116713000D03*
X140716000Y-115443000D03*
X139192000Y-115443000D03*
X133096000Y-115443000D03*
X131572000Y-115443000D03*
X140716000Y-114173000D03*
X139192000Y-114173000D03*
X137668000Y-114173000D03*
X134620000Y-114173000D03*
X133096000Y-114173000D03*
X131572000Y-114173000D03*
X140716000Y-112903000D03*
X139192000Y-112903000D03*
X137668000Y-112903000D03*
X136144000Y-112903000D03*
X134620000Y-112903000D03*
X133096000Y-112903000D03*
X131572000Y-112903000D03*
X143764000Y-81407000D03*
X143764000Y-82296000D03*
X145288000Y-82296000D03*
X145288000Y-81407000D03*
X139954000Y-81407000D03*
X140335000Y-82169000D03*
X140335000Y-83058000D03*
X141351000Y-83058000D03*
X162052000Y-117475000D03*
X123825000Y-78613000D03*
X145288000Y-78486000D03*
X180848000Y-122047000D03*
X162052000Y-119888000D03*
X159893000Y-121666000D03*
X129540000Y-120523000D03*
X143256000Y-116205000D03*
X143256000Y-117094000D03*
X126492000Y-110236000D03*
X126111000Y-109601000D03*
X129286000Y-116332000D03*
X124714000Y-117094000D03*
X153543000Y-75184000D03*
X143764000Y-77851000D03*
X137160000Y-76200000D03*
X139700000Y-76200000D03*
X160401000Y-95504000D03*
X165862000Y-95631000D03*
X165862000Y-92202000D03*
X160528000Y-92202000D03*
X120904000Y-97028000D03*
X121031000Y-104648000D03*
X122301000Y-114935000D03*
X124841000Y-122174000D03*
X120904000Y-117983000D03*
X120904000Y-122174000D03*
X124841000Y-69469000D03*
X122809000Y-69469000D03*
X120523000Y-69469000D03*
X126619000Y-80899000D03*
X124079000Y-83439000D03*
X127635000Y-88519000D03*
X129032000Y-88646000D03*
X131572000Y-92710000D03*
X130175000Y-95504000D03*
X131064000Y-95504000D03*
X153670000Y-86995000D03*
X152781000Y-86995000D03*
X151892000Y-86995000D03*
X151003000Y-86995000D03*
X150114000Y-86995000D03*
X153670000Y-86360000D03*
X152781000Y-86360000D03*
X151892000Y-86360000D03*
X151003000Y-86360000D03*
X150114000Y-86360000D03*
X153670000Y-85725000D03*
X152781000Y-85725000D03*
X151892000Y-85725000D03*
X151003000Y-85725000D03*
X150114000Y-85725000D03*
X153670000Y-85090000D03*
X152781000Y-85090000D03*
X151892000Y-85090000D03*
X151003000Y-85090000D03*
X150114000Y-85090000D03*
X153670000Y-84455000D03*
X152781000Y-84455000D03*
X151892000Y-84455000D03*
X151003000Y-84455000D03*
D13*
X169926000Y-115951000D03*
X153416000Y-116078000D03*
X136017000Y-115951000D03*
X126238000Y-101727000D03*
X179578000Y-102298000D03*
X178181000Y-85407500D03*
D14*
X121209000Y-80873600D03*
D15*
X121209000Y-83413600D03*
X121209000Y-85953600D03*
X121209000Y-88493600D03*
X121209000Y-91033600D03*
X121209000Y-93573600D03*
D16*
X129540000Y-73660000D03*
D17*
X129540000Y-71120000D03*
X132080000Y-73660000D03*
X132080000Y-71120000D03*
X134620000Y-73660000D03*
X134620000Y-71120000D03*
X137160000Y-73660000D03*
X137160000Y-71120000D03*
X139700000Y-73660000D03*
X139700000Y-71120000D03*
X142240000Y-73660000D03*
X142240000Y-71120000D03*
X144780000Y-73660000D03*
X144780000Y-71120000D03*
X147320000Y-73660000D03*
X147320000Y-71120000D03*
X149860000Y-73660000D03*
X149860000Y-71120000D03*
X152400000Y-73660000D03*
X152400000Y-71120000D03*
X154940000Y-73660000D03*
X154940000Y-71120000D03*
X157480000Y-73660000D03*
X157480000Y-71120000D03*
X160020000Y-73660000D03*
X160020000Y-71120000D03*
X162560000Y-73660000D03*
X162560000Y-71120000D03*
X165100000Y-73660000D03*
X165100000Y-71120000D03*
X167640000Y-73660000D03*
X167640000Y-71120000D03*
X170180000Y-73660000D03*
X170180000Y-71120000D03*
X172720000Y-73660000D03*
X172720000Y-71120000D03*
X175260000Y-73660000D03*
X175260000Y-71120000D03*
X177800000Y-73660000D03*
X177800000Y-71120000D03*
D18*
X169926000Y-116205000D03*
D19*
X166116000Y-106680000D03*
X167386000Y-106680000D03*
X168656000Y-106680000D03*
X171196000Y-106680000D03*
X172466000Y-106680000D03*
X173736000Y-106680000D03*
D18*
X153416000Y-116205000D03*
D19*
X149606000Y-106680000D03*
X150876000Y-106680000D03*
X152146000Y-106680000D03*
X154686000Y-106680000D03*
X155956000Y-106680000D03*
X157226000Y-106680000D03*
D18*
X136144000Y-116205000D03*
D19*
X132334000Y-106680000D03*
X133604000Y-106680000D03*
X134874000Y-106680000D03*
X137414000Y-106680000D03*
X138684000Y-106680000D03*
X139954000Y-106680000D03*
D20*
X139319000Y-79502000D03*
X139319000Y-78002000D03*
X127635000Y-119241000D03*
X127635000Y-117741000D03*
X164592000Y-106668000D03*
X164592000Y-105168000D03*
X162662000Y-105117000D03*
X162662000Y-106617000D03*
X136652000Y-79490000D03*
X136652000Y-77990000D03*
X146431000Y-120003000D03*
X146431000Y-118503000D03*
D21*
X136715500Y-92176600D03*
X136715500Y-101219000D03*
D20*
X134112000Y-79490000D03*
X134112000Y-77990000D03*
X178181000Y-118860000D03*
X178181000Y-117360000D03*
X147955000Y-106668000D03*
X147955000Y-105168000D03*
D22*
X144919000Y-105918000D03*
X146419000Y-105918000D03*
D21*
X154114500Y-92176600D03*
X154114500Y-101219000D03*
D20*
X141986000Y-77990000D03*
X141986000Y-79490000D03*
X124333000Y-112510000D03*
X124333000Y-111010000D03*
X130810000Y-106668000D03*
X130810000Y-105168000D03*
X129032000Y-106656000D03*
X129032000Y-105156000D03*
D23*
X136779000Y-99822000D03*
X136779000Y-99314000D03*
X136652000Y-93599000D03*
X136652000Y-94107000D03*
X154051000Y-99822000D03*
X154051000Y-99314000D03*
X154051000Y-93472000D03*
X154051000Y-93980000D03*
D24*
X141097000Y-96127000D03*
X141097000Y-94627000D03*
X149860000Y-96127000D03*
X149860000Y-94627000D03*
X125984000Y-119114000D03*
X125984000Y-117614000D03*
X144830800Y-120028400D03*
X144830800Y-118528400D03*
X180086000Y-118860000D03*
X180086000Y-117360000D03*
X126365000Y-112637000D03*
X126365000Y-111137000D03*
D13*
X134493000Y-85344000D03*
D12*
X150114000Y-84455000D03*
X154998000Y-94262800D03*
X145542000Y-109347000D03*
X137714500Y-79617000D03*
D25*
X155788000Y-95605500D03*
X163983000Y-109607000D03*
X147348000Y-96267800D03*
X147115000Y-109270000D03*
X137069000Y-94950900D03*
X130427844Y-109161455D03*
D12*
X127149000Y-119780000D03*
X145595340Y-120030240D03*
X130305000Y-122226000D03*
X178912000Y-119786000D03*
X140105000Y-68950300D03*
X131203400Y-75106800D03*
X122559800Y-110131100D03*
X125226000Y-111709000D03*
X147589000Y-91026700D03*
X148136000Y-91551900D03*
X146659000Y-92754400D03*
X147043000Y-91595200D03*
X125405000Y-96595800D03*
X127519800Y-87527800D03*
X129818000Y-90390900D03*
X122808591Y-95699055D03*
X128511594Y-78714167D03*
X126948479Y-75920823D03*
X126992826Y-72749590D03*
X133077827Y-69136230D03*
X162768000Y-107590000D03*
X146420000Y-107540000D03*
X131278738Y-107828295D03*
X150835000Y-94526100D03*
X146772000Y-93430800D03*
X155822000Y-96461200D03*
X161938000Y-110731000D03*
X155505000Y-94826300D03*
X146381000Y-96774400D03*
X145452000Y-110765000D03*
X148614000Y-95704900D03*
X136215000Y-95006200D03*
X128564000Y-110274000D03*
X143380000Y-95261400D03*
X147339000Y-79952000D03*
X147413700Y-77296700D03*
D26*
X166818000Y-104588000D02*
X164846000Y-102616000D01*
X164846000Y-102616000D02*
X164242000Y-102616000D01*
X164242000Y-102616000D02*
X159587000Y-97961100D01*
X167386000Y-106680000D02*
X167386000Y-105181000D01*
X167386000Y-105181000D02*
X167311000Y-105107000D01*
X167311000Y-105107000D02*
X167311000Y-105081000D01*
X167311000Y-105081000D02*
X166818000Y-104588000D01*
X159587000Y-97961100D02*
X159698000Y-98071700D01*
X154998000Y-94262800D02*
X155889000Y-94262800D01*
X155889000Y-94262800D02*
X159587000Y-97961100D01*
X154051000Y-92240100D02*
X154114000Y-92176600D01*
X136652000Y-93599000D02*
X136652000Y-92240100D01*
X136652000Y-92240100D02*
X136716000Y-92176600D01*
X162662000Y-105117000D02*
X163340000Y-105117000D01*
X163340000Y-105117000D02*
X164137000Y-105914000D01*
X164137000Y-105914000D02*
X165072000Y-105914000D01*
X165072000Y-105914000D02*
X165474000Y-105512000D01*
X165474000Y-105512000D02*
X165474000Y-105176000D01*
X165474000Y-105176000D02*
X166063000Y-104588000D01*
X166063000Y-104588000D02*
X166818000Y-104588000D01*
X132105400Y-92176600D02*
X131572000Y-92710000D01*
X136715500Y-92176600D02*
X132105400Y-92176600D01*
X126492000Y-111010000D02*
X126365000Y-111137000D01*
X126492000Y-110236000D02*
X126492000Y-111010000D01*
X129232000Y-106656000D02*
X129032000Y-106656000D01*
X131042145Y-108466145D02*
X129232000Y-106656000D01*
X129286000Y-111212465D02*
X131042145Y-109456320D01*
X131042145Y-109456320D02*
X131042145Y-108466145D01*
X129286000Y-116332000D02*
X129286000Y-111212465D01*
X154051000Y-92240100D02*
X154114500Y-92176600D01*
X154051000Y-93472000D02*
X154051000Y-92240100D01*
X145542000Y-109347000D02*
X144919000Y-108724000D01*
X144919000Y-108724000D02*
X144919000Y-105918000D01*
X137394400Y-79490000D02*
X138564600Y-79490000D01*
X138564600Y-79490000D02*
X138576600Y-79502000D01*
X136652000Y-79490000D02*
X137394400Y-79490000D01*
X137714500Y-79617000D02*
X137521400Y-79617000D01*
X137521400Y-79617000D02*
X137394400Y-79490000D01*
X136652000Y-79490000D02*
X134112000Y-79490000D01*
X139319000Y-79502000D02*
X138576600Y-79502000D01*
X139319000Y-79502000D02*
X140061400Y-79502000D01*
X141986000Y-77990000D02*
X141986000Y-78532400D01*
X141986000Y-78532400D02*
X142257200Y-78532400D01*
X142257200Y-78532400D02*
X142728500Y-79003700D01*
X142728500Y-79003700D02*
X142728500Y-79870000D01*
X142728500Y-79870000D02*
X142566000Y-80032500D01*
X142566000Y-80032500D02*
X140591900Y-80032500D01*
X140591900Y-80032500D02*
X140061400Y-79502000D01*
D27*
X155788000Y-95605500D02*
X155788000Y-95694600D01*
X155788000Y-95694600D02*
X155974000Y-95880200D01*
X155974000Y-95880200D02*
X156101000Y-95880200D01*
X156101000Y-95880200D02*
X161885000Y-101664000D01*
X161885000Y-101664000D02*
X161885000Y-108300000D01*
X161885000Y-108300000D02*
X163192000Y-109607000D01*
X163192000Y-109607000D02*
X163983000Y-109607000D01*
X147048000Y-109203000D02*
X147115000Y-109270000D01*
X147348000Y-96267800D02*
X147048000Y-96567800D01*
X147048000Y-96567800D02*
X147048000Y-102380000D01*
X147048000Y-102380000D02*
X145659000Y-103769000D01*
X145659000Y-103769000D02*
X145659000Y-107814000D01*
X145659000Y-107814000D02*
X147048000Y-109203000D01*
X147048000Y-109203000D02*
X147115000Y-109270000D01*
X137069000Y-94950900D02*
X137069000Y-95026100D01*
X137069000Y-94950900D02*
X136769001Y-95250899D01*
X136769000Y-95570800D02*
X128031000Y-104309000D01*
X128031000Y-104309000D02*
X128031000Y-107188875D01*
X136769001Y-95250899D02*
X136769000Y-95570800D01*
X130003580Y-109161455D02*
X130427844Y-109161455D01*
X128031000Y-107188875D02*
X130003580Y-109161455D01*
D26*
X132080000Y-73660000D02*
X130924000Y-73660000D01*
X130924000Y-73660000D02*
X130924000Y-74454700D01*
X130924000Y-74454700D02*
X124505100Y-80873600D01*
X124505100Y-80873600D02*
X121209000Y-80873600D01*
X126772000Y-119114000D02*
X126772000Y-115557900D01*
X126772000Y-115557900D02*
X127098200Y-115231700D01*
X127098200Y-115231700D02*
X127098200Y-105909500D01*
X127098200Y-105909500D02*
X123997300Y-102808600D01*
X123997300Y-102808600D02*
X123997300Y-86525500D01*
X123997300Y-86525500D02*
X131990400Y-78532400D01*
X131990400Y-78532400D02*
X137288900Y-78532400D01*
X137288900Y-78532400D02*
X138541100Y-77280200D01*
X126772000Y-119114000D02*
X127508000Y-119114000D01*
X127508000Y-119114000D02*
X127635000Y-119241000D01*
X125984000Y-119114000D02*
X126772000Y-119114000D01*
X139700000Y-72276000D02*
X139430500Y-72276000D01*
X139430500Y-72276000D02*
X138541100Y-73165400D01*
X138541100Y-73165400D02*
X138541100Y-77280200D01*
X139319000Y-77459600D02*
X139139600Y-77280200D01*
X139139600Y-77280200D02*
X138541100Y-77280200D01*
X139700000Y-71120000D02*
X139700000Y-72276000D01*
X139319000Y-78002000D02*
X139319000Y-77459600D01*
X127635000Y-119241000D02*
X127635000Y-119294000D01*
X127635000Y-119294000D02*
X127149000Y-119780000D01*
X136890500Y-72276000D02*
X135985200Y-73181300D01*
X135985200Y-73181300D02*
X135985200Y-76780800D01*
X135985200Y-76780800D02*
X136652000Y-77447600D01*
X137160000Y-72276000D02*
X136890500Y-72276000D01*
X137160000Y-71120000D02*
X137160000Y-72276000D01*
X136652000Y-77990000D02*
X136652000Y-77447600D01*
X144832640Y-120030240D02*
X144830800Y-120028400D01*
X145595340Y-120030240D02*
X144832640Y-120030240D01*
X135776100Y-70568500D02*
X135776100Y-71161600D01*
X129031800Y-69938300D02*
X135145900Y-69938300D01*
X135776100Y-71161600D02*
X136890500Y-72276000D01*
X135145900Y-69938300D02*
X135776100Y-70568500D01*
X119900500Y-79069600D02*
X129031800Y-69938300D01*
X119900500Y-114877000D02*
X119900500Y-79069600D01*
X127801000Y-122777500D02*
X119900500Y-114877000D01*
X144308945Y-122777500D02*
X127801000Y-122777500D01*
X144830800Y-122255645D02*
X144308945Y-122777500D01*
X144830800Y-120028400D02*
X144830800Y-122255645D01*
X146403760Y-120030240D02*
X146431000Y-120003000D01*
X145595340Y-120030240D02*
X146403760Y-120030240D01*
X133445200Y-76780800D02*
X133108300Y-76780800D01*
X133108300Y-76780800D02*
X123570500Y-86318600D01*
X123570500Y-86318600D02*
X123570500Y-117903700D01*
X123570500Y-117903700D02*
X127892800Y-122226000D01*
X127892800Y-122226000D02*
X130305000Y-122226000D01*
X133445200Y-76780800D02*
X133445200Y-73181300D01*
X133445200Y-73181300D02*
X134350500Y-72276000D01*
X134350500Y-72276000D02*
X134620000Y-72276000D01*
X134112000Y-77447600D02*
X133445200Y-76780800D01*
X134620000Y-71120000D02*
X134620000Y-72276000D01*
X134112000Y-77990000D02*
X134112000Y-77447600D01*
X178912000Y-119786000D02*
X178912000Y-119591000D01*
X178912000Y-119591000D02*
X178181000Y-118860000D01*
X178912000Y-119786000D02*
X179160000Y-119786000D01*
X179160000Y-119786000D02*
X180086000Y-118860000D01*
X141970500Y-72276000D02*
X142240000Y-72276000D01*
X141986000Y-78947600D02*
X141774300Y-78947600D01*
X141774300Y-78947600D02*
X141033500Y-78206800D01*
X141033500Y-78206800D02*
X141033500Y-73213000D01*
X141033500Y-73213000D02*
X141970500Y-72276000D01*
X140105000Y-68950300D02*
X140856100Y-69701400D01*
X140856100Y-69701400D02*
X140856100Y-71161600D01*
X140856100Y-71161600D02*
X141970500Y-72276000D01*
X122559800Y-83750400D02*
X131203400Y-75106800D01*
X125226000Y-111709000D02*
X125134000Y-111709000D01*
X125134000Y-111709000D02*
X124333000Y-112510000D01*
X142240000Y-71120000D02*
X142240000Y-72276000D01*
X141986000Y-79490000D02*
X141986000Y-78947600D01*
X125226000Y-111709000D02*
X125437000Y-111709000D01*
X125437000Y-111709000D02*
X126365000Y-112637000D01*
X122559800Y-97365677D02*
X122431472Y-97365677D01*
X122559800Y-110131100D02*
X122559800Y-97365677D01*
X122431472Y-97365677D02*
X121871876Y-96806081D01*
X121871876Y-95219127D02*
X122559800Y-94531203D01*
X121871876Y-96806081D02*
X121871876Y-95219127D01*
X122559800Y-94531203D02*
X122559800Y-83750400D01*
X154051000Y-99314000D02*
X154051000Y-99044600D01*
X154051000Y-99044600D02*
X151133000Y-96127000D01*
X151133000Y-96127000D02*
X149860000Y-96127000D01*
X149860000Y-96127000D02*
X149860000Y-96102000D01*
X149860000Y-96102000D02*
X147589000Y-93831400D01*
X147589000Y-93831400D02*
X147589000Y-91026700D01*
X154051000Y-93980000D02*
X150482000Y-93980000D01*
X150482000Y-93980000D02*
X149860000Y-94602000D01*
X149860000Y-94602000D02*
X149860000Y-94627000D01*
X149860000Y-94627000D02*
X149860000Y-93276300D01*
X149860000Y-93276300D02*
X148136000Y-91551900D01*
X136779000Y-99314000D02*
X137935000Y-99314000D01*
X137935000Y-99314000D02*
X141097000Y-96152000D01*
X141097000Y-96152000D02*
X141097000Y-96127000D01*
X141097000Y-96127000D02*
X143286000Y-96127000D01*
X143286000Y-96127000D02*
X146659000Y-92754400D01*
X140577000Y-94107000D02*
X141097000Y-94627000D01*
X136652000Y-94107000D02*
X140577000Y-94107000D01*
X140577000Y-94107000D02*
X144532000Y-94107000D01*
X144532000Y-94107000D02*
X147043000Y-91595200D01*
X136652000Y-94107000D02*
X140577000Y-94107000D01*
X127519800Y-87527800D02*
X125405000Y-89642600D01*
X125405000Y-89642600D02*
X125405000Y-96595800D01*
X157480000Y-71120000D02*
X157480000Y-72276000D01*
X157480000Y-72276000D02*
X157190900Y-72276000D01*
X157190900Y-72276000D02*
X156324000Y-73142900D01*
X156324000Y-73142900D02*
X156324000Y-74009800D01*
X156324000Y-74009800D02*
X149835400Y-80498400D01*
X149835400Y-80498400D02*
X130659200Y-80498400D01*
X130659200Y-80498400D02*
X129818000Y-81339600D01*
X129818000Y-81339600D02*
X129818000Y-90390900D01*
X123062590Y-85263640D02*
X128511594Y-79814636D01*
X123062590Y-95445056D02*
X123062590Y-85263640D01*
X128511594Y-79814636D02*
X128511594Y-78714167D01*
X122808591Y-95699055D02*
X123062590Y-95445056D01*
X126948479Y-72793937D02*
X126992826Y-72749590D01*
X126948479Y-75920823D02*
X126948479Y-72793937D01*
X133331826Y-68882231D02*
X133687321Y-68882231D01*
X133077827Y-69136230D02*
X133331826Y-68882231D01*
X134165353Y-68404199D02*
X140713957Y-68404199D01*
X133687321Y-68882231D02*
X134165353Y-68404199D01*
X140713957Y-68404199D02*
X141689543Y-69379785D01*
X158279785Y-69379785D02*
X160020000Y-71120000D01*
X141689543Y-69379785D02*
X158279785Y-69379785D01*
X162768000Y-107590000D02*
X162768000Y-106724000D01*
X162768000Y-106724000D02*
X162662000Y-106617000D01*
X162662000Y-106617000D02*
X164541000Y-106617000D01*
X164541000Y-106617000D02*
X164592000Y-106668000D01*
X164592000Y-106668000D02*
X166104000Y-106668000D01*
X166104000Y-106668000D02*
X166116000Y-106680000D01*
X147955000Y-106668000D02*
X149594000Y-106668000D01*
X149594000Y-106668000D02*
X149606000Y-106680000D01*
X146420000Y-107540000D02*
X146420000Y-106987000D01*
X146420000Y-106987000D02*
X146101000Y-106668000D01*
X146101000Y-106668000D02*
X147955000Y-106668000D01*
X146419000Y-105918000D02*
X147205000Y-105918000D01*
X147205000Y-105918000D02*
X147955000Y-106668000D01*
X130810000Y-106668000D02*
X132322000Y-106668000D01*
X132322000Y-106668000D02*
X132334000Y-106680000D01*
X130798000Y-106656000D02*
X130810000Y-106668000D01*
X129232000Y-105156000D02*
X130084909Y-106008909D01*
X129032000Y-105156000D02*
X129232000Y-105156000D01*
X130610000Y-106668000D02*
X130810000Y-106668000D01*
X130084909Y-106142909D02*
X130610000Y-106668000D01*
X130084909Y-106008909D02*
X130084909Y-106142909D01*
X130810000Y-107359557D02*
X131024739Y-107574296D01*
X130810000Y-106668000D02*
X130810000Y-107359557D01*
X131024739Y-107574296D02*
X131278738Y-107828295D01*
X154324000Y-101009500D02*
X154114000Y-101219000D01*
X150835000Y-94526100D02*
X150835000Y-95254300D01*
X150835000Y-95254300D02*
X154534000Y-98952400D01*
X154534000Y-98952400D02*
X154534000Y-100800000D01*
X154534000Y-100800000D02*
X154324000Y-101009500D01*
X154324000Y-101009500D02*
X154114500Y-101219000D01*
X150876000Y-105760000D02*
X150876000Y-106680000D01*
X154051000Y-99822000D02*
X154051000Y-101156000D01*
X154051000Y-101156000D02*
X154114000Y-101219000D01*
X154686000Y-106680000D02*
X154686000Y-101790000D01*
X154686000Y-101790000D02*
X154114000Y-101219000D01*
X136747500Y-101187500D02*
X136747000Y-101187500D01*
X136747000Y-101187500D02*
X136715500Y-101219000D01*
X136747500Y-101187500D02*
X136716000Y-101219000D01*
X136779000Y-101156000D02*
X136747500Y-101187500D01*
X136747500Y-101187500D02*
X136716000Y-101219000D01*
X136779000Y-101156000D02*
X136747500Y-101187500D01*
X137262000Y-100673000D02*
X136779000Y-101156000D01*
X136779000Y-99822000D02*
X136779000Y-101156000D01*
X133604000Y-105760000D02*
X133604000Y-106680000D01*
X136779000Y-101156000D02*
X136842000Y-101219000D01*
X146772000Y-93430800D02*
X143669000Y-96533400D01*
X143669000Y-96533400D02*
X141994000Y-96533400D01*
X141994000Y-96533400D02*
X141709000Y-96819100D01*
X141709000Y-96819100D02*
X141005000Y-96819100D01*
X141005000Y-96819100D02*
X136716000Y-101108000D01*
X136716000Y-101108000D02*
X136716000Y-101219000D01*
X137414000Y-106680000D02*
X137414000Y-101918000D01*
X137414000Y-101918000D02*
X136716000Y-101219000D01*
X161919000Y-110712000D02*
X161938000Y-110731000D01*
X155822000Y-96461200D02*
X161443000Y-102082000D01*
X161443000Y-102082000D02*
X161443000Y-110236000D01*
X161443000Y-110236000D02*
X161919000Y-110712000D01*
X161919000Y-110712000D02*
X161938000Y-110731000D01*
X155505000Y-94826300D02*
X155878000Y-94826300D01*
X155878000Y-94826300D02*
X164592000Y-103541000D01*
X164592000Y-103541000D02*
X164592000Y-105168000D01*
X145359000Y-110672000D02*
X145452000Y-110765000D01*
X146381000Y-96774400D02*
X144882000Y-98272900D01*
X144882000Y-98272900D02*
X144833000Y-98272900D01*
X144833000Y-98272900D02*
X144377000Y-98729000D01*
X144377000Y-98729000D02*
X143544000Y-99561300D01*
X143544000Y-99561300D02*
X143544000Y-108858000D01*
X143544000Y-108858000D02*
X145452000Y-110765000D01*
X147955000Y-105168000D02*
X147755000Y-105168000D01*
X148614000Y-95704900D02*
X148614000Y-104509000D01*
X148614000Y-104509000D02*
X148634000Y-104529000D01*
X148634000Y-104529000D02*
X148634000Y-104689000D01*
X148634000Y-104689000D02*
X148155000Y-105168000D01*
X148155000Y-105168000D02*
X147955000Y-105168000D01*
X136215000Y-95006200D02*
X136215000Y-95500600D01*
X136215000Y-95500600D02*
X127505000Y-104210000D01*
X127505000Y-104210000D02*
X127505000Y-106651000D01*
X127505000Y-106651000D02*
X127589000Y-106735000D01*
X127589000Y-106735000D02*
X127589000Y-109299000D01*
X127589000Y-109299000D02*
X128564000Y-110274000D01*
X130610000Y-105168000D02*
X130810000Y-105168000D01*
X143380000Y-95261400D02*
X143020790Y-95261400D01*
X130810000Y-102154048D02*
X130810000Y-104689400D01*
X130810000Y-104689400D02*
X130810000Y-105168000D01*
X136868046Y-96095864D02*
X130810000Y-102154048D01*
X143020790Y-95261400D02*
X142847290Y-95434900D01*
X142847290Y-95434900D02*
X137529000Y-95434900D01*
X137529000Y-95434900D02*
X136868046Y-96095864D01*
X147339000Y-79952000D02*
X146129400Y-78742400D01*
X146129400Y-78742400D02*
X146129400Y-73197100D01*
X146129400Y-73197100D02*
X147050500Y-72276000D01*
X147050500Y-72276000D02*
X147320000Y-72276000D01*
X147320000Y-71120000D02*
X147320000Y-72276000D01*
X149860000Y-71120000D02*
X149860000Y-72276000D01*
X147413700Y-77296700D02*
X148590000Y-76120400D01*
X148590000Y-76120400D02*
X148590000Y-73276500D01*
X148590000Y-73276500D02*
X149590500Y-72276000D01*
X149590500Y-72276000D02*
X149860000Y-72276000D01*
D28*
G36*
X157848300Y-107937300D02*
X150380700Y-107937300D01*
X150380700Y-102577900D01*
X157848300Y-102577900D01*
X157848300Y-107937300D01*
X157848300Y-107937300D01*
G37*
X157848300Y-107937300D02*
X150380700Y-107937300D01*
X150380700Y-102577900D01*
X157848300Y-102577900D01*
X157848300Y-107937300D01*
G36*
X140703239Y-107937300D02*
X133108640Y-107937300D01*
X133083360Y-102577900D01*
X140677959Y-102577900D01*
X140703239Y-107937300D01*
X140703239Y-107937300D01*
G37*
X140703239Y-107937300D02*
X133108640Y-107937300D01*
X133083360Y-102577900D01*
X140677959Y-102577900D01*
X140703239Y-107937300D01*
G36*
X141617700Y-120484900D02*
X130721100Y-120484900D01*
X130721100Y-111010700D01*
X141617700Y-111010700D01*
X141617700Y-120484900D01*
X141617700Y-120484900D01*
G37*
X141617700Y-120484900D02*
X130721100Y-120484900D01*
X130721100Y-111010700D01*
X141617700Y-111010700D01*
X141617700Y-120484900D01*
G36*
X158889631Y-120484900D02*
X147840700Y-120484900D01*
X147840700Y-111010700D01*
X158838967Y-111010700D01*
X158889631Y-120484900D01*
X158889631Y-120484900D01*
G37*
X158889631Y-120484900D02*
X147840700Y-120484900D01*
X147840700Y-111010700D01*
X158838967Y-111010700D01*
X158889631Y-120484900D01*
G36*
X175348900Y-120484900D02*
X164452300Y-120484900D01*
X164452300Y-111010700D01*
X175348900Y-111010700D01*
X175348900Y-120484900D01*
X175348900Y-120484900D01*
G37*
X175348900Y-120484900D02*
X164452300Y-120484900D01*
X164452300Y-111010700D01*
X175348900Y-111010700D01*
X175348900Y-120484900D01*
D27*
G36*
X126722830Y-122759000D02*
X120065000Y-122759000D01*
X120065000Y-116101170D01*
X126722830Y-122759000D01*
X126722830Y-122759000D01*
G37*
X126722830Y-122759000D02*
X120065000Y-122759000D01*
X120065000Y-116101170D01*
X126722830Y-122759000D01*
G36*
X143808659Y-97254920D02*
X143955700Y-97225682D01*
X143955721Y-97225668D01*
X143955745Y-97225663D01*
X144076088Y-97145252D01*
X144198801Y-97063269D01*
X146942475Y-94319949D01*
X146948057Y-94319954D01*
X147013511Y-94292909D01*
X147059165Y-94361235D01*
X147059193Y-94361254D01*
X147059212Y-94361282D01*
X147879777Y-95181702D01*
X147860782Y-95200664D01*
X147765985Y-95428959D01*
X147534799Y-95332962D01*
X147162833Y-95332638D01*
X146819057Y-95474683D01*
X146555808Y-95737473D01*
X146494342Y-95885498D01*
X146204943Y-95885246D01*
X145878080Y-96020303D01*
X145627782Y-96270164D01*
X145492154Y-96596791D01*
X145492148Y-96603462D01*
X144450947Y-97644316D01*
X144425062Y-97661616D01*
X144303165Y-97743065D01*
X144303142Y-97743100D01*
X144303107Y-97743123D01*
X143847388Y-98198942D01*
X143014388Y-99031242D01*
X143014299Y-99031376D01*
X143014165Y-99031465D01*
X142933000Y-99152937D01*
X142851857Y-99274265D01*
X142851826Y-99274422D01*
X142851737Y-99274555D01*
X142823357Y-99417233D01*
X142794700Y-99560985D01*
X142794731Y-99561143D01*
X142794700Y-99561300D01*
X142794700Y-108858000D01*
X142794719Y-108858098D01*
X142794700Y-108858196D01*
X142823252Y-109001542D01*
X142851737Y-109144745D01*
X142851792Y-109144828D01*
X142851812Y-109144926D01*
X142932897Y-109266209D01*
X143014165Y-109387835D01*
X143014248Y-109387891D01*
X143014304Y-109387974D01*
X144562851Y-110935710D01*
X144562846Y-110941057D01*
X144697903Y-111267920D01*
X144947764Y-111518218D01*
X145274391Y-111653846D01*
X145628057Y-111654154D01*
X145954920Y-111519097D01*
X146205218Y-111269236D01*
X146340846Y-110942609D01*
X146341154Y-110588943D01*
X146206097Y-110262080D01*
X145956236Y-110011782D01*
X145629609Y-109876154D01*
X145622630Y-109876148D01*
X144293300Y-108547515D01*
X144293300Y-99871855D01*
X144906612Y-99259058D01*
X144906725Y-99258889D01*
X144906893Y-99258777D01*
X145264230Y-98901362D01*
X145290827Y-98883590D01*
X145411747Y-98802823D01*
X146286000Y-97928862D01*
X146286000Y-102064369D01*
X145120185Y-103230185D01*
X144955004Y-103477395D01*
X144897000Y-103769000D01*
X144897000Y-107814000D01*
X144955004Y-108105605D01*
X145103807Y-108328304D01*
X145120185Y-108352815D01*
X146179875Y-109412506D01*
X146179838Y-109455167D01*
X146321883Y-109798943D01*
X146584673Y-110062192D01*
X146928201Y-110204838D01*
X146939000Y-110204847D01*
X146939000Y-119117191D01*
X146881000Y-119105560D01*
X145981000Y-119105560D01*
X145780388Y-119144483D01*
X145772949Y-119141394D01*
X145618751Y-119141260D01*
X145455440Y-119031023D01*
X145205800Y-118980960D01*
X144455800Y-118980960D01*
X144213677Y-119027937D01*
X144000873Y-119167727D01*
X143858423Y-119378760D01*
X143808360Y-119628400D01*
X143808360Y-120428400D01*
X143855337Y-120670523D01*
X143995127Y-120883327D01*
X144081500Y-120941630D01*
X144081500Y-121945275D01*
X143998575Y-122028200D01*
X131185170Y-122028200D01*
X131059097Y-121723080D01*
X130809236Y-121472782D01*
X130482609Y-121337154D01*
X130128943Y-121336846D01*
X129802080Y-121471903D01*
X129797275Y-121476700D01*
X128203170Y-121476700D01*
X127374991Y-120648521D01*
X127651920Y-120534097D01*
X127902218Y-120284236D01*
X127962758Y-120138440D01*
X128085000Y-120138440D01*
X128327123Y-120091463D01*
X128539927Y-119951673D01*
X128682377Y-119740640D01*
X128732440Y-119491000D01*
X128732440Y-118991000D01*
X128685463Y-118748877D01*
X128545673Y-118536073D01*
X128334640Y-118393623D01*
X128085000Y-118343560D01*
X127521300Y-118343560D01*
X127521300Y-115868270D01*
X127628035Y-115761535D01*
X127790463Y-115518445D01*
X127847500Y-115231700D01*
X127847500Y-110814583D01*
X128059764Y-111027218D01*
X128386391Y-111162846D01*
X128740057Y-111163154D01*
X129066920Y-111028097D01*
X129317218Y-110778236D01*
X129452846Y-110451609D01*
X129453154Y-110097943D01*
X129318097Y-109771080D01*
X129068236Y-109520782D01*
X128741609Y-109385154D01*
X128734818Y-109385148D01*
X128338300Y-108988630D01*
X128338300Y-108573805D01*
X129464764Y-109700270D01*
X129657175Y-109828835D01*
X129711975Y-109865451D01*
X129794000Y-109881767D01*
X129794000Y-121031000D01*
X129803667Y-121079601D01*
X129831197Y-121120803D01*
X129872399Y-121148333D01*
X129921000Y-121158000D01*
X142367000Y-121158000D01*
X142415601Y-121148333D01*
X142456803Y-121120803D01*
X142484333Y-121079601D01*
X142494000Y-121031000D01*
X142494000Y-97282700D01*
X143669000Y-97282700D01*
X143808659Y-97254920D01*
X143808659Y-97254920D01*
G37*
X143808659Y-97254920D02*
X143955700Y-97225682D01*
X143955721Y-97225668D01*
X143955745Y-97225663D01*
X144076088Y-97145252D01*
X144198801Y-97063269D01*
X146942475Y-94319949D01*
X146948057Y-94319954D01*
X147013511Y-94292909D01*
X147059165Y-94361235D01*
X147059193Y-94361254D01*
X147059212Y-94361282D01*
X147879777Y-95181702D01*
X147860782Y-95200664D01*
X147765985Y-95428959D01*
X147534799Y-95332962D01*
X147162833Y-95332638D01*
X146819057Y-95474683D01*
X146555808Y-95737473D01*
X146494342Y-95885498D01*
X146204943Y-95885246D01*
X145878080Y-96020303D01*
X145627782Y-96270164D01*
X145492154Y-96596791D01*
X145492148Y-96603462D01*
X144450947Y-97644316D01*
X144425062Y-97661616D01*
X144303165Y-97743065D01*
X144303142Y-97743100D01*
X144303107Y-97743123D01*
X143847388Y-98198942D01*
X143014388Y-99031242D01*
X143014299Y-99031376D01*
X143014165Y-99031465D01*
X142933000Y-99152937D01*
X142851857Y-99274265D01*
X142851826Y-99274422D01*
X142851737Y-99274555D01*
X142823357Y-99417233D01*
X142794700Y-99560985D01*
X142794731Y-99561143D01*
X142794700Y-99561300D01*
X142794700Y-108858000D01*
X142794719Y-108858098D01*
X142794700Y-108858196D01*
X142823252Y-109001542D01*
X142851737Y-109144745D01*
X142851792Y-109144828D01*
X142851812Y-109144926D01*
X142932897Y-109266209D01*
X143014165Y-109387835D01*
X143014248Y-109387891D01*
X143014304Y-109387974D01*
X144562851Y-110935710D01*
X144562846Y-110941057D01*
X144697903Y-111267920D01*
X144947764Y-111518218D01*
X145274391Y-111653846D01*
X145628057Y-111654154D01*
X145954920Y-111519097D01*
X146205218Y-111269236D01*
X146340846Y-110942609D01*
X146341154Y-110588943D01*
X146206097Y-110262080D01*
X145956236Y-110011782D01*
X145629609Y-109876154D01*
X145622630Y-109876148D01*
X144293300Y-108547515D01*
X144293300Y-99871855D01*
X144906612Y-99259058D01*
X144906725Y-99258889D01*
X144906893Y-99258777D01*
X145264230Y-98901362D01*
X145290827Y-98883590D01*
X145411747Y-98802823D01*
X146286000Y-97928862D01*
X146286000Y-102064369D01*
X145120185Y-103230185D01*
X144955004Y-103477395D01*
X144897000Y-103769000D01*
X144897000Y-107814000D01*
X144955004Y-108105605D01*
X145103807Y-108328304D01*
X145120185Y-108352815D01*
X146179875Y-109412506D01*
X146179838Y-109455167D01*
X146321883Y-109798943D01*
X146584673Y-110062192D01*
X146928201Y-110204838D01*
X146939000Y-110204847D01*
X146939000Y-119117191D01*
X146881000Y-119105560D01*
X145981000Y-119105560D01*
X145780388Y-119144483D01*
X145772949Y-119141394D01*
X145618751Y-119141260D01*
X145455440Y-119031023D01*
X145205800Y-118980960D01*
X144455800Y-118980960D01*
X144213677Y-119027937D01*
X144000873Y-119167727D01*
X143858423Y-119378760D01*
X143808360Y-119628400D01*
X143808360Y-120428400D01*
X143855337Y-120670523D01*
X143995127Y-120883327D01*
X144081500Y-120941630D01*
X144081500Y-121945275D01*
X143998575Y-122028200D01*
X131185170Y-122028200D01*
X131059097Y-121723080D01*
X130809236Y-121472782D01*
X130482609Y-121337154D01*
X130128943Y-121336846D01*
X129802080Y-121471903D01*
X129797275Y-121476700D01*
X128203170Y-121476700D01*
X127374991Y-120648521D01*
X127651920Y-120534097D01*
X127902218Y-120284236D01*
X127962758Y-120138440D01*
X128085000Y-120138440D01*
X128327123Y-120091463D01*
X128539927Y-119951673D01*
X128682377Y-119740640D01*
X128732440Y-119491000D01*
X128732440Y-118991000D01*
X128685463Y-118748877D01*
X128545673Y-118536073D01*
X128334640Y-118393623D01*
X128085000Y-118343560D01*
X127521300Y-118343560D01*
X127521300Y-115868270D01*
X127628035Y-115761535D01*
X127790463Y-115518445D01*
X127847500Y-115231700D01*
X127847500Y-110814583D01*
X128059764Y-111027218D01*
X128386391Y-111162846D01*
X128740057Y-111163154D01*
X129066920Y-111028097D01*
X129317218Y-110778236D01*
X129452846Y-110451609D01*
X129453154Y-110097943D01*
X129318097Y-109771080D01*
X129068236Y-109520782D01*
X128741609Y-109385154D01*
X128734818Y-109385148D01*
X128338300Y-108988630D01*
X128338300Y-108573805D01*
X129464764Y-109700270D01*
X129657175Y-109828835D01*
X129711975Y-109865451D01*
X129794000Y-109881767D01*
X129794000Y-121031000D01*
X129803667Y-121079601D01*
X129831197Y-121120803D01*
X129872399Y-121148333D01*
X129921000Y-121158000D01*
X142367000Y-121158000D01*
X142415601Y-121148333D01*
X142456803Y-121120803D01*
X142484333Y-121079601D01*
X142494000Y-121031000D01*
X142494000Y-97282700D01*
X143669000Y-97282700D01*
X143808659Y-97254920D01*
G36*
X125389537Y-113279123D02*
X125529327Y-113491927D01*
X125740360Y-113634377D01*
X125990000Y-113684440D01*
X126348900Y-113684440D01*
X126348900Y-114921330D01*
X126242165Y-115028065D01*
X126079737Y-115271155D01*
X126022700Y-115557900D01*
X126022700Y-118066560D01*
X125609000Y-118066560D01*
X125366877Y-118113537D01*
X125154073Y-118253327D01*
X125083842Y-118357372D01*
X124319800Y-117593330D01*
X124319800Y-113407440D01*
X124783000Y-113407440D01*
X125025123Y-113360463D01*
X125237927Y-113220673D01*
X125346880Y-113059265D01*
X125389537Y-113279123D01*
X125389537Y-113279123D01*
G37*
X125389537Y-113279123D02*
X125529327Y-113491927D01*
X125740360Y-113634377D01*
X125990000Y-113684440D01*
X126348900Y-113684440D01*
X126348900Y-114921330D01*
X126242165Y-115028065D01*
X126079737Y-115271155D01*
X126022700Y-115557900D01*
X126022700Y-118066560D01*
X125609000Y-118066560D01*
X125366877Y-118113537D01*
X125154073Y-118253327D01*
X125083842Y-118357372D01*
X124319800Y-117593330D01*
X124319800Y-113407440D01*
X124783000Y-113407440D01*
X125025123Y-113360463D01*
X125237927Y-113220673D01*
X125346880Y-113059265D01*
X125389537Y-113279123D01*
G36*
X121024255Y-95072200D02*
X121151802Y-95072200D01*
X121122576Y-95219127D01*
X121122576Y-96806081D01*
X121179613Y-97092826D01*
X121342041Y-97335916D01*
X121810500Y-97804375D01*
X121810500Y-109622953D01*
X121806582Y-109626864D01*
X121670954Y-109953491D01*
X121670646Y-110307157D01*
X121805703Y-110634020D01*
X122055564Y-110884318D01*
X122382191Y-111019946D01*
X122735857Y-111020254D01*
X122821200Y-110984991D01*
X122821200Y-116738030D01*
X120649800Y-114566630D01*
X120649800Y-94997716D01*
X121024255Y-95072200D01*
X121024255Y-95072200D01*
G37*
X121024255Y-95072200D02*
X121151802Y-95072200D01*
X121122576Y-95219127D01*
X121122576Y-96806081D01*
X121179613Y-97092826D01*
X121342041Y-97335916D01*
X121810500Y-97804375D01*
X121810500Y-109622953D01*
X121806582Y-109626864D01*
X121670954Y-109953491D01*
X121670646Y-110307157D01*
X121805703Y-110634020D01*
X122055564Y-110884318D01*
X122382191Y-111019946D01*
X122735857Y-111020254D01*
X122821200Y-110984991D01*
X122821200Y-116738030D01*
X120649800Y-114566630D01*
X120649800Y-94997716D01*
X121024255Y-95072200D01*
G36*
X126348900Y-106219870D02*
X126348900Y-111561230D01*
X125966835Y-111179165D01*
X125925974Y-111151863D01*
X125730236Y-110955782D01*
X125403609Y-110820154D01*
X125049943Y-110819846D01*
X124723080Y-110954903D01*
X124472782Y-111204764D01*
X124397665Y-111385665D01*
X124319800Y-111463530D01*
X124319800Y-104190770D01*
X126348900Y-106219870D01*
X126348900Y-106219870D01*
G37*
X126348900Y-106219870D02*
X126348900Y-111561230D01*
X125966835Y-111179165D01*
X125925974Y-111151863D01*
X125730236Y-110955782D01*
X125403609Y-110820154D01*
X125049943Y-110819846D01*
X124723080Y-110954903D01*
X124472782Y-111204764D01*
X124397665Y-111385665D01*
X124319800Y-111463530D01*
X124319800Y-104190770D01*
X126348900Y-106219870D01*
G36*
X129379402Y-106363072D02*
X129392646Y-106429654D01*
X129555074Y-106672744D01*
X129712560Y-106830230D01*
X129712560Y-106918000D01*
X129759537Y-107160123D01*
X129899327Y-107372927D01*
X130088800Y-107500823D01*
X130117737Y-107646302D01*
X130280165Y-107889392D01*
X130389589Y-107998816D01*
X130389584Y-108004352D01*
X130481374Y-108226501D01*
X130242677Y-108226293D01*
X130174301Y-108254545D01*
X128793000Y-106873245D01*
X128793000Y-106053440D01*
X129069770Y-106053440D01*
X129379402Y-106363072D01*
X129379402Y-106363072D01*
G37*
X129379402Y-106363072D02*
X129392646Y-106429654D01*
X129555074Y-106672744D01*
X129712560Y-106830230D01*
X129712560Y-106918000D01*
X129759537Y-107160123D01*
X129899327Y-107372927D01*
X130088800Y-107500823D01*
X130117737Y-107646302D01*
X130280165Y-107889392D01*
X130389589Y-107998816D01*
X130389584Y-108004352D01*
X130481374Y-108226501D01*
X130242677Y-108226293D01*
X130174301Y-108254545D01*
X128793000Y-106873245D01*
X128793000Y-106053440D01*
X129069770Y-106053440D01*
X129379402Y-106363072D01*
G36*
X163544623Y-104668360D02*
X163494560Y-104918000D01*
X163494560Y-105418000D01*
X163541537Y-105660123D01*
X163677893Y-105867700D01*
X163506936Y-105867700D01*
X163361640Y-105769623D01*
X163112000Y-105719560D01*
X162647000Y-105719560D01*
X162647000Y-104521000D01*
X163644093Y-104521000D01*
X163544623Y-104668360D01*
X163544623Y-104668360D01*
G37*
X163544623Y-104668360D02*
X163494560Y-104918000D01*
X163494560Y-105418000D01*
X163541537Y-105660123D01*
X163677893Y-105867700D01*
X163506936Y-105867700D01*
X163361640Y-105769623D01*
X163112000Y-105719560D01*
X162647000Y-105719560D01*
X162647000Y-104521000D01*
X163644093Y-104521000D01*
X163544623Y-104668360D01*
G36*
X122029965Y-83220565D02*
X121867537Y-83463655D01*
X121810500Y-83750400D01*
X121810500Y-84537898D01*
X121393745Y-84455000D01*
X121024255Y-84455000D01*
X120649800Y-84529484D01*
X120649800Y-82384640D01*
X122225000Y-82384640D01*
X122467123Y-82337663D01*
X122679927Y-82197873D01*
X122822377Y-81986840D01*
X122872440Y-81737200D01*
X122872440Y-81622900D01*
X123627630Y-81622900D01*
X122029965Y-83220565D01*
X122029965Y-83220565D01*
G37*
X122029965Y-83220565D02*
X121867537Y-83463655D01*
X121810500Y-83750400D01*
X121810500Y-84537898D01*
X121393745Y-84455000D01*
X121024255Y-84455000D01*
X120649800Y-84529484D01*
X120649800Y-82384640D01*
X122225000Y-82384640D01*
X122467123Y-82337663D01*
X122679927Y-82197873D01*
X122822377Y-81986840D01*
X122872440Y-81737200D01*
X122872440Y-81622900D01*
X123627630Y-81622900D01*
X122029965Y-83220565D01*
G36*
X133121400Y-71090641D02*
X133121400Y-71149359D01*
X133235474Y-71722848D01*
X133479208Y-72087622D01*
X133053462Y-72513368D01*
X132653489Y-72246115D01*
X132080000Y-72132041D01*
X131506511Y-72246115D01*
X131020330Y-72570971D01*
X131010234Y-72586081D01*
X131004063Y-72554277D01*
X130864273Y-72341473D01*
X130653240Y-72199023D01*
X130403600Y-72148960D01*
X128676400Y-72148960D01*
X128434277Y-72195937D01*
X128221473Y-72335727D01*
X128079023Y-72546760D01*
X128028960Y-72796400D01*
X128028960Y-74523600D01*
X128075937Y-74765723D01*
X128215727Y-74978527D01*
X128426760Y-75120977D01*
X128676400Y-75171040D01*
X129147990Y-75171040D01*
X124194730Y-80124300D01*
X122872440Y-80124300D01*
X122872440Y-80010000D01*
X122825463Y-79767877D01*
X122685673Y-79555073D01*
X122474640Y-79412623D01*
X122225000Y-79362560D01*
X120667210Y-79362560D01*
X126199179Y-73830591D01*
X126199179Y-75412676D01*
X126195261Y-75416587D01*
X126059633Y-75743214D01*
X126059325Y-76096880D01*
X126194382Y-76423743D01*
X126444243Y-76674041D01*
X126770870Y-76809669D01*
X127124536Y-76809977D01*
X127451399Y-76674920D01*
X127701697Y-76425059D01*
X127837325Y-76098432D01*
X127837633Y-75744766D01*
X127702576Y-75417903D01*
X127697779Y-75413098D01*
X127697779Y-73302007D01*
X127746044Y-73253826D01*
X127881672Y-72927199D01*
X127881980Y-72573533D01*
X127757500Y-72272270D01*
X129342170Y-70687600D01*
X133201570Y-70687600D01*
X133121400Y-71090641D01*
X133121400Y-71090641D01*
G37*
X133121400Y-71090641D02*
X133121400Y-71149359D01*
X133235474Y-71722848D01*
X133479208Y-72087622D01*
X133053462Y-72513368D01*
X132653489Y-72246115D01*
X132080000Y-72132041D01*
X131506511Y-72246115D01*
X131020330Y-72570971D01*
X131010234Y-72586081D01*
X131004063Y-72554277D01*
X130864273Y-72341473D01*
X130653240Y-72199023D01*
X130403600Y-72148960D01*
X128676400Y-72148960D01*
X128434277Y-72195937D01*
X128221473Y-72335727D01*
X128079023Y-72546760D01*
X128028960Y-72796400D01*
X128028960Y-74523600D01*
X128075937Y-74765723D01*
X128215727Y-74978527D01*
X128426760Y-75120977D01*
X128676400Y-75171040D01*
X129147990Y-75171040D01*
X124194730Y-80124300D01*
X122872440Y-80124300D01*
X122872440Y-80010000D01*
X122825463Y-79767877D01*
X122685673Y-79555073D01*
X122474640Y-79412623D01*
X122225000Y-79362560D01*
X120667210Y-79362560D01*
X126199179Y-73830591D01*
X126199179Y-75412676D01*
X126195261Y-75416587D01*
X126059633Y-75743214D01*
X126059325Y-76096880D01*
X126194382Y-76423743D01*
X126444243Y-76674041D01*
X126770870Y-76809669D01*
X127124536Y-76809977D01*
X127451399Y-76674920D01*
X127701697Y-76425059D01*
X127837325Y-76098432D01*
X127837633Y-75744766D01*
X127702576Y-75417903D01*
X127697779Y-75413098D01*
X127697779Y-73302007D01*
X127746044Y-73253826D01*
X127881672Y-72927199D01*
X127881980Y-72573533D01*
X127757500Y-72272270D01*
X129342170Y-70687600D01*
X133201570Y-70687600D01*
X133121400Y-71090641D01*
G36*
X143720330Y-74749029D02*
X144206511Y-75073885D01*
X144780000Y-75187959D01*
X145353489Y-75073885D01*
X145380100Y-75056104D01*
X145380100Y-78742400D01*
X145437137Y-79029145D01*
X145599565Y-79272235D01*
X146076430Y-79749100D01*
X143477800Y-79749100D01*
X143477800Y-79003700D01*
X143420763Y-78716955D01*
X143258335Y-78473865D01*
X143073590Y-78289120D01*
X143083440Y-78240000D01*
X143083440Y-77740000D01*
X143036463Y-77497877D01*
X142896673Y-77285073D01*
X142685640Y-77142623D01*
X142436000Y-77092560D01*
X141782800Y-77092560D01*
X141782800Y-75097016D01*
X142240000Y-75187959D01*
X142813489Y-75073885D01*
X143299670Y-74749029D01*
X143510000Y-74434248D01*
X143720330Y-74749029D01*
X143720330Y-74749029D01*
G37*
X143720330Y-74749029D02*
X144206511Y-75073885D01*
X144780000Y-75187959D01*
X145353489Y-75073885D01*
X145380100Y-75056104D01*
X145380100Y-78742400D01*
X145437137Y-79029145D01*
X145599565Y-79272235D01*
X146076430Y-79749100D01*
X143477800Y-79749100D01*
X143477800Y-79003700D01*
X143420763Y-78716955D01*
X143258335Y-78473865D01*
X143073590Y-78289120D01*
X143083440Y-78240000D01*
X143083440Y-77740000D01*
X143036463Y-77497877D01*
X142896673Y-77285073D01*
X142685640Y-77142623D01*
X142436000Y-77092560D01*
X141782800Y-77092560D01*
X141782800Y-75097016D01*
X142240000Y-75187959D01*
X142813489Y-75073885D01*
X143299670Y-74749029D01*
X143510000Y-74434248D01*
X143720330Y-74749029D01*
G36*
X153880330Y-74749029D02*
X154266842Y-75007288D01*
X149525030Y-79749100D01*
X148217063Y-79749100D01*
X148093097Y-79449080D01*
X147843236Y-79198782D01*
X147516609Y-79063154D01*
X147509818Y-79063148D01*
X146878700Y-78432030D01*
X146878700Y-78019100D01*
X146909464Y-78049918D01*
X147236091Y-78185546D01*
X147589757Y-78185854D01*
X147916620Y-78050797D01*
X148166918Y-77800936D01*
X148302546Y-77474309D01*
X148302552Y-77467518D01*
X149119835Y-76650235D01*
X149282263Y-76407145D01*
X149339300Y-76120400D01*
X149339300Y-75084385D01*
X149860000Y-75187959D01*
X150433489Y-75073885D01*
X150919670Y-74749029D01*
X151130000Y-74434248D01*
X151340330Y-74749029D01*
X151826511Y-75073885D01*
X152400000Y-75187959D01*
X152973489Y-75073885D01*
X153459670Y-74749029D01*
X153670000Y-74434248D01*
X153880330Y-74749029D01*
X153880330Y-74749029D01*
G37*
X153880330Y-74749029D02*
X154266842Y-75007288D01*
X149525030Y-79749100D01*
X148217063Y-79749100D01*
X148093097Y-79449080D01*
X147843236Y-79198782D01*
X147516609Y-79063154D01*
X147509818Y-79063148D01*
X146878700Y-78432030D01*
X146878700Y-78019100D01*
X146909464Y-78049918D01*
X147236091Y-78185546D01*
X147589757Y-78185854D01*
X147916620Y-78050797D01*
X148166918Y-77800936D01*
X148302546Y-77474309D01*
X148302552Y-77467518D01*
X149119835Y-76650235D01*
X149282263Y-76407145D01*
X149339300Y-76120400D01*
X149339300Y-75084385D01*
X149860000Y-75187959D01*
X150433489Y-75073885D01*
X150919670Y-74749029D01*
X151130000Y-74434248D01*
X151340330Y-74749029D01*
X151826511Y-75073885D01*
X152400000Y-75187959D01*
X152973489Y-75073885D01*
X153459670Y-74749029D01*
X153670000Y-74434248D01*
X153880330Y-74749029D01*
G36*
X132188981Y-68958621D02*
X132188780Y-69189000D01*
X129031800Y-69189000D01*
X128745055Y-69246037D01*
X128501965Y-69408465D01*
X120065000Y-77845430D01*
X120065000Y-68757000D01*
X132272702Y-68757000D01*
X132188981Y-68958621D01*
X132188981Y-68958621D01*
G37*
X132188981Y-68958621D02*
X132188780Y-69189000D01*
X129031800Y-69189000D01*
X128745055Y-69246037D01*
X128501965Y-69408465D01*
X120065000Y-77845430D01*
X120065000Y-68757000D01*
X132272702Y-68757000D01*
X132188981Y-68958621D01*
G36*
X140284200Y-77380080D02*
X140229673Y-77297073D01*
X140018640Y-77154623D01*
X139996054Y-77150094D01*
X139848835Y-76929765D01*
X139669435Y-76750365D01*
X139426345Y-76587937D01*
X139290400Y-76560896D01*
X139290400Y-75106485D01*
X139700000Y-75187959D01*
X140273489Y-75073885D01*
X140284200Y-75066728D01*
X140284200Y-77380080D01*
X140284200Y-77380080D01*
G37*
X140284200Y-77380080D02*
X140229673Y-77297073D01*
X140018640Y-77154623D01*
X139996054Y-77150094D01*
X139848835Y-76929765D01*
X139669435Y-76750365D01*
X139426345Y-76587937D01*
X139290400Y-76560896D01*
X139290400Y-75106485D01*
X139700000Y-75187959D01*
X140273489Y-75073885D01*
X140284200Y-75066728D01*
X140284200Y-77380080D01*
G36*
X137791800Y-76969830D02*
X137511261Y-77250369D01*
X137351640Y-77142623D01*
X137329054Y-77138094D01*
X137181835Y-76917765D01*
X136734500Y-76470430D01*
X136734500Y-75103322D01*
X137160000Y-75187959D01*
X137733489Y-75073885D01*
X137791800Y-75034923D01*
X137791800Y-76969830D01*
X137791800Y-76969830D01*
G37*
X137791800Y-76969830D02*
X137511261Y-77250369D01*
X137351640Y-77142623D01*
X137329054Y-77138094D01*
X137181835Y-76917765D01*
X136734500Y-76470430D01*
X136734500Y-75103322D01*
X137160000Y-75187959D01*
X137733489Y-75073885D01*
X137791800Y-75034923D01*
X137791800Y-76969830D01*
G36*
X176378494Y-90383130D02*
X176354399Y-90387923D01*
X176354354Y-90387952D01*
X176354302Y-90387963D01*
X176333605Y-90401816D01*
X176313197Y-90415453D01*
X176313167Y-90415497D01*
X176313123Y-90415527D01*
X176299446Y-90436032D01*
X176285667Y-90456655D01*
X176285656Y-90456707D01*
X176285627Y-90456752D01*
X176280834Y-90480951D01*
X176276000Y-90505256D01*
X176276000Y-92710000D01*
X176285667Y-92758601D01*
X176313197Y-92799803D01*
X176354399Y-92827333D01*
X176403000Y-92837000D01*
X176784000Y-92837000D01*
X176832601Y-92827333D01*
X176873803Y-92799803D01*
X176901333Y-92758601D01*
X176911000Y-92710000D01*
X176911000Y-90932000D01*
X182195000Y-90932000D01*
X182195000Y-98425000D01*
X176911000Y-98425000D01*
X176911000Y-94996000D01*
X176901333Y-94947399D01*
X176873803Y-94906197D01*
X176832601Y-94878667D01*
X176784000Y-94869000D01*
X176403000Y-94869000D01*
X176354399Y-94878667D01*
X176313197Y-94906197D01*
X176285667Y-94947399D01*
X176276000Y-94996000D01*
X176276000Y-105537000D01*
X176285667Y-105585601D01*
X176313197Y-105626803D01*
X176354399Y-105654333D01*
X176403000Y-105664000D01*
X182195000Y-105664000D01*
X182195000Y-122759000D01*
X145378328Y-122759000D01*
X145523063Y-122542390D01*
X145580100Y-122255645D01*
X145580100Y-120942037D01*
X145614777Y-120919258D01*
X145771397Y-120919394D01*
X145870769Y-120878334D01*
X145981000Y-120900440D01*
X146881000Y-120900440D01*
X146939000Y-120889187D01*
X146939000Y-121031000D01*
X146948667Y-121079601D01*
X146976197Y-121120803D01*
X147017399Y-121148333D01*
X147066000Y-121158000D01*
X159512000Y-121158000D01*
X159560601Y-121148333D01*
X159601803Y-121120803D01*
X159629333Y-121079601D01*
X159639000Y-121031000D01*
X159639000Y-104521000D01*
X160693700Y-104521000D01*
X160693700Y-110236000D01*
X160750737Y-110522745D01*
X160913165Y-110765835D01*
X161048851Y-110901521D01*
X161048846Y-110907057D01*
X161183903Y-111233920D01*
X161433764Y-111484218D01*
X161760391Y-111619846D01*
X162114057Y-111620154D01*
X162440920Y-111485097D01*
X162691218Y-111235236D01*
X162826846Y-110908609D01*
X162827154Y-110554943D01*
X162692097Y-110228080D01*
X162442236Y-109977782D01*
X162192300Y-109873999D01*
X162192300Y-109684930D01*
X162653185Y-110145815D01*
X162900395Y-110310996D01*
X162941000Y-110319073D01*
X162941000Y-121031000D01*
X162950667Y-121079601D01*
X162978197Y-121120803D01*
X163019399Y-121148333D01*
X163068000Y-121158000D01*
X176784000Y-121158000D01*
X176832601Y-121148333D01*
X176873803Y-121120803D01*
X176901333Y-121079601D01*
X176911000Y-121031000D01*
X176911000Y-118610000D01*
X177083560Y-118610000D01*
X177083560Y-119110000D01*
X177130537Y-119352123D01*
X177270327Y-119564927D01*
X177481360Y-119707377D01*
X177731000Y-119757440D01*
X178018770Y-119757440D01*
X178023020Y-119761690D01*
X178022846Y-119962057D01*
X178157903Y-120288920D01*
X178407764Y-120539218D01*
X178734391Y-120674846D01*
X179088057Y-120675154D01*
X179414920Y-120540097D01*
X179537829Y-120417402D01*
X179689835Y-120315835D01*
X180098230Y-119907440D01*
X180461000Y-119907440D01*
X180703123Y-119860463D01*
X180915927Y-119720673D01*
X181058377Y-119509640D01*
X181108440Y-119260000D01*
X181108440Y-118460000D01*
X181061463Y-118217877D01*
X180921673Y-118005073D01*
X180710640Y-117862623D01*
X180461000Y-117812560D01*
X179711000Y-117812560D01*
X179468877Y-117859537D01*
X179256073Y-117999327D01*
X179120905Y-118199573D01*
X179091673Y-118155073D01*
X178880640Y-118012623D01*
X178631000Y-117962560D01*
X177731000Y-117962560D01*
X177488877Y-118009537D01*
X177276073Y-118149327D01*
X177133623Y-118360360D01*
X177083560Y-118610000D01*
X176911000Y-118610000D01*
X176911000Y-107950000D01*
X176901333Y-107901399D01*
X176873803Y-107860197D01*
X176832601Y-107832667D01*
X176784000Y-107823000D01*
X167113440Y-107823000D01*
X167113440Y-105410000D01*
X167066463Y-105167877D01*
X167005000Y-105074311D01*
X167005000Y-90513124D01*
X167004989Y-90513071D01*
X167005000Y-90513019D01*
X167000125Y-90488618D01*
X166995333Y-90464523D01*
X166995303Y-90464478D01*
X166995293Y-90464426D01*
X166981713Y-90444140D01*
X166967803Y-90423321D01*
X166967756Y-90423290D01*
X166967728Y-90423247D01*
X166947507Y-90409760D01*
X166926601Y-90395791D01*
X166926548Y-90395780D01*
X166926504Y-90395751D01*
X166902304Y-90390958D01*
X166878000Y-90386124D01*
X166877947Y-90386134D01*
X166877895Y-90386124D01*
X157225895Y-90394098D01*
X157201494Y-90398972D01*
X157177399Y-90403765D01*
X157177354Y-90403794D01*
X157177302Y-90403805D01*
X157156605Y-90417658D01*
X157136197Y-90431295D01*
X157136167Y-90431339D01*
X157136123Y-90431369D01*
X157122446Y-90451874D01*
X157108667Y-90472497D01*
X157108656Y-90472549D01*
X157108627Y-90472594D01*
X157103834Y-90496793D01*
X157099000Y-90521098D01*
X157099000Y-92456000D01*
X151155400Y-92456000D01*
X151155400Y-90526218D01*
X151155389Y-90526165D01*
X151155400Y-90526113D01*
X151150525Y-90501712D01*
X151145733Y-90477617D01*
X151145703Y-90477572D01*
X151145693Y-90477520D01*
X151131839Y-90456823D01*
X151118203Y-90436415D01*
X151118158Y-90436385D01*
X151118129Y-90436341D01*
X151097623Y-90422664D01*
X151077001Y-90408885D01*
X151076948Y-90408874D01*
X151076904Y-90408845D01*
X151052704Y-90404052D01*
X151028400Y-90399218D01*
X151028347Y-90399228D01*
X151028295Y-90399218D01*
X148221067Y-90401537D01*
X148093236Y-90273482D01*
X147766609Y-90137854D01*
X147412943Y-90137546D01*
X147086080Y-90272603D01*
X146955873Y-90402582D01*
X145160895Y-90404065D01*
X145136494Y-90408939D01*
X145112399Y-90413732D01*
X145112354Y-90413761D01*
X145112302Y-90413772D01*
X145091605Y-90427625D01*
X145071197Y-90441262D01*
X145071167Y-90441306D01*
X145071123Y-90441336D01*
X145057446Y-90461841D01*
X145043667Y-90482464D01*
X145043656Y-90482516D01*
X145043627Y-90482561D01*
X145038834Y-90506760D01*
X145034000Y-90531065D01*
X145034000Y-91059000D01*
X145043667Y-91107601D01*
X145071197Y-91148803D01*
X145112399Y-91176333D01*
X145161000Y-91186000D01*
X146250319Y-91186000D01*
X146154154Y-91417591D01*
X146154148Y-91424496D01*
X144221560Y-93357700D01*
X142494000Y-93357700D01*
X142494000Y-91186000D01*
X143637000Y-91186000D01*
X143685601Y-91176333D01*
X143726803Y-91148803D01*
X143754333Y-91107601D01*
X143764000Y-91059000D01*
X143764000Y-90532324D01*
X143763989Y-90532271D01*
X143764000Y-90532219D01*
X143759125Y-90507818D01*
X143754333Y-90483723D01*
X143754303Y-90483678D01*
X143754293Y-90483626D01*
X143740439Y-90462929D01*
X143726803Y-90442521D01*
X143726758Y-90442491D01*
X143726729Y-90442447D01*
X143706223Y-90428770D01*
X143685601Y-90414991D01*
X143685548Y-90414980D01*
X143685504Y-90414951D01*
X143661304Y-90410158D01*
X143637000Y-90405324D01*
X143636947Y-90405334D01*
X143636895Y-90405324D01*
X139953895Y-90408367D01*
X139950645Y-90409016D01*
X139947365Y-90408540D01*
X139926451Y-90413849D01*
X139905302Y-90418074D01*
X139902548Y-90419917D01*
X139899335Y-90420733D01*
X139882045Y-90433641D01*
X139864123Y-90445638D01*
X139862284Y-90448394D01*
X139859628Y-90450378D01*
X139848597Y-90468915D01*
X139836627Y-90486863D01*
X139835982Y-90490115D01*
X139834289Y-90492962D01*
X139737253Y-90766900D01*
X133809988Y-90766900D01*
X133875917Y-90583436D01*
X133879176Y-90561667D01*
X133883399Y-90540070D01*
X133882831Y-90537264D01*
X133883256Y-90534429D01*
X133877936Y-90513068D01*
X133873573Y-90491501D01*
X133871972Y-90489123D01*
X133871281Y-90486345D01*
X133858201Y-90468659D01*
X133845908Y-90450390D01*
X133843519Y-90448805D01*
X133841817Y-90446503D01*
X133822960Y-90435165D01*
X133804615Y-90422995D01*
X133801802Y-90422445D01*
X133799349Y-90420970D01*
X133777580Y-90417710D01*
X133755983Y-90413488D01*
X132090826Y-90418957D01*
X132067521Y-90423671D01*
X132044121Y-90428021D01*
X132043261Y-90428579D01*
X132042257Y-90428783D01*
X132022545Y-90442047D01*
X132002576Y-90455030D01*
X132001994Y-90455876D01*
X132001146Y-90456448D01*
X131988023Y-90476227D01*
X131974530Y-90495883D01*
X131974316Y-90496887D01*
X131973751Y-90497741D01*
X131969192Y-90521061D01*
X131964253Y-90544359D01*
X131956204Y-91184403D01*
X131956352Y-91185202D01*
X131956194Y-91186000D01*
X131960872Y-91209522D01*
X131965259Y-91233122D01*
X131965702Y-91233804D01*
X131965861Y-91234601D01*
X131979183Y-91254539D01*
X131992269Y-91274667D01*
X131992939Y-91275127D01*
X131993391Y-91275803D01*
X132013315Y-91289115D01*
X132033121Y-91302713D01*
X132033917Y-91302881D01*
X132034593Y-91303333D01*
X132058105Y-91308009D01*
X132081597Y-91312990D01*
X132082396Y-91312841D01*
X132083194Y-91313000D01*
X132588000Y-91313000D01*
X132588000Y-98044000D01*
X131191000Y-98044000D01*
X131142399Y-98053667D01*
X131101197Y-98081197D01*
X131073667Y-98122399D01*
X131064000Y-98171000D01*
X131064000Y-99591612D01*
X130690122Y-99965464D01*
X126975183Y-103680147D01*
X126975176Y-103680158D01*
X126975165Y-103680165D01*
X126889635Y-103808169D01*
X126812747Y-103923232D01*
X126812745Y-103923243D01*
X126812737Y-103923255D01*
X126785417Y-104060604D01*
X126755700Y-104209974D01*
X126755703Y-104209987D01*
X126755700Y-104210000D01*
X126755700Y-104507330D01*
X124746600Y-102498230D01*
X124746600Y-101903057D01*
X125348846Y-101903057D01*
X125483903Y-102229920D01*
X125733764Y-102480218D01*
X126060391Y-102615846D01*
X126414057Y-102616154D01*
X126740920Y-102481097D01*
X126991218Y-102231236D01*
X127126846Y-101904609D01*
X127127154Y-101550943D01*
X126992097Y-101224080D01*
X126742236Y-100973782D01*
X126415609Y-100838154D01*
X126061943Y-100837846D01*
X125735080Y-100972903D01*
X125484782Y-101222764D01*
X125349154Y-101549391D01*
X125348846Y-101903057D01*
X124746600Y-101903057D01*
X124746600Y-97194584D01*
X124900764Y-97349018D01*
X125227391Y-97484646D01*
X125581057Y-97484954D01*
X125907920Y-97349897D01*
X126158218Y-97100036D01*
X126293846Y-96773409D01*
X126294154Y-96419743D01*
X126159097Y-96092880D01*
X126154300Y-96088075D01*
X126154300Y-89952970D01*
X127690321Y-88416949D01*
X127695857Y-88416954D01*
X128022720Y-88281897D01*
X128273018Y-88032036D01*
X128408646Y-87705409D01*
X128408954Y-87351743D01*
X128273897Y-87024880D01*
X128024036Y-86774582D01*
X127697409Y-86638954D01*
X127343743Y-86638646D01*
X127016880Y-86773703D01*
X126766582Y-87023564D01*
X126630954Y-87350191D01*
X126630948Y-87356982D01*
X124875165Y-89112765D01*
X124746600Y-89305176D01*
X124746600Y-86835870D01*
X129068700Y-82513770D01*
X129068700Y-89882753D01*
X129064782Y-89886664D01*
X128929154Y-90213291D01*
X128928846Y-90566957D01*
X129063903Y-90893820D01*
X129313764Y-91144118D01*
X129640391Y-91279746D01*
X129710189Y-91279807D01*
X129714654Y-91282790D01*
X129723553Y-91291670D01*
X130485553Y-91799670D01*
X130496688Y-91804268D01*
X130506669Y-91811028D01*
X130519370Y-91813636D01*
X130531354Y-91818586D01*
X130543404Y-91818573D01*
X130555209Y-91820998D01*
X130567942Y-91818547D01*
X130580907Y-91818534D01*
X130592033Y-91813911D01*
X130603869Y-91811634D01*
X130614696Y-91804496D01*
X130626668Y-91799523D01*
X130635177Y-91790995D01*
X130645242Y-91784361D01*
X130652515Y-91773621D01*
X130661670Y-91764447D01*
X130666268Y-91753311D01*
X130673028Y-91743331D01*
X130675636Y-91730629D01*
X130680586Y-91718646D01*
X130680573Y-91706595D01*
X130682998Y-91694791D01*
X130689760Y-90609656D01*
X130690122Y-90608785D01*
X130706846Y-90568509D01*
X130707154Y-90214843D01*
X130681941Y-90153822D01*
X130661325Y-82423000D01*
X130661325Y-82422661D01*
X130656437Y-82398429D01*
X130651658Y-82374399D01*
X130651562Y-82374255D01*
X130651528Y-82374086D01*
X130637809Y-82353672D01*
X130624128Y-82333197D01*
X130623983Y-82333100D01*
X130623888Y-82332958D01*
X130603445Y-82319377D01*
X130582926Y-82305667D01*
X130582756Y-82305633D01*
X130582613Y-82305538D01*
X130567300Y-82302534D01*
X130567300Y-81649970D01*
X130969570Y-81247700D01*
X149835400Y-81247700D01*
X150122145Y-81190663D01*
X150192890Y-81143393D01*
X177165000Y-81130217D01*
X177165062Y-81130217D01*
X177189038Y-81125435D01*
X177213601Y-81120550D01*
X177213627Y-81120531D01*
X177213658Y-81120526D01*
X177233422Y-81107306D01*
X177254803Y-81093020D01*
X177254821Y-81092992D01*
X177254846Y-81092976D01*
X177267888Y-81073435D01*
X177282333Y-81051818D01*
X177282339Y-81051785D01*
X177282356Y-81051761D01*
X177287043Y-81028136D01*
X177292000Y-81003217D01*
X177292000Y-80518000D01*
X177282333Y-80469399D01*
X177254803Y-80428197D01*
X177213601Y-80400667D01*
X177165000Y-80391000D01*
X151002470Y-80391000D01*
X156554675Y-74838795D01*
X156906511Y-75073885D01*
X157480000Y-75187959D01*
X158053489Y-75073885D01*
X158539670Y-74749029D01*
X158750000Y-74434248D01*
X158960330Y-74749029D01*
X159446511Y-75073885D01*
X160020000Y-75187959D01*
X160593489Y-75073885D01*
X161079670Y-74749029D01*
X161290000Y-74434248D01*
X161500330Y-74749029D01*
X161986511Y-75073885D01*
X162560000Y-75187959D01*
X163133489Y-75073885D01*
X163619670Y-74749029D01*
X163830000Y-74434248D01*
X164040330Y-74749029D01*
X164526511Y-75073885D01*
X165100000Y-75187959D01*
X165673489Y-75073885D01*
X166159670Y-74749029D01*
X166370000Y-74434248D01*
X166580330Y-74749029D01*
X167066511Y-75073885D01*
X167640000Y-75187959D01*
X168213489Y-75073885D01*
X168699670Y-74749029D01*
X168910000Y-74434248D01*
X169120330Y-74749029D01*
X169606511Y-75073885D01*
X170180000Y-75187959D01*
X170753489Y-75073885D01*
X171239670Y-74749029D01*
X171564526Y-74262848D01*
X171678600Y-73689359D01*
X171678600Y-73630641D01*
X171564526Y-73057152D01*
X171239670Y-72570971D01*
X170753489Y-72246115D01*
X170180000Y-72132041D01*
X169606511Y-72246115D01*
X169120330Y-72570971D01*
X168910000Y-72885752D01*
X168699670Y-72570971D01*
X168213489Y-72246115D01*
X167640000Y-72132041D01*
X167066511Y-72246115D01*
X166580330Y-72570971D01*
X166370000Y-72885752D01*
X166159670Y-72570971D01*
X165673489Y-72246115D01*
X165100000Y-72132041D01*
X164526511Y-72246115D01*
X164040330Y-72570971D01*
X163830000Y-72885752D01*
X163619670Y-72570971D01*
X163348828Y-72390000D01*
X163619670Y-72209029D01*
X163944526Y-71722848D01*
X164058600Y-71149359D01*
X164058600Y-71090641D01*
X163944526Y-70517152D01*
X163619670Y-70030971D01*
X163133489Y-69706115D01*
X162560000Y-69592041D01*
X161986511Y-69706115D01*
X161500330Y-70030971D01*
X161290000Y-70345752D01*
X161079670Y-70030971D01*
X160593489Y-69706115D01*
X160020000Y-69592041D01*
X159629405Y-69669735D01*
X158809620Y-68849950D01*
X158670511Y-68757000D01*
X182195000Y-68757000D01*
X182195000Y-80391000D01*
X179959000Y-80391000D01*
X179910399Y-80400667D01*
X179869197Y-80428197D01*
X179841667Y-80469399D01*
X179832000Y-80518000D01*
X179832000Y-81001853D01*
X179832006Y-81001883D01*
X179832000Y-81001915D01*
X179836781Y-81025891D01*
X179841667Y-81050454D01*
X179841685Y-81050480D01*
X179841691Y-81050511D01*
X179855218Y-81070735D01*
X179869197Y-81091656D01*
X179869223Y-81091673D01*
X179869241Y-81091700D01*
X179890218Y-81105701D01*
X179910399Y-81119186D01*
X179910428Y-81119191D01*
X179910456Y-81119210D01*
X179935080Y-81124095D01*
X179959000Y-81128853D01*
X179959030Y-81128846D01*
X179959062Y-81128853D01*
X182195000Y-81127761D01*
X182195000Y-90373471D01*
X177292000Y-90377521D01*
X176402895Y-90378256D01*
X176378494Y-90383130D01*
X176378494Y-90383130D01*
G37*
X176378494Y-90383130D02*
X176354399Y-90387923D01*
X176354354Y-90387952D01*
X176354302Y-90387963D01*
X176333605Y-90401816D01*
X176313197Y-90415453D01*
X176313167Y-90415497D01*
X176313123Y-90415527D01*
X176299446Y-90436032D01*
X176285667Y-90456655D01*
X176285656Y-90456707D01*
X176285627Y-90456752D01*
X176280834Y-90480951D01*
X176276000Y-90505256D01*
X176276000Y-92710000D01*
X176285667Y-92758601D01*
X176313197Y-92799803D01*
X176354399Y-92827333D01*
X176403000Y-92837000D01*
X176784000Y-92837000D01*
X176832601Y-92827333D01*
X176873803Y-92799803D01*
X176901333Y-92758601D01*
X176911000Y-92710000D01*
X176911000Y-90932000D01*
X182195000Y-90932000D01*
X182195000Y-98425000D01*
X176911000Y-98425000D01*
X176911000Y-94996000D01*
X176901333Y-94947399D01*
X176873803Y-94906197D01*
X176832601Y-94878667D01*
X176784000Y-94869000D01*
X176403000Y-94869000D01*
X176354399Y-94878667D01*
X176313197Y-94906197D01*
X176285667Y-94947399D01*
X176276000Y-94996000D01*
X176276000Y-105537000D01*
X176285667Y-105585601D01*
X176313197Y-105626803D01*
X176354399Y-105654333D01*
X176403000Y-105664000D01*
X182195000Y-105664000D01*
X182195000Y-122759000D01*
X145378328Y-122759000D01*
X145523063Y-122542390D01*
X145580100Y-122255645D01*
X145580100Y-120942037D01*
X145614777Y-120919258D01*
X145771397Y-120919394D01*
X145870769Y-120878334D01*
X145981000Y-120900440D01*
X146881000Y-120900440D01*
X146939000Y-120889187D01*
X146939000Y-121031000D01*
X146948667Y-121079601D01*
X146976197Y-121120803D01*
X147017399Y-121148333D01*
X147066000Y-121158000D01*
X159512000Y-121158000D01*
X159560601Y-121148333D01*
X159601803Y-121120803D01*
X159629333Y-121079601D01*
X159639000Y-121031000D01*
X159639000Y-104521000D01*
X160693700Y-104521000D01*
X160693700Y-110236000D01*
X160750737Y-110522745D01*
X160913165Y-110765835D01*
X161048851Y-110901521D01*
X161048846Y-110907057D01*
X161183903Y-111233920D01*
X161433764Y-111484218D01*
X161760391Y-111619846D01*
X162114057Y-111620154D01*
X162440920Y-111485097D01*
X162691218Y-111235236D01*
X162826846Y-110908609D01*
X162827154Y-110554943D01*
X162692097Y-110228080D01*
X162442236Y-109977782D01*
X162192300Y-109873999D01*
X162192300Y-109684930D01*
X162653185Y-110145815D01*
X162900395Y-110310996D01*
X162941000Y-110319073D01*
X162941000Y-121031000D01*
X162950667Y-121079601D01*
X162978197Y-121120803D01*
X163019399Y-121148333D01*
X163068000Y-121158000D01*
X176784000Y-121158000D01*
X176832601Y-121148333D01*
X176873803Y-121120803D01*
X176901333Y-121079601D01*
X176911000Y-121031000D01*
X176911000Y-118610000D01*
X177083560Y-118610000D01*
X177083560Y-119110000D01*
X177130537Y-119352123D01*
X177270327Y-119564927D01*
X177481360Y-119707377D01*
X177731000Y-119757440D01*
X178018770Y-119757440D01*
X178023020Y-119761690D01*
X178022846Y-119962057D01*
X178157903Y-120288920D01*
X178407764Y-120539218D01*
X178734391Y-120674846D01*
X179088057Y-120675154D01*
X179414920Y-120540097D01*
X179537829Y-120417402D01*
X179689835Y-120315835D01*
X180098230Y-119907440D01*
X180461000Y-119907440D01*
X180703123Y-119860463D01*
X180915927Y-119720673D01*
X181058377Y-119509640D01*
X181108440Y-119260000D01*
X181108440Y-118460000D01*
X181061463Y-118217877D01*
X180921673Y-118005073D01*
X180710640Y-117862623D01*
X180461000Y-117812560D01*
X179711000Y-117812560D01*
X179468877Y-117859537D01*
X179256073Y-117999327D01*
X179120905Y-118199573D01*
X179091673Y-118155073D01*
X178880640Y-118012623D01*
X178631000Y-117962560D01*
X177731000Y-117962560D01*
X177488877Y-118009537D01*
X177276073Y-118149327D01*
X177133623Y-118360360D01*
X177083560Y-118610000D01*
X176911000Y-118610000D01*
X176911000Y-107950000D01*
X176901333Y-107901399D01*
X176873803Y-107860197D01*
X176832601Y-107832667D01*
X176784000Y-107823000D01*
X167113440Y-107823000D01*
X167113440Y-105410000D01*
X167066463Y-105167877D01*
X167005000Y-105074311D01*
X167005000Y-90513124D01*
X167004989Y-90513071D01*
X167005000Y-90513019D01*
X167000125Y-90488618D01*
X166995333Y-90464523D01*
X166995303Y-90464478D01*
X166995293Y-90464426D01*
X166981713Y-90444140D01*
X166967803Y-90423321D01*
X166967756Y-90423290D01*
X166967728Y-90423247D01*
X166947507Y-90409760D01*
X166926601Y-90395791D01*
X166926548Y-90395780D01*
X166926504Y-90395751D01*
X166902304Y-90390958D01*
X166878000Y-90386124D01*
X166877947Y-90386134D01*
X166877895Y-90386124D01*
X157225895Y-90394098D01*
X157201494Y-90398972D01*
X157177399Y-90403765D01*
X157177354Y-90403794D01*
X157177302Y-90403805D01*
X157156605Y-90417658D01*
X157136197Y-90431295D01*
X157136167Y-90431339D01*
X157136123Y-90431369D01*
X157122446Y-90451874D01*
X157108667Y-90472497D01*
X157108656Y-90472549D01*
X157108627Y-90472594D01*
X157103834Y-90496793D01*
X157099000Y-90521098D01*
X157099000Y-92456000D01*
X151155400Y-92456000D01*
X151155400Y-90526218D01*
X151155389Y-90526165D01*
X151155400Y-90526113D01*
X151150525Y-90501712D01*
X151145733Y-90477617D01*
X151145703Y-90477572D01*
X151145693Y-90477520D01*
X151131839Y-90456823D01*
X151118203Y-90436415D01*
X151118158Y-90436385D01*
X151118129Y-90436341D01*
X151097623Y-90422664D01*
X151077001Y-90408885D01*
X151076948Y-90408874D01*
X151076904Y-90408845D01*
X151052704Y-90404052D01*
X151028400Y-90399218D01*
X151028347Y-90399228D01*
X151028295Y-90399218D01*
X148221067Y-90401537D01*
X148093236Y-90273482D01*
X147766609Y-90137854D01*
X147412943Y-90137546D01*
X147086080Y-90272603D01*
X146955873Y-90402582D01*
X145160895Y-90404065D01*
X145136494Y-90408939D01*
X145112399Y-90413732D01*
X145112354Y-90413761D01*
X145112302Y-90413772D01*
X145091605Y-90427625D01*
X145071197Y-90441262D01*
X145071167Y-90441306D01*
X145071123Y-90441336D01*
X145057446Y-90461841D01*
X145043667Y-90482464D01*
X145043656Y-90482516D01*
X145043627Y-90482561D01*
X145038834Y-90506760D01*
X145034000Y-90531065D01*
X145034000Y-91059000D01*
X145043667Y-91107601D01*
X145071197Y-91148803D01*
X145112399Y-91176333D01*
X145161000Y-91186000D01*
X146250319Y-91186000D01*
X146154154Y-91417591D01*
X146154148Y-91424496D01*
X144221560Y-93357700D01*
X142494000Y-93357700D01*
X142494000Y-91186000D01*
X143637000Y-91186000D01*
X143685601Y-91176333D01*
X143726803Y-91148803D01*
X143754333Y-91107601D01*
X143764000Y-91059000D01*
X143764000Y-90532324D01*
X143763989Y-90532271D01*
X143764000Y-90532219D01*
X143759125Y-90507818D01*
X143754333Y-90483723D01*
X143754303Y-90483678D01*
X143754293Y-90483626D01*
X143740439Y-90462929D01*
X143726803Y-90442521D01*
X143726758Y-90442491D01*
X143726729Y-90442447D01*
X143706223Y-90428770D01*
X143685601Y-90414991D01*
X143685548Y-90414980D01*
X143685504Y-90414951D01*
X143661304Y-90410158D01*
X143637000Y-90405324D01*
X143636947Y-90405334D01*
X143636895Y-90405324D01*
X139953895Y-90408367D01*
X139950645Y-90409016D01*
X139947365Y-90408540D01*
X139926451Y-90413849D01*
X139905302Y-90418074D01*
X139902548Y-90419917D01*
X139899335Y-90420733D01*
X139882045Y-90433641D01*
X139864123Y-90445638D01*
X139862284Y-90448394D01*
X139859628Y-90450378D01*
X139848597Y-90468915D01*
X139836627Y-90486863D01*
X139835982Y-90490115D01*
X139834289Y-90492962D01*
X139737253Y-90766900D01*
X133809988Y-90766900D01*
X133875917Y-90583436D01*
X133879176Y-90561667D01*
X133883399Y-90540070D01*
X133882831Y-90537264D01*
X133883256Y-90534429D01*
X133877936Y-90513068D01*
X133873573Y-90491501D01*
X133871972Y-90489123D01*
X133871281Y-90486345D01*
X133858201Y-90468659D01*
X133845908Y-90450390D01*
X133843519Y-90448805D01*
X133841817Y-90446503D01*
X133822960Y-90435165D01*
X133804615Y-90422995D01*
X133801802Y-90422445D01*
X133799349Y-90420970D01*
X133777580Y-90417710D01*
X133755983Y-90413488D01*
X132090826Y-90418957D01*
X132067521Y-90423671D01*
X132044121Y-90428021D01*
X132043261Y-90428579D01*
X132042257Y-90428783D01*
X132022545Y-90442047D01*
X132002576Y-90455030D01*
X132001994Y-90455876D01*
X132001146Y-90456448D01*
X131988023Y-90476227D01*
X131974530Y-90495883D01*
X131974316Y-90496887D01*
X131973751Y-90497741D01*
X131969192Y-90521061D01*
X131964253Y-90544359D01*
X131956204Y-91184403D01*
X131956352Y-91185202D01*
X131956194Y-91186000D01*
X131960872Y-91209522D01*
X131965259Y-91233122D01*
X131965702Y-91233804D01*
X131965861Y-91234601D01*
X131979183Y-91254539D01*
X131992269Y-91274667D01*
X131992939Y-91275127D01*
X131993391Y-91275803D01*
X132013315Y-91289115D01*
X132033121Y-91302713D01*
X132033917Y-91302881D01*
X132034593Y-91303333D01*
X132058105Y-91308009D01*
X132081597Y-91312990D01*
X132082396Y-91312841D01*
X132083194Y-91313000D01*
X132588000Y-91313000D01*
X132588000Y-98044000D01*
X131191000Y-98044000D01*
X131142399Y-98053667D01*
X131101197Y-98081197D01*
X131073667Y-98122399D01*
X131064000Y-98171000D01*
X131064000Y-99591612D01*
X130690122Y-99965464D01*
X126975183Y-103680147D01*
X126975176Y-103680158D01*
X126975165Y-103680165D01*
X126889635Y-103808169D01*
X126812747Y-103923232D01*
X126812745Y-103923243D01*
X126812737Y-103923255D01*
X126785417Y-104060604D01*
X126755700Y-104209974D01*
X126755703Y-104209987D01*
X126755700Y-104210000D01*
X126755700Y-104507330D01*
X124746600Y-102498230D01*
X124746600Y-101903057D01*
X125348846Y-101903057D01*
X125483903Y-102229920D01*
X125733764Y-102480218D01*
X126060391Y-102615846D01*
X126414057Y-102616154D01*
X126740920Y-102481097D01*
X126991218Y-102231236D01*
X127126846Y-101904609D01*
X127127154Y-101550943D01*
X126992097Y-101224080D01*
X126742236Y-100973782D01*
X126415609Y-100838154D01*
X126061943Y-100837846D01*
X125735080Y-100972903D01*
X125484782Y-101222764D01*
X125349154Y-101549391D01*
X125348846Y-101903057D01*
X124746600Y-101903057D01*
X124746600Y-97194584D01*
X124900764Y-97349018D01*
X125227391Y-97484646D01*
X125581057Y-97484954D01*
X125907920Y-97349897D01*
X126158218Y-97100036D01*
X126293846Y-96773409D01*
X126294154Y-96419743D01*
X126159097Y-96092880D01*
X126154300Y-96088075D01*
X126154300Y-89952970D01*
X127690321Y-88416949D01*
X127695857Y-88416954D01*
X128022720Y-88281897D01*
X128273018Y-88032036D01*
X128408646Y-87705409D01*
X128408954Y-87351743D01*
X128273897Y-87024880D01*
X128024036Y-86774582D01*
X127697409Y-86638954D01*
X127343743Y-86638646D01*
X127016880Y-86773703D01*
X126766582Y-87023564D01*
X126630954Y-87350191D01*
X126630948Y-87356982D01*
X124875165Y-89112765D01*
X124746600Y-89305176D01*
X124746600Y-86835870D01*
X129068700Y-82513770D01*
X129068700Y-89882753D01*
X129064782Y-89886664D01*
X128929154Y-90213291D01*
X128928846Y-90566957D01*
X129063903Y-90893820D01*
X129313764Y-91144118D01*
X129640391Y-91279746D01*
X129710189Y-91279807D01*
X129714654Y-91282790D01*
X129723553Y-91291670D01*
X130485553Y-91799670D01*
X130496688Y-91804268D01*
X130506669Y-91811028D01*
X130519370Y-91813636D01*
X130531354Y-91818586D01*
X130543404Y-91818573D01*
X130555209Y-91820998D01*
X130567942Y-91818547D01*
X130580907Y-91818534D01*
X130592033Y-91813911D01*
X130603869Y-91811634D01*
X130614696Y-91804496D01*
X130626668Y-91799523D01*
X130635177Y-91790995D01*
X130645242Y-91784361D01*
X130652515Y-91773621D01*
X130661670Y-91764447D01*
X130666268Y-91753311D01*
X130673028Y-91743331D01*
X130675636Y-91730629D01*
X130680586Y-91718646D01*
X130680573Y-91706595D01*
X130682998Y-91694791D01*
X130689760Y-90609656D01*
X130690122Y-90608785D01*
X130706846Y-90568509D01*
X130707154Y-90214843D01*
X130681941Y-90153822D01*
X130661325Y-82423000D01*
X130661325Y-82422661D01*
X130656437Y-82398429D01*
X130651658Y-82374399D01*
X130651562Y-82374255D01*
X130651528Y-82374086D01*
X130637809Y-82353672D01*
X130624128Y-82333197D01*
X130623983Y-82333100D01*
X130623888Y-82332958D01*
X130603445Y-82319377D01*
X130582926Y-82305667D01*
X130582756Y-82305633D01*
X130582613Y-82305538D01*
X130567300Y-82302534D01*
X130567300Y-81649970D01*
X130969570Y-81247700D01*
X149835400Y-81247700D01*
X150122145Y-81190663D01*
X150192890Y-81143393D01*
X177165000Y-81130217D01*
X177165062Y-81130217D01*
X177189038Y-81125435D01*
X177213601Y-81120550D01*
X177213627Y-81120531D01*
X177213658Y-81120526D01*
X177233422Y-81107306D01*
X177254803Y-81093020D01*
X177254821Y-81092992D01*
X177254846Y-81092976D01*
X177267888Y-81073435D01*
X177282333Y-81051818D01*
X177282339Y-81051785D01*
X177282356Y-81051761D01*
X177287043Y-81028136D01*
X177292000Y-81003217D01*
X177292000Y-80518000D01*
X177282333Y-80469399D01*
X177254803Y-80428197D01*
X177213601Y-80400667D01*
X177165000Y-80391000D01*
X151002470Y-80391000D01*
X156554675Y-74838795D01*
X156906511Y-75073885D01*
X157480000Y-75187959D01*
X158053489Y-75073885D01*
X158539670Y-74749029D01*
X158750000Y-74434248D01*
X158960330Y-74749029D01*
X159446511Y-75073885D01*
X160020000Y-75187959D01*
X160593489Y-75073885D01*
X161079670Y-74749029D01*
X161290000Y-74434248D01*
X161500330Y-74749029D01*
X161986511Y-75073885D01*
X162560000Y-75187959D01*
X163133489Y-75073885D01*
X163619670Y-74749029D01*
X163830000Y-74434248D01*
X164040330Y-74749029D01*
X164526511Y-75073885D01*
X165100000Y-75187959D01*
X165673489Y-75073885D01*
X166159670Y-74749029D01*
X166370000Y-74434248D01*
X166580330Y-74749029D01*
X167066511Y-75073885D01*
X167640000Y-75187959D01*
X168213489Y-75073885D01*
X168699670Y-74749029D01*
X168910000Y-74434248D01*
X169120330Y-74749029D01*
X169606511Y-75073885D01*
X170180000Y-75187959D01*
X170753489Y-75073885D01*
X171239670Y-74749029D01*
X171564526Y-74262848D01*
X171678600Y-73689359D01*
X171678600Y-73630641D01*
X171564526Y-73057152D01*
X171239670Y-72570971D01*
X170753489Y-72246115D01*
X170180000Y-72132041D01*
X169606511Y-72246115D01*
X169120330Y-72570971D01*
X168910000Y-72885752D01*
X168699670Y-72570971D01*
X168213489Y-72246115D01*
X167640000Y-72132041D01*
X167066511Y-72246115D01*
X166580330Y-72570971D01*
X166370000Y-72885752D01*
X166159670Y-72570971D01*
X165673489Y-72246115D01*
X165100000Y-72132041D01*
X164526511Y-72246115D01*
X164040330Y-72570971D01*
X163830000Y-72885752D01*
X163619670Y-72570971D01*
X163348828Y-72390000D01*
X163619670Y-72209029D01*
X163944526Y-71722848D01*
X164058600Y-71149359D01*
X164058600Y-71090641D01*
X163944526Y-70517152D01*
X163619670Y-70030971D01*
X163133489Y-69706115D01*
X162560000Y-69592041D01*
X161986511Y-69706115D01*
X161500330Y-70030971D01*
X161290000Y-70345752D01*
X161079670Y-70030971D01*
X160593489Y-69706115D01*
X160020000Y-69592041D01*
X159629405Y-69669735D01*
X158809620Y-68849950D01*
X158670511Y-68757000D01*
X182195000Y-68757000D01*
X182195000Y-80391000D01*
X179959000Y-80391000D01*
X179910399Y-80400667D01*
X179869197Y-80428197D01*
X179841667Y-80469399D01*
X179832000Y-80518000D01*
X179832000Y-81001853D01*
X179832006Y-81001883D01*
X179832000Y-81001915D01*
X179836781Y-81025891D01*
X179841667Y-81050454D01*
X179841685Y-81050480D01*
X179841691Y-81050511D01*
X179855218Y-81070735D01*
X179869197Y-81091656D01*
X179869223Y-81091673D01*
X179869241Y-81091700D01*
X179890218Y-81105701D01*
X179910399Y-81119186D01*
X179910428Y-81119191D01*
X179910456Y-81119210D01*
X179935080Y-81124095D01*
X179959000Y-81128853D01*
X179959030Y-81128846D01*
X179959062Y-81128853D01*
X182195000Y-81127761D01*
X182195000Y-90373471D01*
X177292000Y-90377521D01*
X176402895Y-90378256D01*
X176378494Y-90383130D01*
M02*
