M48
INCH,TZ
T1C0.013
T2C0.016
T3C0.040
T4C0.065
%
G90
G05
T1
X47450Y-27350
X47600Y-38200
X47600Y-46450
X47600Y-48100
X47650Y-41200
X48150Y-45250
X48252Y-43359
X48350Y-37677
X48350Y-27350
X48750Y-30950
X48850Y-32850
X49100Y-46100
X49150Y-27350
X49150Y-48100
X49302Y-43980
X49372Y-38030
X49650Y-43150
X49800Y-43400
X49850Y-31850
X49980Y-29890
X49997Y-28642
X50059Y-47157
X50205Y-34460
X50250Y-34850
X50595Y-30990
X50616Y-43415
X50800Y-34900
X50900Y-45800
X51000Y-47450
X51109Y-35587
X51250Y-37600
X51301Y-48120
X51600Y-37600
X51655Y-29570
X51685Y-42452
X51800Y-36500
X51800Y-44450
X51800Y-44950
X51800Y-45450
X51800Y-45950
X51800Y-46450
X51800Y-46950
X52393Y-27219
X52400Y-44450
X52400Y-44950
X52400Y-45450
X52400Y-45950
X52400Y-46450
X52400Y-46950
X53000Y-44450
X53000Y-44950
X53000Y-46450
X53000Y-46950
X53600Y-44450
X53600Y-46450
X53600Y-46950
X53628Y-37404
X54000Y-30000
X54200Y-44450
X54200Y-44950
X54200Y-46450
X54200Y-46950
X54218Y-31345
X54800Y-44450
X54800Y-44950
X54800Y-45450
X54800Y-45950
X54800Y-46450
X54800Y-46950
X55000Y-30000
X55100Y-32050
X55159Y-27146
X55250Y-32350
X55250Y-32700
X55400Y-44450
X55400Y-44950
X55400Y-45450
X55400Y-45950
X55400Y-46450
X55400Y-46950
X55650Y-32700
X56400Y-45750
X56400Y-46100
X56449Y-37504
X56600Y-30650
X56600Y-32050
X56600Y-32400
X57200Y-30900
X57200Y-32050
X57200Y-32400
X57265Y-43608
X57300Y-43050
X57321Y-47256
X57630Y-38100
X57646Y-42339
X57740Y-36517
X57784Y-36784
X57891Y-36061
X58007Y-31477
X58037Y-30432
X58106Y-35837
X58321Y-36044
X58509Y-37679
X58600Y-44450
X58600Y-44950
X58600Y-45450
X58600Y-45950
X58600Y-46450
X58600Y-46950
X59100Y-33250
X59100Y-33500
X59100Y-33750
X59100Y-34000
X59100Y-34250
X59200Y-44450
X59200Y-44950
X59200Y-45450
X59200Y-45950
X59200Y-46450
X59200Y-46950
X59384Y-37215
X59450Y-33250
X59450Y-33500
X59450Y-33750
X59450Y-34000
X59450Y-34250
X59800Y-33250
X59800Y-33500
X59800Y-33750
X59800Y-34000
X59800Y-34250
X59800Y-44450
X59800Y-44950
X59800Y-46450
X59800Y-46950
X60150Y-33250
X60150Y-33500
X60150Y-33750
X60150Y-34000
X60150Y-34250
X60400Y-44450
X60400Y-46450
X60400Y-46950
X60450Y-29600
X60500Y-33250
X60500Y-33500
X60500Y-33750
X60500Y-34000
X60500Y-34250
X61000Y-44450
X61000Y-44950
X61000Y-46450
X61000Y-46950
X61023Y-37111
X61222Y-37333
X61347Y-37977
X61600Y-44450
X61600Y-44950
X61600Y-45450
X61600Y-45950
X61600Y-46450
X61600Y-46950
X62200Y-44450
X62200Y-44950
X62200Y-45450
X62200Y-45950
X62200Y-46450
X62200Y-46950
X62950Y-47900
X63150Y-37600
X63200Y-36300
X63755Y-43595
X63800Y-46250
X63800Y-47200
X64082Y-42358
X65100Y-44450
X65100Y-44950
X65100Y-45450
X65100Y-45950
X65100Y-46450
X65100Y-46950
X65300Y-36300
X65300Y-37650
X65700Y-44450
X65700Y-44950
X65700Y-45450
X65700Y-45950
X65700Y-46450
X65700Y-46950
X66300Y-44450
X66300Y-44950
X66300Y-46450
X66300Y-46950
X66900Y-44450
X66900Y-45450
X66900Y-45950
X66900Y-46450
X66900Y-46950
X67500Y-44450
X67500Y-44950
X67500Y-46450
X67500Y-46950
X68100Y-44450
X68100Y-44950
X68100Y-45450
X68100Y-45950
X68100Y-46450
X68100Y-46950
X68700Y-44450
X68700Y-44950
X68700Y-45450
X68700Y-45950
X68700Y-46450
X68700Y-46950
X68950Y-32200
X68950Y-32800
X68950Y-33400
X68950Y-34000
X68950Y-34600
X68950Y-35200
X69450Y-32200
X69450Y-32800
X69450Y-33400
X69450Y-34000
X69450Y-34600
X69450Y-35200
X69950Y-32200
X69950Y-32800
X69950Y-34600
X69950Y-35200
X70438Y-47160
X70450Y-32200
X70450Y-32800
X70450Y-34600
X70450Y-35200
X70950Y-32200
X70950Y-32800
X70950Y-33400
X70950Y-34000
X70950Y-34600
X70950Y-35200
X71200Y-48050
X71450Y-32200
X71450Y-32800
X71450Y-33400
X71450Y-34000
X71450Y-34600
X71450Y-35200
T2
X51350Y-42977
X53964Y-37382
X57919Y-43020
X58011Y-37901
X61334Y-37640
X64560Y-43152
T3
X47720Y-31840
X47720Y-32840
X47720Y-33840
X47720Y-34840
X47720Y-35840
X47720Y-36840
X51000Y-28000
X51000Y-29000
X52000Y-28000
X52000Y-29000
X53000Y-28000
X53000Y-29000
X54000Y-28000
X54000Y-29000
X55000Y-28000
X55000Y-29000
X56000Y-28000
X56000Y-29000
X57000Y-28000
X57000Y-29000
X58000Y-28000
X58000Y-29000
X59000Y-28000
X59000Y-29000
X60000Y-28000
X60000Y-29000
X61000Y-28000
X61000Y-29000
X62000Y-28000
X62000Y-29000
X63000Y-28000
X63000Y-29000
X64000Y-28000
X64000Y-29000
X65000Y-28000
X65000Y-29000
X66000Y-28000
X66000Y-29000
X67000Y-28000
X67000Y-29000
X68000Y-28000
X68000Y-29000
X69000Y-28000
X69000Y-29000
X70000Y-28000
X70000Y-29000
T4
X49700Y-40050
X52950Y-33600
X53550Y-45650
X60400Y-45700
X66900Y-45650
X70150Y-33625
X70700Y-40275
T0
M30
