G04 #@! TF.FileFunction,Legend,Top*
%FSLAX46Y46*%
G04 Gerber Fmt 4.6, Leading zero omitted, Abs format (unit mm)*
G04 Created by KiCad (PCBNEW (2015-05-26 BZR 5684)-product) date Wed 21 Oct 2015 04:34:03 PM PDT*
%MOMM*%
G01*
G04 APERTURE LIST*
%ADD10C,0.100000*%
%ADD11C,0.190500*%
%ADD12C,0.177800*%
%ADD13C,0.127000*%
%ADD14C,0.200000*%
%ADD15C,0.254000*%
%ADD16C,0.300000*%
%ADD17C,0.152400*%
%ADD18C,0.150000*%
%ADD19C,0.203200*%
G04 APERTURE END LIST*
D10*
D11*
X120843524Y-121010438D02*
X120988667Y-121058819D01*
X121230571Y-121058819D01*
X121327333Y-121010438D01*
X121375714Y-120962057D01*
X121424095Y-120865295D01*
X121424095Y-120768533D01*
X121375714Y-120671771D01*
X121327333Y-120623390D01*
X121230571Y-120575010D01*
X121037048Y-120526629D01*
X120940286Y-120478248D01*
X120891905Y-120429867D01*
X120843524Y-120333105D01*
X120843524Y-120236343D01*
X120891905Y-120139581D01*
X120940286Y-120091200D01*
X121037048Y-120042819D01*
X121278952Y-120042819D01*
X121424095Y-120091200D01*
X121859524Y-120526629D02*
X122198190Y-120526629D01*
X122343333Y-121058819D02*
X121859524Y-121058819D01*
X121859524Y-120042819D01*
X122343333Y-120042819D01*
X122778762Y-121058819D02*
X122778762Y-120042819D01*
X123117428Y-120768533D01*
X123456095Y-120042819D01*
X123456095Y-121058819D01*
D12*
X160641696Y-94835133D02*
X161125505Y-94835133D01*
X160544934Y-95125419D02*
X160883601Y-94109419D01*
X161222267Y-95125419D01*
X161512553Y-95077038D02*
X161657696Y-95125419D01*
X161899600Y-95125419D01*
X161996362Y-95077038D01*
X162044743Y-95028657D01*
X162093124Y-94931895D01*
X162093124Y-94835133D01*
X162044743Y-94738371D01*
X161996362Y-94689990D01*
X161899600Y-94641610D01*
X161706077Y-94593229D01*
X161609315Y-94544848D01*
X161560934Y-94496467D01*
X161512553Y-94399705D01*
X161512553Y-94302943D01*
X161560934Y-94206181D01*
X161609315Y-94157800D01*
X161706077Y-94109419D01*
X161947981Y-94109419D01*
X162093124Y-94157800D01*
X162528553Y-95125419D02*
X162528553Y-94109419D01*
X162867219Y-94835133D01*
X163205886Y-94109419D01*
X163205886Y-95125419D01*
X163689696Y-94593229D02*
X164028362Y-94593229D01*
X164173505Y-95125419D02*
X163689696Y-95125419D01*
X163689696Y-94109419D01*
X164173505Y-94109419D01*
D13*
X143418077Y-120359714D02*
X143490648Y-120383905D01*
X143514839Y-120408095D01*
X143539029Y-120456476D01*
X143539029Y-120529048D01*
X143514839Y-120577429D01*
X143490648Y-120601619D01*
X143442267Y-120625810D01*
X143248743Y-120625810D01*
X143248743Y-120117810D01*
X143418077Y-120117810D01*
X143466458Y-120142000D01*
X143490648Y-120166190D01*
X143514839Y-120214571D01*
X143514839Y-120262952D01*
X143490648Y-120311333D01*
X143466458Y-120335524D01*
X143418077Y-120359714D01*
X143248743Y-120359714D01*
X143756743Y-120359714D02*
X143926077Y-120359714D01*
X143998648Y-120625810D02*
X143756743Y-120625810D01*
X143756743Y-120117810D01*
X143998648Y-120117810D01*
X144216362Y-120625810D02*
X144216362Y-120117810D01*
X144385696Y-120480667D01*
X144555029Y-120117810D01*
X144555029Y-120625810D01*
X144966267Y-120359714D02*
X144796933Y-120359714D01*
X144796933Y-120625810D02*
X144796933Y-120117810D01*
X145038838Y-120117810D01*
X124946229Y-120653629D02*
X124922039Y-120677819D01*
X124849467Y-120702010D01*
X124801086Y-120702010D01*
X124728515Y-120677819D01*
X124680134Y-120629438D01*
X124655943Y-120581057D01*
X124631753Y-120484295D01*
X124631753Y-120411724D01*
X124655943Y-120314962D01*
X124680134Y-120266581D01*
X124728515Y-120218200D01*
X124801086Y-120194010D01*
X124849467Y-120194010D01*
X124922039Y-120218200D01*
X124946229Y-120242390D01*
X125163943Y-120435914D02*
X125333277Y-120435914D01*
X125405848Y-120702010D02*
X125163943Y-120702010D01*
X125163943Y-120194010D01*
X125405848Y-120194010D01*
X125623562Y-120702010D02*
X125623562Y-120194010D01*
X125792896Y-120556867D01*
X125962229Y-120194010D01*
X125962229Y-120702010D01*
X126373467Y-120435914D02*
X126204133Y-120435914D01*
X126204133Y-120702010D02*
X126204133Y-120194010D01*
X126446038Y-120194010D01*
X179252638Y-120607667D02*
X179494543Y-120607667D01*
X179204257Y-120752810D02*
X179373590Y-120244810D01*
X179542924Y-120752810D01*
X179712257Y-120486714D02*
X179881591Y-120486714D01*
X179954162Y-120752810D02*
X179712257Y-120752810D01*
X179712257Y-120244810D01*
X179954162Y-120244810D01*
X180171876Y-120752810D02*
X180171876Y-120244810D01*
X180341210Y-120607667D01*
X180510543Y-120244810D01*
X180510543Y-120752810D01*
X180921781Y-120486714D02*
X180752447Y-120486714D01*
X180752447Y-120752810D02*
X180752447Y-120244810D01*
X180994352Y-120244810D01*
X162782553Y-116281200D02*
X162734172Y-116257010D01*
X162661600Y-116257010D01*
X162589029Y-116281200D01*
X162540648Y-116329581D01*
X162516457Y-116377962D01*
X162492267Y-116474724D01*
X162492267Y-116547295D01*
X162516457Y-116644057D01*
X162540648Y-116692438D01*
X162589029Y-116740819D01*
X162661600Y-116765010D01*
X162709981Y-116765010D01*
X162782553Y-116740819D01*
X162806743Y-116716629D01*
X162806743Y-116547295D01*
X162709981Y-116547295D01*
X163024457Y-116765010D02*
X163024457Y-116257010D01*
X163024457Y-116498914D02*
X163314743Y-116498914D01*
X163314743Y-116765010D02*
X163314743Y-116257010D01*
X145993153Y-116281200D02*
X145944772Y-116257010D01*
X145872200Y-116257010D01*
X145799629Y-116281200D01*
X145751248Y-116329581D01*
X145727057Y-116377962D01*
X145702867Y-116474724D01*
X145702867Y-116547295D01*
X145727057Y-116644057D01*
X145751248Y-116692438D01*
X145799629Y-116740819D01*
X145872200Y-116765010D01*
X145920581Y-116765010D01*
X145993153Y-116740819D01*
X146017343Y-116716629D01*
X146017343Y-116547295D01*
X145920581Y-116547295D01*
X146235057Y-116765010D02*
X146235057Y-116257010D01*
X146235057Y-116498914D02*
X146525343Y-116498914D01*
X146525343Y-116765010D02*
X146525343Y-116257010D01*
X128365553Y-116027200D02*
X128317172Y-116003010D01*
X128244600Y-116003010D01*
X128172029Y-116027200D01*
X128123648Y-116075581D01*
X128099457Y-116123962D01*
X128075267Y-116220724D01*
X128075267Y-116293295D01*
X128099457Y-116390057D01*
X128123648Y-116438438D01*
X128172029Y-116486819D01*
X128244600Y-116511010D01*
X128292981Y-116511010D01*
X128365553Y-116486819D01*
X128389743Y-116462629D01*
X128389743Y-116293295D01*
X128292981Y-116293295D01*
X128607457Y-116511010D02*
X128607457Y-116003010D01*
X128607457Y-116244914D02*
X128897743Y-116244914D01*
X128897743Y-116511010D02*
X128897743Y-116003010D01*
X161065029Y-109423200D02*
X161016648Y-109399010D01*
X160944076Y-109399010D01*
X160871505Y-109423200D01*
X160823124Y-109471581D01*
X160798933Y-109519962D01*
X160774743Y-109616724D01*
X160774743Y-109689295D01*
X160798933Y-109786057D01*
X160823124Y-109834438D01*
X160871505Y-109882819D01*
X160944076Y-109907010D01*
X160992457Y-109907010D01*
X161065029Y-109882819D01*
X161089219Y-109858629D01*
X161089219Y-109689295D01*
X160992457Y-109689295D01*
X161548838Y-109907010D02*
X161306933Y-109907010D01*
X161306933Y-109399010D01*
X144656629Y-109321600D02*
X144608248Y-109297410D01*
X144535676Y-109297410D01*
X144463105Y-109321600D01*
X144414724Y-109369981D01*
X144390533Y-109418362D01*
X144366343Y-109515124D01*
X144366343Y-109587695D01*
X144390533Y-109684457D01*
X144414724Y-109732838D01*
X144463105Y-109781219D01*
X144535676Y-109805410D01*
X144584057Y-109805410D01*
X144656629Y-109781219D01*
X144680819Y-109757029D01*
X144680819Y-109587695D01*
X144584057Y-109587695D01*
X145140438Y-109805410D02*
X144898533Y-109805410D01*
X144898533Y-109297410D01*
X127587829Y-109474000D02*
X127539448Y-109449810D01*
X127466876Y-109449810D01*
X127394305Y-109474000D01*
X127345924Y-109522381D01*
X127321733Y-109570762D01*
X127297543Y-109667524D01*
X127297543Y-109740095D01*
X127321733Y-109836857D01*
X127345924Y-109885238D01*
X127394305Y-109933619D01*
X127466876Y-109957810D01*
X127515257Y-109957810D01*
X127587829Y-109933619D01*
X127612019Y-109909429D01*
X127612019Y-109740095D01*
X127515257Y-109740095D01*
X128071638Y-109957810D02*
X127829733Y-109957810D01*
X127829733Y-109449810D01*
D14*
X159376087Y-82499200D02*
G75*
G03X159376087Y-82499200I-321287J0D01*
G01*
X124620170Y-80975200D02*
G75*
G03X124620170Y-80975200I-668170J0D01*
G01*
X130237133Y-76504800D02*
G75*
G03X130237133Y-76504800I-1001933J0D01*
G01*
D15*
X136001276Y-122028857D02*
X135952895Y-122077238D01*
X135807752Y-122125619D01*
X135710990Y-122125619D01*
X135565848Y-122077238D01*
X135469086Y-121980476D01*
X135420705Y-121883714D01*
X135372324Y-121690190D01*
X135372324Y-121545048D01*
X135420705Y-121351524D01*
X135469086Y-121254762D01*
X135565848Y-121158000D01*
X135710990Y-121109619D01*
X135807752Y-121109619D01*
X135952895Y-121158000D01*
X136001276Y-121206381D01*
X153590171Y-121644229D02*
X153735314Y-121692610D01*
X153783695Y-121740990D01*
X153832076Y-121837752D01*
X153832076Y-121982895D01*
X153783695Y-122079657D01*
X153735314Y-122128038D01*
X153638552Y-122176419D01*
X153251505Y-122176419D01*
X153251505Y-121160419D01*
X153590171Y-121160419D01*
X153686933Y-121208800D01*
X153735314Y-121257181D01*
X153783695Y-121353943D01*
X153783695Y-121450705D01*
X153735314Y-121547467D01*
X153686933Y-121595848D01*
X153590171Y-121644229D01*
X153251505Y-121644229D01*
X170242896Y-121936933D02*
X170726705Y-121936933D01*
X170146134Y-122227219D02*
X170484801Y-121211219D01*
X170823467Y-122227219D01*
X177726219Y-108165295D02*
X176710219Y-108165295D01*
X176710219Y-107778248D01*
X176758600Y-107681486D01*
X176806981Y-107633105D01*
X176903743Y-107584724D01*
X177048886Y-107584724D01*
X177145648Y-107633105D01*
X177194029Y-107681486D01*
X177242410Y-107778248D01*
X177242410Y-108165295D01*
X178386619Y-108237866D02*
X179402619Y-107899199D01*
X178386619Y-107560533D01*
X181079019Y-108165295D02*
X180063019Y-108165295D01*
X180063019Y-107923390D01*
X180111400Y-107778248D01*
X180208162Y-107681486D01*
X180304924Y-107633105D01*
X180498448Y-107584724D01*
X180643590Y-107584724D01*
X180837114Y-107633105D01*
X180933876Y-107681486D01*
X181030638Y-107778248D01*
X181079019Y-107923390D01*
X181079019Y-108165295D01*
X182755419Y-108165295D02*
X181739419Y-108165295D01*
X181739419Y-107923390D01*
X181787800Y-107778248D01*
X181884562Y-107681486D01*
X181981324Y-107633105D01*
X182174848Y-107584724D01*
X182319990Y-107584724D01*
X182513514Y-107633105D01*
X182610276Y-107681486D01*
X182707038Y-107778248D01*
X182755419Y-107923390D01*
X182755419Y-108165295D01*
D16*
X175036200Y-79290333D02*
X174951533Y-79459667D01*
X174951533Y-79713667D01*
X175036200Y-79967667D01*
X175205533Y-80137000D01*
X175374867Y-80221667D01*
X175713533Y-80306333D01*
X175967533Y-80306333D01*
X176306200Y-80221667D01*
X176475533Y-80137000D01*
X176644867Y-79967667D01*
X176729533Y-79713667D01*
X176729533Y-79544333D01*
X176644867Y-79290333D01*
X176560200Y-79205667D01*
X175967533Y-79205667D01*
X175967533Y-79544333D01*
X179518733Y-80264000D02*
X177740733Y-80264000D01*
X179518733Y-79248000D01*
X177740733Y-79248000D01*
X182307933Y-80221667D02*
X180529933Y-80221667D01*
X180529933Y-79798333D01*
X180614600Y-79544333D01*
X180783933Y-79375000D01*
X180953267Y-79290333D01*
X181291933Y-79205667D01*
X181545933Y-79205667D01*
X181884600Y-79290333D01*
X182053933Y-79375000D01*
X182223267Y-79544333D01*
X182307933Y-79798333D01*
X182307933Y-80221667D01*
D13*
X132822648Y-77090210D02*
X132822648Y-76582210D01*
X132943601Y-76582210D01*
X133016172Y-76606400D01*
X133064553Y-76654781D01*
X133088744Y-76703162D01*
X133112934Y-76799924D01*
X133112934Y-76872495D01*
X133088744Y-76969257D01*
X133064553Y-77017638D01*
X133016172Y-77066019D01*
X132943601Y-77090210D01*
X132822648Y-77090210D01*
X133330648Y-76824114D02*
X133499982Y-76824114D01*
X133572553Y-77090210D02*
X133330648Y-77090210D01*
X133330648Y-76582210D01*
X133572553Y-76582210D01*
X133959601Y-76824114D02*
X134032172Y-76848305D01*
X134056363Y-76872495D01*
X134080553Y-76920876D01*
X134080553Y-76993448D01*
X134056363Y-77041829D01*
X134032172Y-77066019D01*
X133983791Y-77090210D01*
X133790267Y-77090210D01*
X133790267Y-76582210D01*
X133959601Y-76582210D01*
X134007982Y-76606400D01*
X134032172Y-76630590D01*
X134056363Y-76678971D01*
X134056363Y-76727352D01*
X134032172Y-76775733D01*
X134007982Y-76799924D01*
X133959601Y-76824114D01*
X133790267Y-76824114D01*
X134298267Y-76582210D02*
X134298267Y-76993448D01*
X134322458Y-77041829D01*
X134346648Y-77066019D01*
X134395029Y-77090210D01*
X134491791Y-77090210D01*
X134540172Y-77066019D01*
X134564363Y-77041829D01*
X134588553Y-76993448D01*
X134588553Y-76582210D01*
X135096553Y-76606400D02*
X135048172Y-76582210D01*
X134975600Y-76582210D01*
X134903029Y-76606400D01*
X134854648Y-76654781D01*
X134830457Y-76703162D01*
X134806267Y-76799924D01*
X134806267Y-76872495D01*
X134830457Y-76969257D01*
X134854648Y-77017638D01*
X134903029Y-77066019D01*
X134975600Y-77090210D01*
X135023981Y-77090210D01*
X135096553Y-77066019D01*
X135120743Y-77041829D01*
X135120743Y-76872495D01*
X135023981Y-76872495D01*
X122309467Y-77598210D02*
X122309467Y-77090210D01*
X122502991Y-77090210D01*
X122551372Y-77114400D01*
X122575563Y-77138590D01*
X122599753Y-77186971D01*
X122599753Y-77259543D01*
X122575563Y-77307924D01*
X122551372Y-77332114D01*
X122502991Y-77356305D01*
X122309467Y-77356305D01*
X122769086Y-77090210D02*
X122890039Y-77598210D01*
X122986801Y-77235352D01*
X123083563Y-77598210D01*
X123204515Y-77090210D01*
X123688324Y-77598210D02*
X123518991Y-77356305D01*
X123398038Y-77598210D02*
X123398038Y-77090210D01*
X123591562Y-77090210D01*
X123639943Y-77114400D01*
X123664134Y-77138590D01*
X123688324Y-77186971D01*
X123688324Y-77259543D01*
X123664134Y-77307924D01*
X123639943Y-77332114D01*
X123591562Y-77356305D01*
X123398038Y-77356305D01*
X168123810Y-77141010D02*
X168220572Y-77141010D01*
X168268953Y-77165200D01*
X168317334Y-77213581D01*
X168341525Y-77310343D01*
X168341525Y-77479676D01*
X168317334Y-77576438D01*
X168268953Y-77624819D01*
X168220572Y-77649010D01*
X168123810Y-77649010D01*
X168075429Y-77624819D01*
X168027048Y-77576438D01*
X168002858Y-77479676D01*
X168002858Y-77310343D01*
X168027048Y-77213581D01*
X168075429Y-77165200D01*
X168123810Y-77141010D01*
X168849524Y-77600629D02*
X168825334Y-77624819D01*
X168752762Y-77649010D01*
X168704381Y-77649010D01*
X168631810Y-77624819D01*
X168583429Y-77576438D01*
X168559238Y-77528057D01*
X168535048Y-77431295D01*
X168535048Y-77358724D01*
X168559238Y-77261962D01*
X168583429Y-77213581D01*
X168631810Y-77165200D01*
X168704381Y-77141010D01*
X168752762Y-77141010D01*
X168825334Y-77165200D01*
X168849524Y-77189390D01*
X168994667Y-77141010D02*
X169284953Y-77141010D01*
X169139810Y-77649010D02*
X169139810Y-77141010D01*
X169405905Y-77141010D02*
X169526858Y-77649010D01*
X169623620Y-77286152D01*
X169720382Y-77649010D01*
X169841334Y-77141010D01*
X171249219Y-77332114D02*
X171079885Y-77332114D01*
X171079885Y-77598210D02*
X171079885Y-77090210D01*
X171321790Y-77090210D01*
X171491124Y-77453067D02*
X171733029Y-77453067D01*
X171442743Y-77598210D02*
X171612076Y-77090210D01*
X171781410Y-77598210D01*
X171950743Y-77090210D02*
X171950743Y-77501448D01*
X171974934Y-77549829D01*
X171999124Y-77574019D01*
X172047505Y-77598210D01*
X172144267Y-77598210D01*
X172192648Y-77574019D01*
X172216839Y-77549829D01*
X172241029Y-77501448D01*
X172241029Y-77090210D01*
X172724838Y-77598210D02*
X172482933Y-77598210D01*
X172482933Y-77090210D01*
X172821600Y-77090210D02*
X173111886Y-77090210D01*
X172966743Y-77598210D02*
X172966743Y-77090210D01*
D17*
X157848000Y-88861900D02*
X158178200Y-88861900D01*
X145910000Y-82664300D02*
X145579800Y-82664300D01*
X145579800Y-82664300D02*
X145579800Y-88861900D01*
X145579800Y-88861900D02*
X145910000Y-88861900D01*
X158178200Y-88861900D02*
X158178200Y-86067900D01*
X158178200Y-86067900D02*
X158178200Y-85458300D01*
X158178200Y-85458300D02*
X158178200Y-82664300D01*
X158178200Y-82664300D02*
X157848000Y-82664300D01*
X157492400Y-82664300D02*
X157771800Y-82664300D01*
X157771800Y-82664300D02*
X157771800Y-81597500D01*
X157771800Y-81597500D02*
X157492400Y-81597500D01*
X157492400Y-81597500D02*
X157492400Y-82664300D01*
X156984400Y-82664300D02*
X157263800Y-82664300D01*
X157263800Y-82664300D02*
X157263800Y-81597500D01*
X157263800Y-81597500D02*
X156984400Y-81597500D01*
X156984400Y-81597500D02*
X156984400Y-82664300D01*
X156501800Y-82664300D02*
X156781200Y-82664300D01*
X156781200Y-82664300D02*
X156781200Y-81597500D01*
X156781200Y-81597500D02*
X156501800Y-81597500D01*
X156501800Y-81597500D02*
X156501800Y-82664300D01*
X155993800Y-82664300D02*
X156270660Y-82664300D01*
X156270660Y-82664300D02*
X156270660Y-81597500D01*
X156270660Y-81597500D02*
X155993800Y-81597500D01*
X155993800Y-81597500D02*
X155993800Y-82664300D01*
X155483260Y-82664300D02*
X155765200Y-82664300D01*
X155765200Y-82664300D02*
X155765200Y-81597500D01*
X155765200Y-81597500D02*
X155483260Y-81597500D01*
X155483260Y-81597500D02*
X155483260Y-82664300D01*
X154977800Y-82664300D02*
X155257200Y-82664300D01*
X155257200Y-82664300D02*
X155257200Y-81597500D01*
X155257200Y-81597500D02*
X154977800Y-81597500D01*
X154977800Y-81597500D02*
X154977800Y-82664300D01*
X154495200Y-82664300D02*
X154774600Y-82664300D01*
X154774600Y-82664300D02*
X154774600Y-81597500D01*
X154774600Y-81597500D02*
X154495200Y-81597500D01*
X154495200Y-81597500D02*
X154495200Y-82664300D01*
X153987200Y-82664300D02*
X154266600Y-82664300D01*
X154266600Y-82664300D02*
X154266600Y-81597500D01*
X154266600Y-81597500D02*
X153987200Y-81597500D01*
X153987200Y-81597500D02*
X153987200Y-82664300D01*
X153479200Y-82664300D02*
X153758600Y-82664300D01*
X153758600Y-82664300D02*
X153758600Y-81597500D01*
X153758600Y-81597500D02*
X153479200Y-81597500D01*
X153479200Y-81597500D02*
X153479200Y-82664300D01*
X152996600Y-82664300D02*
X153276000Y-82664300D01*
X153276000Y-82664300D02*
X153276000Y-81597500D01*
X153276000Y-81597500D02*
X152996600Y-81597500D01*
X152996600Y-81597500D02*
X152996600Y-82664300D01*
X152488600Y-82664300D02*
X152768000Y-82664300D01*
X152768000Y-82664300D02*
X152768000Y-81597500D01*
X152768000Y-81597500D02*
X152488600Y-81597500D01*
X152488600Y-81597500D02*
X152488600Y-82664300D01*
X151980600Y-82664300D02*
X152260000Y-82664300D01*
X152260000Y-82664300D02*
X152260000Y-81597500D01*
X152260000Y-81597500D02*
X151980600Y-81597500D01*
X151980600Y-81597500D02*
X151980600Y-82664300D01*
X151498000Y-82664300D02*
X151777400Y-82664300D01*
X151777400Y-82664300D02*
X151777400Y-81597500D01*
X151777400Y-81597500D02*
X151498000Y-81597500D01*
X151498000Y-81597500D02*
X151498000Y-82664300D01*
X150990000Y-82664300D02*
X151269400Y-82664300D01*
X151269400Y-82664300D02*
X151269400Y-81597500D01*
X151269400Y-81597500D02*
X150990000Y-81597500D01*
X150990000Y-81597500D02*
X150990000Y-82664300D01*
X150482000Y-82664300D02*
X150761400Y-82664300D01*
X150761400Y-82664300D02*
X150761400Y-81597500D01*
X150761400Y-81597500D02*
X150482000Y-81597500D01*
X150482000Y-81597500D02*
X150482000Y-82664300D01*
X149999400Y-82664300D02*
X150278800Y-82664300D01*
X150278800Y-82664300D02*
X150278800Y-81597500D01*
X150278800Y-81597500D02*
X149999400Y-81597500D01*
X149999400Y-81597500D02*
X149999400Y-82664300D01*
X149491400Y-82664300D02*
X149770800Y-82664300D01*
X149770800Y-82664300D02*
X149770800Y-81597500D01*
X149770800Y-81597500D02*
X149491400Y-81597500D01*
X149491400Y-81597500D02*
X149491400Y-82664300D01*
X148983400Y-82664300D02*
X149262800Y-82664300D01*
X149262800Y-82664300D02*
X149262800Y-81597500D01*
X149262800Y-81597500D02*
X148983400Y-81597500D01*
X148983400Y-81597500D02*
X148983400Y-82664300D01*
X148500800Y-82664300D02*
X148780200Y-82664300D01*
X148780200Y-82664300D02*
X148780200Y-81597500D01*
X148780200Y-81597500D02*
X148500800Y-81597500D01*
X148500800Y-81597500D02*
X148500800Y-82664300D01*
X147992800Y-82664300D02*
X148274740Y-82664300D01*
X148274740Y-82664300D02*
X148274740Y-81597500D01*
X148274740Y-81597500D02*
X147992800Y-81597500D01*
X147992800Y-81597500D02*
X147992800Y-82664300D01*
X147487340Y-82664300D02*
X147764200Y-82664300D01*
X147764200Y-82664300D02*
X147764200Y-81597500D01*
X147764200Y-81597500D02*
X147487340Y-81597500D01*
X147487340Y-81597500D02*
X147487340Y-82664300D01*
X146976800Y-82664300D02*
X147256200Y-82664300D01*
X147256200Y-82664300D02*
X147256200Y-81597500D01*
X147256200Y-81597500D02*
X146976800Y-81597500D01*
X146976800Y-81597500D02*
X146976800Y-82664300D01*
X146494200Y-82664300D02*
X146773600Y-82664300D01*
X146773600Y-82664300D02*
X146773600Y-81597500D01*
X146773600Y-81597500D02*
X146494200Y-81597500D01*
X146494200Y-81597500D02*
X146494200Y-82664300D01*
X145986200Y-82664300D02*
X146265600Y-82664300D01*
X146265600Y-82664300D02*
X146265600Y-81597500D01*
X146265600Y-81597500D02*
X145986200Y-81597500D01*
X145986200Y-81597500D02*
X145986200Y-82664300D01*
X146265600Y-88861900D02*
X145986200Y-88861900D01*
X145986200Y-88861900D02*
X145986200Y-89928700D01*
X145986200Y-89928700D02*
X146265600Y-89928700D01*
X146265600Y-89928700D02*
X146265600Y-88861900D01*
X146773600Y-88861900D02*
X146494200Y-88861900D01*
X146494200Y-88861900D02*
X146494200Y-89928700D01*
X146494200Y-89928700D02*
X146773600Y-89928700D01*
X146773600Y-89928700D02*
X146773600Y-88861900D01*
X147256200Y-88861900D02*
X146976800Y-88861900D01*
X146976800Y-88861900D02*
X146976800Y-89928700D01*
X146976800Y-89928700D02*
X147256200Y-89928700D01*
X147256200Y-89928700D02*
X147256200Y-88861900D01*
X147764200Y-88861900D02*
X147487340Y-88861900D01*
X147487340Y-88861900D02*
X147487340Y-89928700D01*
X147487340Y-89928700D02*
X147764200Y-89928700D01*
X147764200Y-89928700D02*
X147764200Y-88861900D01*
X148274740Y-88861900D02*
X147992800Y-88861900D01*
X147992800Y-88861900D02*
X147992800Y-89928700D01*
X147992800Y-89928700D02*
X148274740Y-89928700D01*
X148274740Y-89928700D02*
X148274740Y-88861900D01*
X148780200Y-88861900D02*
X148500800Y-88861900D01*
X148500800Y-88861900D02*
X148500800Y-89928700D01*
X148500800Y-89928700D02*
X148780200Y-89928700D01*
X148780200Y-89928700D02*
X148780200Y-88861900D01*
X149262800Y-88861900D02*
X148983400Y-88861900D01*
X148983400Y-88861900D02*
X148983400Y-89928700D01*
X148983400Y-89928700D02*
X149262800Y-89928700D01*
X149262800Y-89928700D02*
X149262800Y-88861900D01*
X149770800Y-88861900D02*
X149491400Y-88861900D01*
X149491400Y-88861900D02*
X149491400Y-89928700D01*
X149491400Y-89928700D02*
X149770800Y-89928700D01*
X149770800Y-89928700D02*
X149770800Y-88861900D01*
X150278800Y-88861900D02*
X149999400Y-88861900D01*
X149999400Y-88861900D02*
X149999400Y-89928700D01*
X149999400Y-89928700D02*
X150278800Y-89928700D01*
X150278800Y-89928700D02*
X150278800Y-88861900D01*
X150761400Y-88861900D02*
X150482000Y-88861900D01*
X150482000Y-88861900D02*
X150482000Y-89928700D01*
X150482000Y-89928700D02*
X150761400Y-89928700D01*
X150761400Y-89928700D02*
X150761400Y-88861900D01*
X151269400Y-88861900D02*
X150990000Y-88861900D01*
X150990000Y-88861900D02*
X150990000Y-89928700D01*
X150990000Y-89928700D02*
X151269400Y-89928700D01*
X151269400Y-89928700D02*
X151269400Y-88861900D01*
X151777400Y-88861900D02*
X151498000Y-88861900D01*
X151498000Y-88861900D02*
X151498000Y-89928700D01*
X151498000Y-89928700D02*
X151777400Y-89928700D01*
X151777400Y-89928700D02*
X151777400Y-88861900D01*
X152260000Y-88861900D02*
X151980600Y-88861900D01*
X151980600Y-88861900D02*
X151980600Y-89928700D01*
X151980600Y-89928700D02*
X152260000Y-89928700D01*
X152260000Y-89928700D02*
X152260000Y-88861900D01*
X152768000Y-88861900D02*
X152488600Y-88861900D01*
X152488600Y-88861900D02*
X152488600Y-89928700D01*
X152488600Y-89928700D02*
X152768000Y-89928700D01*
X152768000Y-89928700D02*
X152768000Y-88861900D01*
X153276000Y-88861900D02*
X152996600Y-88861900D01*
X152996600Y-88861900D02*
X152996600Y-89928700D01*
X152996600Y-89928700D02*
X153276000Y-89928700D01*
X153276000Y-89928700D02*
X153276000Y-88861900D01*
X153758600Y-88861900D02*
X153479200Y-88861900D01*
X153479200Y-88861900D02*
X153479200Y-89928700D01*
X153479200Y-89928700D02*
X153758600Y-89928700D01*
X153758600Y-89928700D02*
X153758600Y-88861900D01*
X154266600Y-88861900D02*
X153987200Y-88861900D01*
X153987200Y-88861900D02*
X153987200Y-89928700D01*
X153987200Y-89928700D02*
X154266600Y-89928700D01*
X154266600Y-89928700D02*
X154266600Y-88861900D01*
X154774600Y-88861900D02*
X154495200Y-88861900D01*
X154495200Y-88861900D02*
X154495200Y-89928700D01*
X154495200Y-89928700D02*
X154774600Y-89928700D01*
X154774600Y-89928700D02*
X154774600Y-88861900D01*
X155257200Y-88861900D02*
X154977800Y-88861900D01*
X154977800Y-88861900D02*
X154977800Y-89928700D01*
X154977800Y-89928700D02*
X155257200Y-89928700D01*
X155257200Y-89928700D02*
X155257200Y-88861900D01*
X155765200Y-88861900D02*
X155483260Y-88861900D01*
X155483260Y-88861900D02*
X155483260Y-89928700D01*
X155483260Y-89928700D02*
X155765200Y-89928700D01*
X155765200Y-89928700D02*
X155765200Y-88861900D01*
X156270660Y-88861900D02*
X155993800Y-88861900D01*
X155993800Y-88861900D02*
X155993800Y-89928700D01*
X155993800Y-89928700D02*
X156270660Y-89928700D01*
X156270660Y-89928700D02*
X156270660Y-88861900D01*
X156781200Y-88861900D02*
X156501800Y-88861900D01*
X156501800Y-88861900D02*
X156501800Y-89928700D01*
X156501800Y-89928700D02*
X156781200Y-89928700D01*
X156781200Y-89928700D02*
X156781200Y-88861900D01*
X157263800Y-88861900D02*
X156984400Y-88861900D01*
X156984400Y-88861900D02*
X156984400Y-89928700D01*
X156984400Y-89928700D02*
X157263800Y-89928700D01*
X157263800Y-89928700D02*
X157263800Y-88861900D01*
X157771800Y-88861900D02*
X157492400Y-88861900D01*
X157492400Y-88861900D02*
X157492400Y-89928700D01*
X157492400Y-89928700D02*
X157771800Y-89928700D01*
X157771800Y-89928700D02*
X157771800Y-88861900D01*
X145579800Y-82664300D02*
X145579800Y-88861900D01*
X145579800Y-88861900D02*
X158178200Y-88861900D01*
X158178200Y-88861900D02*
X158178200Y-86067900D01*
X158178200Y-86067900D02*
X158178200Y-85458300D01*
X158178200Y-85458300D02*
X158178200Y-82664300D01*
X158178200Y-82664300D02*
X145579800Y-82664300D01*
D10*
X153326800Y-80530700D02*
X152945800Y-80530700D01*
X152945800Y-80530700D02*
X152945800Y-80784700D01*
X152945800Y-80784700D02*
X153326800Y-80784700D01*
X153326800Y-80784700D02*
X153326800Y-80530700D01*
X148323000Y-80530700D02*
X147942000Y-80530700D01*
X147942000Y-80530700D02*
X147942000Y-80784700D01*
X147942000Y-80784700D02*
X148323000Y-80784700D01*
X148323000Y-80784700D02*
X148323000Y-80530700D01*
X148831000Y-90995500D02*
X148450000Y-90995500D01*
X148450000Y-90995500D02*
X148450000Y-90741500D01*
X148450000Y-90741500D02*
X148831000Y-90741500D01*
X148831000Y-90741500D02*
X148831000Y-90995500D01*
X153809400Y-90995500D02*
X153428400Y-90995500D01*
X153428400Y-90995500D02*
X153428400Y-90741500D01*
X153428400Y-90741500D02*
X153809400Y-90741500D01*
X153809400Y-90741500D02*
X153809400Y-90995500D01*
X153987200Y-84112100D02*
X152717200Y-84112100D01*
X152717200Y-84112100D02*
X152717200Y-85661500D01*
X152717200Y-85661500D02*
X153987200Y-85661500D01*
X153987200Y-85661500D02*
X153987200Y-84112100D01*
X152514000Y-84112100D02*
X151244000Y-84112100D01*
X151244000Y-84112100D02*
X151244000Y-85661500D01*
X151244000Y-85661500D02*
X152514000Y-85661500D01*
X152514000Y-85661500D02*
X152514000Y-84112100D01*
X151040800Y-84112100D02*
X149770800Y-84112100D01*
X149770800Y-84112100D02*
X149770800Y-85661500D01*
X149770800Y-85661500D02*
X151040800Y-85661500D01*
X151040800Y-85661500D02*
X151040800Y-84112100D01*
X153987200Y-85864700D02*
X152717200Y-85864700D01*
X152717200Y-85864700D02*
X152717200Y-87414100D01*
X152717200Y-87414100D02*
X153987200Y-87414100D01*
X153987200Y-87414100D02*
X153987200Y-85864700D01*
X152514000Y-85864700D02*
X151244000Y-85864700D01*
X151244000Y-85864700D02*
X151244000Y-87414100D01*
X151244000Y-87414100D02*
X152514000Y-87414100D01*
X152514000Y-87414100D02*
X152514000Y-85864700D01*
X151040800Y-85864700D02*
X149770800Y-85864700D01*
X149770800Y-85864700D02*
X149770800Y-87414100D01*
X149770800Y-87414100D02*
X151040800Y-87414100D01*
X151040800Y-87414100D02*
X151040800Y-85864700D01*
X158178200Y-85458300D02*
G75*
G03X158178200Y-86067900I0J-304800D01*
G01*
X158178200Y-85458300D02*
G75*
G03X158178200Y-86067900I0J-304800D01*
G01*
D18*
X158234000Y-76493000D02*
X157234000Y-76493000D01*
X157234000Y-78193000D02*
X158234000Y-78193000D01*
X144438000Y-78113000D02*
X144438000Y-79113000D01*
X146138000Y-79113000D02*
X146138000Y-78113000D01*
X139327000Y-80479000D02*
X140327000Y-80479000D01*
X140327000Y-78779000D02*
X139327000Y-78779000D01*
X139642000Y-84568000D02*
X139642000Y-89168000D01*
X145092000Y-89168000D02*
X145092000Y-84568000D01*
X175023000Y-107316000D02*
X174023000Y-107316000D01*
X174023000Y-109016000D02*
X175023000Y-109016000D01*
X158475000Y-107278000D02*
X157475000Y-107278000D01*
X157475000Y-108978000D02*
X158475000Y-108978000D01*
X141381000Y-107227000D02*
X140381000Y-107227000D01*
X140381000Y-108927000D02*
X141381000Y-108927000D01*
X129310000Y-85590000D02*
X129310000Y-84590000D01*
X127610000Y-84590000D02*
X127610000Y-85590000D01*
X175649000Y-96862000D02*
X176649000Y-96862000D01*
X176649000Y-95162000D02*
X175649000Y-95162000D01*
X175649000Y-94449000D02*
X176649000Y-94449000D01*
X176649000Y-92749000D02*
X175649000Y-92749000D01*
X136525000Y-79756000D02*
X136779000Y-79756000D01*
X136779000Y-79756000D02*
X136779000Y-77470000D01*
X136779000Y-77470000D02*
X136525000Y-77470000D01*
X136525000Y-79756000D02*
X136525000Y-77470000D01*
X136525000Y-77470000D02*
X134874000Y-77470000D01*
X133096000Y-79756000D02*
X131445000Y-79756000D01*
X131445000Y-79756000D02*
X131445000Y-77470000D01*
X131445000Y-77470000D02*
X133096000Y-77470000D01*
X134874000Y-79756000D02*
X136525000Y-79756000D01*
X170942000Y-83058000D02*
X170942000Y-83312000D01*
X170942000Y-83312000D02*
X173228000Y-83312000D01*
X173228000Y-83312000D02*
X173228000Y-83058000D01*
X170942000Y-83058000D02*
X173228000Y-83058000D01*
X173228000Y-83058000D02*
X173228000Y-81407000D01*
X170942000Y-79629000D02*
X170942000Y-77978000D01*
X170942000Y-77978000D02*
X173228000Y-77978000D01*
X173228000Y-77978000D02*
X173228000Y-79629000D01*
X170942000Y-81407000D02*
X170942000Y-83058000D01*
X167767000Y-83058000D02*
X167767000Y-83312000D01*
X167767000Y-83312000D02*
X170053000Y-83312000D01*
X170053000Y-83312000D02*
X170053000Y-83058000D01*
X167767000Y-83058000D02*
X170053000Y-83058000D01*
X170053000Y-83058000D02*
X170053000Y-81407000D01*
X167767000Y-79629000D02*
X167767000Y-77978000D01*
X167767000Y-77978000D02*
X170053000Y-77978000D01*
X170053000Y-77978000D02*
X170053000Y-79629000D01*
X167767000Y-81407000D02*
X167767000Y-83058000D01*
X120548000Y-74295000D02*
X120294000Y-74295000D01*
X120294000Y-74295000D02*
X120294000Y-76581000D01*
X120294000Y-76581000D02*
X120548000Y-76581000D01*
X120548000Y-74295000D02*
X120548000Y-76581000D01*
X120548000Y-76581000D02*
X122199000Y-76581000D01*
X123977000Y-74295000D02*
X125628000Y-74295000D01*
X125628000Y-74295000D02*
X125628000Y-76581000D01*
X125628000Y-76581000D02*
X123977000Y-76581000D01*
X122199000Y-74295000D02*
X120548000Y-74295000D01*
X173634000Y-88371800D02*
X173634000Y-96671800D01*
X167234000Y-96671800D02*
X167234000Y-88371800D01*
X122479000Y-82143600D02*
X122479000Y-94843600D01*
X122479000Y-94843600D02*
X119939000Y-94843600D01*
X119939000Y-94843600D02*
X119939000Y-82143600D01*
X122759000Y-79323600D02*
X122759000Y-80873600D01*
X122479000Y-82143600D02*
X119939000Y-82143600D01*
X119659000Y-80873600D02*
X119659000Y-79323600D01*
X119659000Y-79323600D02*
X122759000Y-79323600D01*
X179070000Y-69850000D02*
X128270000Y-69850000D01*
X130810000Y-74930000D02*
X179070000Y-74930000D01*
X179070000Y-69850000D02*
X179070000Y-74930000D01*
X128270000Y-69850000D02*
X128270000Y-72390000D01*
X127990000Y-73660000D02*
X127990000Y-75210000D01*
X128270000Y-72390000D02*
X130810000Y-72390000D01*
X130810000Y-72390000D02*
X130810000Y-74930000D01*
X127990000Y-75210000D02*
X129540000Y-75210000D01*
D17*
X165379400Y-85115400D02*
X164058600Y-85115400D01*
X164058600Y-85115400D02*
X164058600Y-82270600D01*
X164058600Y-82270600D02*
X165379400Y-82270600D01*
X165379400Y-82270600D02*
X165379400Y-85115400D01*
D19*
X165417500Y-82895440D02*
X165417500Y-82293460D01*
X165417500Y-82293460D02*
X164619940Y-82293460D01*
X165417500Y-84490560D02*
X165417500Y-85092540D01*
X165417500Y-85092540D02*
X164619940Y-85092540D01*
D17*
X165379400Y-81178400D02*
X164058600Y-81178400D01*
X164058600Y-81178400D02*
X164058600Y-78333600D01*
X164058600Y-78333600D02*
X165379400Y-78333600D01*
X165379400Y-78333600D02*
X165379400Y-81178400D01*
D19*
X165417500Y-78958440D02*
X165417500Y-78356460D01*
X165417500Y-78356460D02*
X164619940Y-78356460D01*
X165417500Y-80553560D02*
X165417500Y-81155540D01*
X165417500Y-81155540D02*
X164619940Y-81155540D01*
D18*
X167132000Y-111061000D02*
X167132000Y-109918000D01*
X167767000Y-111061000D02*
X167767000Y-109918000D01*
X167132000Y-111061000D02*
X167767000Y-111061000D01*
D14*
X170846000Y-109918000D02*
X170846000Y-113728000D01*
X170846000Y-113728000D02*
X171546000Y-113728000D01*
X171546000Y-113728000D02*
X171546000Y-109918000D01*
X169576000Y-109918000D02*
X169576000Y-113728000D01*
X169576000Y-113728000D02*
X170276000Y-113728000D01*
X170276000Y-113728000D02*
X170276000Y-109918000D01*
X168306000Y-109918000D02*
X168306000Y-113728000D01*
X168306000Y-113728000D02*
X169006000Y-113728000D01*
X169006000Y-113728000D02*
X169006000Y-109918000D01*
X165766000Y-109918000D02*
X165766000Y-113728000D01*
X165766000Y-113728000D02*
X166466000Y-113728000D01*
X166466000Y-113728000D02*
X166466000Y-109918000D01*
X164496000Y-109918000D02*
X164496000Y-113728000D01*
X164496000Y-113728000D02*
X165196000Y-113728000D01*
X165196000Y-113728000D02*
X165196000Y-109918000D01*
X163226000Y-109918000D02*
X163226000Y-113728000D01*
X163226000Y-113728000D02*
X163926000Y-113728000D01*
X163926000Y-113728000D02*
X163926000Y-109918000D01*
X164211000Y-108648000D02*
G75*
G03X164211000Y-108648000I-635000J0D01*
G01*
X162306000Y-100647000D02*
X162306000Y-100012000D01*
X162306000Y-100012000D02*
X162941000Y-99377000D01*
X162941000Y-99377000D02*
X171831000Y-99377000D01*
X171831000Y-99377000D02*
X172466000Y-100012000D01*
X172466000Y-100012000D02*
X172466000Y-100647000D01*
X162306000Y-109918000D02*
X172466000Y-109918000D01*
X172466000Y-109918000D02*
X172466000Y-100647000D01*
X172466000Y-100647000D02*
X162306000Y-100647000D01*
X162306000Y-100647000D02*
X162306000Y-109918000D01*
D18*
X150622000Y-110998000D02*
X150622000Y-109855000D01*
X151257000Y-110998000D02*
X151257000Y-109855000D01*
X150622000Y-110998000D02*
X151257000Y-110998000D01*
D14*
X154336000Y-109855000D02*
X154336000Y-113665000D01*
X154336000Y-113665000D02*
X155036000Y-113665000D01*
X155036000Y-113665000D02*
X155036000Y-109855000D01*
X153066000Y-109855000D02*
X153066000Y-113665000D01*
X153066000Y-113665000D02*
X153766000Y-113665000D01*
X153766000Y-113665000D02*
X153766000Y-109855000D01*
X151796000Y-109855000D02*
X151796000Y-113665000D01*
X151796000Y-113665000D02*
X152496000Y-113665000D01*
X152496000Y-113665000D02*
X152496000Y-109855000D01*
X149256000Y-109855000D02*
X149256000Y-113665000D01*
X149256000Y-113665000D02*
X149956000Y-113665000D01*
X149956000Y-113665000D02*
X149956000Y-109855000D01*
X147986000Y-109855000D02*
X147986000Y-113665000D01*
X147986000Y-113665000D02*
X148686000Y-113665000D01*
X148686000Y-113665000D02*
X148686000Y-109855000D01*
X146716000Y-109855000D02*
X146716000Y-113665000D01*
X146716000Y-113665000D02*
X147416000Y-113665000D01*
X147416000Y-113665000D02*
X147416000Y-109855000D01*
X147701000Y-108585000D02*
G75*
G03X147701000Y-108585000I-635000J0D01*
G01*
X145796000Y-100584000D02*
X145796000Y-99949000D01*
X145796000Y-99949000D02*
X146431000Y-99314000D01*
X146431000Y-99314000D02*
X155321000Y-99314000D01*
X155321000Y-99314000D02*
X155956000Y-99949000D01*
X155956000Y-99949000D02*
X155956000Y-100584000D01*
X145796000Y-109855000D02*
X155956000Y-109855000D01*
X155956000Y-109855000D02*
X155956000Y-100584000D01*
X155956000Y-100584000D02*
X145796000Y-100584000D01*
X145796000Y-100584000D02*
X145796000Y-109855000D01*
D18*
X133540000Y-110998000D02*
X133540000Y-109855000D01*
X134175000Y-110998000D02*
X134175000Y-109855000D01*
X133540000Y-110998000D02*
X134175000Y-110998000D01*
D14*
X137254000Y-109855000D02*
X137254000Y-113665000D01*
X137254000Y-113665000D02*
X137954000Y-113665000D01*
X137954000Y-113665000D02*
X137954000Y-109855000D01*
X135984000Y-109855000D02*
X135984000Y-113665000D01*
X135984000Y-113665000D02*
X136684000Y-113665000D01*
X136684000Y-113665000D02*
X136684000Y-109855000D01*
X134714000Y-109855000D02*
X134714000Y-113665000D01*
X134714000Y-113665000D02*
X135414000Y-113665000D01*
X135414000Y-113665000D02*
X135414000Y-109855000D01*
X132174000Y-109855000D02*
X132174000Y-113665000D01*
X132174000Y-113665000D02*
X132874000Y-113665000D01*
X132874000Y-113665000D02*
X132874000Y-109855000D01*
X130904000Y-109855000D02*
X130904000Y-113665000D01*
X130904000Y-113665000D02*
X131604000Y-113665000D01*
X131604000Y-113665000D02*
X131604000Y-109855000D01*
X129634000Y-109855000D02*
X129634000Y-113665000D01*
X129634000Y-113665000D02*
X130334000Y-113665000D01*
X130334000Y-113665000D02*
X130334000Y-109855000D01*
X130619000Y-108585000D02*
G75*
G03X130619000Y-108585000I-635000J0D01*
G01*
X128714000Y-100584000D02*
X128714000Y-99949000D01*
X128714000Y-99949000D02*
X129349000Y-99314000D01*
X129349000Y-99314000D02*
X138239000Y-99314000D01*
X138239000Y-99314000D02*
X138874000Y-99949000D01*
X138874000Y-99949000D02*
X138874000Y-100584000D01*
X128714000Y-109855000D02*
X138874000Y-109855000D01*
X138874000Y-109855000D02*
X138874000Y-100584000D01*
X138874000Y-100584000D02*
X128714000Y-100584000D01*
X128714000Y-100584000D02*
X128714000Y-109855000D01*
D18*
X164965000Y-77891000D02*
X163965000Y-77891000D01*
X163965000Y-76541000D02*
X164965000Y-76541000D01*
X161965000Y-84971000D02*
X161965000Y-85971000D01*
X160615000Y-85971000D02*
X160615000Y-84971000D01*
X176589000Y-119111000D02*
X177589000Y-119111000D01*
X177589000Y-120461000D02*
X176589000Y-120461000D01*
X147385000Y-118778000D02*
X147385000Y-119778000D01*
X146035000Y-119778000D02*
X146035000Y-118778000D01*
X129430000Y-120106000D02*
X128430000Y-120106000D01*
X128430000Y-118756000D02*
X129430000Y-118756000D01*
X162727000Y-112073000D02*
X162727000Y-113073000D01*
X161377000Y-113073000D02*
X161377000Y-112073000D01*
X161028000Y-115839000D02*
X160028000Y-115839000D01*
X160028000Y-114489000D02*
X161028000Y-114489000D01*
X146166000Y-111971000D02*
X146166000Y-112971000D01*
X144816000Y-112971000D02*
X144816000Y-111971000D01*
X176589000Y-117283000D02*
X177589000Y-117283000D01*
X177589000Y-118633000D02*
X176589000Y-118633000D01*
X160746000Y-118728000D02*
X160746000Y-119728000D01*
X159396000Y-119728000D02*
X159396000Y-118728000D01*
X129430000Y-118226000D02*
X128430000Y-118226000D01*
X128430000Y-116876000D02*
X129430000Y-116876000D01*
X144315000Y-115788000D02*
X143315000Y-115788000D01*
X143315000Y-114438000D02*
X144315000Y-114438000D01*
X124547000Y-112260000D02*
X124547000Y-111260000D01*
X125897000Y-111260000D02*
X125897000Y-112260000D01*
X129148000Y-112022000D02*
X129148000Y-113022000D01*
X127798000Y-113022000D02*
X127798000Y-112022000D01*
X126941000Y-115686000D02*
X125941000Y-115686000D01*
X125941000Y-114336000D02*
X126941000Y-114336000D01*
X123531000Y-86225000D02*
X123531000Y-85225000D01*
X124881000Y-85225000D02*
X124881000Y-86225000D01*
X125690000Y-86225000D02*
X125690000Y-85225000D01*
X127040000Y-85225000D02*
X127040000Y-86225000D01*
X123531000Y-89019000D02*
X123531000Y-88019000D01*
X124881000Y-88019000D02*
X124881000Y-89019000D01*
X123531000Y-91813000D02*
X123531000Y-90813000D01*
X124881000Y-90813000D02*
X124881000Y-91813000D01*
X123531000Y-94734000D02*
X123531000Y-93734000D01*
X124881000Y-93734000D02*
X124881000Y-94734000D01*
X125690000Y-89019000D02*
X125690000Y-88019000D01*
X127040000Y-88019000D02*
X127040000Y-89019000D01*
X125690000Y-91813000D02*
X125690000Y-90813000D01*
X127040000Y-90813000D02*
X127040000Y-91813000D01*
X125690000Y-94734000D02*
X125690000Y-93734000D01*
X127040000Y-93734000D02*
X127040000Y-94734000D01*
X137374000Y-88511000D02*
X137374000Y-87511000D01*
X138724000Y-87511000D02*
X138724000Y-88511000D01*
X131310000Y-81701000D02*
X130310000Y-81701000D01*
X130310000Y-80351000D02*
X131310000Y-80351000D01*
X137422000Y-81748000D02*
X138422000Y-81748000D01*
X138422000Y-83098000D02*
X137422000Y-83098000D01*
X122674000Y-73522200D02*
X121674000Y-73522200D01*
X121674000Y-72172200D02*
X122674000Y-72172200D01*
X181777000Y-91702000D02*
X181777000Y-92702000D01*
X180427000Y-92702000D02*
X180427000Y-91702000D01*
X152181000Y-78201000D02*
X152181000Y-77501000D01*
X153381000Y-77501000D02*
X153381000Y-78201000D01*
X179609000Y-95412000D02*
X180309000Y-95412000D01*
X180309000Y-96612000D02*
X179609000Y-96612000D01*
X157830000Y-93818000D02*
X157130000Y-93818000D01*
X157130000Y-92618000D02*
X157830000Y-92618000D01*
X153766000Y-94580000D02*
X153066000Y-94580000D01*
X153066000Y-93380000D02*
X153766000Y-93380000D01*
X149448000Y-94707000D02*
X148748000Y-94707000D01*
X148748000Y-93507000D02*
X149448000Y-93507000D01*
X128934000Y-88169000D02*
X128934000Y-88869000D01*
X127734000Y-88869000D02*
X127734000Y-88169000D01*
X128934000Y-91217000D02*
X128934000Y-91917000D01*
X127734000Y-91917000D02*
X127734000Y-91217000D01*
X128934000Y-94328500D02*
X128934000Y-95028500D01*
X127734000Y-95028500D02*
X127734000Y-94328500D01*
X137449000Y-85313000D02*
X137449000Y-84613000D01*
X138649000Y-84613000D02*
X138649000Y-85313000D01*
X176372000Y-92167000D02*
X175672000Y-92167000D01*
X175672000Y-90967000D02*
X176372000Y-90967000D01*
X178597000Y-93949000D02*
X178597000Y-93249000D01*
X179797000Y-93249000D02*
X179797000Y-93949000D01*
X133612000Y-80351000D02*
X134612000Y-80351000D01*
X134612000Y-81701000D02*
X133612000Y-81701000D01*
X171410000Y-85590000D02*
X171410000Y-84590000D01*
X172760000Y-84590000D02*
X172760000Y-85590000D01*
X168235000Y-85590000D02*
X168235000Y-84590000D01*
X169585000Y-84590000D02*
X169585000Y-85590000D01*
X160060000Y-84209000D02*
X160060000Y-85209000D01*
X158710000Y-85209000D02*
X158710000Y-84209000D01*
D10*
G36*
X165377691Y-92601140D02*
X165354973Y-92869482D01*
X165270059Y-93027198D01*
X165098116Y-93145187D01*
X164996129Y-93198837D01*
X164664482Y-93305580D01*
X164168704Y-93392837D01*
X163597140Y-93452658D01*
X163038131Y-93477090D01*
X162580021Y-93458184D01*
X162419353Y-93430742D01*
X161901023Y-93269912D01*
X161599284Y-93093042D01*
X161478119Y-92876060D01*
X161471592Y-92797280D01*
X161536226Y-92581331D01*
X161746878Y-92500097D01*
X162128672Y-92551380D01*
X162607587Y-92697891D01*
X163152907Y-92822778D01*
X163672911Y-92829790D01*
X164119214Y-92733395D01*
X164443429Y-92548060D01*
X164597172Y-92288254D01*
X164588263Y-92105656D01*
X164524062Y-91967492D01*
X164384304Y-91843584D01*
X164128637Y-91714151D01*
X163716710Y-91559412D01*
X163108174Y-91359585D01*
X162990026Y-91322157D01*
X161471592Y-90842648D01*
X161471592Y-90031330D01*
X161484659Y-89568478D01*
X161535063Y-89292770D01*
X161639603Y-89139449D01*
X161716020Y-89089197D01*
X161990220Y-88975978D01*
X162146962Y-89024572D01*
X162216538Y-89266608D01*
X162229800Y-89625604D01*
X162229800Y-90292825D01*
X163777810Y-90802761D01*
X165325820Y-91312696D01*
X165363046Y-92151272D01*
X165377691Y-92601140D01*
X165377691Y-92601140D01*
X165377691Y-92601140D01*
G37*
X165377691Y-92601140D02*
X165354973Y-92869482D01*
X165270059Y-93027198D01*
X165098116Y-93145187D01*
X164996129Y-93198837D01*
X164664482Y-93305580D01*
X164168704Y-93392837D01*
X163597140Y-93452658D01*
X163038131Y-93477090D01*
X162580021Y-93458184D01*
X162419353Y-93430742D01*
X161901023Y-93269912D01*
X161599284Y-93093042D01*
X161478119Y-92876060D01*
X161471592Y-92797280D01*
X161536226Y-92581331D01*
X161746878Y-92500097D01*
X162128672Y-92551380D01*
X162607587Y-92697891D01*
X163152907Y-92822778D01*
X163672911Y-92829790D01*
X164119214Y-92733395D01*
X164443429Y-92548060D01*
X164597172Y-92288254D01*
X164588263Y-92105656D01*
X164524062Y-91967492D01*
X164384304Y-91843584D01*
X164128637Y-91714151D01*
X163716710Y-91559412D01*
X163108174Y-91359585D01*
X162990026Y-91322157D01*
X161471592Y-90842648D01*
X161471592Y-90031330D01*
X161484659Y-89568478D01*
X161535063Y-89292770D01*
X161639603Y-89139449D01*
X161716020Y-89089197D01*
X161990220Y-88975978D01*
X162146962Y-89024572D01*
X162216538Y-89266608D01*
X162229800Y-89625604D01*
X162229800Y-90292825D01*
X163777810Y-90802761D01*
X165325820Y-91312696D01*
X165363046Y-92151272D01*
X165377691Y-92601140D01*
X165377691Y-92601140D01*
G36*
X163229489Y-89666490D02*
X163224946Y-89992166D01*
X163189644Y-90156333D01*
X163112547Y-90204532D01*
X162982620Y-90182300D01*
X162961572Y-90176692D01*
X162697369Y-90115018D01*
X162577313Y-90097422D01*
X162528799Y-89981277D01*
X162494626Y-89679364D01*
X162482537Y-89283366D01*
X162482537Y-88471035D01*
X161818417Y-88322412D01*
X161269947Y-88239594D01*
X160799714Y-88275379D01*
X160617920Y-88318220D01*
X160081542Y-88462651D01*
X160081542Y-89897495D01*
X160082612Y-90557567D01*
X160110337Y-91005458D01*
X160201491Y-91281521D01*
X160392847Y-91426108D01*
X160721180Y-91479572D01*
X161223261Y-91482265D01*
X161521484Y-91477583D01*
X162047395Y-91485298D01*
X162509817Y-91518673D01*
X162822636Y-91570937D01*
X162858861Y-91582750D01*
X163172002Y-91702193D01*
X162732493Y-91930266D01*
X162201302Y-92109350D01*
X161533550Y-92198927D01*
X160830247Y-92195728D01*
X160192400Y-92096480D01*
X159955174Y-92020221D01*
X159386517Y-91794770D01*
X159351723Y-89887761D01*
X159316930Y-87980752D01*
X159730828Y-87806134D01*
X160123475Y-87705612D01*
X160671223Y-87646897D01*
X161293245Y-87629559D01*
X161908716Y-87653169D01*
X162436808Y-87717301D01*
X162796695Y-87821523D01*
X162798457Y-87822406D01*
X162979498Y-87923545D01*
X163093205Y-88042964D01*
X163157820Y-88238191D01*
X163191585Y-88566750D01*
X163212742Y-89086166D01*
X163214308Y-89133766D01*
X163229489Y-89666490D01*
X163229489Y-89666490D01*
X163229489Y-89666490D01*
G37*
X163229489Y-89666490D02*
X163224946Y-89992166D01*
X163189644Y-90156333D01*
X163112547Y-90204532D01*
X162982620Y-90182300D01*
X162961572Y-90176692D01*
X162697369Y-90115018D01*
X162577313Y-90097422D01*
X162528799Y-89981277D01*
X162494626Y-89679364D01*
X162482537Y-89283366D01*
X162482537Y-88471035D01*
X161818417Y-88322412D01*
X161269947Y-88239594D01*
X160799714Y-88275379D01*
X160617920Y-88318220D01*
X160081542Y-88462651D01*
X160081542Y-89897495D01*
X160082612Y-90557567D01*
X160110337Y-91005458D01*
X160201491Y-91281521D01*
X160392847Y-91426108D01*
X160721180Y-91479572D01*
X161223261Y-91482265D01*
X161521484Y-91477583D01*
X162047395Y-91485298D01*
X162509817Y-91518673D01*
X162822636Y-91570937D01*
X162858861Y-91582750D01*
X163172002Y-91702193D01*
X162732493Y-91930266D01*
X162201302Y-92109350D01*
X161533550Y-92198927D01*
X160830247Y-92195728D01*
X160192400Y-92096480D01*
X159955174Y-92020221D01*
X159386517Y-91794770D01*
X159351723Y-89887761D01*
X159316930Y-87980752D01*
X159730828Y-87806134D01*
X160123475Y-87705612D01*
X160671223Y-87646897D01*
X161293245Y-87629559D01*
X161908716Y-87653169D01*
X162436808Y-87717301D01*
X162796695Y-87821523D01*
X162798457Y-87822406D01*
X162979498Y-87923545D01*
X163093205Y-88042964D01*
X163157820Y-88238191D01*
X163191585Y-88566750D01*
X163212742Y-89086166D01*
X163214308Y-89133766D01*
X163229489Y-89666490D01*
X163229489Y-89666490D01*
G36*
X165262636Y-89583775D02*
X165232635Y-89855307D01*
X165089998Y-89956651D01*
X164883532Y-89969328D01*
X164588985Y-89915712D01*
X164504427Y-89790883D01*
X164386072Y-89647230D01*
X164062625Y-89538802D01*
X163998955Y-89527039D01*
X163672845Y-89451336D01*
X163527996Y-89331412D01*
X163493585Y-89104854D01*
X163493482Y-89081588D01*
X163511492Y-88849847D01*
X163614309Y-88764143D01*
X163875117Y-88780017D01*
X163967363Y-88793700D01*
X164416501Y-88891819D01*
X164843149Y-89028513D01*
X164851940Y-89032043D01*
X165141034Y-89192910D01*
X165251739Y-89414303D01*
X165262636Y-89583775D01*
X165262636Y-89583775D01*
X165262636Y-89583775D01*
G37*
X165262636Y-89583775D02*
X165232635Y-89855307D01*
X165089998Y-89956651D01*
X164883532Y-89969328D01*
X164588985Y-89915712D01*
X164504427Y-89790883D01*
X164386072Y-89647230D01*
X164062625Y-89538802D01*
X163998955Y-89527039D01*
X163672845Y-89451336D01*
X163527996Y-89331412D01*
X163493585Y-89104854D01*
X163493482Y-89081588D01*
X163511492Y-88849847D01*
X163614309Y-88764143D01*
X163875117Y-88780017D01*
X163967363Y-88793700D01*
X164416501Y-88891819D01*
X164843149Y-89028513D01*
X164851940Y-89032043D01*
X165141034Y-89192910D01*
X165251739Y-89414303D01*
X165262636Y-89583775D01*
X165262636Y-89583775D01*
D13*
X157649333Y-76127429D02*
X157625143Y-76151619D01*
X157552571Y-76175810D01*
X157504190Y-76175810D01*
X157431619Y-76151619D01*
X157383238Y-76103238D01*
X157359047Y-76054857D01*
X157334857Y-75958095D01*
X157334857Y-75885524D01*
X157359047Y-75788762D01*
X157383238Y-75740381D01*
X157431619Y-75692000D01*
X157504190Y-75667810D01*
X157552571Y-75667810D01*
X157625143Y-75692000D01*
X157649333Y-75716190D01*
X158133143Y-76175810D02*
X157842857Y-76175810D01*
X157988000Y-76175810D02*
X157988000Y-75667810D01*
X157939619Y-75740381D01*
X157891238Y-75788762D01*
X157842857Y-75812952D01*
X144085733Y-76584629D02*
X144061543Y-76608819D01*
X143988971Y-76633010D01*
X143940590Y-76633010D01*
X143868019Y-76608819D01*
X143819638Y-76560438D01*
X143795447Y-76512057D01*
X143771257Y-76415295D01*
X143771257Y-76342724D01*
X143795447Y-76245962D01*
X143819638Y-76197581D01*
X143868019Y-76149200D01*
X143940590Y-76125010D01*
X143988971Y-76125010D01*
X144061543Y-76149200D01*
X144085733Y-76173390D01*
X144279257Y-76173390D02*
X144303447Y-76149200D01*
X144351828Y-76125010D01*
X144472781Y-76125010D01*
X144521162Y-76149200D01*
X144545352Y-76173390D01*
X144569543Y-76221771D01*
X144569543Y-76270152D01*
X144545352Y-76342724D01*
X144255066Y-76633010D01*
X144569543Y-76633010D01*
X139818533Y-78464229D02*
X139794343Y-78488419D01*
X139721771Y-78512610D01*
X139673390Y-78512610D01*
X139600819Y-78488419D01*
X139552438Y-78440038D01*
X139528247Y-78391657D01*
X139504057Y-78294895D01*
X139504057Y-78222324D01*
X139528247Y-78125562D01*
X139552438Y-78077181D01*
X139600819Y-78028800D01*
X139673390Y-78004610D01*
X139721771Y-78004610D01*
X139794343Y-78028800D01*
X139818533Y-78052990D01*
X139987866Y-78004610D02*
X140326533Y-78004610D01*
X140108819Y-78512610D01*
X142307733Y-91113429D02*
X142283543Y-91137619D01*
X142210971Y-91161810D01*
X142162590Y-91161810D01*
X142090019Y-91137619D01*
X142041638Y-91089238D01*
X142017447Y-91040857D01*
X141993257Y-90944095D01*
X141993257Y-90871524D01*
X142017447Y-90774762D01*
X142041638Y-90726381D01*
X142090019Y-90678000D01*
X142162590Y-90653810D01*
X142210971Y-90653810D01*
X142283543Y-90678000D01*
X142307733Y-90702190D01*
X142549638Y-91161810D02*
X142646400Y-91161810D01*
X142694781Y-91137619D01*
X142718971Y-91113429D01*
X142767352Y-91040857D01*
X142791543Y-90944095D01*
X142791543Y-90750571D01*
X142767352Y-90702190D01*
X142743162Y-90678000D01*
X142694781Y-90653810D01*
X142598019Y-90653810D01*
X142549638Y-90678000D01*
X142525447Y-90702190D01*
X142501257Y-90750571D01*
X142501257Y-90871524D01*
X142525447Y-90919905D01*
X142549638Y-90944095D01*
X142598019Y-90968286D01*
X142694781Y-90968286D01*
X142743162Y-90944095D01*
X142767352Y-90919905D01*
X142791543Y-90871524D01*
X174222228Y-106912229D02*
X174198038Y-106936419D01*
X174125466Y-106960610D01*
X174077085Y-106960610D01*
X174004514Y-106936419D01*
X173956133Y-106888038D01*
X173931942Y-106839657D01*
X173907752Y-106742895D01*
X173907752Y-106670324D01*
X173931942Y-106573562D01*
X173956133Y-106525181D01*
X174004514Y-106476800D01*
X174077085Y-106452610D01*
X174125466Y-106452610D01*
X174198038Y-106476800D01*
X174222228Y-106500990D01*
X174706038Y-106960610D02*
X174415752Y-106960610D01*
X174560895Y-106960610D02*
X174560895Y-106452610D01*
X174512514Y-106525181D01*
X174464133Y-106573562D01*
X174415752Y-106597752D01*
X174947943Y-106960610D02*
X175044705Y-106960610D01*
X175093086Y-106936419D01*
X175117276Y-106912229D01*
X175165657Y-106839657D01*
X175189848Y-106742895D01*
X175189848Y-106549371D01*
X175165657Y-106500990D01*
X175141467Y-106476800D01*
X175093086Y-106452610D01*
X174996324Y-106452610D01*
X174947943Y-106476800D01*
X174923752Y-106500990D01*
X174899562Y-106549371D01*
X174899562Y-106670324D01*
X174923752Y-106718705D01*
X174947943Y-106742895D01*
X174996324Y-106767086D01*
X175093086Y-106767086D01*
X175141467Y-106742895D01*
X175165657Y-106718705D01*
X175189848Y-106670324D01*
X157458228Y-109807829D02*
X157434038Y-109832019D01*
X157361466Y-109856210D01*
X157313085Y-109856210D01*
X157240514Y-109832019D01*
X157192133Y-109783638D01*
X157167942Y-109735257D01*
X157143752Y-109638495D01*
X157143752Y-109565924D01*
X157167942Y-109469162D01*
X157192133Y-109420781D01*
X157240514Y-109372400D01*
X157313085Y-109348210D01*
X157361466Y-109348210D01*
X157434038Y-109372400D01*
X157458228Y-109396590D01*
X157651752Y-109396590D02*
X157675942Y-109372400D01*
X157724323Y-109348210D01*
X157845276Y-109348210D01*
X157893657Y-109372400D01*
X157917847Y-109396590D01*
X157942038Y-109444971D01*
X157942038Y-109493352D01*
X157917847Y-109565924D01*
X157627561Y-109856210D01*
X157942038Y-109856210D01*
X158135562Y-109396590D02*
X158159752Y-109372400D01*
X158208133Y-109348210D01*
X158329086Y-109348210D01*
X158377467Y-109372400D01*
X158401657Y-109396590D01*
X158425848Y-109444971D01*
X158425848Y-109493352D01*
X158401657Y-109565924D01*
X158111371Y-109856210D01*
X158425848Y-109856210D01*
X140795828Y-109604629D02*
X140771638Y-109628819D01*
X140699066Y-109653010D01*
X140650685Y-109653010D01*
X140578114Y-109628819D01*
X140529733Y-109580438D01*
X140505542Y-109532057D01*
X140481352Y-109435295D01*
X140481352Y-109362724D01*
X140505542Y-109265962D01*
X140529733Y-109217581D01*
X140578114Y-109169200D01*
X140650685Y-109145010D01*
X140699066Y-109145010D01*
X140771638Y-109169200D01*
X140795828Y-109193390D01*
X140989352Y-109193390D02*
X141013542Y-109169200D01*
X141061923Y-109145010D01*
X141182876Y-109145010D01*
X141231257Y-109169200D01*
X141255447Y-109193390D01*
X141279638Y-109241771D01*
X141279638Y-109290152D01*
X141255447Y-109362724D01*
X140965161Y-109653010D01*
X141279638Y-109653010D01*
X141715067Y-109314343D02*
X141715067Y-109653010D01*
X141594114Y-109120819D02*
X141473162Y-109483676D01*
X141787638Y-109483676D01*
X129924629Y-85365772D02*
X129948819Y-85389962D01*
X129973010Y-85462534D01*
X129973010Y-85510915D01*
X129948819Y-85583486D01*
X129900438Y-85631867D01*
X129852057Y-85656058D01*
X129755295Y-85680248D01*
X129682724Y-85680248D01*
X129585962Y-85656058D01*
X129537581Y-85631867D01*
X129489200Y-85583486D01*
X129465010Y-85510915D01*
X129465010Y-85462534D01*
X129489200Y-85389962D01*
X129513390Y-85365772D01*
X129465010Y-85196439D02*
X129465010Y-84881962D01*
X129658533Y-85051296D01*
X129658533Y-84978724D01*
X129682724Y-84930343D01*
X129706914Y-84906153D01*
X129755295Y-84881962D01*
X129876248Y-84881962D01*
X129924629Y-84906153D01*
X129948819Y-84930343D01*
X129973010Y-84978724D01*
X129973010Y-85123867D01*
X129948819Y-85172248D01*
X129924629Y-85196439D01*
X129634343Y-84446533D02*
X129973010Y-84446533D01*
X129440819Y-84567486D02*
X129803676Y-84688438D01*
X129803676Y-84373962D01*
X174222229Y-96338572D02*
X174246419Y-96362762D01*
X174270610Y-96435334D01*
X174270610Y-96483715D01*
X174246419Y-96556286D01*
X174198038Y-96604667D01*
X174149657Y-96628858D01*
X174052895Y-96653048D01*
X173980324Y-96653048D01*
X173883562Y-96628858D01*
X173835181Y-96604667D01*
X173786800Y-96556286D01*
X173762610Y-96483715D01*
X173762610Y-96435334D01*
X173786800Y-96362762D01*
X173810990Y-96338572D01*
X173762610Y-96169239D02*
X173762610Y-95854762D01*
X173956133Y-96024096D01*
X173956133Y-95951524D01*
X173980324Y-95903143D01*
X174004514Y-95878953D01*
X174052895Y-95854762D01*
X174173848Y-95854762D01*
X174222229Y-95878953D01*
X174246419Y-95903143D01*
X174270610Y-95951524D01*
X174270610Y-96096667D01*
X174246419Y-96145048D01*
X174222229Y-96169239D01*
X174270610Y-95612857D02*
X174270610Y-95516095D01*
X174246419Y-95467714D01*
X174222229Y-95443524D01*
X174149657Y-95395143D01*
X174052895Y-95370952D01*
X173859371Y-95370952D01*
X173810990Y-95395143D01*
X173786800Y-95419333D01*
X173762610Y-95467714D01*
X173762610Y-95564476D01*
X173786800Y-95612857D01*
X173810990Y-95637048D01*
X173859371Y-95661238D01*
X173980324Y-95661238D01*
X174028705Y-95637048D01*
X174052895Y-95612857D01*
X174077086Y-95564476D01*
X174077086Y-95467714D01*
X174052895Y-95419333D01*
X174028705Y-95395143D01*
X173980324Y-95370952D01*
X174273029Y-93950972D02*
X174297219Y-93975162D01*
X174321410Y-94047734D01*
X174321410Y-94096115D01*
X174297219Y-94168686D01*
X174248838Y-94217067D01*
X174200457Y-94241258D01*
X174103695Y-94265448D01*
X174031124Y-94265448D01*
X173934362Y-94241258D01*
X173885981Y-94217067D01*
X173837600Y-94168686D01*
X173813410Y-94096115D01*
X173813410Y-94047734D01*
X173837600Y-93975162D01*
X173861790Y-93950972D01*
X173982743Y-93515543D02*
X174321410Y-93515543D01*
X173789219Y-93636496D02*
X174152076Y-93757448D01*
X174152076Y-93442972D01*
X173813410Y-93152686D02*
X173813410Y-93104305D01*
X173837600Y-93055924D01*
X173861790Y-93031733D01*
X173910171Y-93007543D01*
X174006933Y-92983352D01*
X174127886Y-92983352D01*
X174224648Y-93007543D01*
X174273029Y-93031733D01*
X174297219Y-93055924D01*
X174321410Y-93104305D01*
X174321410Y-93152686D01*
X174297219Y-93201067D01*
X174273029Y-93225257D01*
X174224648Y-93249448D01*
X174127886Y-93273638D01*
X174006933Y-93273638D01*
X173910171Y-93249448D01*
X173861790Y-93225257D01*
X173837600Y-93201067D01*
X173813410Y-93152686D01*
X129927047Y-78817410D02*
X129927047Y-78309410D01*
X130048000Y-78309410D01*
X130120571Y-78333600D01*
X130168952Y-78381981D01*
X130193143Y-78430362D01*
X130217333Y-78527124D01*
X130217333Y-78599695D01*
X130193143Y-78696457D01*
X130168952Y-78744838D01*
X130120571Y-78793219D01*
X130048000Y-78817410D01*
X129927047Y-78817410D01*
X130701143Y-78817410D02*
X130410857Y-78817410D01*
X130556000Y-78817410D02*
X130556000Y-78309410D01*
X130507619Y-78381981D01*
X130459238Y-78430362D01*
X130410857Y-78454552D01*
X173665847Y-80747810D02*
X173665847Y-80239810D01*
X173786800Y-80239810D01*
X173859371Y-80264000D01*
X173907752Y-80312381D01*
X173931943Y-80360762D01*
X173956133Y-80457524D01*
X173956133Y-80530095D01*
X173931943Y-80626857D01*
X173907752Y-80675238D01*
X173859371Y-80723619D01*
X173786800Y-80747810D01*
X173665847Y-80747810D01*
X174149657Y-80288190D02*
X174173847Y-80264000D01*
X174222228Y-80239810D01*
X174343181Y-80239810D01*
X174391562Y-80264000D01*
X174415752Y-80288190D01*
X174439943Y-80336571D01*
X174439943Y-80384952D01*
X174415752Y-80457524D01*
X174125466Y-80747810D01*
X174439943Y-80747810D01*
X167011047Y-80697010D02*
X167011047Y-80189010D01*
X167132000Y-80189010D01*
X167204571Y-80213200D01*
X167252952Y-80261581D01*
X167277143Y-80309962D01*
X167301333Y-80406724D01*
X167301333Y-80479295D01*
X167277143Y-80576057D01*
X167252952Y-80624438D01*
X167204571Y-80672819D01*
X167132000Y-80697010D01*
X167011047Y-80697010D01*
X167470666Y-80189010D02*
X167785143Y-80189010D01*
X167615809Y-80382533D01*
X167688381Y-80382533D01*
X167736762Y-80406724D01*
X167760952Y-80430914D01*
X167785143Y-80479295D01*
X167785143Y-80600248D01*
X167760952Y-80648629D01*
X167736762Y-80672819D01*
X167688381Y-80697010D01*
X167543238Y-80697010D01*
X167494857Y-80672819D01*
X167470666Y-80648629D01*
X126269447Y-75769410D02*
X126269447Y-75261410D01*
X126390400Y-75261410D01*
X126462971Y-75285600D01*
X126511352Y-75333981D01*
X126535543Y-75382362D01*
X126559733Y-75479124D01*
X126559733Y-75551695D01*
X126535543Y-75648457D01*
X126511352Y-75696838D01*
X126462971Y-75745219D01*
X126390400Y-75769410D01*
X126269447Y-75769410D01*
X126995162Y-75261410D02*
X126898400Y-75261410D01*
X126850019Y-75285600D01*
X126825828Y-75309790D01*
X126777447Y-75382362D01*
X126753257Y-75479124D01*
X126753257Y-75672648D01*
X126777447Y-75721029D01*
X126801638Y-75745219D01*
X126850019Y-75769410D01*
X126946781Y-75769410D01*
X126995162Y-75745219D01*
X127019352Y-75721029D01*
X127043543Y-75672648D01*
X127043543Y-75551695D01*
X127019352Y-75503314D01*
X126995162Y-75479124D01*
X126946781Y-75454933D01*
X126850019Y-75454933D01*
X126801638Y-75479124D01*
X126777447Y-75503314D01*
X126753257Y-75551695D01*
X165842647Y-91517410D02*
X165842647Y-91009410D01*
X165963600Y-91009410D01*
X166036171Y-91033600D01*
X166084552Y-91081981D01*
X166108743Y-91130362D01*
X166132933Y-91227124D01*
X166132933Y-91299695D01*
X166108743Y-91396457D01*
X166084552Y-91444838D01*
X166036171Y-91493219D01*
X165963600Y-91517410D01*
X165842647Y-91517410D01*
X166423219Y-91227124D02*
X166374838Y-91202933D01*
X166350647Y-91178743D01*
X166326457Y-91130362D01*
X166326457Y-91106171D01*
X166350647Y-91057790D01*
X166374838Y-91033600D01*
X166423219Y-91009410D01*
X166519981Y-91009410D01*
X166568362Y-91033600D01*
X166592552Y-91057790D01*
X166616743Y-91106171D01*
X166616743Y-91130362D01*
X166592552Y-91178743D01*
X166568362Y-91202933D01*
X166519981Y-91227124D01*
X166423219Y-91227124D01*
X166374838Y-91251314D01*
X166350647Y-91275505D01*
X166326457Y-91323886D01*
X166326457Y-91420648D01*
X166350647Y-91469029D01*
X166374838Y-91493219D01*
X166423219Y-91517410D01*
X166519981Y-91517410D01*
X166568362Y-91493219D01*
X166592552Y-91469029D01*
X166616743Y-91420648D01*
X166616743Y-91323886D01*
X166592552Y-91275505D01*
X166568362Y-91251314D01*
X166519981Y-91227124D01*
X120834047Y-76003410D02*
X120834047Y-75495410D01*
X121027571Y-75495410D01*
X121075952Y-75519600D01*
X121100143Y-75543790D01*
X121124333Y-75592171D01*
X121124333Y-75664743D01*
X121100143Y-75713124D01*
X121075952Y-75737314D01*
X121027571Y-75761505D01*
X120834047Y-75761505D01*
X121608143Y-76003410D02*
X121317857Y-76003410D01*
X121463000Y-76003410D02*
X121463000Y-75495410D01*
X121414619Y-75567981D01*
X121366238Y-75616362D01*
X121317857Y-75640552D01*
X129215847Y-76226610D02*
X129215847Y-75718610D01*
X129409371Y-75718610D01*
X129457752Y-75742800D01*
X129481943Y-75766990D01*
X129506133Y-75815371D01*
X129506133Y-75887943D01*
X129481943Y-75936324D01*
X129457752Y-75960514D01*
X129409371Y-75984705D01*
X129215847Y-75984705D01*
X129699657Y-75766990D02*
X129723847Y-75742800D01*
X129772228Y-75718610D01*
X129893181Y-75718610D01*
X129941562Y-75742800D01*
X129965752Y-75766990D01*
X129989943Y-75815371D01*
X129989943Y-75863752D01*
X129965752Y-75936324D01*
X129675466Y-76226610D01*
X129989943Y-76226610D01*
X162511619Y-83894990D02*
X162463238Y-83870800D01*
X162414857Y-83822419D01*
X162342286Y-83749848D01*
X162293905Y-83725657D01*
X162245524Y-83725657D01*
X162269714Y-83846610D02*
X162221333Y-83822419D01*
X162172952Y-83774038D01*
X162148762Y-83677276D01*
X162148762Y-83507943D01*
X162172952Y-83411181D01*
X162221333Y-83362800D01*
X162269714Y-83338610D01*
X162366476Y-83338610D01*
X162414857Y-83362800D01*
X162463238Y-83411181D01*
X162487429Y-83507943D01*
X162487429Y-83677276D01*
X162463238Y-83774038D01*
X162414857Y-83822419D01*
X162366476Y-83846610D01*
X162269714Y-83846610D01*
X162971238Y-83846610D02*
X162680952Y-83846610D01*
X162826095Y-83846610D02*
X162826095Y-83338610D01*
X162777714Y-83411181D01*
X162729333Y-83459562D01*
X162680952Y-83483752D01*
X162410019Y-79983390D02*
X162361638Y-79959200D01*
X162313257Y-79910819D01*
X162240686Y-79838248D01*
X162192305Y-79814057D01*
X162143924Y-79814057D01*
X162168114Y-79935010D02*
X162119733Y-79910819D01*
X162071352Y-79862438D01*
X162047162Y-79765676D01*
X162047162Y-79596343D01*
X162071352Y-79499581D01*
X162119733Y-79451200D01*
X162168114Y-79427010D01*
X162264876Y-79427010D01*
X162313257Y-79451200D01*
X162361638Y-79499581D01*
X162385829Y-79596343D01*
X162385829Y-79765676D01*
X162361638Y-79862438D01*
X162313257Y-79910819D01*
X162264876Y-79935010D01*
X162168114Y-79935010D01*
X162579352Y-79475390D02*
X162603542Y-79451200D01*
X162651923Y-79427010D01*
X162772876Y-79427010D01*
X162821257Y-79451200D01*
X162845447Y-79475390D01*
X162869638Y-79523771D01*
X162869638Y-79572152D01*
X162845447Y-79644724D01*
X162555161Y-79935010D01*
X162869638Y-79935010D01*
X167337619Y-102576190D02*
X167289238Y-102552000D01*
X167240857Y-102503619D01*
X167168286Y-102431048D01*
X167119905Y-102406857D01*
X167071524Y-102406857D01*
X167095714Y-102527810D02*
X167047333Y-102503619D01*
X166998952Y-102455238D01*
X166974762Y-102358476D01*
X166974762Y-102189143D01*
X166998952Y-102092381D01*
X167047333Y-102044000D01*
X167095714Y-102019810D01*
X167192476Y-102019810D01*
X167240857Y-102044000D01*
X167289238Y-102092381D01*
X167313429Y-102189143D01*
X167313429Y-102358476D01*
X167289238Y-102455238D01*
X167240857Y-102503619D01*
X167192476Y-102527810D01*
X167095714Y-102527810D01*
X167482761Y-102019810D02*
X167797238Y-102019810D01*
X167627904Y-102213333D01*
X167700476Y-102213333D01*
X167748857Y-102237524D01*
X167773047Y-102261714D01*
X167797238Y-102310095D01*
X167797238Y-102431048D01*
X167773047Y-102479429D01*
X167748857Y-102503619D01*
X167700476Y-102527810D01*
X167555333Y-102527810D01*
X167506952Y-102503619D01*
X167482761Y-102479429D01*
X165378191Y-105116190D02*
X165329810Y-105092000D01*
X165281429Y-105043619D01*
X165208858Y-104971048D01*
X165160477Y-104946857D01*
X165112096Y-104946857D01*
X165136286Y-105067810D02*
X165087905Y-105043619D01*
X165039524Y-104995238D01*
X165015334Y-104898476D01*
X165015334Y-104729143D01*
X165039524Y-104632381D01*
X165087905Y-104584000D01*
X165136286Y-104559810D01*
X165233048Y-104559810D01*
X165281429Y-104584000D01*
X165329810Y-104632381D01*
X165354001Y-104729143D01*
X165354001Y-104898476D01*
X165329810Y-104995238D01*
X165281429Y-105043619D01*
X165233048Y-105067810D01*
X165136286Y-105067810D01*
X165450762Y-105116190D02*
X165837810Y-105116190D01*
X165958762Y-105067810D02*
X165958762Y-104559810D01*
X166249048Y-105067810D01*
X166249048Y-104559810D01*
X166490952Y-105067810D02*
X166490952Y-104559810D01*
X166660286Y-104922667D01*
X166829619Y-104559810D01*
X166829619Y-105067810D01*
X167168285Y-104559810D02*
X167265047Y-104559810D01*
X167313428Y-104584000D01*
X167361809Y-104632381D01*
X167386000Y-104729143D01*
X167386000Y-104898476D01*
X167361809Y-104995238D01*
X167313428Y-105043619D01*
X167265047Y-105067810D01*
X167168285Y-105067810D01*
X167119904Y-105043619D01*
X167071523Y-104995238D01*
X167047333Y-104898476D01*
X167047333Y-104729143D01*
X167071523Y-104632381D01*
X167119904Y-104584000D01*
X167168285Y-104559810D01*
X167579523Y-105043619D02*
X167652094Y-105067810D01*
X167773047Y-105067810D01*
X167821428Y-105043619D01*
X167845618Y-105019429D01*
X167869809Y-104971048D01*
X167869809Y-104922667D01*
X167845618Y-104874286D01*
X167821428Y-104850095D01*
X167773047Y-104825905D01*
X167676285Y-104801714D01*
X167627904Y-104777524D01*
X167603713Y-104753333D01*
X167579523Y-104704952D01*
X167579523Y-104656571D01*
X167603713Y-104608190D01*
X167627904Y-104584000D01*
X167676285Y-104559810D01*
X167797237Y-104559810D01*
X167869809Y-104584000D01*
X167966571Y-105116190D02*
X168353619Y-105116190D01*
X168474571Y-105067810D02*
X168474571Y-104559810D01*
X168595524Y-104559810D01*
X168668095Y-104584000D01*
X168716476Y-104632381D01*
X168740667Y-104680762D01*
X168764857Y-104777524D01*
X168764857Y-104850095D01*
X168740667Y-104946857D01*
X168716476Y-104995238D01*
X168668095Y-105043619D01*
X168595524Y-105067810D01*
X168474571Y-105067810D01*
X169248667Y-104584000D02*
X169200286Y-104559810D01*
X169127714Y-104559810D01*
X169055143Y-104584000D01*
X169006762Y-104632381D01*
X168982571Y-104680762D01*
X168958381Y-104777524D01*
X168958381Y-104850095D01*
X168982571Y-104946857D01*
X169006762Y-104995238D01*
X169055143Y-105043619D01*
X169127714Y-105067810D01*
X169176095Y-105067810D01*
X169248667Y-105043619D01*
X169272857Y-105019429D01*
X169272857Y-104850095D01*
X169176095Y-104850095D01*
X169466381Y-105043619D02*
X169538952Y-105067810D01*
X169659905Y-105067810D01*
X169708286Y-105043619D01*
X169732476Y-105019429D01*
X169756667Y-104971048D01*
X169756667Y-104922667D01*
X169732476Y-104874286D01*
X169708286Y-104850095D01*
X169659905Y-104825905D01*
X169563143Y-104801714D01*
X169514762Y-104777524D01*
X169490571Y-104753333D01*
X169466381Y-104704952D01*
X169466381Y-104656571D01*
X169490571Y-104608190D01*
X169514762Y-104584000D01*
X169563143Y-104559810D01*
X169684095Y-104559810D01*
X169756667Y-104584000D01*
X150827619Y-102513190D02*
X150779238Y-102489000D01*
X150730857Y-102440619D01*
X150658286Y-102368048D01*
X150609905Y-102343857D01*
X150561524Y-102343857D01*
X150585714Y-102464810D02*
X150537333Y-102440619D01*
X150488952Y-102392238D01*
X150464762Y-102295476D01*
X150464762Y-102126143D01*
X150488952Y-102029381D01*
X150537333Y-101981000D01*
X150585714Y-101956810D01*
X150682476Y-101956810D01*
X150730857Y-101981000D01*
X150779238Y-102029381D01*
X150803429Y-102126143D01*
X150803429Y-102295476D01*
X150779238Y-102392238D01*
X150730857Y-102440619D01*
X150682476Y-102464810D01*
X150585714Y-102464810D01*
X151263047Y-101956810D02*
X151021142Y-101956810D01*
X150996952Y-102198714D01*
X151021142Y-102174524D01*
X151069523Y-102150333D01*
X151190476Y-102150333D01*
X151238857Y-102174524D01*
X151263047Y-102198714D01*
X151287238Y-102247095D01*
X151287238Y-102368048D01*
X151263047Y-102416429D01*
X151238857Y-102440619D01*
X151190476Y-102464810D01*
X151069523Y-102464810D01*
X151021142Y-102440619D01*
X150996952Y-102416429D01*
X148868191Y-105053190D02*
X148819810Y-105029000D01*
X148771429Y-104980619D01*
X148698858Y-104908048D01*
X148650477Y-104883857D01*
X148602096Y-104883857D01*
X148626286Y-105004810D02*
X148577905Y-104980619D01*
X148529524Y-104932238D01*
X148505334Y-104835476D01*
X148505334Y-104666143D01*
X148529524Y-104569381D01*
X148577905Y-104521000D01*
X148626286Y-104496810D01*
X148723048Y-104496810D01*
X148771429Y-104521000D01*
X148819810Y-104569381D01*
X148844001Y-104666143D01*
X148844001Y-104835476D01*
X148819810Y-104932238D01*
X148771429Y-104980619D01*
X148723048Y-105004810D01*
X148626286Y-105004810D01*
X148940762Y-105053190D02*
X149327810Y-105053190D01*
X149448762Y-105004810D02*
X149448762Y-104496810D01*
X149739048Y-105004810D01*
X149739048Y-104496810D01*
X149980952Y-105004810D02*
X149980952Y-104496810D01*
X150150286Y-104859667D01*
X150319619Y-104496810D01*
X150319619Y-105004810D01*
X150658285Y-104496810D02*
X150755047Y-104496810D01*
X150803428Y-104521000D01*
X150851809Y-104569381D01*
X150876000Y-104666143D01*
X150876000Y-104835476D01*
X150851809Y-104932238D01*
X150803428Y-104980619D01*
X150755047Y-105004810D01*
X150658285Y-105004810D01*
X150609904Y-104980619D01*
X150561523Y-104932238D01*
X150537333Y-104835476D01*
X150537333Y-104666143D01*
X150561523Y-104569381D01*
X150609904Y-104521000D01*
X150658285Y-104496810D01*
X151069523Y-104980619D02*
X151142094Y-105004810D01*
X151263047Y-105004810D01*
X151311428Y-104980619D01*
X151335618Y-104956429D01*
X151359809Y-104908048D01*
X151359809Y-104859667D01*
X151335618Y-104811286D01*
X151311428Y-104787095D01*
X151263047Y-104762905D01*
X151166285Y-104738714D01*
X151117904Y-104714524D01*
X151093713Y-104690333D01*
X151069523Y-104641952D01*
X151069523Y-104593571D01*
X151093713Y-104545190D01*
X151117904Y-104521000D01*
X151166285Y-104496810D01*
X151287237Y-104496810D01*
X151359809Y-104521000D01*
X151456571Y-105053190D02*
X151843619Y-105053190D01*
X151964571Y-105004810D02*
X151964571Y-104496810D01*
X152085524Y-104496810D01*
X152158095Y-104521000D01*
X152206476Y-104569381D01*
X152230667Y-104617762D01*
X152254857Y-104714524D01*
X152254857Y-104787095D01*
X152230667Y-104883857D01*
X152206476Y-104932238D01*
X152158095Y-104980619D01*
X152085524Y-105004810D01*
X151964571Y-105004810D01*
X152738667Y-104521000D02*
X152690286Y-104496810D01*
X152617714Y-104496810D01*
X152545143Y-104521000D01*
X152496762Y-104569381D01*
X152472571Y-104617762D01*
X152448381Y-104714524D01*
X152448381Y-104787095D01*
X152472571Y-104883857D01*
X152496762Y-104932238D01*
X152545143Y-104980619D01*
X152617714Y-105004810D01*
X152666095Y-105004810D01*
X152738667Y-104980619D01*
X152762857Y-104956429D01*
X152762857Y-104787095D01*
X152666095Y-104787095D01*
X152956381Y-104980619D02*
X153028952Y-105004810D01*
X153149905Y-105004810D01*
X153198286Y-104980619D01*
X153222476Y-104956429D01*
X153246667Y-104908048D01*
X153246667Y-104859667D01*
X153222476Y-104811286D01*
X153198286Y-104787095D01*
X153149905Y-104762905D01*
X153053143Y-104738714D01*
X153004762Y-104714524D01*
X152980571Y-104690333D01*
X152956381Y-104641952D01*
X152956381Y-104593571D01*
X152980571Y-104545190D01*
X153004762Y-104521000D01*
X153053143Y-104496810D01*
X153174095Y-104496810D01*
X153246667Y-104521000D01*
X133745619Y-102513190D02*
X133697238Y-102489000D01*
X133648857Y-102440619D01*
X133576286Y-102368048D01*
X133527905Y-102343857D01*
X133479524Y-102343857D01*
X133503714Y-102464810D02*
X133455333Y-102440619D01*
X133406952Y-102392238D01*
X133382762Y-102295476D01*
X133382762Y-102126143D01*
X133406952Y-102029381D01*
X133455333Y-101981000D01*
X133503714Y-101956810D01*
X133600476Y-101956810D01*
X133648857Y-101981000D01*
X133697238Y-102029381D01*
X133721429Y-102126143D01*
X133721429Y-102295476D01*
X133697238Y-102392238D01*
X133648857Y-102440619D01*
X133600476Y-102464810D01*
X133503714Y-102464810D01*
X133890761Y-101956810D02*
X134229428Y-101956810D01*
X134011714Y-102464810D01*
X131786191Y-105053190D02*
X131737810Y-105029000D01*
X131689429Y-104980619D01*
X131616858Y-104908048D01*
X131568477Y-104883857D01*
X131520096Y-104883857D01*
X131544286Y-105004810D02*
X131495905Y-104980619D01*
X131447524Y-104932238D01*
X131423334Y-104835476D01*
X131423334Y-104666143D01*
X131447524Y-104569381D01*
X131495905Y-104521000D01*
X131544286Y-104496810D01*
X131641048Y-104496810D01*
X131689429Y-104521000D01*
X131737810Y-104569381D01*
X131762001Y-104666143D01*
X131762001Y-104835476D01*
X131737810Y-104932238D01*
X131689429Y-104980619D01*
X131641048Y-105004810D01*
X131544286Y-105004810D01*
X131858762Y-105053190D02*
X132245810Y-105053190D01*
X132366762Y-105004810D02*
X132366762Y-104496810D01*
X132657048Y-105004810D01*
X132657048Y-104496810D01*
X132898952Y-105004810D02*
X132898952Y-104496810D01*
X133068286Y-104859667D01*
X133237619Y-104496810D01*
X133237619Y-105004810D01*
X133576285Y-104496810D02*
X133673047Y-104496810D01*
X133721428Y-104521000D01*
X133769809Y-104569381D01*
X133794000Y-104666143D01*
X133794000Y-104835476D01*
X133769809Y-104932238D01*
X133721428Y-104980619D01*
X133673047Y-105004810D01*
X133576285Y-105004810D01*
X133527904Y-104980619D01*
X133479523Y-104932238D01*
X133455333Y-104835476D01*
X133455333Y-104666143D01*
X133479523Y-104569381D01*
X133527904Y-104521000D01*
X133576285Y-104496810D01*
X133987523Y-104980619D02*
X134060094Y-105004810D01*
X134181047Y-105004810D01*
X134229428Y-104980619D01*
X134253618Y-104956429D01*
X134277809Y-104908048D01*
X134277809Y-104859667D01*
X134253618Y-104811286D01*
X134229428Y-104787095D01*
X134181047Y-104762905D01*
X134084285Y-104738714D01*
X134035904Y-104714524D01*
X134011713Y-104690333D01*
X133987523Y-104641952D01*
X133987523Y-104593571D01*
X134011713Y-104545190D01*
X134035904Y-104521000D01*
X134084285Y-104496810D01*
X134205237Y-104496810D01*
X134277809Y-104521000D01*
X134374571Y-105053190D02*
X134761619Y-105053190D01*
X134882571Y-105004810D02*
X134882571Y-104496810D01*
X135003524Y-104496810D01*
X135076095Y-104521000D01*
X135124476Y-104569381D01*
X135148667Y-104617762D01*
X135172857Y-104714524D01*
X135172857Y-104787095D01*
X135148667Y-104883857D01*
X135124476Y-104932238D01*
X135076095Y-104980619D01*
X135003524Y-105004810D01*
X134882571Y-105004810D01*
X135656667Y-104521000D02*
X135608286Y-104496810D01*
X135535714Y-104496810D01*
X135463143Y-104521000D01*
X135414762Y-104569381D01*
X135390571Y-104617762D01*
X135366381Y-104714524D01*
X135366381Y-104787095D01*
X135390571Y-104883857D01*
X135414762Y-104932238D01*
X135463143Y-104980619D01*
X135535714Y-105004810D01*
X135584095Y-105004810D01*
X135656667Y-104980619D01*
X135680857Y-104956429D01*
X135680857Y-104787095D01*
X135584095Y-104787095D01*
X135874381Y-104980619D02*
X135946952Y-105004810D01*
X136067905Y-105004810D01*
X136116286Y-104980619D01*
X136140476Y-104956429D01*
X136164667Y-104908048D01*
X136164667Y-104859667D01*
X136140476Y-104811286D01*
X136116286Y-104787095D01*
X136067905Y-104762905D01*
X135971143Y-104738714D01*
X135922762Y-104714524D01*
X135898571Y-104690333D01*
X135874381Y-104641952D01*
X135874381Y-104593571D01*
X135898571Y-104545190D01*
X135922762Y-104521000D01*
X135971143Y-104496810D01*
X136092095Y-104496810D01*
X136164667Y-104521000D01*
X164354933Y-76277410D02*
X164185600Y-76035505D01*
X164064647Y-76277410D02*
X164064647Y-75769410D01*
X164258171Y-75769410D01*
X164306552Y-75793600D01*
X164330743Y-75817790D01*
X164354933Y-75866171D01*
X164354933Y-75938743D01*
X164330743Y-75987124D01*
X164306552Y-76011314D01*
X164258171Y-76035505D01*
X164064647Y-76035505D01*
X164814552Y-75769410D02*
X164572647Y-75769410D01*
X164548457Y-76011314D01*
X164572647Y-75987124D01*
X164621028Y-75962933D01*
X164741981Y-75962933D01*
X164790362Y-75987124D01*
X164814552Y-76011314D01*
X164838743Y-76059695D01*
X164838743Y-76180648D01*
X164814552Y-76229029D01*
X164790362Y-76253219D01*
X164741981Y-76277410D01*
X164621028Y-76277410D01*
X164572647Y-76253219D01*
X164548457Y-76229029D01*
X161256133Y-87402610D02*
X161086800Y-87160705D01*
X160965847Y-87402610D02*
X160965847Y-86894610D01*
X161159371Y-86894610D01*
X161207752Y-86918800D01*
X161231943Y-86942990D01*
X161256133Y-86991371D01*
X161256133Y-87063943D01*
X161231943Y-87112324D01*
X161207752Y-87136514D01*
X161159371Y-87160705D01*
X160965847Y-87160705D01*
X161691562Y-86894610D02*
X161594800Y-86894610D01*
X161546419Y-86918800D01*
X161522228Y-86942990D01*
X161473847Y-87015562D01*
X161449657Y-87112324D01*
X161449657Y-87305848D01*
X161473847Y-87354229D01*
X161498038Y-87378419D01*
X161546419Y-87402610D01*
X161643181Y-87402610D01*
X161691562Y-87378419D01*
X161715752Y-87354229D01*
X161739943Y-87305848D01*
X161739943Y-87184895D01*
X161715752Y-87136514D01*
X161691562Y-87112324D01*
X161643181Y-87088133D01*
X161546419Y-87088133D01*
X161498038Y-87112324D01*
X161473847Y-87136514D01*
X161449657Y-87184895D01*
X176762228Y-121184610D02*
X176592895Y-120942705D01*
X176471942Y-121184610D02*
X176471942Y-120676610D01*
X176665466Y-120676610D01*
X176713847Y-120700800D01*
X176738038Y-120724990D01*
X176762228Y-120773371D01*
X176762228Y-120845943D01*
X176738038Y-120894324D01*
X176713847Y-120918514D01*
X176665466Y-120942705D01*
X176471942Y-120942705D01*
X177246038Y-121184610D02*
X176955752Y-121184610D01*
X177100895Y-121184610D02*
X177100895Y-120676610D01*
X177052514Y-120749181D01*
X177004133Y-120797562D01*
X176955752Y-120821752D01*
X177729848Y-121184610D02*
X177439562Y-121184610D01*
X177584705Y-121184610D02*
X177584705Y-120676610D01*
X177536324Y-120749181D01*
X177487943Y-120797562D01*
X177439562Y-120821752D01*
X146383828Y-117781010D02*
X146214495Y-117539105D01*
X146093542Y-117781010D02*
X146093542Y-117273010D01*
X146287066Y-117273010D01*
X146335447Y-117297200D01*
X146359638Y-117321390D01*
X146383828Y-117369771D01*
X146383828Y-117442343D01*
X146359638Y-117490724D01*
X146335447Y-117514914D01*
X146287066Y-117539105D01*
X146093542Y-117539105D01*
X146867638Y-117781010D02*
X146577352Y-117781010D01*
X146722495Y-117781010D02*
X146722495Y-117273010D01*
X146674114Y-117345581D01*
X146625733Y-117393962D01*
X146577352Y-117418152D01*
X147061162Y-117321390D02*
X147085352Y-117297200D01*
X147133733Y-117273010D01*
X147254686Y-117273010D01*
X147303067Y-117297200D01*
X147327257Y-117321390D01*
X147351448Y-117369771D01*
X147351448Y-117418152D01*
X147327257Y-117490724D01*
X147036971Y-117781010D01*
X147351448Y-117781010D01*
X128146628Y-120778210D02*
X127977295Y-120536305D01*
X127856342Y-120778210D02*
X127856342Y-120270210D01*
X128049866Y-120270210D01*
X128098247Y-120294400D01*
X128122438Y-120318590D01*
X128146628Y-120366971D01*
X128146628Y-120439543D01*
X128122438Y-120487924D01*
X128098247Y-120512114D01*
X128049866Y-120536305D01*
X127856342Y-120536305D01*
X128630438Y-120778210D02*
X128340152Y-120778210D01*
X128485295Y-120778210D02*
X128485295Y-120270210D01*
X128436914Y-120342781D01*
X128388533Y-120391162D01*
X128340152Y-120415352D01*
X128799771Y-120270210D02*
X129114248Y-120270210D01*
X128944914Y-120463733D01*
X129017486Y-120463733D01*
X129065867Y-120487924D01*
X129090057Y-120512114D01*
X129114248Y-120560495D01*
X129114248Y-120681448D01*
X129090057Y-120729829D01*
X129065867Y-120754019D01*
X129017486Y-120778210D01*
X128872343Y-120778210D01*
X128823962Y-120754019D01*
X128799771Y-120729829D01*
X160150628Y-112802610D02*
X159981295Y-112560705D01*
X159860342Y-112802610D02*
X159860342Y-112294610D01*
X160053866Y-112294610D01*
X160102247Y-112318800D01*
X160126438Y-112342990D01*
X160150628Y-112391371D01*
X160150628Y-112463943D01*
X160126438Y-112512324D01*
X160102247Y-112536514D01*
X160053866Y-112560705D01*
X159860342Y-112560705D01*
X160634438Y-112802610D02*
X160344152Y-112802610D01*
X160489295Y-112802610D02*
X160489295Y-112294610D01*
X160440914Y-112367181D01*
X160392533Y-112415562D01*
X160344152Y-112439752D01*
X161069867Y-112294610D02*
X160973105Y-112294610D01*
X160924724Y-112318800D01*
X160900533Y-112342990D01*
X160852152Y-112415562D01*
X160827962Y-112512324D01*
X160827962Y-112705848D01*
X160852152Y-112754229D01*
X160876343Y-112778419D01*
X160924724Y-112802610D01*
X161021486Y-112802610D01*
X161069867Y-112778419D01*
X161094057Y-112754229D01*
X161118248Y-112705848D01*
X161118248Y-112584895D01*
X161094057Y-112536514D01*
X161069867Y-112512324D01*
X161021486Y-112488133D01*
X160924724Y-112488133D01*
X160876343Y-112512324D01*
X160852152Y-112536514D01*
X160827962Y-112584895D01*
X160201428Y-116409410D02*
X160032095Y-116167505D01*
X159911142Y-116409410D02*
X159911142Y-115901410D01*
X160104666Y-115901410D01*
X160153047Y-115925600D01*
X160177238Y-115949790D01*
X160201428Y-115998171D01*
X160201428Y-116070743D01*
X160177238Y-116119124D01*
X160153047Y-116143314D01*
X160104666Y-116167505D01*
X159911142Y-116167505D01*
X160685238Y-116409410D02*
X160394952Y-116409410D01*
X160540095Y-116409410D02*
X160540095Y-115901410D01*
X160491714Y-115973981D01*
X160443333Y-116022362D01*
X160394952Y-116046552D01*
X160975524Y-116119124D02*
X160927143Y-116094933D01*
X160902952Y-116070743D01*
X160878762Y-116022362D01*
X160878762Y-115998171D01*
X160902952Y-115949790D01*
X160927143Y-115925600D01*
X160975524Y-115901410D01*
X161072286Y-115901410D01*
X161120667Y-115925600D01*
X161144857Y-115949790D01*
X161169048Y-115998171D01*
X161169048Y-116022362D01*
X161144857Y-116070743D01*
X161120667Y-116094933D01*
X161072286Y-116119124D01*
X160975524Y-116119124D01*
X160927143Y-116143314D01*
X160902952Y-116167505D01*
X160878762Y-116215886D01*
X160878762Y-116312648D01*
X160902952Y-116361029D01*
X160927143Y-116385219D01*
X160975524Y-116409410D01*
X161072286Y-116409410D01*
X161120667Y-116385219D01*
X161144857Y-116361029D01*
X161169048Y-116312648D01*
X161169048Y-116215886D01*
X161144857Y-116167505D01*
X161120667Y-116143314D01*
X161072286Y-116119124D01*
X143691428Y-112701010D02*
X143522095Y-112459105D01*
X143401142Y-112701010D02*
X143401142Y-112193010D01*
X143594666Y-112193010D01*
X143643047Y-112217200D01*
X143667238Y-112241390D01*
X143691428Y-112289771D01*
X143691428Y-112362343D01*
X143667238Y-112410724D01*
X143643047Y-112434914D01*
X143594666Y-112459105D01*
X143401142Y-112459105D01*
X143884952Y-112241390D02*
X143909142Y-112217200D01*
X143957523Y-112193010D01*
X144078476Y-112193010D01*
X144126857Y-112217200D01*
X144151047Y-112241390D01*
X144175238Y-112289771D01*
X144175238Y-112338152D01*
X144151047Y-112410724D01*
X143860761Y-112701010D01*
X144175238Y-112701010D01*
X144634857Y-112193010D02*
X144392952Y-112193010D01*
X144368762Y-112434914D01*
X144392952Y-112410724D01*
X144441333Y-112386533D01*
X144562286Y-112386533D01*
X144610667Y-112410724D01*
X144634857Y-112434914D01*
X144659048Y-112483295D01*
X144659048Y-112604248D01*
X144634857Y-112652629D01*
X144610667Y-112676819D01*
X144562286Y-112701010D01*
X144441333Y-112701010D01*
X144392952Y-112676819D01*
X144368762Y-112652629D01*
X176762228Y-116815810D02*
X176592895Y-116573905D01*
X176471942Y-116815810D02*
X176471942Y-116307810D01*
X176665466Y-116307810D01*
X176713847Y-116332000D01*
X176738038Y-116356190D01*
X176762228Y-116404571D01*
X176762228Y-116477143D01*
X176738038Y-116525524D01*
X176713847Y-116549714D01*
X176665466Y-116573905D01*
X176471942Y-116573905D01*
X176955752Y-116356190D02*
X176979942Y-116332000D01*
X177028323Y-116307810D01*
X177149276Y-116307810D01*
X177197657Y-116332000D01*
X177221847Y-116356190D01*
X177246038Y-116404571D01*
X177246038Y-116452952D01*
X177221847Y-116525524D01*
X176931561Y-116815810D01*
X177246038Y-116815810D01*
X177415371Y-116307810D02*
X177754038Y-116307810D01*
X177536324Y-116815810D01*
X159795028Y-117679410D02*
X159625695Y-117437505D01*
X159504742Y-117679410D02*
X159504742Y-117171410D01*
X159698266Y-117171410D01*
X159746647Y-117195600D01*
X159770838Y-117219790D01*
X159795028Y-117268171D01*
X159795028Y-117340743D01*
X159770838Y-117389124D01*
X159746647Y-117413314D01*
X159698266Y-117437505D01*
X159504742Y-117437505D01*
X159988552Y-117219790D02*
X160012742Y-117195600D01*
X160061123Y-117171410D01*
X160182076Y-117171410D01*
X160230457Y-117195600D01*
X160254647Y-117219790D01*
X160278838Y-117268171D01*
X160278838Y-117316552D01*
X160254647Y-117389124D01*
X159964361Y-117679410D01*
X160278838Y-117679410D01*
X160569124Y-117389124D02*
X160520743Y-117364933D01*
X160496552Y-117340743D01*
X160472362Y-117292362D01*
X160472362Y-117268171D01*
X160496552Y-117219790D01*
X160520743Y-117195600D01*
X160569124Y-117171410D01*
X160665886Y-117171410D01*
X160714267Y-117195600D01*
X160738457Y-117219790D01*
X160762648Y-117268171D01*
X160762648Y-117292362D01*
X160738457Y-117340743D01*
X160714267Y-117364933D01*
X160665886Y-117389124D01*
X160569124Y-117389124D01*
X160520743Y-117413314D01*
X160496552Y-117437505D01*
X160472362Y-117485886D01*
X160472362Y-117582648D01*
X160496552Y-117631029D01*
X160520743Y-117655219D01*
X160569124Y-117679410D01*
X160665886Y-117679410D01*
X160714267Y-117655219D01*
X160738457Y-117631029D01*
X160762648Y-117582648D01*
X160762648Y-117485886D01*
X160738457Y-117437505D01*
X160714267Y-117413314D01*
X160665886Y-117389124D01*
X126673428Y-117679410D02*
X126504095Y-117437505D01*
X126383142Y-117679410D02*
X126383142Y-117171410D01*
X126576666Y-117171410D01*
X126625047Y-117195600D01*
X126649238Y-117219790D01*
X126673428Y-117268171D01*
X126673428Y-117340743D01*
X126649238Y-117389124D01*
X126625047Y-117413314D01*
X126576666Y-117437505D01*
X126383142Y-117437505D01*
X126866952Y-117219790D02*
X126891142Y-117195600D01*
X126939523Y-117171410D01*
X127060476Y-117171410D01*
X127108857Y-117195600D01*
X127133047Y-117219790D01*
X127157238Y-117268171D01*
X127157238Y-117316552D01*
X127133047Y-117389124D01*
X126842761Y-117679410D01*
X127157238Y-117679410D01*
X127399143Y-117679410D02*
X127495905Y-117679410D01*
X127544286Y-117655219D01*
X127568476Y-117631029D01*
X127616857Y-117558457D01*
X127641048Y-117461695D01*
X127641048Y-117268171D01*
X127616857Y-117219790D01*
X127592667Y-117195600D01*
X127544286Y-117171410D01*
X127447524Y-117171410D01*
X127399143Y-117195600D01*
X127374952Y-117219790D01*
X127350762Y-117268171D01*
X127350762Y-117389124D01*
X127374952Y-117437505D01*
X127399143Y-117461695D01*
X127447524Y-117485886D01*
X127544286Y-117485886D01*
X127592667Y-117461695D01*
X127616857Y-117437505D01*
X127641048Y-117389124D01*
X143488228Y-114326610D02*
X143318895Y-114084705D01*
X143197942Y-114326610D02*
X143197942Y-113818610D01*
X143391466Y-113818610D01*
X143439847Y-113842800D01*
X143464038Y-113866990D01*
X143488228Y-113915371D01*
X143488228Y-113987943D01*
X143464038Y-114036324D01*
X143439847Y-114060514D01*
X143391466Y-114084705D01*
X143197942Y-114084705D01*
X143657561Y-113818610D02*
X143972038Y-113818610D01*
X143802704Y-114012133D01*
X143875276Y-114012133D01*
X143923657Y-114036324D01*
X143947847Y-114060514D01*
X143972038Y-114108895D01*
X143972038Y-114229848D01*
X143947847Y-114278229D01*
X143923657Y-114302419D01*
X143875276Y-114326610D01*
X143730133Y-114326610D01*
X143681752Y-114302419D01*
X143657561Y-114278229D01*
X144286514Y-113818610D02*
X144334895Y-113818610D01*
X144383276Y-113842800D01*
X144407467Y-113866990D01*
X144431657Y-113915371D01*
X144455848Y-114012133D01*
X144455848Y-114133086D01*
X144431657Y-114229848D01*
X144407467Y-114278229D01*
X144383276Y-114302419D01*
X144334895Y-114326610D01*
X144286514Y-114326610D01*
X144238133Y-114302419D01*
X144213943Y-114278229D01*
X144189752Y-114229848D01*
X144165562Y-114133086D01*
X144165562Y-114012133D01*
X144189752Y-113915371D01*
X144213943Y-113866990D01*
X144238133Y-113842800D01*
X144286514Y-113818610D01*
X123422228Y-112091410D02*
X123252895Y-111849505D01*
X123131942Y-112091410D02*
X123131942Y-111583410D01*
X123325466Y-111583410D01*
X123373847Y-111607600D01*
X123398038Y-111631790D01*
X123422228Y-111680171D01*
X123422228Y-111752743D01*
X123398038Y-111801124D01*
X123373847Y-111825314D01*
X123325466Y-111849505D01*
X123131942Y-111849505D01*
X123591561Y-111583410D02*
X123906038Y-111583410D01*
X123736704Y-111776933D01*
X123809276Y-111776933D01*
X123857657Y-111801124D01*
X123881847Y-111825314D01*
X123906038Y-111873695D01*
X123906038Y-111994648D01*
X123881847Y-112043029D01*
X123857657Y-112067219D01*
X123809276Y-112091410D01*
X123664133Y-112091410D01*
X123615752Y-112067219D01*
X123591561Y-112043029D01*
X124075371Y-111583410D02*
X124389848Y-111583410D01*
X124220514Y-111776933D01*
X124293086Y-111776933D01*
X124341467Y-111801124D01*
X124365657Y-111825314D01*
X124389848Y-111873695D01*
X124389848Y-111994648D01*
X124365657Y-112043029D01*
X124341467Y-112067219D01*
X124293086Y-112091410D01*
X124147943Y-112091410D01*
X124099562Y-112067219D01*
X124075371Y-112043029D01*
X126673428Y-112802610D02*
X126504095Y-112560705D01*
X126383142Y-112802610D02*
X126383142Y-112294610D01*
X126576666Y-112294610D01*
X126625047Y-112318800D01*
X126649238Y-112342990D01*
X126673428Y-112391371D01*
X126673428Y-112463943D01*
X126649238Y-112512324D01*
X126625047Y-112536514D01*
X126576666Y-112560705D01*
X126383142Y-112560705D01*
X126842761Y-112294610D02*
X127157238Y-112294610D01*
X126987904Y-112488133D01*
X127060476Y-112488133D01*
X127108857Y-112512324D01*
X127133047Y-112536514D01*
X127157238Y-112584895D01*
X127157238Y-112705848D01*
X127133047Y-112754229D01*
X127108857Y-112778419D01*
X127060476Y-112802610D01*
X126915333Y-112802610D01*
X126866952Y-112778419D01*
X126842761Y-112754229D01*
X127592667Y-112294610D02*
X127495905Y-112294610D01*
X127447524Y-112318800D01*
X127423333Y-112342990D01*
X127374952Y-112415562D01*
X127350762Y-112512324D01*
X127350762Y-112705848D01*
X127374952Y-112754229D01*
X127399143Y-112778419D01*
X127447524Y-112802610D01*
X127544286Y-112802610D01*
X127592667Y-112778419D01*
X127616857Y-112754229D01*
X127641048Y-112705848D01*
X127641048Y-112584895D01*
X127616857Y-112536514D01*
X127592667Y-112512324D01*
X127544286Y-112488133D01*
X127447524Y-112488133D01*
X127399143Y-112512324D01*
X127374952Y-112536514D01*
X127350762Y-112584895D01*
X126063828Y-116358610D02*
X125894495Y-116116705D01*
X125773542Y-116358610D02*
X125773542Y-115850610D01*
X125967066Y-115850610D01*
X126015447Y-115874800D01*
X126039638Y-115898990D01*
X126063828Y-115947371D01*
X126063828Y-116019943D01*
X126039638Y-116068324D01*
X126015447Y-116092514D01*
X125967066Y-116116705D01*
X125773542Y-116116705D01*
X126233161Y-115850610D02*
X126547638Y-115850610D01*
X126378304Y-116044133D01*
X126450876Y-116044133D01*
X126499257Y-116068324D01*
X126523447Y-116092514D01*
X126547638Y-116140895D01*
X126547638Y-116261848D01*
X126523447Y-116310229D01*
X126499257Y-116334419D01*
X126450876Y-116358610D01*
X126305733Y-116358610D01*
X126257352Y-116334419D01*
X126233161Y-116310229D01*
X126837924Y-116068324D02*
X126789543Y-116044133D01*
X126765352Y-116019943D01*
X126741162Y-115971562D01*
X126741162Y-115947371D01*
X126765352Y-115898990D01*
X126789543Y-115874800D01*
X126837924Y-115850610D01*
X126934686Y-115850610D01*
X126983067Y-115874800D01*
X127007257Y-115898990D01*
X127031448Y-115947371D01*
X127031448Y-115971562D01*
X127007257Y-116019943D01*
X126983067Y-116044133D01*
X126934686Y-116068324D01*
X126837924Y-116068324D01*
X126789543Y-116092514D01*
X126765352Y-116116705D01*
X126741162Y-116165086D01*
X126741162Y-116261848D01*
X126765352Y-116310229D01*
X126789543Y-116334419D01*
X126837924Y-116358610D01*
X126934686Y-116358610D01*
X126983067Y-116334419D01*
X127007257Y-116310229D01*
X127031448Y-116261848D01*
X127031448Y-116165086D01*
X127007257Y-116116705D01*
X126983067Y-116092514D01*
X126934686Y-116068324D01*
X125553410Y-86280172D02*
X125311505Y-86449505D01*
X125553410Y-86570458D02*
X125045410Y-86570458D01*
X125045410Y-86376934D01*
X125069600Y-86328553D01*
X125093790Y-86304362D01*
X125142171Y-86280172D01*
X125214743Y-86280172D01*
X125263124Y-86304362D01*
X125287314Y-86328553D01*
X125311505Y-86376934D01*
X125311505Y-86570458D01*
X125045410Y-85820553D02*
X125045410Y-86062458D01*
X125287314Y-86086648D01*
X125263124Y-86062458D01*
X125238933Y-86014077D01*
X125238933Y-85893124D01*
X125263124Y-85844743D01*
X125287314Y-85820553D01*
X125335695Y-85796362D01*
X125456648Y-85796362D01*
X125505029Y-85820553D01*
X125529219Y-85844743D01*
X125553410Y-85893124D01*
X125553410Y-86014077D01*
X125529219Y-86062458D01*
X125505029Y-86086648D01*
X125045410Y-85360933D02*
X125045410Y-85457695D01*
X125069600Y-85506076D01*
X125093790Y-85530267D01*
X125166362Y-85578648D01*
X125263124Y-85602838D01*
X125456648Y-85602838D01*
X125505029Y-85578648D01*
X125529219Y-85554457D01*
X125553410Y-85506076D01*
X125553410Y-85409314D01*
X125529219Y-85360933D01*
X125505029Y-85336743D01*
X125456648Y-85312552D01*
X125335695Y-85312552D01*
X125287314Y-85336743D01*
X125263124Y-85360933D01*
X125238933Y-85409314D01*
X125238933Y-85506076D01*
X125263124Y-85554457D01*
X125287314Y-85578648D01*
X125335695Y-85602838D01*
X127636210Y-86076972D02*
X127394305Y-86246305D01*
X127636210Y-86367258D02*
X127128210Y-86367258D01*
X127128210Y-86173734D01*
X127152400Y-86125353D01*
X127176590Y-86101162D01*
X127224971Y-86076972D01*
X127297543Y-86076972D01*
X127345924Y-86101162D01*
X127370114Y-86125353D01*
X127394305Y-86173734D01*
X127394305Y-86367258D01*
X127128210Y-85617353D02*
X127128210Y-85859258D01*
X127370114Y-85883448D01*
X127345924Y-85859258D01*
X127321733Y-85810877D01*
X127321733Y-85689924D01*
X127345924Y-85641543D01*
X127370114Y-85617353D01*
X127418495Y-85593162D01*
X127539448Y-85593162D01*
X127587829Y-85617353D01*
X127612019Y-85641543D01*
X127636210Y-85689924D01*
X127636210Y-85810877D01*
X127612019Y-85859258D01*
X127587829Y-85883448D01*
X127128210Y-85423829D02*
X127128210Y-85085162D01*
X127636210Y-85302876D01*
X125502610Y-88921772D02*
X125260705Y-89091105D01*
X125502610Y-89212058D02*
X124994610Y-89212058D01*
X124994610Y-89018534D01*
X125018800Y-88970153D01*
X125042990Y-88945962D01*
X125091371Y-88921772D01*
X125163943Y-88921772D01*
X125212324Y-88945962D01*
X125236514Y-88970153D01*
X125260705Y-89018534D01*
X125260705Y-89212058D01*
X124994610Y-88462153D02*
X124994610Y-88704058D01*
X125236514Y-88728248D01*
X125212324Y-88704058D01*
X125188133Y-88655677D01*
X125188133Y-88534724D01*
X125212324Y-88486343D01*
X125236514Y-88462153D01*
X125284895Y-88437962D01*
X125405848Y-88437962D01*
X125454229Y-88462153D01*
X125478419Y-88486343D01*
X125502610Y-88534724D01*
X125502610Y-88655677D01*
X125478419Y-88704058D01*
X125454229Y-88728248D01*
X125212324Y-88147676D02*
X125188133Y-88196057D01*
X125163943Y-88220248D01*
X125115562Y-88244438D01*
X125091371Y-88244438D01*
X125042990Y-88220248D01*
X125018800Y-88196057D01*
X124994610Y-88147676D01*
X124994610Y-88050914D01*
X125018800Y-88002533D01*
X125042990Y-87978343D01*
X125091371Y-87954152D01*
X125115562Y-87954152D01*
X125163943Y-87978343D01*
X125188133Y-88002533D01*
X125212324Y-88050914D01*
X125212324Y-88147676D01*
X125236514Y-88196057D01*
X125260705Y-88220248D01*
X125309086Y-88244438D01*
X125405848Y-88244438D01*
X125454229Y-88220248D01*
X125478419Y-88196057D01*
X125502610Y-88147676D01*
X125502610Y-88050914D01*
X125478419Y-88002533D01*
X125454229Y-87978343D01*
X125405848Y-87954152D01*
X125309086Y-87954152D01*
X125260705Y-87978343D01*
X125236514Y-88002533D01*
X125212324Y-88050914D01*
X125502610Y-91715772D02*
X125260705Y-91885105D01*
X125502610Y-92006058D02*
X124994610Y-92006058D01*
X124994610Y-91812534D01*
X125018800Y-91764153D01*
X125042990Y-91739962D01*
X125091371Y-91715772D01*
X125163943Y-91715772D01*
X125212324Y-91739962D01*
X125236514Y-91764153D01*
X125260705Y-91812534D01*
X125260705Y-92006058D01*
X124994610Y-91256153D02*
X124994610Y-91498058D01*
X125236514Y-91522248D01*
X125212324Y-91498058D01*
X125188133Y-91449677D01*
X125188133Y-91328724D01*
X125212324Y-91280343D01*
X125236514Y-91256153D01*
X125284895Y-91231962D01*
X125405848Y-91231962D01*
X125454229Y-91256153D01*
X125478419Y-91280343D01*
X125502610Y-91328724D01*
X125502610Y-91449677D01*
X125478419Y-91498058D01*
X125454229Y-91522248D01*
X125502610Y-90990057D02*
X125502610Y-90893295D01*
X125478419Y-90844914D01*
X125454229Y-90820724D01*
X125381657Y-90772343D01*
X125284895Y-90748152D01*
X125091371Y-90748152D01*
X125042990Y-90772343D01*
X125018800Y-90796533D01*
X124994610Y-90844914D01*
X124994610Y-90941676D01*
X125018800Y-90990057D01*
X125042990Y-91014248D01*
X125091371Y-91038438D01*
X125212324Y-91038438D01*
X125260705Y-91014248D01*
X125284895Y-90990057D01*
X125309086Y-90941676D01*
X125309086Y-90844914D01*
X125284895Y-90796533D01*
X125260705Y-90772343D01*
X125212324Y-90748152D01*
X125502610Y-94662172D02*
X125260705Y-94831505D01*
X125502610Y-94952458D02*
X124994610Y-94952458D01*
X124994610Y-94758934D01*
X125018800Y-94710553D01*
X125042990Y-94686362D01*
X125091371Y-94662172D01*
X125163943Y-94662172D01*
X125212324Y-94686362D01*
X125236514Y-94710553D01*
X125260705Y-94758934D01*
X125260705Y-94952458D01*
X124994610Y-94226743D02*
X124994610Y-94323505D01*
X125018800Y-94371886D01*
X125042990Y-94396077D01*
X125115562Y-94444458D01*
X125212324Y-94468648D01*
X125405848Y-94468648D01*
X125454229Y-94444458D01*
X125478419Y-94420267D01*
X125502610Y-94371886D01*
X125502610Y-94275124D01*
X125478419Y-94226743D01*
X125454229Y-94202553D01*
X125405848Y-94178362D01*
X125284895Y-94178362D01*
X125236514Y-94202553D01*
X125212324Y-94226743D01*
X125188133Y-94275124D01*
X125188133Y-94371886D01*
X125212324Y-94420267D01*
X125236514Y-94444458D01*
X125284895Y-94468648D01*
X124994610Y-93863886D02*
X124994610Y-93815505D01*
X125018800Y-93767124D01*
X125042990Y-93742933D01*
X125091371Y-93718743D01*
X125188133Y-93694552D01*
X125309086Y-93694552D01*
X125405848Y-93718743D01*
X125454229Y-93742933D01*
X125478419Y-93767124D01*
X125502610Y-93815505D01*
X125502610Y-93863886D01*
X125478419Y-93912267D01*
X125454229Y-93936457D01*
X125405848Y-93960648D01*
X125309086Y-93984838D01*
X125188133Y-93984838D01*
X125091371Y-93960648D01*
X125042990Y-93936457D01*
X125018800Y-93912267D01*
X124994610Y-93863886D01*
X127687010Y-88870972D02*
X127445105Y-89040305D01*
X127687010Y-89161258D02*
X127179010Y-89161258D01*
X127179010Y-88967734D01*
X127203200Y-88919353D01*
X127227390Y-88895162D01*
X127275771Y-88870972D01*
X127348343Y-88870972D01*
X127396724Y-88895162D01*
X127420914Y-88919353D01*
X127445105Y-88967734D01*
X127445105Y-89161258D01*
X127179010Y-88435543D02*
X127179010Y-88532305D01*
X127203200Y-88580686D01*
X127227390Y-88604877D01*
X127299962Y-88653258D01*
X127396724Y-88677448D01*
X127590248Y-88677448D01*
X127638629Y-88653258D01*
X127662819Y-88629067D01*
X127687010Y-88580686D01*
X127687010Y-88483924D01*
X127662819Y-88435543D01*
X127638629Y-88411353D01*
X127590248Y-88387162D01*
X127469295Y-88387162D01*
X127420914Y-88411353D01*
X127396724Y-88435543D01*
X127372533Y-88483924D01*
X127372533Y-88580686D01*
X127396724Y-88629067D01*
X127420914Y-88653258D01*
X127469295Y-88677448D01*
X127687010Y-87903352D02*
X127687010Y-88193638D01*
X127687010Y-88048495D02*
X127179010Y-88048495D01*
X127251581Y-88096876D01*
X127299962Y-88145257D01*
X127324152Y-88193638D01*
X127636210Y-91715772D02*
X127394305Y-91885105D01*
X127636210Y-92006058D02*
X127128210Y-92006058D01*
X127128210Y-91812534D01*
X127152400Y-91764153D01*
X127176590Y-91739962D01*
X127224971Y-91715772D01*
X127297543Y-91715772D01*
X127345924Y-91739962D01*
X127370114Y-91764153D01*
X127394305Y-91812534D01*
X127394305Y-92006058D01*
X127128210Y-91280343D02*
X127128210Y-91377105D01*
X127152400Y-91425486D01*
X127176590Y-91449677D01*
X127249162Y-91498058D01*
X127345924Y-91522248D01*
X127539448Y-91522248D01*
X127587829Y-91498058D01*
X127612019Y-91473867D01*
X127636210Y-91425486D01*
X127636210Y-91328724D01*
X127612019Y-91280343D01*
X127587829Y-91256153D01*
X127539448Y-91231962D01*
X127418495Y-91231962D01*
X127370114Y-91256153D01*
X127345924Y-91280343D01*
X127321733Y-91328724D01*
X127321733Y-91425486D01*
X127345924Y-91473867D01*
X127370114Y-91498058D01*
X127418495Y-91522248D01*
X127176590Y-91038438D02*
X127152400Y-91014248D01*
X127128210Y-90965867D01*
X127128210Y-90844914D01*
X127152400Y-90796533D01*
X127176590Y-90772343D01*
X127224971Y-90748152D01*
X127273352Y-90748152D01*
X127345924Y-90772343D01*
X127636210Y-91062629D01*
X127636210Y-90748152D01*
X127636210Y-94712972D02*
X127394305Y-94882305D01*
X127636210Y-95003258D02*
X127128210Y-95003258D01*
X127128210Y-94809734D01*
X127152400Y-94761353D01*
X127176590Y-94737162D01*
X127224971Y-94712972D01*
X127297543Y-94712972D01*
X127345924Y-94737162D01*
X127370114Y-94761353D01*
X127394305Y-94809734D01*
X127394305Y-95003258D01*
X127128210Y-94277543D02*
X127128210Y-94374305D01*
X127152400Y-94422686D01*
X127176590Y-94446877D01*
X127249162Y-94495258D01*
X127345924Y-94519448D01*
X127539448Y-94519448D01*
X127587829Y-94495258D01*
X127612019Y-94471067D01*
X127636210Y-94422686D01*
X127636210Y-94325924D01*
X127612019Y-94277543D01*
X127587829Y-94253353D01*
X127539448Y-94229162D01*
X127418495Y-94229162D01*
X127370114Y-94253353D01*
X127345924Y-94277543D01*
X127321733Y-94325924D01*
X127321733Y-94422686D01*
X127345924Y-94471067D01*
X127370114Y-94495258D01*
X127418495Y-94519448D01*
X127128210Y-94059829D02*
X127128210Y-93745352D01*
X127321733Y-93914686D01*
X127321733Y-93842114D01*
X127345924Y-93793733D01*
X127370114Y-93769543D01*
X127418495Y-93745352D01*
X127539448Y-93745352D01*
X127587829Y-93769543D01*
X127612019Y-93793733D01*
X127636210Y-93842114D01*
X127636210Y-93987257D01*
X127612019Y-94035638D01*
X127587829Y-94059829D01*
X136274628Y-88215410D02*
X136105295Y-87973505D01*
X135984342Y-88215410D02*
X135984342Y-87707410D01*
X136177866Y-87707410D01*
X136226247Y-87731600D01*
X136250438Y-87755790D01*
X136274628Y-87804171D01*
X136274628Y-87876743D01*
X136250438Y-87925124D01*
X136226247Y-87949314D01*
X136177866Y-87973505D01*
X135984342Y-87973505D01*
X136710057Y-87707410D02*
X136613295Y-87707410D01*
X136564914Y-87731600D01*
X136540723Y-87755790D01*
X136492342Y-87828362D01*
X136468152Y-87925124D01*
X136468152Y-88118648D01*
X136492342Y-88167029D01*
X136516533Y-88191219D01*
X136564914Y-88215410D01*
X136661676Y-88215410D01*
X136710057Y-88191219D01*
X136734247Y-88167029D01*
X136758438Y-88118648D01*
X136758438Y-87997695D01*
X136734247Y-87949314D01*
X136710057Y-87925124D01*
X136661676Y-87900933D01*
X136564914Y-87900933D01*
X136516533Y-87925124D01*
X136492342Y-87949314D01*
X136468152Y-87997695D01*
X137193867Y-87876743D02*
X137193867Y-88215410D01*
X137072914Y-87683219D02*
X136951962Y-88046076D01*
X137266438Y-88046076D01*
X130534228Y-82424210D02*
X130364895Y-82182305D01*
X130243942Y-82424210D02*
X130243942Y-81916210D01*
X130437466Y-81916210D01*
X130485847Y-81940400D01*
X130510038Y-81964590D01*
X130534228Y-82012971D01*
X130534228Y-82085543D01*
X130510038Y-82133924D01*
X130485847Y-82158114D01*
X130437466Y-82182305D01*
X130243942Y-82182305D01*
X130969657Y-81916210D02*
X130872895Y-81916210D01*
X130824514Y-81940400D01*
X130800323Y-81964590D01*
X130751942Y-82037162D01*
X130727752Y-82133924D01*
X130727752Y-82327448D01*
X130751942Y-82375829D01*
X130776133Y-82400019D01*
X130824514Y-82424210D01*
X130921276Y-82424210D01*
X130969657Y-82400019D01*
X130993847Y-82375829D01*
X131018038Y-82327448D01*
X131018038Y-82206495D01*
X130993847Y-82158114D01*
X130969657Y-82133924D01*
X130921276Y-82109733D01*
X130824514Y-82109733D01*
X130776133Y-82133924D01*
X130751942Y-82158114D01*
X130727752Y-82206495D01*
X131477657Y-81916210D02*
X131235752Y-81916210D01*
X131211562Y-82158114D01*
X131235752Y-82133924D01*
X131284133Y-82109733D01*
X131405086Y-82109733D01*
X131453467Y-82133924D01*
X131477657Y-82158114D01*
X131501848Y-82206495D01*
X131501848Y-82327448D01*
X131477657Y-82375829D01*
X131453467Y-82400019D01*
X131405086Y-82424210D01*
X131284133Y-82424210D01*
X131235752Y-82400019D01*
X131211562Y-82375829D01*
X137595428Y-81560610D02*
X137426095Y-81318705D01*
X137305142Y-81560610D02*
X137305142Y-81052610D01*
X137498666Y-81052610D01*
X137547047Y-81076800D01*
X137571238Y-81100990D01*
X137595428Y-81149371D01*
X137595428Y-81221943D01*
X137571238Y-81270324D01*
X137547047Y-81294514D01*
X137498666Y-81318705D01*
X137305142Y-81318705D01*
X138030857Y-81052610D02*
X137934095Y-81052610D01*
X137885714Y-81076800D01*
X137861523Y-81100990D01*
X137813142Y-81173562D01*
X137788952Y-81270324D01*
X137788952Y-81463848D01*
X137813142Y-81512229D01*
X137837333Y-81536419D01*
X137885714Y-81560610D01*
X137982476Y-81560610D01*
X138030857Y-81536419D01*
X138055047Y-81512229D01*
X138079238Y-81463848D01*
X138079238Y-81342895D01*
X138055047Y-81294514D01*
X138030857Y-81270324D01*
X137982476Y-81246133D01*
X137885714Y-81246133D01*
X137837333Y-81270324D01*
X137813142Y-81294514D01*
X137788952Y-81342895D01*
X138514667Y-81052610D02*
X138417905Y-81052610D01*
X138369524Y-81076800D01*
X138345333Y-81100990D01*
X138296952Y-81173562D01*
X138272762Y-81270324D01*
X138272762Y-81463848D01*
X138296952Y-81512229D01*
X138321143Y-81536419D01*
X138369524Y-81560610D01*
X138466286Y-81560610D01*
X138514667Y-81536419D01*
X138538857Y-81512229D01*
X138563048Y-81463848D01*
X138563048Y-81342895D01*
X138538857Y-81294514D01*
X138514667Y-81270324D01*
X138466286Y-81246133D01*
X138369524Y-81246133D01*
X138321143Y-81270324D01*
X138296952Y-81294514D01*
X138272762Y-81342895D01*
X121847428Y-71857810D02*
X121678095Y-71615905D01*
X121557142Y-71857810D02*
X121557142Y-71349810D01*
X121750666Y-71349810D01*
X121799047Y-71374000D01*
X121823238Y-71398190D01*
X121847428Y-71446571D01*
X121847428Y-71519143D01*
X121823238Y-71567524D01*
X121799047Y-71591714D01*
X121750666Y-71615905D01*
X121557142Y-71615905D01*
X122282857Y-71349810D02*
X122186095Y-71349810D01*
X122137714Y-71374000D01*
X122113523Y-71398190D01*
X122065142Y-71470762D01*
X122040952Y-71567524D01*
X122040952Y-71761048D01*
X122065142Y-71809429D01*
X122089333Y-71833619D01*
X122137714Y-71857810D01*
X122234476Y-71857810D01*
X122282857Y-71833619D01*
X122307047Y-71809429D01*
X122331238Y-71761048D01*
X122331238Y-71640095D01*
X122307047Y-71591714D01*
X122282857Y-71567524D01*
X122234476Y-71543333D01*
X122137714Y-71543333D01*
X122089333Y-71567524D01*
X122065142Y-71591714D01*
X122040952Y-71640095D01*
X122500571Y-71349810D02*
X122839238Y-71349810D01*
X122621524Y-71857810D01*
X182652610Y-92528572D02*
X182410705Y-92697905D01*
X182652610Y-92818858D02*
X182144610Y-92818858D01*
X182144610Y-92625334D01*
X182168800Y-92576953D01*
X182192990Y-92552762D01*
X182241371Y-92528572D01*
X182313943Y-92528572D01*
X182362324Y-92552762D01*
X182386514Y-92576953D01*
X182410705Y-92625334D01*
X182410705Y-92818858D01*
X182144610Y-92359239D02*
X182144610Y-92020572D01*
X182652610Y-92238286D01*
X182144610Y-91730286D02*
X182144610Y-91681905D01*
X182168800Y-91633524D01*
X182192990Y-91609333D01*
X182241371Y-91585143D01*
X182338133Y-91560952D01*
X182459086Y-91560952D01*
X182555848Y-91585143D01*
X182604229Y-91609333D01*
X182628419Y-91633524D01*
X182652610Y-91681905D01*
X182652610Y-91730286D01*
X182628419Y-91778667D01*
X182604229Y-91802857D01*
X182555848Y-91827048D01*
X182459086Y-91851238D01*
X182338133Y-91851238D01*
X182241371Y-91827048D01*
X182192990Y-91802857D01*
X182168800Y-91778667D01*
X182144610Y-91730286D01*
X154260247Y-76328210D02*
X154260247Y-75820210D01*
X154453771Y-75820210D01*
X154502152Y-75844400D01*
X154526343Y-75868590D01*
X154550533Y-75916971D01*
X154550533Y-75989543D01*
X154526343Y-76037924D01*
X154502152Y-76062114D01*
X154453771Y-76086305D01*
X154260247Y-76086305D01*
X154840819Y-76037924D02*
X154792438Y-76013733D01*
X154768247Y-75989543D01*
X154744057Y-75941162D01*
X154744057Y-75916971D01*
X154768247Y-75868590D01*
X154792438Y-75844400D01*
X154840819Y-75820210D01*
X154937581Y-75820210D01*
X154985962Y-75844400D01*
X155010152Y-75868590D01*
X155034343Y-75916971D01*
X155034343Y-75941162D01*
X155010152Y-75989543D01*
X154985962Y-76013733D01*
X154937581Y-76037924D01*
X154840819Y-76037924D01*
X154792438Y-76062114D01*
X154768247Y-76086305D01*
X154744057Y-76134686D01*
X154744057Y-76231448D01*
X154768247Y-76279829D01*
X154792438Y-76304019D01*
X154840819Y-76328210D01*
X154937581Y-76328210D01*
X154985962Y-76304019D01*
X155010152Y-76279829D01*
X155034343Y-76231448D01*
X155034343Y-76134686D01*
X155010152Y-76086305D01*
X154985962Y-76062114D01*
X154937581Y-76037924D01*
X147656247Y-77547410D02*
X147656247Y-77039410D01*
X147849771Y-77039410D01*
X147898152Y-77063600D01*
X147922343Y-77087790D01*
X147946533Y-77136171D01*
X147946533Y-77208743D01*
X147922343Y-77257124D01*
X147898152Y-77281314D01*
X147849771Y-77305505D01*
X147656247Y-77305505D01*
X148188438Y-77547410D02*
X148285200Y-77547410D01*
X148333581Y-77523219D01*
X148357771Y-77499029D01*
X148406152Y-77426457D01*
X148430343Y-77329695D01*
X148430343Y-77136171D01*
X148406152Y-77087790D01*
X148381962Y-77063600D01*
X148333581Y-77039410D01*
X148236819Y-77039410D01*
X148188438Y-77063600D01*
X148164247Y-77087790D01*
X148140057Y-77136171D01*
X148140057Y-77257124D01*
X148164247Y-77305505D01*
X148188438Y-77329695D01*
X148236819Y-77353886D01*
X148333581Y-77353886D01*
X148381962Y-77329695D01*
X148406152Y-77305505D01*
X148430343Y-77257124D01*
X142029542Y-78309410D02*
X142029542Y-77801410D01*
X142223066Y-77801410D01*
X142271447Y-77825600D01*
X142295638Y-77849790D01*
X142319828Y-77898171D01*
X142319828Y-77970743D01*
X142295638Y-78019124D01*
X142271447Y-78043314D01*
X142223066Y-78067505D01*
X142029542Y-78067505D01*
X142803638Y-78309410D02*
X142513352Y-78309410D01*
X142658495Y-78309410D02*
X142658495Y-77801410D01*
X142610114Y-77873981D01*
X142561733Y-77922362D01*
X142513352Y-77946552D01*
X143287448Y-78309410D02*
X142997162Y-78309410D01*
X143142305Y-78309410D02*
X143142305Y-77801410D01*
X143093924Y-77873981D01*
X143045543Y-77922362D01*
X142997162Y-77946552D01*
X161358942Y-114377410D02*
X161358942Y-113869410D01*
X161552466Y-113869410D01*
X161600847Y-113893600D01*
X161625038Y-113917790D01*
X161649228Y-113966171D01*
X161649228Y-114038743D01*
X161625038Y-114087124D01*
X161600847Y-114111314D01*
X161552466Y-114135505D01*
X161358942Y-114135505D01*
X162133038Y-114377410D02*
X161842752Y-114377410D01*
X161987895Y-114377410D02*
X161987895Y-113869410D01*
X161939514Y-113941981D01*
X161891133Y-113990362D01*
X161842752Y-114014552D01*
X162302371Y-113869410D02*
X162616848Y-113869410D01*
X162447514Y-114062933D01*
X162520086Y-114062933D01*
X162568467Y-114087124D01*
X162592657Y-114111314D01*
X162616848Y-114159695D01*
X162616848Y-114280648D01*
X162592657Y-114329029D01*
X162568467Y-114353219D01*
X162520086Y-114377410D01*
X162374943Y-114377410D01*
X162326562Y-114353219D01*
X162302371Y-114329029D01*
X123995542Y-118238210D02*
X123995542Y-117730210D01*
X124189066Y-117730210D01*
X124237447Y-117754400D01*
X124261638Y-117778590D01*
X124285828Y-117826971D01*
X124285828Y-117899543D01*
X124261638Y-117947924D01*
X124237447Y-117972114D01*
X124189066Y-117996305D01*
X123995542Y-117996305D01*
X124769638Y-118238210D02*
X124479352Y-118238210D01*
X124624495Y-118238210D02*
X124624495Y-117730210D01*
X124576114Y-117802781D01*
X124527733Y-117851162D01*
X124479352Y-117875352D01*
X125205067Y-117899543D02*
X125205067Y-118238210D01*
X125084114Y-117706019D02*
X124963162Y-118068876D01*
X125277638Y-118068876D01*
X159504742Y-107570210D02*
X159504742Y-107062210D01*
X159698266Y-107062210D01*
X159746647Y-107086400D01*
X159770838Y-107110590D01*
X159795028Y-107158971D01*
X159795028Y-107231543D01*
X159770838Y-107279924D01*
X159746647Y-107304114D01*
X159698266Y-107328305D01*
X159504742Y-107328305D01*
X160278838Y-107570210D02*
X159988552Y-107570210D01*
X160133695Y-107570210D02*
X160133695Y-107062210D01*
X160085314Y-107134781D01*
X160036933Y-107183162D01*
X159988552Y-107207352D01*
X160738457Y-107062210D02*
X160496552Y-107062210D01*
X160472362Y-107304114D01*
X160496552Y-107279924D01*
X160544933Y-107255733D01*
X160665886Y-107255733D01*
X160714267Y-107279924D01*
X160738457Y-107304114D01*
X160762648Y-107352495D01*
X160762648Y-107473448D01*
X160738457Y-107521829D01*
X160714267Y-107546019D01*
X160665886Y-107570210D01*
X160544933Y-107570210D01*
X160496552Y-107546019D01*
X160472362Y-107521829D01*
X142131142Y-118441410D02*
X142131142Y-117933410D01*
X142324666Y-117933410D01*
X142373047Y-117957600D01*
X142397238Y-117981790D01*
X142421428Y-118030171D01*
X142421428Y-118102743D01*
X142397238Y-118151124D01*
X142373047Y-118175314D01*
X142324666Y-118199505D01*
X142131142Y-118199505D01*
X142905238Y-118441410D02*
X142614952Y-118441410D01*
X142760095Y-118441410D02*
X142760095Y-117933410D01*
X142711714Y-118005981D01*
X142663333Y-118054362D01*
X142614952Y-118078552D01*
X143340667Y-117933410D02*
X143243905Y-117933410D01*
X143195524Y-117957600D01*
X143171333Y-117981790D01*
X143122952Y-118054362D01*
X143098762Y-118151124D01*
X143098762Y-118344648D01*
X143122952Y-118393029D01*
X143147143Y-118417219D01*
X143195524Y-118441410D01*
X143292286Y-118441410D01*
X143340667Y-118417219D01*
X143364857Y-118393029D01*
X143389048Y-118344648D01*
X143389048Y-118223695D01*
X143364857Y-118175314D01*
X143340667Y-118151124D01*
X143292286Y-118126933D01*
X143195524Y-118126933D01*
X143147143Y-118151124D01*
X143122952Y-118175314D01*
X143098762Y-118223695D01*
X180027942Y-117831810D02*
X180027942Y-117323810D01*
X180221466Y-117323810D01*
X180269847Y-117348000D01*
X180294038Y-117372190D01*
X180318228Y-117420571D01*
X180318228Y-117493143D01*
X180294038Y-117541524D01*
X180269847Y-117565714D01*
X180221466Y-117589905D01*
X180027942Y-117589905D01*
X180802038Y-117831810D02*
X180511752Y-117831810D01*
X180656895Y-117831810D02*
X180656895Y-117323810D01*
X180608514Y-117396381D01*
X180560133Y-117444762D01*
X180511752Y-117468952D01*
X180971371Y-117323810D02*
X181310038Y-117323810D01*
X181092324Y-117831810D01*
X145001342Y-114326610D02*
X145001342Y-113818610D01*
X145194866Y-113818610D01*
X145243247Y-113842800D01*
X145267438Y-113866990D01*
X145291628Y-113915371D01*
X145291628Y-113987943D01*
X145267438Y-114036324D01*
X145243247Y-114060514D01*
X145194866Y-114084705D01*
X145001342Y-114084705D01*
X145775438Y-114326610D02*
X145485152Y-114326610D01*
X145630295Y-114326610D02*
X145630295Y-113818610D01*
X145581914Y-113891181D01*
X145533533Y-113939562D01*
X145485152Y-113963752D01*
X146065724Y-114036324D02*
X146017343Y-114012133D01*
X145993152Y-113987943D01*
X145968962Y-113939562D01*
X145968962Y-113915371D01*
X145993152Y-113866990D01*
X146017343Y-113842800D01*
X146065724Y-113818610D01*
X146162486Y-113818610D01*
X146210867Y-113842800D01*
X146235057Y-113866990D01*
X146259248Y-113915371D01*
X146259248Y-113939562D01*
X146235057Y-113987943D01*
X146210867Y-114012133D01*
X146162486Y-114036324D01*
X146065724Y-114036324D01*
X146017343Y-114060514D01*
X145993152Y-114084705D01*
X145968962Y-114133086D01*
X145968962Y-114229848D01*
X145993152Y-114278229D01*
X146017343Y-114302419D01*
X146065724Y-114326610D01*
X146162486Y-114326610D01*
X146210867Y-114302419D01*
X146235057Y-114278229D01*
X146259248Y-114229848D01*
X146259248Y-114133086D01*
X146235057Y-114084705D01*
X146210867Y-114060514D01*
X146162486Y-114036324D01*
X142740742Y-107570210D02*
X142740742Y-107062210D01*
X142934266Y-107062210D01*
X142982647Y-107086400D01*
X143006838Y-107110590D01*
X143031028Y-107158971D01*
X143031028Y-107231543D01*
X143006838Y-107279924D01*
X142982647Y-107304114D01*
X142934266Y-107328305D01*
X142740742Y-107328305D01*
X143514838Y-107570210D02*
X143224552Y-107570210D01*
X143369695Y-107570210D02*
X143369695Y-107062210D01*
X143321314Y-107134781D01*
X143272933Y-107183162D01*
X143224552Y-107207352D01*
X143756743Y-107570210D02*
X143853505Y-107570210D01*
X143901886Y-107546019D01*
X143926076Y-107521829D01*
X143974457Y-107449257D01*
X143998648Y-107352495D01*
X143998648Y-107158971D01*
X143974457Y-107110590D01*
X143950267Y-107086400D01*
X143901886Y-107062210D01*
X143805124Y-107062210D01*
X143756743Y-107086400D01*
X143732552Y-107110590D01*
X143708362Y-107158971D01*
X143708362Y-107279924D01*
X143732552Y-107328305D01*
X143756743Y-107352495D01*
X143805124Y-107376686D01*
X143901886Y-107376686D01*
X143950267Y-107352495D01*
X143974457Y-107328305D01*
X143998648Y-107279924D01*
X119855342Y-112345410D02*
X119855342Y-111837410D01*
X120048866Y-111837410D01*
X120097247Y-111861600D01*
X120121438Y-111885790D01*
X120145628Y-111934171D01*
X120145628Y-112006743D01*
X120121438Y-112055124D01*
X120097247Y-112079314D01*
X120048866Y-112103505D01*
X119855342Y-112103505D01*
X120339152Y-111885790D02*
X120363342Y-111861600D01*
X120411723Y-111837410D01*
X120532676Y-111837410D01*
X120581057Y-111861600D01*
X120605247Y-111885790D01*
X120629438Y-111934171D01*
X120629438Y-111982552D01*
X120605247Y-112055124D01*
X120314961Y-112345410D01*
X120629438Y-112345410D01*
X120943914Y-111837410D02*
X120992295Y-111837410D01*
X121040676Y-111861600D01*
X121064867Y-111885790D01*
X121089057Y-111934171D01*
X121113248Y-112030933D01*
X121113248Y-112151886D01*
X121089057Y-112248648D01*
X121064867Y-112297029D01*
X121040676Y-112321219D01*
X120992295Y-112345410D01*
X120943914Y-112345410D01*
X120895533Y-112321219D01*
X120871343Y-112297029D01*
X120847152Y-112248648D01*
X120822962Y-112151886D01*
X120822962Y-112030933D01*
X120847152Y-111934171D01*
X120871343Y-111885790D01*
X120895533Y-111861600D01*
X120943914Y-111837410D01*
X127348342Y-114326610D02*
X127348342Y-113818610D01*
X127541866Y-113818610D01*
X127590247Y-113842800D01*
X127614438Y-113866990D01*
X127638628Y-113915371D01*
X127638628Y-113987943D01*
X127614438Y-114036324D01*
X127590247Y-114060514D01*
X127541866Y-114084705D01*
X127348342Y-114084705D01*
X127832152Y-113866990D02*
X127856342Y-113842800D01*
X127904723Y-113818610D01*
X128025676Y-113818610D01*
X128074057Y-113842800D01*
X128098247Y-113866990D01*
X128122438Y-113915371D01*
X128122438Y-113963752D01*
X128098247Y-114036324D01*
X127807961Y-114326610D01*
X128122438Y-114326610D01*
X128606248Y-114326610D02*
X128315962Y-114326610D01*
X128461105Y-114326610D02*
X128461105Y-113818610D01*
X128412724Y-113891181D01*
X128364343Y-113939562D01*
X128315962Y-113963752D01*
X124960742Y-108078210D02*
X124960742Y-107570210D01*
X125154266Y-107570210D01*
X125202647Y-107594400D01*
X125226838Y-107618590D01*
X125251028Y-107666971D01*
X125251028Y-107739543D01*
X125226838Y-107787924D01*
X125202647Y-107812114D01*
X125154266Y-107836305D01*
X124960742Y-107836305D01*
X125444552Y-107618590D02*
X125468742Y-107594400D01*
X125517123Y-107570210D01*
X125638076Y-107570210D01*
X125686457Y-107594400D01*
X125710647Y-107618590D01*
X125734838Y-107666971D01*
X125734838Y-107715352D01*
X125710647Y-107787924D01*
X125420361Y-108078210D01*
X125734838Y-108078210D01*
X125928362Y-107618590D02*
X125952552Y-107594400D01*
X126000933Y-107570210D01*
X126121886Y-107570210D01*
X126170267Y-107594400D01*
X126194457Y-107618590D01*
X126218648Y-107666971D01*
X126218648Y-107715352D01*
X126194457Y-107787924D01*
X125904171Y-108078210D01*
X126218648Y-108078210D01*
X130955142Y-87656610D02*
X130955142Y-87148610D01*
X131148666Y-87148610D01*
X131197047Y-87172800D01*
X131221238Y-87196990D01*
X131245428Y-87245371D01*
X131245428Y-87317943D01*
X131221238Y-87366324D01*
X131197047Y-87390514D01*
X131148666Y-87414705D01*
X130955142Y-87414705D01*
X131438952Y-87196990D02*
X131463142Y-87172800D01*
X131511523Y-87148610D01*
X131632476Y-87148610D01*
X131680857Y-87172800D01*
X131705047Y-87196990D01*
X131729238Y-87245371D01*
X131729238Y-87293752D01*
X131705047Y-87366324D01*
X131414761Y-87656610D01*
X131729238Y-87656610D01*
X132164667Y-87317943D02*
X132164667Y-87656610D01*
X132043714Y-87124419D02*
X131922762Y-87487276D01*
X132237238Y-87487276D01*
X131107542Y-90704610D02*
X131107542Y-90196610D01*
X131301066Y-90196610D01*
X131349447Y-90220800D01*
X131373638Y-90244990D01*
X131397828Y-90293371D01*
X131397828Y-90365943D01*
X131373638Y-90414324D01*
X131349447Y-90438514D01*
X131301066Y-90462705D01*
X131107542Y-90462705D01*
X131591352Y-90244990D02*
X131615542Y-90220800D01*
X131663923Y-90196610D01*
X131784876Y-90196610D01*
X131833257Y-90220800D01*
X131857447Y-90244990D01*
X131881638Y-90293371D01*
X131881638Y-90341752D01*
X131857447Y-90414324D01*
X131567161Y-90704610D01*
X131881638Y-90704610D01*
X132341257Y-90196610D02*
X132099352Y-90196610D01*
X132075162Y-90438514D01*
X132099352Y-90414324D01*
X132147733Y-90390133D01*
X132268686Y-90390133D01*
X132317067Y-90414324D01*
X132341257Y-90438514D01*
X132365448Y-90486895D01*
X132365448Y-90607848D01*
X132341257Y-90656229D01*
X132317067Y-90680419D01*
X132268686Y-90704610D01*
X132147733Y-90704610D01*
X132099352Y-90680419D01*
X132075162Y-90656229D01*
X131209142Y-93092210D02*
X131209142Y-92584210D01*
X131402666Y-92584210D01*
X131451047Y-92608400D01*
X131475238Y-92632590D01*
X131499428Y-92680971D01*
X131499428Y-92753543D01*
X131475238Y-92801924D01*
X131451047Y-92826114D01*
X131402666Y-92850305D01*
X131209142Y-92850305D01*
X131692952Y-92632590D02*
X131717142Y-92608400D01*
X131765523Y-92584210D01*
X131886476Y-92584210D01*
X131934857Y-92608400D01*
X131959047Y-92632590D01*
X131983238Y-92680971D01*
X131983238Y-92729352D01*
X131959047Y-92801924D01*
X131668761Y-93092210D01*
X131983238Y-93092210D01*
X132418667Y-92584210D02*
X132321905Y-92584210D01*
X132273524Y-92608400D01*
X132249333Y-92632590D01*
X132200952Y-92705162D01*
X132176762Y-92801924D01*
X132176762Y-92995448D01*
X132200952Y-93043829D01*
X132225143Y-93068019D01*
X132273524Y-93092210D01*
X132370286Y-93092210D01*
X132418667Y-93068019D01*
X132442857Y-93043829D01*
X132467048Y-92995448D01*
X132467048Y-92874495D01*
X132442857Y-92826114D01*
X132418667Y-92801924D01*
X132370286Y-92777733D01*
X132273524Y-92777733D01*
X132225143Y-92801924D01*
X132200952Y-92826114D01*
X132176762Y-92874495D01*
X151248533Y-78057829D02*
X151224343Y-78082019D01*
X151151771Y-78106210D01*
X151103390Y-78106210D01*
X151030819Y-78082019D01*
X150982438Y-78033638D01*
X150958247Y-77985257D01*
X150934057Y-77888495D01*
X150934057Y-77815924D01*
X150958247Y-77719162D01*
X150982438Y-77670781D01*
X151030819Y-77622400D01*
X151103390Y-77598210D01*
X151151771Y-77598210D01*
X151224343Y-77622400D01*
X151248533Y-77646590D01*
X151417866Y-77598210D02*
X151732343Y-77598210D01*
X151563009Y-77791733D01*
X151635581Y-77791733D01*
X151683962Y-77815924D01*
X151708152Y-77840114D01*
X151732343Y-77888495D01*
X151732343Y-78009448D01*
X151708152Y-78057829D01*
X151683962Y-78082019D01*
X151635581Y-78106210D01*
X151490438Y-78106210D01*
X151442057Y-78082019D01*
X151417866Y-78057829D01*
X179899733Y-97260229D02*
X179875543Y-97284419D01*
X179802971Y-97308610D01*
X179754590Y-97308610D01*
X179682019Y-97284419D01*
X179633638Y-97236038D01*
X179609447Y-97187657D01*
X179585257Y-97090895D01*
X179585257Y-97018324D01*
X179609447Y-96921562D01*
X179633638Y-96873181D01*
X179682019Y-96824800D01*
X179754590Y-96800610D01*
X179802971Y-96800610D01*
X179875543Y-96824800D01*
X179899733Y-96848990D01*
X180190019Y-97018324D02*
X180141638Y-96994133D01*
X180117447Y-96969943D01*
X180093257Y-96921562D01*
X180093257Y-96897371D01*
X180117447Y-96848990D01*
X180141638Y-96824800D01*
X180190019Y-96800610D01*
X180286781Y-96800610D01*
X180335162Y-96824800D01*
X180359352Y-96848990D01*
X180383543Y-96897371D01*
X180383543Y-96921562D01*
X180359352Y-96969943D01*
X180335162Y-96994133D01*
X180286781Y-97018324D01*
X180190019Y-97018324D01*
X180141638Y-97042514D01*
X180117447Y-97066705D01*
X180093257Y-97115086D01*
X180093257Y-97211848D01*
X180117447Y-97260229D01*
X180141638Y-97284419D01*
X180190019Y-97308610D01*
X180286781Y-97308610D01*
X180335162Y-97284419D01*
X180359352Y-97260229D01*
X180383543Y-97211848D01*
X180383543Y-97115086D01*
X180359352Y-97066705D01*
X180335162Y-97042514D01*
X180286781Y-97018324D01*
X157204228Y-94567829D02*
X157180038Y-94592019D01*
X157107466Y-94616210D01*
X157059085Y-94616210D01*
X156986514Y-94592019D01*
X156938133Y-94543638D01*
X156913942Y-94495257D01*
X156889752Y-94398495D01*
X156889752Y-94325924D01*
X156913942Y-94229162D01*
X156938133Y-94180781D01*
X156986514Y-94132400D01*
X157059085Y-94108210D01*
X157107466Y-94108210D01*
X157180038Y-94132400D01*
X157204228Y-94156590D01*
X157688038Y-94616210D02*
X157397752Y-94616210D01*
X157542895Y-94616210D02*
X157542895Y-94108210D01*
X157494514Y-94180781D01*
X157446133Y-94229162D01*
X157397752Y-94253352D01*
X158002514Y-94108210D02*
X158050895Y-94108210D01*
X158099276Y-94132400D01*
X158123467Y-94156590D01*
X158147657Y-94204971D01*
X158171848Y-94301733D01*
X158171848Y-94422686D01*
X158147657Y-94519448D01*
X158123467Y-94567829D01*
X158099276Y-94592019D01*
X158050895Y-94616210D01*
X158002514Y-94616210D01*
X157954133Y-94592019D01*
X157929943Y-94567829D01*
X157905752Y-94519448D01*
X157881562Y-94422686D01*
X157881562Y-94301733D01*
X157905752Y-94204971D01*
X157929943Y-94156590D01*
X157954133Y-94132400D01*
X158002514Y-94108210D01*
X153089428Y-95279029D02*
X153065238Y-95303219D01*
X152992666Y-95327410D01*
X152944285Y-95327410D01*
X152871714Y-95303219D01*
X152823333Y-95254838D01*
X152799142Y-95206457D01*
X152774952Y-95109695D01*
X152774952Y-95037124D01*
X152799142Y-94940362D01*
X152823333Y-94891981D01*
X152871714Y-94843600D01*
X152944285Y-94819410D01*
X152992666Y-94819410D01*
X153065238Y-94843600D01*
X153089428Y-94867790D01*
X153573238Y-95327410D02*
X153282952Y-95327410D01*
X153428095Y-95327410D02*
X153428095Y-94819410D01*
X153379714Y-94891981D01*
X153331333Y-94940362D01*
X153282952Y-94964552D01*
X154057048Y-95327410D02*
X153766762Y-95327410D01*
X153911905Y-95327410D02*
X153911905Y-94819410D01*
X153863524Y-94891981D01*
X153815143Y-94940362D01*
X153766762Y-94964552D01*
X148822228Y-95431429D02*
X148798038Y-95455619D01*
X148725466Y-95479810D01*
X148677085Y-95479810D01*
X148604514Y-95455619D01*
X148556133Y-95407238D01*
X148531942Y-95358857D01*
X148507752Y-95262095D01*
X148507752Y-95189524D01*
X148531942Y-95092762D01*
X148556133Y-95044381D01*
X148604514Y-94996000D01*
X148677085Y-94971810D01*
X148725466Y-94971810D01*
X148798038Y-94996000D01*
X148822228Y-95020190D01*
X149306038Y-95479810D02*
X149015752Y-95479810D01*
X149160895Y-95479810D02*
X149160895Y-94971810D01*
X149112514Y-95044381D01*
X149064133Y-95092762D01*
X149015752Y-95116952D01*
X149499562Y-95020190D02*
X149523752Y-94996000D01*
X149572133Y-94971810D01*
X149693086Y-94971810D01*
X149741467Y-94996000D01*
X149765657Y-95020190D01*
X149789848Y-95068571D01*
X149789848Y-95116952D01*
X149765657Y-95189524D01*
X149475371Y-95479810D01*
X149789848Y-95479810D01*
X129619829Y-87905772D02*
X129644019Y-87929962D01*
X129668210Y-88002534D01*
X129668210Y-88050915D01*
X129644019Y-88123486D01*
X129595638Y-88171867D01*
X129547257Y-88196058D01*
X129450495Y-88220248D01*
X129377924Y-88220248D01*
X129281162Y-88196058D01*
X129232781Y-88171867D01*
X129184400Y-88123486D01*
X129160210Y-88050915D01*
X129160210Y-88002534D01*
X129184400Y-87929962D01*
X129208590Y-87905772D01*
X129160210Y-87736439D02*
X129160210Y-87421962D01*
X129353733Y-87591296D01*
X129353733Y-87518724D01*
X129377924Y-87470343D01*
X129402114Y-87446153D01*
X129450495Y-87421962D01*
X129571448Y-87421962D01*
X129619829Y-87446153D01*
X129644019Y-87470343D01*
X129668210Y-87518724D01*
X129668210Y-87663867D01*
X129644019Y-87712248D01*
X129619829Y-87736439D01*
X129160210Y-86962343D02*
X129160210Y-87204248D01*
X129402114Y-87228438D01*
X129377924Y-87204248D01*
X129353733Y-87155867D01*
X129353733Y-87034914D01*
X129377924Y-86986533D01*
X129402114Y-86962343D01*
X129450495Y-86938152D01*
X129571448Y-86938152D01*
X129619829Y-86962343D01*
X129644019Y-86986533D01*
X129668210Y-87034914D01*
X129668210Y-87155867D01*
X129644019Y-87204248D01*
X129619829Y-87228438D01*
X129467429Y-92782572D02*
X129491619Y-92806762D01*
X129515810Y-92879334D01*
X129515810Y-92927715D01*
X129491619Y-93000286D01*
X129443238Y-93048667D01*
X129394857Y-93072858D01*
X129298095Y-93097048D01*
X129225524Y-93097048D01*
X129128762Y-93072858D01*
X129080381Y-93048667D01*
X129032000Y-93000286D01*
X129007810Y-92927715D01*
X129007810Y-92879334D01*
X129032000Y-92806762D01*
X129056190Y-92782572D01*
X129007810Y-92613239D02*
X129007810Y-92298762D01*
X129201333Y-92468096D01*
X129201333Y-92395524D01*
X129225524Y-92347143D01*
X129249714Y-92322953D01*
X129298095Y-92298762D01*
X129419048Y-92298762D01*
X129467429Y-92322953D01*
X129491619Y-92347143D01*
X129515810Y-92395524D01*
X129515810Y-92540667D01*
X129491619Y-92589048D01*
X129467429Y-92613239D01*
X129007810Y-91863333D02*
X129007810Y-91960095D01*
X129032000Y-92008476D01*
X129056190Y-92032667D01*
X129128762Y-92081048D01*
X129225524Y-92105238D01*
X129419048Y-92105238D01*
X129467429Y-92081048D01*
X129491619Y-92056857D01*
X129515810Y-92008476D01*
X129515810Y-91911714D01*
X129491619Y-91863333D01*
X129467429Y-91839143D01*
X129419048Y-91814952D01*
X129298095Y-91814952D01*
X129249714Y-91839143D01*
X129225524Y-91863333D01*
X129201333Y-91911714D01*
X129201333Y-92008476D01*
X129225524Y-92056857D01*
X129249714Y-92081048D01*
X129298095Y-92105238D01*
X129619829Y-96694172D02*
X129644019Y-96718362D01*
X129668210Y-96790934D01*
X129668210Y-96839315D01*
X129644019Y-96911886D01*
X129595638Y-96960267D01*
X129547257Y-96984458D01*
X129450495Y-97008648D01*
X129377924Y-97008648D01*
X129281162Y-96984458D01*
X129232781Y-96960267D01*
X129184400Y-96911886D01*
X129160210Y-96839315D01*
X129160210Y-96790934D01*
X129184400Y-96718362D01*
X129208590Y-96694172D01*
X129160210Y-96524839D02*
X129160210Y-96210362D01*
X129353733Y-96379696D01*
X129353733Y-96307124D01*
X129377924Y-96258743D01*
X129402114Y-96234553D01*
X129450495Y-96210362D01*
X129571448Y-96210362D01*
X129619829Y-96234553D01*
X129644019Y-96258743D01*
X129668210Y-96307124D01*
X129668210Y-96452267D01*
X129644019Y-96500648D01*
X129619829Y-96524839D01*
X129160210Y-96041029D02*
X129160210Y-95702362D01*
X129668210Y-95920076D01*
X136325428Y-85169829D02*
X136301238Y-85194019D01*
X136228666Y-85218210D01*
X136180285Y-85218210D01*
X136107714Y-85194019D01*
X136059333Y-85145638D01*
X136035142Y-85097257D01*
X136010952Y-85000495D01*
X136010952Y-84927924D01*
X136035142Y-84831162D01*
X136059333Y-84782781D01*
X136107714Y-84734400D01*
X136180285Y-84710210D01*
X136228666Y-84710210D01*
X136301238Y-84734400D01*
X136325428Y-84758590D01*
X136494761Y-84710210D02*
X136809238Y-84710210D01*
X136639904Y-84903733D01*
X136712476Y-84903733D01*
X136760857Y-84927924D01*
X136785047Y-84952114D01*
X136809238Y-85000495D01*
X136809238Y-85121448D01*
X136785047Y-85169829D01*
X136760857Y-85194019D01*
X136712476Y-85218210D01*
X136567333Y-85218210D01*
X136518952Y-85194019D01*
X136494761Y-85169829D01*
X137099524Y-84927924D02*
X137051143Y-84903733D01*
X137026952Y-84879543D01*
X137002762Y-84831162D01*
X137002762Y-84806971D01*
X137026952Y-84758590D01*
X137051143Y-84734400D01*
X137099524Y-84710210D01*
X137196286Y-84710210D01*
X137244667Y-84734400D01*
X137268857Y-84758590D01*
X137293048Y-84806971D01*
X137293048Y-84831162D01*
X137268857Y-84879543D01*
X137244667Y-84903733D01*
X137196286Y-84927924D01*
X137099524Y-84927924D01*
X137051143Y-84952114D01*
X137026952Y-84976305D01*
X137002762Y-85024686D01*
X137002762Y-85121448D01*
X137026952Y-85169829D01*
X137051143Y-85194019D01*
X137099524Y-85218210D01*
X137196286Y-85218210D01*
X137244667Y-85194019D01*
X137268857Y-85169829D01*
X137293048Y-85121448D01*
X137293048Y-85024686D01*
X137268857Y-84976305D01*
X137244667Y-84952114D01*
X137196286Y-84927924D01*
X174476229Y-91868172D02*
X174500419Y-91892362D01*
X174524610Y-91964934D01*
X174524610Y-92013315D01*
X174500419Y-92085886D01*
X174452038Y-92134267D01*
X174403657Y-92158458D01*
X174306895Y-92182648D01*
X174234324Y-92182648D01*
X174137562Y-92158458D01*
X174089181Y-92134267D01*
X174040800Y-92085886D01*
X174016610Y-92013315D01*
X174016610Y-91964934D01*
X174040800Y-91892362D01*
X174064990Y-91868172D01*
X174185943Y-91432743D02*
X174524610Y-91432743D01*
X173992419Y-91553696D02*
X174355276Y-91674648D01*
X174355276Y-91360172D01*
X174524610Y-90900552D02*
X174524610Y-91190838D01*
X174524610Y-91045695D02*
X174016610Y-91045695D01*
X174089181Y-91094076D01*
X174137562Y-91142457D01*
X174161752Y-91190838D01*
X180470629Y-94611372D02*
X180494819Y-94635562D01*
X180519010Y-94708134D01*
X180519010Y-94756515D01*
X180494819Y-94829086D01*
X180446438Y-94877467D01*
X180398057Y-94901658D01*
X180301295Y-94925848D01*
X180228724Y-94925848D01*
X180131962Y-94901658D01*
X180083581Y-94877467D01*
X180035200Y-94829086D01*
X180011010Y-94756515D01*
X180011010Y-94708134D01*
X180035200Y-94635562D01*
X180059390Y-94611372D01*
X180180343Y-94175943D02*
X180519010Y-94175943D01*
X179986819Y-94296896D02*
X180349676Y-94417848D01*
X180349676Y-94103372D01*
X180011010Y-93958229D02*
X180011010Y-93643752D01*
X180204533Y-93813086D01*
X180204533Y-93740514D01*
X180228724Y-93692133D01*
X180252914Y-93667943D01*
X180301295Y-93643752D01*
X180422248Y-93643752D01*
X180470629Y-93667943D01*
X180494819Y-93692133D01*
X180519010Y-93740514D01*
X180519010Y-93885657D01*
X180494819Y-93934038D01*
X180470629Y-93958229D01*
X134078133Y-82373410D02*
X133908800Y-82131505D01*
X133787847Y-82373410D02*
X133787847Y-81865410D01*
X133981371Y-81865410D01*
X134029752Y-81889600D01*
X134053943Y-81913790D01*
X134078133Y-81962171D01*
X134078133Y-82034743D01*
X134053943Y-82083124D01*
X134029752Y-82107314D01*
X133981371Y-82131505D01*
X133787847Y-82131505D01*
X134561943Y-82373410D02*
X134271657Y-82373410D01*
X134416800Y-82373410D02*
X134416800Y-81865410D01*
X134368419Y-81937981D01*
X134320038Y-81986362D01*
X134271657Y-82010552D01*
X170755733Y-85218210D02*
X170586400Y-84976305D01*
X170465447Y-85218210D02*
X170465447Y-84710210D01*
X170658971Y-84710210D01*
X170707352Y-84734400D01*
X170731543Y-84758590D01*
X170755733Y-84806971D01*
X170755733Y-84879543D01*
X170731543Y-84927924D01*
X170707352Y-84952114D01*
X170658971Y-84976305D01*
X170465447Y-84976305D01*
X170949257Y-84758590D02*
X170973447Y-84734400D01*
X171021828Y-84710210D01*
X171142781Y-84710210D01*
X171191162Y-84734400D01*
X171215352Y-84758590D01*
X171239543Y-84806971D01*
X171239543Y-84855352D01*
X171215352Y-84927924D01*
X170925066Y-85218210D01*
X171239543Y-85218210D01*
X167504533Y-85218210D02*
X167335200Y-84976305D01*
X167214247Y-85218210D02*
X167214247Y-84710210D01*
X167407771Y-84710210D01*
X167456152Y-84734400D01*
X167480343Y-84758590D01*
X167504533Y-84806971D01*
X167504533Y-84879543D01*
X167480343Y-84927924D01*
X167456152Y-84952114D01*
X167407771Y-84976305D01*
X167214247Y-84976305D01*
X167673866Y-84710210D02*
X167988343Y-84710210D01*
X167819009Y-84903733D01*
X167891581Y-84903733D01*
X167939962Y-84927924D01*
X167964152Y-84952114D01*
X167988343Y-85000495D01*
X167988343Y-85121448D01*
X167964152Y-85169829D01*
X167939962Y-85194019D01*
X167891581Y-85218210D01*
X167746438Y-85218210D01*
X167698057Y-85194019D01*
X167673866Y-85169829D01*
X159325733Y-86640610D02*
X159156400Y-86398705D01*
X159035447Y-86640610D02*
X159035447Y-86132610D01*
X159228971Y-86132610D01*
X159277352Y-86156800D01*
X159301543Y-86180990D01*
X159325733Y-86229371D01*
X159325733Y-86301943D01*
X159301543Y-86350324D01*
X159277352Y-86374514D01*
X159228971Y-86398705D01*
X159035447Y-86398705D01*
X159761162Y-86301943D02*
X159761162Y-86640610D01*
X159640209Y-86108419D02*
X159519257Y-86471276D01*
X159833733Y-86471276D01*
M02*
