G04 #@! TF.FileFunction,Soldermask,Bot*
%FSLAX46Y46*%
G04 Gerber Fmt 4.6, Leading zero omitted, Abs format (unit mm)*
G04 Created by KiCad (PCBNEW (2015-05-26 BZR 5684)-product) date Wed 21 Oct 2015 04:34:03 PM PDT*
%MOMM*%
G01*
G04 APERTURE LIST*
%ADD10C,0.100000*%
%ADD11C,3.149600*%
%ADD12R,2.032000X1.727200*%
%ADD13O,2.032000X1.727200*%
%ADD14R,1.727200X1.727200*%
%ADD15O,1.727200X1.727200*%
%ADD16R,10.160000X7.620000*%
%ADD17R,0.700000X2.540000*%
%ADD18R,0.900000X0.500000*%
%ADD19R,6.197600X2.692400*%
%ADD20R,0.500000X0.900000*%
%ADD21R,0.750000X0.800000*%
%ADD22C,0.254000*%
G04 APERTURE END LIST*
D10*
D11*
X169926000Y-115951000D03*
X153416000Y-116078000D03*
X136017000Y-115951000D03*
X126238000Y-101727000D03*
X179578000Y-102298000D03*
X178181000Y-85407500D03*
D12*
X121209000Y-80873600D03*
D13*
X121209000Y-83413600D03*
X121209000Y-85953600D03*
X121209000Y-88493600D03*
X121209000Y-91033600D03*
X121209000Y-93573600D03*
D14*
X129540000Y-73660000D03*
D15*
X129540000Y-71120000D03*
X132080000Y-73660000D03*
X132080000Y-71120000D03*
X134620000Y-73660000D03*
X134620000Y-71120000D03*
X137160000Y-73660000D03*
X137160000Y-71120000D03*
X139700000Y-73660000D03*
X139700000Y-71120000D03*
X142240000Y-73660000D03*
X142240000Y-71120000D03*
X144780000Y-73660000D03*
X144780000Y-71120000D03*
X147320000Y-73660000D03*
X147320000Y-71120000D03*
X149860000Y-73660000D03*
X149860000Y-71120000D03*
X152400000Y-73660000D03*
X152400000Y-71120000D03*
X154940000Y-73660000D03*
X154940000Y-71120000D03*
X157480000Y-73660000D03*
X157480000Y-71120000D03*
X160020000Y-73660000D03*
X160020000Y-71120000D03*
X162560000Y-73660000D03*
X162560000Y-71120000D03*
X165100000Y-73660000D03*
X165100000Y-71120000D03*
X167640000Y-73660000D03*
X167640000Y-71120000D03*
X170180000Y-73660000D03*
X170180000Y-71120000D03*
X172720000Y-73660000D03*
X172720000Y-71120000D03*
X175260000Y-73660000D03*
X175260000Y-71120000D03*
X177800000Y-73660000D03*
X177800000Y-71120000D03*
D16*
X169926000Y-116205000D03*
D17*
X166116000Y-106680000D03*
X167386000Y-106680000D03*
X168656000Y-106680000D03*
X171196000Y-106680000D03*
X172466000Y-106680000D03*
X173736000Y-106680000D03*
D16*
X153416000Y-116205000D03*
D17*
X149606000Y-106680000D03*
X150876000Y-106680000D03*
X152146000Y-106680000D03*
X154686000Y-106680000D03*
X155956000Y-106680000D03*
X157226000Y-106680000D03*
D16*
X136144000Y-116205000D03*
D17*
X132334000Y-106680000D03*
X133604000Y-106680000D03*
X134874000Y-106680000D03*
X137414000Y-106680000D03*
X138684000Y-106680000D03*
X139954000Y-106680000D03*
D18*
X139319000Y-79502000D03*
X139319000Y-78002000D03*
X127635000Y-119241000D03*
X127635000Y-117741000D03*
X164592000Y-106668000D03*
X164592000Y-105168000D03*
X162662000Y-105117000D03*
X162662000Y-106617000D03*
X136652000Y-79490000D03*
X136652000Y-77990000D03*
X146431000Y-120003000D03*
X146431000Y-118503000D03*
D19*
X136715500Y-92176600D03*
X136715500Y-101219000D03*
D18*
X134112000Y-79490000D03*
X134112000Y-77990000D03*
X178181000Y-118860000D03*
X178181000Y-117360000D03*
X147955000Y-106668000D03*
X147955000Y-105168000D03*
D20*
X144919000Y-105918000D03*
X146419000Y-105918000D03*
D19*
X154114500Y-92176600D03*
X154114500Y-101219000D03*
D18*
X141986000Y-77990000D03*
X141986000Y-79490000D03*
X124333000Y-112510000D03*
X124333000Y-111010000D03*
X130810000Y-106668000D03*
X130810000Y-105168000D03*
X129032000Y-106656000D03*
X129032000Y-105156000D03*
D21*
X141097000Y-96127000D03*
X141097000Y-94627000D03*
X149860000Y-96127000D03*
X149860000Y-94627000D03*
X125984000Y-119114000D03*
X125984000Y-117614000D03*
X144830800Y-120028400D03*
X144830800Y-118528400D03*
X180086000Y-118860000D03*
X180086000Y-117360000D03*
X126365000Y-112637000D03*
X126365000Y-111137000D03*
D11*
X134493000Y-85344000D03*
D22*
G36*
X141478000Y-120396000D02*
X130810000Y-120396000D01*
X130810000Y-111125000D01*
X141478000Y-111125000D01*
X141478000Y-120396000D01*
X141478000Y-120396000D01*
G37*
X141478000Y-120396000D02*
X130810000Y-120396000D01*
X130810000Y-111125000D01*
X141478000Y-111125000D01*
X141478000Y-120396000D01*
G36*
X158750000Y-120396000D02*
X147955000Y-120396000D01*
X147955000Y-111125000D01*
X158750000Y-111125000D01*
X158750000Y-120396000D01*
X158750000Y-120396000D01*
G37*
X158750000Y-120396000D02*
X147955000Y-120396000D01*
X147955000Y-111125000D01*
X158750000Y-111125000D01*
X158750000Y-120396000D01*
G36*
X175260000Y-120396000D02*
X164465000Y-120396000D01*
X164465000Y-111125000D01*
X175260000Y-111125000D01*
X175260000Y-120396000D01*
X175260000Y-120396000D01*
G37*
X175260000Y-120396000D02*
X164465000Y-120396000D01*
X164465000Y-111125000D01*
X175260000Y-111125000D01*
X175260000Y-120396000D01*
G36*
X182372000Y-90424000D02*
X176403000Y-90424000D01*
X176354399Y-90433667D01*
X176313197Y-90461197D01*
X176285667Y-90502399D01*
X176276000Y-90551000D01*
X176276000Y-107823000D01*
X167005000Y-107823000D01*
X167005000Y-90551000D01*
X166995333Y-90502399D01*
X166967803Y-90461197D01*
X166926601Y-90433667D01*
X166878000Y-90424000D01*
X130683000Y-90424000D01*
X130683000Y-81153000D01*
X182372000Y-81153000D01*
X182372000Y-90424000D01*
X182372000Y-90424000D01*
G37*
X182372000Y-90424000D02*
X176403000Y-90424000D01*
X176354399Y-90433667D01*
X176313197Y-90461197D01*
X176285667Y-90502399D01*
X176276000Y-90551000D01*
X176276000Y-107823000D01*
X167005000Y-107823000D01*
X167005000Y-90551000D01*
X166995333Y-90502399D01*
X166967803Y-90461197D01*
X166926601Y-90433667D01*
X166878000Y-90424000D01*
X130683000Y-90424000D01*
X130683000Y-81153000D01*
X182372000Y-81153000D01*
X182372000Y-90424000D01*
G36*
X140589000Y-107823000D02*
X133223000Y-107823000D01*
X133223000Y-102616000D01*
X140589000Y-102616000D01*
X140589000Y-107823000D01*
X140589000Y-107823000D01*
G37*
X140589000Y-107823000D02*
X133223000Y-107823000D01*
X133223000Y-102616000D01*
X140589000Y-102616000D01*
X140589000Y-107823000D01*
G36*
X157734000Y-107823000D02*
X150495000Y-107823000D01*
X150495000Y-102616000D01*
X157734000Y-102616000D01*
X157734000Y-107823000D01*
X157734000Y-107823000D01*
G37*
X157734000Y-107823000D02*
X150495000Y-107823000D01*
X150495000Y-102616000D01*
X157734000Y-102616000D01*
X157734000Y-107823000D01*
M02*
